<?xml version="1.0" encoding="utf-8"?>
<!-- Generator: Adobe Illustrator 16.0.3, SVG Export Plug-In . SVG Version: 6.00 Build 0)  -->
<!DOCTYPE svg PUBLIC "-//W3C//DTD SVG 1.1//EN" "http://www.w3.org/Graphics/SVG/1.1/DTD/svg11.dtd">
<svg version="1.1" id="Capa_1" xmlns="http://www.w3.org/2000/svg" xmlns:xlink="http://www.w3.org/1999/xlink" x="0px" y="0px"
	 width="611px" height="180px" viewBox="0 0 611 180" enable-background="new 0 0 611 180" xml:space="preserve">
<g>
	<path fill="#EFA934" d="M209.628,87.668c-4.644-1.098-8.458-2.575-11.44-4.433l6.417-14.522c2.814,1.633,5.965,2.942,9.456,3.926
		c3.489,0.985,6.839,1.478,10.047,1.478c2.757,0,4.728-0.267,5.91-0.802c1.182-0.534,1.773-1.336,1.773-2.406
		c0-1.237-0.774-2.166-2.322-2.786c-1.549-0.619-4.095-1.294-7.641-2.026c-4.559-0.956-8.358-1.984-11.398-3.082
		s-5.686-2.898-7.937-5.403c-2.252-2.504-3.377-5.896-3.377-10.174c0-3.715,1.041-7.092,3.124-10.131
		c2.082-3.04,5.192-5.431,9.329-7.176c4.137-1.744,9.161-2.618,15.071-2.618c4.052,0,8.034,0.437,11.946,1.309
		c3.912,0.874,7.359,2.153,10.343,3.842L242.935,47.1c-5.798-2.926-11.286-4.39-16.463-4.39c-5.123,0-7.683,1.239-7.683,3.715
		c0,1.182,0.76,2.068,2.279,2.66c1.52,0.591,4.024,1.224,7.514,1.899c4.502,0.844,8.302,1.815,11.398,2.913
		c3.095,1.098,5.784,2.885,8.063,5.361c2.28,2.477,3.419,5.854,3.419,10.131c0,3.715-1.042,7.079-3.124,10.089
		c-2.083,3.012-5.192,5.403-9.329,7.176s-9.161,2.66-15.071,2.66C219.042,89.314,214.271,88.766,209.628,87.668z"/>
	<path fill="#EFA934" d="M267.377,85.726c-4.082-2.054-7.275-4.897-9.583-8.527c-2.309-3.63-3.461-7.753-3.461-12.369
		c0-4.615,1.153-8.739,3.461-12.369c2.308-3.63,5.501-6.458,9.583-8.485c4.08-2.026,8.682-3.04,13.804-3.04
		c5.178,0,9.807,1.013,13.888,3.04c4.081,2.026,7.261,4.854,9.541,8.485c2.28,3.63,3.419,7.754,3.419,12.369
		c0,4.616-1.139,8.738-3.419,12.369c-2.279,3.63-5.46,6.473-9.541,8.527c-4.082,2.055-8.71,3.082-13.888,3.082
		C276.059,88.808,271.458,87.781,267.377,85.726z M286.585,71.542c1.406-1.604,2.111-3.841,2.111-6.712s-0.705-5.094-2.111-6.67
		c-1.408-1.575-3.208-2.364-5.403-2.364c-2.195,0-3.998,0.789-5.404,2.364c-1.407,1.576-2.11,3.799-2.11,6.67
		s0.703,5.108,2.11,6.712c1.406,1.604,3.208,2.406,5.404,2.406C283.376,73.948,285.177,73.146,286.585,71.542z"/>
	<path fill="#EFA934" d="M334.625,44.313h10.047v13.931h-9.457v29.719h-19.08V58.245h-6.332V44.313h6.332v-0.253
		c0-6.022,1.801-10.792,5.403-14.311c3.601-3.517,8.667-5.276,15.196-5.276c2.139,0,4.223,0.198,6.248,0.591
		c2.027,0.395,3.715,0.958,5.066,1.688l-4.56,13.255c-1.576-0.731-3.012-1.098-4.306-1.098c-1.408,0-2.52,0.437-3.335,1.309
		c-0.817,0.874-1.224,2.21-1.224,4.011V44.313z"/>
	<path fill="#EFA934" d="M384.014,86.359c-2.87,1.632-6.783,2.448-11.734,2.448c-6.475,0-11.455-1.562-14.944-4.686
		c-3.491-3.124-5.235-7.81-5.235-14.058v-11.82h-6.332V44.313h6.332V31.396h19.082v12.917h9.455v13.931h-9.455v11.651
		c0,1.408,0.365,2.505,1.098,3.293c0.73,0.789,1.688,1.182,2.87,1.182c1.632,0,3.067-0.422,4.306-1.266L384.014,86.359z"/>
	<path fill="#EFA934" d="M466.838,41.781l-16.041,46.183h-18.574l-7.008-21.36l-7.261,21.36h-18.575l-16.041-46.183h18.068
		l7.936,24.4l8.274-24.4h16.21l8.021,24.653l8.273-24.653H466.838z"/>
	<path fill="#EFA934" d="M508.208,46.382c4.276,3.63,6.417,9.217,6.417,16.759v24.822h-17.73v-6.079
		c-2.195,4.616-6.558,6.923-13.086,6.923c-3.66,0-6.77-0.633-9.33-1.899c-2.563-1.267-4.504-2.983-5.826-5.15
		c-1.322-2.166-1.983-4.602-1.983-7.303c0-4.559,1.744-8.021,5.234-10.385c3.489-2.364,8.78-3.546,15.872-3.546h7.684
		c-0.62-3.602-3.518-5.403-8.695-5.403c-2.084,0-4.194,0.325-6.333,0.971c-2.14,0.648-3.968,1.535-5.487,2.66l-6.079-12.58
		c2.646-1.632,5.839-2.913,9.583-3.841c3.742-0.929,7.471-1.393,11.187-1.393C497.738,40.937,503.93,42.752,508.208,46.382z
		 M493.18,76.228c1.068-0.73,1.857-1.828,2.363-3.292v-3.208h-4.728c-3.884,0-5.825,1.295-5.825,3.884
		c0,1.07,0.407,1.957,1.225,2.66c0.814,0.705,1.927,1.055,3.334,1.055C490.9,77.325,492.109,76.96,493.18,76.228z"/>
	<path fill="#EFA934" d="M555.994,40.937v16.886c-1.52-0.224-2.928-0.338-4.222-0.338c-6.53,0-9.794,3.322-9.794,9.963v20.516
		h-19.08V41.781h18.151v4.981C544.428,42.878,549.408,40.937,555.994,40.937z"/>
	<path fill="#EFA934" d="M609.943,69.305H577.86c0.675,1.745,1.8,3.082,3.377,4.01c1.575,0.929,3.546,1.393,5.91,1.393
		c2.026,0,3.728-0.253,5.108-0.76c1.378-0.507,2.883-1.378,4.517-2.617l9.962,10.047c-4.504,4.954-11.229,7.43-20.178,7.43
		c-5.572,0-10.469-1.026-14.691-3.082c-4.221-2.054-7.486-4.91-9.793-8.57c-2.309-3.658-3.462-7.767-3.462-12.326
		c0-4.615,1.14-8.739,3.419-12.369c2.28-3.63,5.404-6.458,9.372-8.485s8.429-3.04,13.382-3.04c4.672,0,8.936,0.929,12.791,2.786
		s6.924,4.588,9.203,8.189c2.279,3.603,3.419,7.909,3.419,12.918C610.196,65.112,610.111,66.603,609.943,69.305z M580.055,55.542
		c-1.295,1.07-2.139,2.59-2.532,4.56h14.859c-0.395-1.913-1.239-3.419-2.532-4.517c-1.296-1.098-2.928-1.646-4.897-1.646
		C582.981,53.938,581.35,54.474,580.055,55.542z"/>
</g>
<g>
	<path fill="#EFA934" d="M211.696,108.902v25.244h31.492v3.883h-31.492v26.089h-4.306v-59.101h39.513v3.885H211.696z"/>
	<path fill="#EFA934" d="M284.812,123.888c2.926,2.786,4.391,6.881,4.391,12.284v27.946h-4.053v-7.853
		c-1.408,2.59-3.461,4.602-6.164,6.037c-2.702,1.436-5.939,2.153-9.709,2.153c-4.897,0-8.768-1.153-11.609-3.462
		c-2.843-2.307-4.264-5.347-4.264-9.118c0-3.658,1.309-6.628,3.926-8.907s6.796-3.42,12.538-3.42h15.113v-3.545
		c0-4.108-1.112-7.232-3.335-9.372c-2.224-2.139-5.475-3.208-9.751-3.208c-2.927,0-5.728,0.506-8.401,1.52
		c-2.674,1.014-4.939,2.363-6.796,4.053l-2.111-3.039c2.195-1.971,4.84-3.504,7.937-4.602c3.095-1.098,6.332-1.646,9.709-1.646
		C277.69,119.709,281.884,121.102,284.812,123.888z M279.197,158.461c2.561-1.688,4.488-4.137,5.783-7.345v-8.274h-15.028
		c-4.335,0-7.472,0.789-9.414,2.364c-1.942,1.577-2.913,3.744-2.913,6.501c0,2.871,1.069,5.137,3.208,6.797
		c2.138,1.66,5.15,2.49,9.034,2.49C273.526,160.994,276.635,160.15,279.197,158.461z"/>
	<path fill="#EFA934" d="M312.588,161.586c-3.377-1.914-6.023-4.572-7.936-7.979c-1.915-3.405-2.871-7.247-2.871-11.525
		c0-4.334,0.956-8.203,2.871-11.609c1.912-3.404,4.559-6.049,7.936-7.936c3.377-1.885,7.204-2.828,11.482-2.828
		c3.546,0,6.768,0.689,9.667,2.068c2.898,1.38,5.248,3.392,7.05,6.037l-3.124,2.279c-1.576-2.195-3.532-3.842-5.868-4.939
		s-4.91-1.646-7.725-1.646c-3.434,0-6.516,0.774-9.245,2.322c-2.73,1.549-4.869,3.729-6.417,6.543
		c-1.549,2.814-2.321,6.051-2.321,9.709c0,3.66,0.772,6.896,2.321,9.709c1.548,2.816,3.687,4.996,6.417,6.544
		c2.729,1.548,5.812,2.321,9.245,2.321c2.814,0,5.389-0.549,7.725-1.646s4.292-2.744,5.868-4.938l3.124,2.279
		c-1.802,2.646-4.151,4.658-7.05,6.036c-2.899,1.381-6.121,2.069-9.667,2.069C319.792,164.456,315.965,163.5,312.588,161.586z"/>
	<path fill="#EFA934" d="M375.824,161.332c-1.07,1.014-2.406,1.787-4.01,2.322c-1.604,0.533-3.279,0.802-5.023,0.802
		c-3.829,0-6.783-1.056-8.865-3.166c-2.084-2.11-3.124-5.052-3.124-8.823v-28.79h-8.105v-3.63h8.105v-9.625h4.222v9.625h14.015v3.63
		h-14.015v28.368c0,2.871,0.688,5.053,2.068,6.543c1.379,1.492,3.419,2.238,6.121,2.238c2.757,0,5.037-0.816,6.838-2.449
		L375.824,161.332z"/>
	<path fill="#EFA934" d="M391.908,161.586c-3.35-1.914-5.981-4.572-7.895-7.979c-1.914-3.405-2.87-7.247-2.87-11.525
		c0-4.277,0.956-8.118,2.87-11.524c1.913-3.405,4.545-6.064,7.895-7.979c3.348-1.913,7.105-2.87,11.271-2.87
		c4.164,0,7.922,0.957,11.271,2.87c3.348,1.914,5.979,4.573,7.894,7.979c1.913,3.406,2.87,7.247,2.87,11.524
		c0,4.278-0.957,8.12-2.87,11.525c-1.914,3.406-4.546,6.064-7.894,7.979c-3.35,1.914-7.107,2.87-11.271,2.87
		C399.014,164.456,395.256,163.5,391.908,161.586z M412.256,158.293c2.672-1.576,4.783-3.771,6.332-6.586
		c1.547-2.814,2.321-6.021,2.321-9.625c0-3.602-0.774-6.81-2.321-9.625c-1.549-2.813-3.66-5.009-6.332-6.585
		c-2.674-1.575-5.699-2.364-9.076-2.364s-6.404,0.789-9.076,2.364c-2.674,1.576-4.785,3.771-6.332,6.585
		c-1.549,2.815-2.322,6.023-2.322,9.625c0,3.604,0.773,6.811,2.322,9.625c1.547,2.815,3.658,5.01,6.332,6.586
		c2.672,1.576,5.699,2.363,9.076,2.363S409.582,159.869,412.256,158.293z"/>
	<path fill="#EFA934" d="M448.686,122.283c2.871-1.716,6.359-2.574,10.469-2.574v4.137l-1.013-0.084
		c-4.896,0-8.726,1.533-11.481,4.602c-2.76,3.068-4.138,7.332-4.138,12.79v22.965h-4.222v-44.071h4.053v9.625
		C443.705,126.463,445.814,124.002,448.686,122.283z"/>
	<path fill="#EFA934" d="M508.208,120.047l-22.627,50.066c-1.688,3.883-3.646,6.641-5.868,8.273
		c-2.224,1.632-4.854,2.448-7.894,2.448c-2.026,0-3.927-0.337-5.699-1.013s-3.278-1.661-4.517-2.955l2.11-3.209
		c2.251,2.308,4.981,3.462,8.189,3.462c2.139,0,3.968-0.591,5.488-1.772c1.52-1.183,2.926-3.209,4.222-6.079l2.363-5.319
		l-19.84-43.902h4.475l17.645,39.428l17.646-39.428H508.208z"/>
</g>
<g>
	<defs>
		<rect id="SVGID_1_" x="-207.867" y="-115.689" width="1920" height="1080"/>
	</defs>
	<clipPath id="SVGID_2_">
		<use xlink:href="#SVGID_1_"  overflow="visible"/>
	</clipPath>
	<path clip-path="url(#SVGID_2_)" fill="#EFA934" d="M156.326,153.186h-30.58c-2.014-16.453-16.915-28.207-33.384-26.334
		l-42.267-42.26c-0.089-0.978-0.238-1.95-0.444-2.911l38.682-42.21c3.635-0.038,7.181-1.127,10.21-3.134l11.168,11.168
		c-1.098,1.744-6.821,23.432-6.821,23.432c-3.396,13.567,4.849,27.319,18.416,30.716c6.925,1.732,14.259,0.463,20.197-3.496
		c4.269-2.852,5.417-8.623,2.567-12.89c-1.149-1.719-2.837-3.006-4.798-3.658l-9.475-3.161v-5.893
		c4.815-1.719,8.604-5.508,10.324-10.323h5.892l3.161,9.475c1.625,4.868,6.888,7.497,11.756,5.872
		c1.959-0.653,3.645-1.941,4.79-3.659c7.741-11.651,4.572-27.37-7.078-35.112c-5.923-3.935-13.228-5.199-20.128-3.483
		c0,0-21.689,5.738-23.433,6.822l-11.179-11.169c5.802-8.709,3.445-20.473-5.264-26.275c-8.709-5.802-20.474-3.446-26.276,5.264
		c-2.045,3.069-3.15,6.669-3.178,10.358L23.339,62.346C9.797,63.653-0.121,75.689,1.186,89.231
		c1.131,11.722,10.4,21.003,22.119,22.151l41.797,41.803H35.053c-10.46,0.014-18.936,8.49-18.949,18.949
		c0,4.186,3.394,7.58,7.58,7.58h144.011c4.185,0,7.579-3.395,7.579-7.58C175.262,161.676,166.786,153.199,156.326,153.186
		 M118.087,153.186H73.292c2.08-12.369,13.794-20.711,26.164-18.629C109.002,136.16,116.482,143.641,118.087,153.186
		 M67.778,145.145l-34.79-34.783c7.658-2.43,13.657-8.43,16.088-16.087l34.789,34.79C76.63,132.15,70.866,137.91,67.778,145.145
		 M33.291,63.494l37.837-34.68c1.855,3.795,4.922,6.862,8.717,8.717l-33.35,36.381c-3.044-4.906-7.711-8.592-13.189-10.418H33.291z
		 M136.876,88.799c0.894,0.304,1.371,1.275,1.068,2.169c-0.12,0.351-0.351,0.653-0.658,0.862c-8.155,5.438-19.174,3.234-24.612-4.92
		c-2.775-4.161-3.665-9.301-2.451-14.153l1.228-4.908c2.779,3.119,6.614,5.1,10.766,5.559v7.773
		c0.002,1.631,1.046,3.078,2.593,3.593L136.876,88.799z M124.113,66.021c-5.233,0-9.475-4.242-9.475-9.474
		c0-5.233,4.242-9.475,9.475-9.475c5.232,0,9.474,4.242,9.474,9.475C133.587,61.78,129.345,66.021,124.113,66.021 M140.336,42.658
		c9.512-2.375,19.148,3.412,21.523,12.923c1.21,4.848,0.321,9.981-2.448,14.14c-0.531,0.781-1.594,0.984-2.374,0.454
		c-0.308-0.209-0.539-0.512-0.659-0.864l-4.024-12.066c-0.518-1.552-1.972-2.598-3.608-2.592h-7.773
		c-0.455-4.151-2.43-7.986-5.544-10.767L140.336,42.658z M88.11,9.176c6.279,0,11.369,5.09,11.369,11.369
		c0,6.279-5.09,11.369-11.369,11.369s-11.369-5.09-11.369-11.369C76.741,14.266,81.831,9.176,88.11,9.176 M8.525,86.865
		c0-9.418,7.636-17.053,17.054-17.053s17.054,7.635,17.054,17.053c0,9.418-7.636,17.055-17.054,17.055
		C16.164,103.908,8.536,96.279,8.525,86.865 M23.684,172.135c0-6.279,5.09-11.369,11.369-11.369h121.273
		c6.272,0.016,11.354,5.096,11.369,11.369H23.684z"/>
	<path clip-path="url(#SVGID_2_)" fill="#EFA934" d="M25.579,81.181c3.14,0,5.685,2.545,5.685,5.685
		c0,3.139-2.545,5.684-5.685,5.684c-3.14,0-5.685-2.545-5.685-5.684C19.894,83.726,22.439,81.181,25.579,81.181"/>
</g>
</svg>
