<?xml version="1.0" encoding="utf-8"?>
<!-- Generator: Adobe Illustrator 16.0.3, SVG Export Plug-In . SVG Version: 6.00 Build 0)  -->
<!DOCTYPE svg PUBLIC "-//W3C//DTD SVG 1.1//EN" "http://www.w3.org/Graphics/SVG/1.1/DTD/svg11.dtd">
<svg version="1.1" id="Capa_1" xmlns="http://www.w3.org/2000/svg" xmlns:xlink="http://www.w3.org/1999/xlink" x="0px" y="0px"
	 width="122px" height="122px" viewBox="0 0 122 122" enable-background="new 0 0 122 122" xml:space="preserve">
<path fill="#FFFFFF" d="M51.537,16.997c0,9.131,7.43,16.561,16.561,16.561c9.131,0,16.561-7.43,16.561-16.561
	S77.229,0.436,68.098,0.436C58.966,0.436,51.537,7.866,51.537,16.997 M68.098,5.167c6.521,0,11.828,5.306,11.828,11.829
	s-5.307,11.829-11.828,11.829c-6.522,0-11.829-5.306-11.829-11.829S61.575,5.167,68.098,5.167"/>
<path fill="#FFFFFF" d="M119.199,23.147c-18.697,0-28.428,9.356-37.838,18.404c-0.939,0.903-1.904,1.831-2.871,2.741
	c-10.858-0.723-18.804-3.512-24.547-5.883c-1.208-0.5-2.591,0.074-3.09,1.282s0.076,2.591,1.283,3.091
	c5.263,2.174,12.276,4.678,21.55,5.81c-6.559,5.467-14.5,10.042-26.88,10.042H5.167V27.912c12.189,0.337,20.753,3.241,27.57,6.085
	c1.207,0.504,2.592-0.066,3.095-1.272s-0.067-2.592-1.273-3.095c-7.682-3.205-17.463-6.482-31.758-6.482
	c-1.306,0-2.365,1.06-2.365,2.366v93.686c0,1.307,1.059,2.366,2.365,2.366h116.398c1.306,0,2.365-1.06,2.365-2.366V25.514
	C121.564,24.208,120.505,23.147,119.199,23.147 M116.834,83.558l-14.744-20.19h14.744V83.558z M84.641,44.963
	c8.698-8.363,16.938-16.284,32.193-17.027v30.699H67.221C74.025,55.133,79.14,50.252,84.641,44.963 M77.289,116.834l-6.52-53.467
	h10.355l19.996,53.467H77.289z M20.88,116.834l19.996-53.467H51.23l-6.52,53.467H20.88z M55.998,63.367h10.004l6.521,53.467H49.478
	L55.998,63.367z M5.167,63.367H19.91L5.167,83.558V63.367z M5.167,91.582l20.602-28.215h10.055l-19.995,53.467H5.167V91.582z
	 M106.172,116.834L86.176,63.367h10.056l20.603,28.215v25.252H106.172z"/>
<path fill="#FFFFFF" d="M43.257,34.03c1.307,0,2.366,1.059,2.366,2.366c0,1.306-1.059,2.365-2.366,2.365
	c-1.307,0-2.366-1.06-2.366-2.365C40.891,35.089,41.95,34.03,43.257,34.03"/>
</svg>
