<?xml version="1.0" encoding="utf-8"?>
<!-- Generator: Adobe Illustrator 16.0.3, SVG Export Plug-In . SVG Version: 6.00 Build 0)  -->
<!DOCTYPE svg PUBLIC "-//W3C//DTD SVG 1.1//EN" "http://www.w3.org/Graphics/SVG/1.1/DTD/svg11.dtd">
<svg version="1.1" id="Capa_1" xmlns="http://www.w3.org/2000/svg" xmlns:xlink="http://www.w3.org/1999/xlink" x="0px" y="0px"
	 width="119px" height="119px" viewBox="0 0 119 119" enable-background="new 0 0 119 119" xml:space="preserve">
<path fill="#FFFFFF" d="M15.85,10.608c0.964,0,1.746-0.782,1.746-1.746V4.765c0-0.674,0.548-1.222,1.224-1.222h11.522
	c0.674,0,1.222,0.548,1.222,1.222v4.097c0,0.964,0.782,1.746,1.746,1.746c0.965,0,1.746-0.782,1.746-1.746V4.765
	c0-2.599-2.115-4.714-4.714-4.714H18.82c-2.601,0-4.716,2.115-4.716,4.714v4.097C14.104,9.826,14.886,10.608,15.85,10.608"/>
<path fill="#FFFFFF" d="M114.238,82.364H38.169l1.524-1.522c0.681-0.683,0.681-1.789,0-2.471c-0.683-0.681-1.788-0.682-2.47,0
	l-2.168,2.167V40.291c0-0.965-0.78-1.747-1.745-1.747s-1.746,0.782-1.746,1.747V84.03l-2.479,2.479
	c-0.682,0.681-0.682,1.787,0,2.469c0.341,0.341,0.787,0.511,1.234,0.511c0.446,0,0.894-0.17,1.235-0.511l3.121-3.122h79.561
	c0.674,0,1.221,0.548,1.221,1.222v11.524c0,0.674-0.547,1.222-1.221,1.222H24.581c-1.124,0-2.187-0.269-3.129-0.742l1.967-1.967
	c0.683-0.682,0.683-1.788,0-2.469c-0.682-0.682-1.787-0.682-2.469,0l-2.133,2.133c-0.77-1.123-1.221-2.479-1.221-3.939V59.116
	c0-0.964-0.781-1.746-1.745-1.746c-0.966,0-1.746,0.782-1.746,1.746V92.84c0,2.424,0.828,4.657,2.217,6.435l-3.51,3.509
	c-0.683,0.683-0.683,1.788,0,2.469c0.341,0.341,0.787,0.513,1.234,0.513s0.895-0.172,1.235-0.513l3.617-3.616
	c1.638,1.062,3.589,1.682,5.682,1.682h89.658c2.598,0,4.713-2.115,4.713-4.715V87.079C118.951,84.479,116.836,82.364,114.238,82.364
	"/>
<path fill="#FFFFFF" d="M14.104,40.291v11.384c0,0.965,0.781,1.746,1.746,1.746c0.964,0,1.746-0.781,1.746-1.746V40.291
	c0-0.964-0.782-1.746-1.746-1.746C14.885,38.545,14.104,39.327,14.104,40.291"/>
<path fill="#FFFFFF" d="M4.769,35.053h75.774l-2.633,2.633c-0.684,0.681-0.684,1.787,0,2.469c0.34,0.34,0.787,0.511,1.234,0.511
	s0.895-0.17,1.234-0.511l1.99-1.99v19.134c0,0.964,0.781,1.746,1.746,1.746s1.746-0.782,1.746-1.746V34.673l2.654-2.656
	c0.684-0.682,0.684-1.787,0-2.469c-0.682-0.682-1.787-0.682-2.469,0l-2.012,2.013H4.769c-0.674,0-1.222-0.549-1.222-1.222V18.814
	c0-0.674,0.548-1.222,1.222-1.222h88.075c1.461,0,2.816,0.45,3.939,1.219l-2.6,2.599c-0.682,0.682-0.682,1.788,0,2.469
	c0.342,0.341,0.789,0.512,1.236,0.512c0.445,0,0.893-0.171,1.234-0.512l2.432-2.432c0.475,0.942,0.744,2.004,0.744,3.128v52.549
	c0,0.965,0.781,1.746,1.746,1.746c0.963,0,1.746-0.781,1.746-1.746V24.577c0-2.094-0.621-4.044-1.684-5.682l3.152-3.152
	c0.682-0.682,0.682-1.787,0-2.469c-0.682-0.682-1.787-0.682-2.469,0l-3.043,3.043c-1.777-1.387-4.012-2.216-6.434-2.216H4.769
	c-2.599,0-4.715,2.114-4.715,4.714v11.524C0.055,32.938,2.17,35.053,4.769,35.053"/>
<path fill="#FFFFFF" d="M84.115,62.993c-0.965,0-1.746,0.782-1.746,1.746v12.388c0,0.963,0.781,1.745,1.746,1.745
	c0.963,0,1.746-0.782,1.746-1.745V64.739C85.861,63.775,85.078,62.993,84.115,62.993"/>
<path fill="#FFFFFF" d="M101.576,106.809c-0.967,0-1.746,0.782-1.746,1.746v5.679c0,0.674-0.549,1.223-1.225,1.223H87.084
	c-0.674,0-1.225-0.549-1.225-1.223v-5.679c0-0.964-0.779-1.746-1.744-1.746s-1.746,0.782-1.746,1.746v5.679
	c0,2.6,2.113,4.715,4.715,4.715h11.521c2.602,0,4.717-2.115,4.717-4.715v-5.679C103.322,107.591,102.539,106.809,101.576,106.809"/>
<path fill="#FFFFFF" d="M4.674,110.921l-4.114,4.114c-0.683,0.683-0.683,1.788,0,2.47c0.341,0.342,0.787,0.512,1.234,0.512
	c0.446,0,0.894-0.17,1.234-0.512l4.116-4.115c0.682-0.682,0.682-1.787,0-2.469C6.462,110.238,5.357,110.238,4.674,110.921"/>
<path fill="#FFFFFF" d="M69.773,45.822l-8.137,8.137c-0.684,0.682-0.684,1.788,0,2.469c0.34,0.342,0.785,0.512,1.232,0.512
	s0.895-0.17,1.236-0.512l8.137-8.137c0.682-0.682,0.682-1.787,0-2.469C71.561,45.141,70.455,45.141,69.773,45.822"/>
<path fill="#FFFFFF" d="M53.499,62.097l-8.138,8.138c-0.682,0.682-0.682,1.787,0,2.469c0.342,0.341,0.788,0.512,1.235,0.512
	c0.446,0,0.893-0.17,1.235-0.512l8.137-8.137c0.682-0.683,0.682-1.787,0-2.47C55.285,61.415,54.18,61.415,53.499,62.097"/>
<path fill="#FFFFFF" d="M111.693,8.117c0.447,0,0.895-0.17,1.236-0.511l4.113-4.116c0.684-0.682,0.684-1.788,0-2.469
	c-0.682-0.682-1.787-0.682-2.469,0l-4.115,4.115c-0.682,0.682-0.682,1.788,0,2.47C110.799,7.946,111.246,8.117,111.693,8.117"/>
</svg>
