<?xml version="1.0" encoding="utf-8"?>
<!-- Generator: Adobe Illustrator 16.0.3, SVG Export Plug-In . SVG Version: 6.00 Build 0)  -->
<!DOCTYPE svg PUBLIC "-//W3C//DTD SVG 1.1//EN" "http://www.w3.org/Graphics/SVG/1.1/DTD/svg11.dtd">
<svg version="1.1" id="Capa_1" xmlns="http://www.w3.org/2000/svg" xmlns:xlink="http://www.w3.org/1999/xlink" x="0px" y="0px"
	 width="124px" height="124px" viewBox="0 0 124 124" enable-background="new 0 0 124 124" xml:space="preserve">
<path fill="#FFFFFF" d="M113.361,16.804H10.64c-5.673,0-10.272,4.598-10.272,10.271v61.632c0,5.674,4.599,10.272,10.272,10.272
	h32.87v12.326h-6.163c-3.4,0.01-6.153,2.763-6.163,6.163v4.108c0,1.136,0.92,2.056,2.054,2.056h57.523
	c1.135,0,2.055-0.92,2.055-2.056v-4.108c-0.01-3.4-2.764-6.153-6.162-6.163H80.49V98.979h32.871c5.672,0,10.271-4.599,10.271-10.272
	V27.075C123.633,21.401,119.033,16.804,113.361,16.804 M86.654,115.414c1.133,0,2.053,0.92,2.053,2.055v2.054H35.293v-2.054
	c0-1.135,0.919-2.055,2.054-2.055H86.654z M47.619,98.979h28.762v12.326H47.619V98.979z M119.523,88.707
	c-0.01,3.399-2.764,6.152-6.162,6.163H10.64c-3.4-0.011-6.153-2.764-6.163-6.163v-2.055h115.046V88.707z M119.523,82.543H4.478
	V27.075c0.01-3.399,2.763-6.152,6.163-6.164h102.721c3.398,0.012,6.152,2.765,6.162,6.164V82.543z"/>
<path fill="#FFFFFF" d="M109.252,49.673c-2.604,0.015-4.92,1.656-5.793,4.11H84.496C83.307,41.358,72.273,32.25,59.847,33.439
	c-10.779,1.03-19.312,9.563-20.343,20.344H20.542c-1.135-3.21-4.656-4.893-7.865-3.757c-3.209,1.135-4.891,4.655-3.756,7.864
	c1.134,3.21,4.655,4.892,7.865,3.758c1.755-0.621,3.135-2.002,3.756-3.758h18.962c1.189,12.425,12.224,21.532,24.648,20.345
	c10.779-1.032,19.313-9.565,20.344-20.345h18.963c1.133,3.21,4.656,4.892,7.865,3.757s4.891-4.655,3.756-7.864
	C114.207,51.314,111.869,49.666,109.252,49.673 M14.75,57.891c-1.135,0-2.055-0.92-2.055-2.055c0-1.133,0.92-2.053,2.055-2.053
	c1.134,0,2.054,0.92,2.054,2.053C16.803,56.971,15.883,57.891,14.75,57.891 M73.607,41.455c-0.918,0.748-1.91,1.401-2.957,1.953
	c-0.455-1.638-1.068-3.228-1.83-4.746C70.545,39.354,72.158,40.294,73.607,41.455 M62,37.347c1.562,0,3.554,2.773,4.847,7.562
	c-3.172,0.876-6.524,0.876-9.696,0C58.447,40.12,60.439,37.347,62,37.347 M47.497,44.395c1.502,1.249,3.159,2.298,4.93,3.121
	c-0.355,2.072-0.575,4.166-0.657,6.268h-8.135C44.014,50.353,45.354,47.099,47.497,44.395 M43.634,57.891h8.135
	c0.082,2.102,0.302,4.194,0.657,6.267c-1.771,0.824-3.428,1.874-4.93,3.123C45.354,64.575,44.014,61.321,43.634,57.891
	 M50.392,70.217c0.92-0.746,1.911-1.399,2.959-1.951c0.454,1.638,1.067,3.228,1.828,4.745
	C53.456,72.321,51.842,71.379,50.392,70.217 M53.351,43.408c-1.048-0.552-2.039-1.205-2.959-1.953
	c1.45-1.161,3.063-2.102,4.787-2.793C54.418,40.181,53.805,41.771,53.351,43.408 M62,74.327c-1.562,0-3.554-2.774-4.849-7.562
	c3.172-0.877,6.524-0.877,9.696,0C65.555,71.553,63.563,74.327,62,74.327 M67.67,62.74c-3.715-0.987-7.625-0.987-11.339,0
	c-0.244-1.607-0.396-3.227-0.452-4.85h12.245C68.064,59.514,67.914,61.133,67.67,62.74 M55.878,53.783
	c0.057-1.624,0.208-3.243,0.452-4.849c3.715,0.985,7.625,0.985,11.339,0c0.244,1.605,0.395,3.225,0.453,4.849H55.878z M68.82,73.011
	c0.762-1.518,1.375-3.107,1.83-4.745c1.047,0.552,2.039,1.205,2.957,1.951C72.158,71.379,70.545,72.321,68.82,73.011 M76.504,67.28
	c-1.502-1.249-3.158-2.299-4.93-3.123c0.354-2.072,0.574-4.165,0.658-6.267h8.135C79.986,61.321,78.648,64.575,76.504,67.28
	 M72.232,53.783c-0.084-2.102-0.305-4.195-0.658-6.268c1.771-0.823,3.428-1.872,4.93-3.121c2.145,2.704,3.482,5.958,3.863,9.389
	H72.232z M109.252,57.891c-1.135,0-2.055-0.92-2.055-2.055c0-1.133,0.92-2.053,2.055-2.053s2.053,0.92,2.053,2.053
	C111.305,56.971,110.387,57.891,109.252,57.891"/>
<path fill="#FFFFFF" d="M62,4.477c4.907-0.012,9.614,1.938,13.073,5.418l2.904-2.904c-8.816-8.825-23.118-8.83-31.94-0.014
	c-0.005,0.005-0.009,0.009-0.013,0.014l2.905,2.904C52.387,6.415,57.094,4.465,62,4.477"/>
<path fill="#FFFFFF" d="M51.831,12.809l2.917,2.894c4-4.005,10.486-4.01,14.492-0.012c0.004,0.004,0.008,0.008,0.012,0.012
	l2.918-2.894c-5.596-5.615-14.684-5.634-20.3-0.037L51.831,12.809z"/>
<rect x="59.945" y="25.021" fill="#FFFFFF" width="4.11" height="4.108"/>
</svg>
