<?xml version="1.0" encoding="utf-8"?>
<!-- Generator: Adobe Illustrator 16.0.3, SVG Export Plug-In . SVG Version: 6.00 Build 0)  -->
<!DOCTYPE svg PUBLIC "-//W3C//DTD SVG 1.1//EN" "http://www.w3.org/Graphics/SVG/1.1/DTD/svg11.dtd">
<svg version="1.1" id="Capa_1" xmlns="http://www.w3.org/2000/svg" xmlns:xlink="http://www.w3.org/1999/xlink" x="0px" y="0px"
	 width="78px" height="78px" viewBox="0 0 78 78" enable-background="new 0 0 78 78" xml:space="preserve">
<path fill="#FFFFFF" d="M46.11,9.607c-0.813-0.195-1.628,0.305-1.824,1.115c-0.196,0.813,0.303,1.628,1.116,1.823
	C57.655,15.5,66.213,26.378,66.213,39c0,15.003-12.207,27.212-27.213,27.212c-15.005,0-27.212-12.209-27.212-27.212
	c0-12.622,8.557-23.499,20.81-26.454c0.813-0.196,1.312-1.012,1.116-1.824c-0.196-0.811-1.014-1.31-1.825-1.115
	c-6.481,1.563-12.355,5.312-16.537,10.553C11.042,25.56,8.764,32.076,8.764,39c0,16.671,13.564,30.236,30.236,30.236
	c16.673,0,30.236-13.564,30.236-30.236c0-6.925-2.278-13.441-6.588-18.842C58.466,14.917,52.593,11.169,46.11,9.607"/>
<path fill="#FFFFFF" d="M76.791,35.364l-1.768-3.3l0.295-4.079c0.283-2.615-0.76-5.167-2.794-6.831l-2.937-2.405l-1.154-3.478
	c-0.647-2.66-2.667-4.799-5.288-5.591l-3.624-1.095l-2.776-3.208c-1.642-1.931-4.127-2.936-6.648-2.688l-3.762,0.374l-3.697-1.855
	c-2.278-1.214-4.995-1.215-7.274,0l-3.299,1.769l-4.08-0.295c-2.616-0.283-5.167,0.76-6.831,2.793l-2.404,2.938l-3.479,1.154
	c-2.66,0.646-4.798,2.667-5.59,5.288l-1.095,3.624l-3.208,2.774c-1.932,1.644-2.937,4.128-2.688,6.65l0.375,3.761l-1.855,3.698
	c-1.215,2.277-1.216,4.995-0.001,7.274l1.77,3.301l-0.295,4.078c-0.283,2.615,0.76,5.166,2.794,6.83l2.935,2.404l1.156,3.48
	c0.646,2.658,2.666,4.799,5.288,5.59l3.623,1.094l2.775,3.209c1.643,1.93,4.127,2.936,6.649,2.689l3.761-0.375l3.698,1.854
	c1.139,0.607,2.389,0.912,3.638,0.912c1.248,0,2.497-0.303,3.637-0.912l3.3-1.768l4.079,0.295c2.614,0.283,5.167-0.76,6.831-2.793
	l2.403-2.938l3.48-1.154c2.659-0.646,4.797-2.668,5.589-5.287l1.095-3.625l3.208-2.775c1.931-1.641,2.938-4.127,2.689-6.65
	l-0.375-3.76l1.854-3.697C78.006,40.359,78.008,37.642,76.791,35.364 M74.116,41.227c-0.006,0.014-0.013,0.025-0.019,0.037
	l-2.061,4.107c-0.129,0.256-0.182,0.543-0.152,0.828l0.418,4.195c0.15,1.533-0.461,3.049-1.648,4.057l-3.55,3.07
	c-0.216,0.188-0.375,0.434-0.458,0.705l-1.221,4.045c-0.487,1.611-1.811,2.852-3.453,3.234c-0.045,0.01-0.09,0.023-0.134,0.037
	l-3.956,1.314c-0.271,0.09-0.513,0.256-0.693,0.477l-2.682,3.275c-1.02,1.246-2.585,1.881-4.186,1.699
	c-0.02-0.002-0.04-0.004-0.06-0.004l-4.546-0.33c-0.285-0.02-0.57,0.041-0.822,0.178l-3.684,1.973
	c-1.389,0.742-3.049,0.738-4.438-0.008c-0.013-0.006-0.024-0.014-0.037-0.02l-4.106-2.061c-0.212-0.105-0.443-0.16-0.679-0.16
	c-0.049,0-0.099,0.002-0.149,0.006l-4.195,0.42c-1.533,0.152-3.047-0.463-4.057-1.648l-3.07-3.549
	c-0.188-0.217-0.433-0.375-0.706-0.459l-4.043-1.221c-1.613-0.486-2.853-1.811-3.235-3.453c-0.01-0.045-0.022-0.09-0.037-0.133
	l-1.313-3.957c-0.09-0.271-0.255-0.512-0.478-0.693l-3.274-2.684c-1.245-1.018-1.881-2.582-1.701-4.184
	c0.003-0.02,0.004-0.039,0.006-0.061l0.328-4.545c0.021-0.285-0.04-0.57-0.175-0.822l-1.975-3.684
	c-0.74-1.388-0.737-3.047,0.008-4.438c0.008-0.013,0.014-0.024,0.021-0.037l2.06-4.107c0.129-0.255,0.182-0.543,0.153-0.827
	l-0.418-4.195c-0.151-1.534,0.461-3.048,1.647-4.057l3.55-3.07c0.217-0.188,0.375-0.433,0.458-0.706l1.221-4.043
	c0.488-1.612,1.811-2.853,3.453-3.235c0.045-0.01,0.089-0.023,0.133-0.038l3.957-1.313c0.272-0.09,0.512-0.256,0.693-0.478
	l2.683-3.275c1.02-1.244,2.583-1.88,4.185-1.699l0.061,0.006l4.544,0.328c0.285,0.02,0.571-0.04,0.823-0.176l3.683-1.975
	c1.39-0.74,3.049-0.737,4.439,0.009c0.012,0.006,0.023,0.014,0.037,0.02l4.106,2.06c0.256,0.128,0.542,0.183,0.828,0.154
	l4.195-0.419c1.533-0.151,3.047,0.462,4.056,1.647l3.071,3.551c0.187,0.217,0.432,0.375,0.706,0.458l4.043,1.222
	c1.612,0.486,2.852,1.809,3.234,3.452c0.011,0.045,0.023,0.09,0.038,0.134l1.313,3.956c0.091,0.271,0.256,0.512,0.477,0.692
	l3.276,2.684c1.245,1.018,1.881,2.583,1.7,4.184c-0.002,0.021-0.004,0.04-0.005,0.061l-0.329,4.545
	c-0.021,0.286,0.04,0.571,0.175,0.823l1.975,3.684C74.866,38.178,74.863,39.837,74.116,41.227"/>
<path fill="#FFFFFF" d="M32.438,30.763c-0.242-0.511-0.761-0.866-1.365-0.866h-7.987c-0.835,0-1.512,0.677-1.512,1.512v22.884
	c0,0.836,0.677,1.512,1.512,1.512h7.987c0.627,0,1.164-0.381,1.395-0.924c1.151,0.162,2.339,0.488,3.575,0.832
	c1.858,0.514,3.779,1.047,5.775,1.047h8.729c2.697,0,4.884-1.432,5.848-3.826c0.47-1.168,0.552-2.379,0.278-3.395
	c0.502-0.451,0.926-1.014,1.246-1.67c0.65-1.328,0.78-2.822,0.411-4.082c0.688-0.662,1.2-1.541,1.468-2.572
	c0.251-0.967,0.246-1.919,0.023-2.746c1.364-0.802,2.282-2.26,2.282-3.902c0-1.288-0.501-2.474-1.413-3.341
	c-0.874-0.832-2.039-1.291-3.278-1.291H45.109c-0.934-1.172-1.225-2.763-0.692-4.044c1.092-2.628,1.023-4.854-0.22-7.214
	c-0.923-1.752-3.404-3.496-5.49-3.199c-1.262,0.181-2.175,1.072-2.441,2.385c-0.079,0.387-0.102,0.804-0.125,1.286
	c-0.063,1.193-0.146,2.825-1.176,4.796c-0.697,1.336-0.93,2.711-1.135,3.923C33.535,29.605,33.393,30.442,32.438,30.763
	 M24.598,32.921h4.964v19.86h-4.964V32.921z M36.811,28.373c0.176-1.039,0.358-2.115,0.834-3.027
	c1.334-2.557,1.448-4.737,1.516-6.039c0.018-0.347,0.034-0.675,0.067-0.839c0-0.001,0.001-0.003,0.001-0.004
	c0.525,0.008,1.815,0.716,2.294,1.624c0.828,1.57,0.855,2.83,0.103,4.644c-0.68,1.635-0.629,3.534,0.044,5.221
	c-0.736,0.103-1.303,0.732-1.303,1.495c0,0.835,0.677,1.513,1.512,1.513h15.534c0.461,0,0.885,0.161,1.194,0.457
	c0.216,0.204,0.474,0.571,0.474,1.15c0,0.812-0.743,1.512-1.623,1.532l-3.893,0.085c-0.834,0.017-1.496,0.709-1.478,1.543
	c0.018,0.825,0.69,1.48,1.511,1.48c0.011,0,0.021,0,0.033-0.002l3.24-0.069c0.106,0.3,0.161,0.872-0.061,1.524
	c-0.189,0.559-0.699,1.49-1.978,1.49c-0.835,0-1.512,0.678-1.512,1.512c0,0.836,0.677,1.514,1.512,1.514
	c0.229,0,0.454-0.016,0.675-0.043c0.018,0.428-0.07,0.93-0.305,1.41c-0.277,0.566-0.826,1.242-1.863,1.242
	c-0.835,0-1.512,0.678-1.512,1.512c0,0.836,0.677,1.514,1.512,1.514c0.156,0,0.311-0.008,0.464-0.023
	c-0.004,0.291-0.063,0.654-0.228,1.051c-0.237,0.57-1.008,1.896-3.029,1.896h-8.728c-1.586,0-3.229-0.455-4.969-0.936
	c-1.385-0.383-2.805-0.777-4.265-0.951V33.822C35.989,33.206,36.459,30.45,36.811,28.373"/>
<path fill="#FFFFFF" d="M39,11.787c0.835,0,1.512-0.677,1.512-1.512S39.835,8.764,39,8.764h-0.001c-0.835,0-1.511,0.676-1.511,1.511
	S38.165,11.787,39,11.787"/>
</svg>
