<?xml version="1.0" encoding="utf-8"?>
<!-- Generator: Adobe Illustrator 16.0.3, SVG Export Plug-In . SVG Version: 6.00 Build 0)  -->
<!DOCTYPE svg PUBLIC "-//W3C//DTD SVG 1.1//EN" "http://www.w3.org/Graphics/SVG/1.1/DTD/svg11.dtd">
<svg version="1.1" id="Capa_1" xmlns="http://www.w3.org/2000/svg" xmlns:xlink="http://www.w3.org/1999/xlink" x="0px" y="0px"
	 width="116px" height="101px" viewBox="0 0 116 101" enable-background="new 0 0 116 101" xml:space="preserve">
<path fill="#1C9FE0" d="M58,0.086c10.844,0,19.637,8.791,19.637,19.637c0,10.844-8.793,19.635-19.637,19.635
	c-10.845,0-19.636-8.791-19.636-19.635C38.364,8.877,47.155,0.086,58,0.086"/>
<path fill="#1C9FE0" d="M97.723,14.53c6.855,0,12.414,5.559,12.414,12.414c0,6.856-5.559,12.413-12.414,12.413
	c-6.854,0-12.414-5.557-12.414-12.413C85.309,20.089,90.867,14.53,97.723,14.53"/>
<path fill="#1C9FE0" d="M18.276,14.53c6.856,0,12.414,5.559,12.414,12.414c0,6.856-5.558,12.413-12.414,12.413
	c-6.855,0-12.414-5.557-12.414-12.413C5.862,20.089,11.421,14.53,18.276,14.53"/>
<path fill="#1C9FE0" d="M30.507,50.505c-4.886-4.003-9.312-3.474-14.961-3.474c-8.451,0-15.325,6.834-15.325,15.232v24.647
	c0,3.647,2.976,6.614,6.638,6.614c15.804,0,13.9,0.285,13.9-0.684C20.759,75.378,18.691,62.568,30.507,50.505"/>
<path fill="#1C9FE0" d="M63.373,47.121c-9.869-0.821-18.445,0.01-25.845,6.117c-12.381,9.916-9.998,23.271-9.998,39.605
	c0,4.321,3.516,7.903,7.904,7.903c47.642,0,49.537,1.537,52.362-4.72c0.927-2.116,0.672-1.442,0.672-21.682
	C88.469,58.27,74.549,47.121,63.373,47.121"/>
<path fill="#1C9FE0" d="M100.453,47.031c-5.682,0-10.082-0.523-14.961,3.475c11.729,11.975,9.748,23.908,9.748,42.34
	c0,0.973-1.58,0.68,13.664,0.68c3.791,0,6.875-3.071,6.875-6.848V62.264C115.779,53.865,108.904,47.031,100.453,47.031"/>
</svg>
