<?xml version="1.0" encoding="utf-8"?>
<!-- Generator: Adobe Illustrator 16.0.3, SVG Export Plug-In . SVG Version: 6.00 Build 0)  -->
<!DOCTYPE svg PUBLIC "-//W3C//DTD SVG 1.1//EN" "http://www.w3.org/Graphics/SVG/1.1/DTD/svg11.dtd">
<svg version="1.1" id="Capa_1" xmlns="http://www.w3.org/2000/svg" xmlns:xlink="http://www.w3.org/1999/xlink" x="0px" y="0px"
	 width="94px" height="90px" viewBox="0 0 94 90" enable-background="new 0 0 94 90" xml:space="preserve">
<path fill="#B6D96D" d="M92.023,4.265L57.664,29.106l-5.639,4.086c-2.986,2.206-7.064,2.206-10.051,0l-5.638-4.086L1.938,4.306
	c1.911-2.676,5.005-4.261,8.293-4.249H83.77C87.035,0.057,90.102,1.623,92.023,4.265"/>
<path fill="#A2C25B" d="M1.938,4.306l34.398,24.8L3,62.443c-1.916-1.92-2.987-4.523-2.983-7.232V10.272
	C0.008,8.126,0.678,6.039,1.938,4.306"/>
<path fill="#A2C25B" d="M93.984,10.271v44.942c0.004,2.707-1.066,5.311-2.982,7.23L57.664,29.105l34.357-24.84
	C93.297,6.006,93.984,8.11,93.984,10.271"/>
<path fill="#85B33D" d="M61.301,73.596c-2.713,0-4.086-2.041-4.086-6.127C57.279,61.762,52.707,57.078,47,57.014
	c-5.707-0.064-10.391,4.506-10.455,10.213c-0.066,5.707,4.507,10.391,10.214,10.455c3.059,0.037,5.977-1.287,7.967-3.607
	c1.355,2.326,3.885,3.715,6.574,3.607c8.17,0,8.17-7.688,8.17-10.213c0-12.412-10.059-22.47-22.47-22.47
	c-12.412,0-22.471,10.058-22.471,22.466S34.589,89.934,47,89.934c5.83,0,11.431-2.266,15.623-6.318
	c0.814-0.789,0.828-2.088,0.041-2.898c-0.787-0.813-2.088-0.828-2.9-0.041c-7.311,7.049-18.95,6.84-25.996-0.469
	c-7.048-7.309-6.84-18.949,0.469-25.996c7.31-7.047,18.949-6.84,25.996,0.469c3.311,3.434,5.158,8.018,5.152,12.785
	C65.385,72.049,64.355,73.596,61.301,73.596 M47,73.596c-3.384,0-6.129-2.744-6.129-6.127S43.617,61.34,47,61.34
	c3.382,0,6.128,2.742,6.128,6.129S50.383,73.596,47,73.596"/>
<path fill="#B6D96D" d="M57.664,29.106l-5.639,4.085c-2.986,2.207-7.063,2.207-10.05,0l-5.638-4.085L3,62.443
	c1.921,1.916,4.522,2.986,7.23,2.982h10.317c1.106-14.609,13.845-25.555,28.451-24.452c13.074,0.988,23.463,11.377,24.451,24.452
	h10.32c2.709,0.004,5.313-1.066,7.232-2.982L57.664,29.106z"/>
<path fill="#85B33D" d="M83.77,65.426h-8.172c-1.127,0-2.043-0.916-2.043-2.043s0.916-2.043,2.043-2.043h8.172
	c3.379,0,6.129-2.75,6.129-6.127V10.272c0-3.379-2.75-6.128-6.129-6.128H10.231c-3.379,0-6.129,2.744-6.129,6.128v44.941
	c0,3.377,2.75,6.127,6.129,6.127h8.171c1.128,0,2.043,0.912,2.043,2.043s-0.915,2.043-2.043,2.043h-8.171
	c-5.631,0-10.215-4.584-10.215-10.215V10.272c0-5.63,4.584-10.215,10.215-10.215H83.77c5.635,0,10.215,4.58,10.215,10.215v44.941
	C93.984,60.842,89.404,65.426,83.77,65.426"/>
<path fill="#85B33D" d="M47.005,36.888c-2.188,0-4.372-0.683-6.239-2.047L9.038,11.926c-0.92-0.662-1.124-1.937-0.462-2.852
	c0.658-0.919,1.934-1.123,2.853-0.462l31.744,22.924c2.301,1.679,5.369,1.679,7.652,0.008L82.572,8.613
	c0.916-0.658,2.191-0.457,2.854,0.458c0.66,0.915,0.451,2.193-0.459,2.852L53.223,34.845C51.367,36.207,49.186,36.888,47.005,36.888
	"/>
<path fill="#85B33D" d="M10.231,57.254c-0.522,0-1.047-0.199-1.446-0.596c-0.796-0.797-0.796-2.092,0-2.889l20.427-20.427
	c0.797-0.797,2.092-0.797,2.889,0c0.798,0.797,0.798,2.093,0,2.889L11.672,56.658C11.277,57.055,10.753,57.254,10.231,57.254"/>
<path fill="#85B33D" d="M83.77,57.254c-0.521,0-1.047-0.199-1.445-0.596L61.896,36.231c-0.797-0.797-0.797-2.092,0-2.89
	c0.797-0.796,2.092-0.796,2.889,0L85.211,53.77c0.797,0.797,0.797,2.092,0,2.889C84.816,57.055,84.293,57.254,83.77,57.254"/>
<path fill="#85B33D" d="M47.013,89.943c-0.128,0-0.255,0-0.38-0.004c-6.003-0.1-11.604-2.529-15.778-6.844
	c-8.616-8.906-8.38-23.156,0.521-31.77c4.315-4.176,10.093-6.422,15.995-6.321c5.998,0.1,11.603,2.53,15.779,6.84
	c4.074,4.213,6.32,9.76,6.32,15.623c0,1.127-0.914,2.041-2.043,2.041s-2.043-0.914-2.043-2.041c0-4.797-1.838-9.336-5.176-12.783
	c-3.416-3.527-8-5.516-12.911-5.598c-4.812,0-9.557,1.762-13.086,5.178c-7.284,7.047-7.476,18.707-0.425,25.99
	c3.415,3.529,7.999,5.52,12.911,5.598c4.926,0.172,9.551-1.756,13.084-5.172c0.809-0.781,2.105-0.764,2.889,0.049
	c0.785,0.813,0.766,2.104-0.049,2.889C58.402,87.703,52.875,89.943,47.013,89.943"/>
<path fill="#85B33D" d="M47,77.682c-5.631,0-10.215-4.584-10.215-10.213S41.37,57.256,47,57.256c5.63,0,10.214,4.578,10.214,10.213
	C57.215,73.102,52.631,77.682,47,77.682 M47,61.34c-3.379,0-6.129,2.75-6.129,6.129s2.75,6.127,6.129,6.127
	c3.378,0,6.128-2.748,6.128-6.127S50.379,61.34,47,61.34"/>
<path fill="#85B33D" d="M61.301,77.682c-5.115,0-8.174-3.82-8.174-10.213c0-1.127,0.916-2.043,2.043-2.043
	c1.129,0,2.043,0.912,2.043,2.043c0,4.064,1.377,6.129,4.086,6.129c3.057,0,4.086-1.549,4.086-6.129
	c0-1.127,0.916-2.043,2.043-2.043s2.043,0.912,2.043,2.043C69.471,69.994,69.471,77.682,61.301,77.682"/>
</svg>
