<?xml version="1.0" encoding="utf-8"?>
<!-- Generator: Adobe Illustrator 16.0.3, SVG Export Plug-In . SVG Version: 6.00 Build 0)  -->
<!DOCTYPE svg PUBLIC "-//W3C//DTD SVG 1.1//EN" "http://www.w3.org/Graphics/SVG/1.1/DTD/svg11.dtd">
<svg version="1.1" id="Capa_1" xmlns="http://www.w3.org/2000/svg" xmlns:xlink="http://www.w3.org/1999/xlink" x="0px" y="0px"
	 width="97px" height="92px" viewBox="0 0 97 92" enable-background="new 0 0 97 92" xml:space="preserve">
<g>
	<defs>
		<path id="SVGID_1_" d="M2.378,4.349l35.208,25.383l5.771,4.182c3.059,2.258,7.231,2.258,10.288,0l5.771-4.182L94.582,4.307
			c-1.965-2.704-5.105-4.308-8.445-4.308h-75.27c-0.013,0-0.024,0-0.037,0C7.477-0.001,4.328,1.621,2.378,4.349"/>
	</defs>
	<clipPath id="SVGID_2_">
		<use xlink:href="#SVGID_1_"  overflow="visible"/>
	</clipPath>
	
		<linearGradient id="SVGID_3_" gradientUnits="userSpaceOnUse" x1="-926.8926" y1="3519.9355" x2="-925.8926" y2="3519.9355" gradientTransform="matrix(108.3871 118.7097 118.7097 -108.3871 -317399.8125 491498.125)">
		<stop  offset="0" style="stop-color:#FBCE47"/>
		<stop  offset="1" style="stop-color:#F9A40E"/>
	</linearGradient>
	<polygon clip-path="url(#SVGID_2_)" fill="url(#SVGID_3_)" points="52.662,-45.912 112.592,19.727 44.297,82.083 -15.633,16.444 	
		"/>
</g>
<g opacity="0.3">
	<g>
		<defs>
			<rect id="SVGID_4_" x="0.41" y="4.308" width="96.18" height="59.546"/>
		</defs>
		<clipPath id="SVGID_5_">
			<use xlink:href="#SVGID_4_"  overflow="visible"/>
		</clipPath>
		<g clip-path="url(#SVGID_5_)">
			<defs>
				<path id="SVGID_6_" d="M2.377,4.35l35.21,25.382L3.465,63.854c-1.962-1.965-3.058-4.628-3.054-7.401V10.454
					C0.404,8.26,1.089,6.122,2.377,4.35"/>
			</defs>
			<clipPath id="SVGID_7_">
				<use xlink:href="#SVGID_6_"  overflow="visible"/>
			</clipPath>
			
				<linearGradient id="SVGID_8_" gradientUnits="userSpaceOnUse" x1="-922.2275" y1="3591.8066" x2="-921.2271" y2="3591.8066" gradientTransform="matrix(37.1748 0 0 -37.1748 34284.0586 133558.9375)">
				<stop  offset="0" style="stop-color:#FBCE47"/>
				<stop  offset="1" style="stop-color:#F9A40E"/>
			</linearGradient>
			<rect x="0.404" y="4.35" clip-path="url(#SVGID_7_)" fill="url(#SVGID_8_)" width="37.184" height="59.504"/>
		</g>
		<g clip-path="url(#SVGID_5_)">
			<defs>
				<path id="SVGID_9_" d="M96.59,10.454v45.998c0.004,2.773-1.092,5.437-3.053,7.401L59.414,29.731L94.582,4.308
					C95.887,6.089,96.59,8.242,96.59,10.454"/>
			</defs>
			<clipPath id="SVGID_10_">
				<use xlink:href="#SVGID_9_"  overflow="visible"/>
			</clipPath>
			
				<linearGradient id="SVGID_11_" gradientUnits="userSpaceOnUse" x1="-922.2271" y1="3591.8066" x2="-921.2266" y2="3591.8066" gradientTransform="matrix(37.1746 0 0 -37.1746 34342.8203 133558.0156)">
				<stop  offset="0" style="stop-color:#FBCE47"/>
				<stop  offset="1" style="stop-color:#F9A40E"/>
			</linearGradient>
			<rect x="59.414" y="4.308" clip-path="url(#SVGID_10_)" fill="url(#SVGID_11_)" width="37.18" height="59.546"/>
		</g>
	</g>
</g>
<path fill="#6FB42F" d="M63.137,75.27c-2.777,0-4.182-2.091-4.182-6.271c0.066-5.843-4.613-10.635-10.455-10.702
	c-5.842-0.067-10.634,4.613-10.7,10.454c-0.068,5.842,4.612,10.634,10.454,10.702c3.132,0.036,6.117-1.318,8.154-3.693
	c1.389,2.379,3.977,3.801,6.729,3.693c8.363,0,8.363-7.87,8.363-10.454c0-12.705-10.295-22.999-23-22.999
	c-12.703,0-22.999,10.294-22.999,22.994c0,12.699,10.296,22.999,22.999,22.999c5.968,0,11.701-2.321,15.992-6.47
	c0.832-0.807,0.848-2.137,0.041-2.965c-0.807-0.832-2.137-0.849-2.969-0.042c-7.48,7.214-19.394,7-26.608-0.479
	c-7.213-7.482-7-19.396,0.48-26.608c7.481-7.214,19.395-7.001,26.608,0.481c3.387,3.512,5.277,8.203,5.273,13.084
	C67.318,73.685,66.264,75.27,63.137,75.27 M48.5,75.27c-3.462,0-6.272-2.811-6.272-6.271c0-3.463,2.811-6.273,6.272-6.273
	c3.462,0,6.273,2.806,6.273,6.273C54.773,72.463,51.963,75.27,48.5,75.27"/>
<g>
	<defs>
		<path id="SVGID_12_" d="M53.645,33.913c-3.057,2.258-7.229,2.258-10.288,0l-5.771-4.182L3.466,63.854
			c1.964,1.961,4.629,3.058,7.4,3.052h10.559c1.133-14.953,14.171-26.156,29.122-25.026c13.381,1.013,24.014,11.646,25.025,25.026
			h10.564c2.771,0.006,5.434-1.091,7.4-3.052L59.416,29.731L53.645,33.913z"/>
	</defs>
	<clipPath id="SVGID_13_">
		<use xlink:href="#SVGID_12_"  overflow="visible"/>
	</clipPath>
	
		<linearGradient id="SVGID_14_" gradientUnits="userSpaceOnUse" x1="-926.8926" y1="3520.0596" x2="-925.8926" y2="3520.0596" gradientTransform="matrix(108.3871 118.7097 118.7097 -108.3871 -317429.5625 491525.1875)">
		<stop  offset="0" style="stop-color:#FBCE47"/>
		<stop  offset="1" style="stop-color:#F9A40E"/>
	</linearGradient>
	<polygon clip-path="url(#SVGID_13_)" fill="url(#SVGID_14_)" points="52.588,-15.118 112.051,50.008 44.416,111.761 
		-15.047,46.635 	"/>
</g>
<path fill="#E68913" d="M86.135,66.906h-8.363c-1.154,0-2.09-0.937-2.09-2.091s0.936-2.091,2.09-2.091h8.363
	c3.459,0,6.273-2.814,6.273-6.272V10.454c0-3.458-2.814-6.272-6.273-6.272H10.867c-3.459,0-6.272,2.811-6.272,6.272v45.998
	c0,3.458,2.813,6.272,6.272,6.272h8.363c1.154,0,2.091,0.933,2.091,2.091s-0.937,2.091-2.091,2.091h-8.363
	c-5.763,0-10.454-4.691-10.454-10.454V10.454c0-5.763,4.691-10.453,10.454-10.453h75.268c5.768,0,10.455,4.687,10.455,10.453v45.998
	C96.59,62.215,91.902,66.906,86.135,66.906"/>
<path fill="#E68913" d="M48.505,37.697c-2.237,0-4.475-0.697-6.386-2.095L9.645,12.147c-0.94-0.677-1.149-1.98-0.473-2.919
	c0.674-0.94,1.979-1.149,2.919-0.471L44.583,32.22c2.354,1.719,5.496,1.719,7.832,0.008L84.91,8.758
	c0.938-0.674,2.242-0.47,2.918,0.467c0.678,0.937,0.465,2.246-0.467,2.919L54.869,35.606C52.971,37,50.738,37.697,48.505,37.697"/>
<path fill="#E68913" d="M10.867,58.543c-0.535,0-1.071-0.205-1.48-0.609c-0.815-0.816-0.815-2.143,0-2.957l20.908-20.908
	c0.815-0.815,2.141-0.815,2.956,0s0.815,2.141,0,2.956L12.342,57.934C11.937,58.338,11.402,58.543,10.867,58.543"/>
<path fill="#E68913" d="M86.135,58.543c-0.535,0-1.07-0.205-1.48-0.609L63.748,37.024c-0.816-0.815-0.816-2.142,0-2.957
	c0.814-0.815,2.141-0.815,2.955,0l20.908,20.909c0.816,0.814,0.816,2.141,0,2.956C87.205,58.338,86.67,58.543,86.135,58.543"/>
<path fill="#E68913" d="M48.513,92c-0.129,0-0.259,0-0.389-0.004c-6.143-0.1-11.876-2.589-16.149-7.005
	c-8.819-9.115-8.576-23.701,0.535-32.515c4.416-4.275,10.329-6.575,16.371-6.471c6.138,0.101,11.876,2.59,16.15,7
	c4.168,4.312,6.469,9.99,6.469,15.991c0,1.154-0.938,2.091-2.09,2.091c-1.154,0-2.092-0.937-2.092-2.091
	c0-4.909-1.881-9.556-5.299-13.085c-3.496-3.607-8.188-5.644-13.213-5.728c-4.926,0-9.78,1.802-13.395,5.298
	c-7.455,7.213-7.651,19.147-0.434,26.604c3.495,3.612,8.188,5.648,13.214,5.729c5.042,0.176,9.777-1.797,13.394-5.293
	c0.828-0.799,2.152-0.783,2.955,0.049s0.783,2.154-0.049,2.957C60.172,89.708,54.514,92,48.513,92"/>
<path fill="#E68913" d="M48.5,79.452c-5.762,0-10.454-4.693-10.454-10.455c0-5.763,4.692-10.454,10.454-10.454
	c5.763,0,10.455,4.688,10.455,10.454S54.264,79.452,48.5,79.452 M48.5,62.725c-3.458,0-6.272,2.814-6.272,6.272
	s2.814,6.272,6.272,6.272c3.458,0,6.273-2.814,6.273-6.272C54.773,65.538,51.959,62.725,48.5,62.725"/>
<path fill="#E68913" d="M63.137,79.451c-5.236,0-8.363-3.91-8.363-10.454c0-1.153,0.936-2.091,2.09-2.091s2.092,0.934,2.092,2.091
	c0,4.16,1.408,6.272,4.182,6.272c3.127,0,4.182-1.585,4.182-6.272c0-1.153,0.936-2.091,2.09-2.091S71.5,67.84,71.5,68.997
	C71.5,71.581,71.5,79.451,63.137,79.451"/>
</svg>
