<?xml version="1.0" encoding="utf-8"?>
<!-- Generator: Adobe Illustrator 16.0.3, SVG Export Plug-In . SVG Version: 6.00 Build 0)  -->
<!DOCTYPE svg PUBLIC "-//W3C//DTD SVG 1.1//EN" "http://www.w3.org/Graphics/SVG/1.1/DTD/svg11.dtd">
<svg version="1.1" id="Capa_1" xmlns="http://www.w3.org/2000/svg" xmlns:xlink="http://www.w3.org/1999/xlink" x="0px" y="0px"
	 width="78px" height="78px" viewBox="0 0 78 78" enable-background="new 0 0 78 78" xml:space="preserve">
<path fill="#FFFFFF" d="M55.395,39.944c-0.135-0.459-0.48-0.834-0.939-1.002c-0.092-0.033-0.844-0.3-2.01-0.47
	c4.982-5.3,3.338-11.494,2.949-12.703c-0.135-0.46-0.48-0.835-0.939-1.003c-0.213-0.078-3.941-1.392-8.189,0.086
	c0.24-0.983,0.379-2.065,0.379-3.253c0-7.595-5.75-10.933-6.905-11.526c-0.42-0.229-0.929-0.251-1.372-0.045
	c-0.286,0.134-6.995,3.345-6.995,11.571c0,1.19,0.141,2.274,0.381,3.259c-4.255-1.487-7.994-0.17-8.208-0.092
	c-0.459,0.168-0.804,0.543-0.939,1.003c-0.389,1.209-2.033,7.403,2.948,12.703c-1.166,0.17-1.916,0.437-2.009,0.47
	c-0.459,0.168-0.804,0.543-0.939,1.002c-0.397,1.234-2.103,7.662,3.267,13.033c3.108,3.109,6.558,3.85,9.142,3.85
	c0.957,0,1.793-0.102,2.451-0.223v9.965c0,0.842,0.682,1.525,1.523,1.525c0.841,0,1.522-0.684,1.522-1.525V56.6
	c0.662,0.121,1.506,0.227,2.473,0.227c2.586,0,6.035-0.742,9.143-3.85C57.498,47.605,55.791,41.178,55.395,39.944 M37.466,51.855
	c-0.034,0.691-0.13,1.273-0.223,1.691c-1.628,0.361-5.702,0.791-9.216-2.725c-3.461-3.461-3.098-7.467-2.715-9.215
	c1.023-0.223,3.021-0.471,5.232,0.248c0.146,0.055,0.291,0.105,0.435,0.154c1.172,0.443,2.388,1.168,3.54,2.322
	c2.196,2.193,2.852,4.607,2.947,6.508V51.855z M37.466,37.681c-0.034,0.692-0.13,1.273-0.223,1.69
	c-1.009,0.223-2.957,0.473-5.128-0.204c-0.22-0.085-0.439-0.162-0.656-0.232c-1.136-0.449-2.312-1.167-3.432-2.287
	c-3.461-3.461-3.098-7.467-2.715-9.215c1.626-0.353,5.711-0.772,9.207,2.723c0.022,0.022,0.042,0.046,0.064,0.067
	c0.134,0.15,0.268,0.293,0.402,0.431c1.823,2.059,2.393,4.256,2.481,6.012V37.681z M39.011,30.04
	c-0.477-0.308-1.165-0.813-1.864-1.54c-0.071-0.078-0.143-0.156-0.217-0.235c-1.273-1.414-2.512-3.582-2.512-6.666
	c0-4.964,3.177-7.541,4.583-8.437c1.504,0.963,4.598,3.539,4.598,8.437c0,2.911-1.092,4.999-2.279,6.411
	c-0.248,0.247-0.479,0.496-0.695,0.747C40.016,29.348,39.433,29.771,39.011,30.04 M40.521,37.187
	c-0.002-1.788,0.461-4.153,2.355-6.376c0.223-0.222,0.449-0.463,0.672-0.72c3.496-3.438,7.521-3.019,9.139-2.661
	c0.383,1.747,0.75,5.755-2.715,9.218c-1.117,1.118-2.291,1.836-3.424,2.284c-0.221,0.072-0.445,0.15-0.668,0.237
	c-2.172,0.675-4.117,0.425-5.123,0.203c-0.113-0.509-0.232-1.253-0.236-2.146C40.521,37.214,40.521,37.201,40.521,37.187
	 M49.973,50.822c-3.514,3.516-7.588,3.086-9.211,2.725c-0.354-1.619-0.783-5.713,2.719-9.215c1.121-1.121,2.299-1.84,3.436-2.289
	c0.217-0.07,0.436-0.146,0.654-0.232c2.166-0.676,4.109-0.428,5.117-0.205C53.07,43.352,53.438,47.359,49.973,50.822"/>
<path fill="#FFFFFF" d="M47.127,0.848C44.473,0.285,41.738,0,39.001,0C28.586,0,18.795,4.055,11.43,11.42
	C4.066,18.784,0.01,28.575,0.01,38.99c0,8.678,2.92,17.148,8.24,23.969c-0.599,0.926-0.921,2.004-0.921,3.133
	c0,1.545,0.602,2.998,1.695,4.092c1.093,1.094,2.547,1.695,4.092,1.695c1.546,0,3-0.602,4.093-1.695
	c1.093-1.094,1.695-2.547,1.695-4.092s-0.602-3-1.695-4.092c-1.093-1.094-2.547-1.697-4.093-1.697c-0.916,0-1.799,0.213-2.594,0.615
	c-4.821-6.258-7.466-14-7.466-21.928c0-19.819,16.125-35.944,35.945-35.944c2.524,0,5.046,0.263,7.493,0.782
	c0.824,0.175,1.631-0.353,1.807-1.175C48.475,1.831,47.949,1.021,47.127,0.848 M11.178,64.152c0.534-0.533,1.236-0.801,1.938-0.801
	c0.703,0,1.405,0.268,1.939,0.801c0.518,0.52,0.803,1.207,0.803,1.939s-0.285,1.42-0.803,1.939c-1.069,1.068-2.808,1.066-3.877,0
	c-0.518-0.52-0.803-1.207-0.803-1.939S10.66,64.672,11.178,64.152"/>
<path fill="#FFFFFF" d="M69.752,15.02c0.6-0.925,0.92-2.005,0.92-3.132c0-1.546-0.602-3-1.693-4.093
	c-1.094-1.093-2.549-1.696-4.094-1.696c-1.547,0-3,0.604-4.092,1.696c-1.094,1.093-1.695,2.547-1.695,4.093
	c0,1.545,0.602,2.999,1.695,4.091c1.092,1.094,2.545,1.696,4.092,1.696c0.916,0,1.801-0.213,2.596-0.613
	c4.82,6.258,7.465,13.998,7.465,21.928c0,19.819-16.125,35.944-35.945,35.944c-2.132,0-4.268-0.188-6.349-0.559
	c-0.828-0.148-1.619,0.402-1.767,1.23c-0.147,0.828,0.404,1.619,1.232,1.768c2.258,0.402,4.573,0.605,6.884,0.605
	c10.416,0,20.207-4.055,27.572-11.42c7.363-7.363,11.418-17.156,11.418-27.569C77.99,30.312,75.072,21.841,69.752,15.02
	 M66.824,13.825c-0.52,0.519-1.207,0.804-1.939,0.804s-1.42-0.285-1.938-0.804c-1.07-1.068-1.07-2.809,0-3.877
	c0.518-0.519,1.205-0.804,1.938-0.804s1.42,0.285,1.939,0.804c0.518,0.519,0.803,1.206,0.803,1.939
	C67.627,12.62,67.342,13.308,66.824,13.825"/>
<path fill="#FFFFFF" d="M25.618,72.359l-0.575,1.41l0.571-1.412c-0.781-0.314-1.668,0.063-1.983,0.842s0.061,1.668,0.841,1.982
	l0.047,0.02c0.18,0.068,0.364,0.1,0.546,0.1c0.614,0,1.194-0.371,1.426-0.975C26.792,73.539,26.403,72.66,25.618,72.359"/>
<path fill="#FFFFFF" d="M53.596,2.823l-0.027-0.011c-0.781-0.312-1.668,0.068-1.98,0.85c-0.313,0.779,0.068,1.667,0.85,1.979
	l0.016,0.007c0.188,0.075,0.381,0.112,0.57,0.112c0.602,0,1.174-0.361,1.414-0.954C54.752,4.026,54.375,3.139,53.596,2.823"/>
</svg>
