<?xml version="1.0" encoding="utf-8"?>
<!-- Generator: Adobe Illustrator 16.0.3, SVG Export Plug-In . SVG Version: 6.00 Build 0)  -->
<!DOCTYPE svg PUBLIC "-//W3C//DTD SVG 1.1//EN" "http://www.w3.org/Graphics/SVG/1.1/DTD/svg11.dtd">
<svg version="1.1" id="Capa_1" xmlns="http://www.w3.org/2000/svg" xmlns:xlink="http://www.w3.org/1999/xlink" x="0px" y="0px"
	 width="305px" height="89px" viewBox="0 0 305 89" enable-background="new 0 0 305 89" xml:space="preserve">
<path fill="#274D73" d="M83.974,2.835H23.28c-0.756,0-1.369,0.612-1.369,1.369s0.613,1.368,1.369,1.368h60.694
	c3.327,0,6.034,2.707,6.034,6.033v48.727c0,3.327-2.707,6.033-6.034,6.033H9.321c-3.326,0-6.033-2.706-6.033-6.033V11.605
	c0-3.326,2.707-6.033,6.033-6.033h8.482c0.756,0,1.369-0.611,1.369-1.368s-0.613-1.369-1.369-1.369H9.321
	c-4.836,0-8.771,3.934-8.771,8.771v48.727c0,4.837,3.935,8.771,8.771,8.771h22.018l-2.682,8.765h-5.028
	c-2.567,0-4.655,2.088-4.655,4.654c0,2.568,2.088,4.656,4.655,4.656h46.038c2.567,0,4.655-2.088,4.655-4.656
	c0-2.566-2.088-4.654-4.655-4.654h-5.028l-2.682-8.765h22.017c4.838,0,8.772-3.934,8.772-8.771V11.605
	C92.746,6.769,88.812,2.835,83.974,2.835 M71.584,82.521c0,1.058-0.86,1.917-1.917,1.917H23.629c-1.057,0-1.917-0.859-1.917-1.917
	c0-1.056,0.86-1.916,1.917-1.916h46.038C70.724,80.605,71.584,81.466,71.584,82.521 M61.775,77.867H31.522l2.681-8.764h24.891
	L61.775,77.867z"/>
<path fill="#274D73" d="M84.075,47.408c0.757,0,1.369-0.613,1.369-1.369V11.607c0-0.812-0.659-1.471-1.47-1.471H9.321
	c-0.809,0-1.468,0.659-1.468,1.471v44.625c0,0.758,0.613,1.369,1.369,1.369h74.853c0.757,0,1.369-0.611,1.369-1.369v-4.717
	c0-0.756-0.612-1.369-1.369-1.369c-0.756,0-1.369,0.613-1.369,1.369v3.348H10.592V12.875h72.114v33.164
	C82.706,46.796,83.319,47.408,84.075,47.408"/>
<path fill="#274D73" d="M47.786,60.979c-0.3-0.455-0.872-0.688-1.406-0.582c-0.584,0.117-1.038,0.615-1.094,1.21
	c-0.118,1.237,1.413,1.982,2.311,1.12C48.071,62.271,48.147,61.526,47.786,60.979"/>
<path fill="#274D73" d="M165.078,0.358h-45.741c-3.086,0-5.596,2.511-5.596,5.596V83.15c0,3.085,2.511,5.596,5.596,5.596h45.741
	c3.086,0,5.597-2.511,5.597-5.596V5.954C170.675,2.869,168.164,0.358,165.078,0.358 M116.545,14.422h51.324v58.454h-51.324V14.422z
	 M119.337,3.163h45.741c1.539,0,2.793,1.252,2.793,2.791v6.599h-51.326V5.954C116.545,4.415,117.798,3.163,119.337,3.163
	 M165.078,85.941h-45.741c-1.539,0-2.792-1.252-2.792-2.791v-8.404h51.326v8.404C167.871,84.689,166.617,85.941,165.078,85.941"/>
<path fill="#274D73" d="M142.208,75.985c-2.532,0-4.592,2.06-4.592,4.591c0,2.533,2.06,4.594,4.592,4.594
	c2.532,0,4.592-2.061,4.592-4.594C146.8,78.045,144.74,75.985,142.208,75.985 M142.208,83.299c-1.501,0-2.723-1.221-2.723-2.723
	c0-1.501,1.222-2.722,2.723-2.722s2.723,1.221,2.723,2.722C144.931,82.078,143.709,83.299,142.208,83.299"/>
<path fill="#274D73" d="M135.852,9.266h12.712c0.516,0,0.934-0.42,0.934-0.936s-0.418-0.935-0.934-0.935h-12.712
	c-0.516,0-0.935,0.419-0.935,0.935S135.336,9.266,135.852,9.266"/>
<path fill="#274D73" d="M132.487,9.266c0.245,0,0.486-0.101,0.66-0.273c0.174-0.176,0.275-0.415,0.275-0.662
	s-0.101-0.486-0.275-0.662c-0.174-0.174-0.415-0.272-0.66-0.272c-0.247,0-0.486,0.099-0.662,0.272
	c-0.173,0.174-0.273,0.415-0.273,0.662s0.1,0.486,0.273,0.662C132,9.165,132.24,9.266,132.487,9.266"/>
<path fill="#274D73" d="M304.977,80.654c-0.002-0.018-0.002-0.034-0.004-0.051c-0.006-0.067-0.016-0.133-0.028-0.196
	c-0.002-0.007-0.004-0.013-0.006-0.021c-0.013-0.059-0.029-0.116-0.05-0.174c-0.004-0.014-0.01-0.028-0.016-0.044
	c-0.019-0.051-0.039-0.101-0.064-0.149c-0.004-0.008-0.006-0.018-0.01-0.025l-9.062-17.872V3.327c0-1.808-1.472-3.278-3.278-3.278
	h-90.603c-1.808,0-3.28,1.471-3.28,3.278v58.795l-9.061,17.872c-0.004,0.007-0.006,0.016-0.01,0.025
	c-0.024,0.049-0.045,0.099-0.064,0.148c-0.005,0.017-0.012,0.031-0.016,0.045c-0.021,0.058-0.037,0.115-0.051,0.174
	c0,0.008-0.003,0.014-0.004,0.02c-0.014,0.064-0.023,0.13-0.029,0.197c-0.002,0.016-0.002,0.033-0.002,0.051
	c-0.004,0.035-0.006,0.07-0.006,0.105v4.298c0,2.146,1.746,3.895,3.895,3.895h107.857c2.148,0,3.896-1.748,3.896-3.895V80.76
	C304.981,80.725,304.979,80.689,304.977,80.654 M201.965,3.438h90.385v57.396h-90.385V3.438z M201.312,64.221h91.692l7.525,14.845
	h-37.221l-1.867-6.774c-0.381-1.379-1.645-2.342-3.076-2.342h-22.417c-1.43,0-2.694,0.963-3.075,2.342l-1.867,6.774h-37.221
	L201.312,64.221z M259.795,79.065h-25.274l1.579-5.729h22.115L259.795,79.065z M301.594,85.057c0,0.279-0.229,0.508-0.508,0.508
	H193.229c-0.279,0-0.508-0.229-0.508-0.508v-2.604h108.873V85.057z"/>
<path fill="#274D73" d="M287.042,34.959c-0.937,0-1.694,0.758-1.694,1.692V53.83h-76.381V36.651c0-0.935-0.758-1.692-1.693-1.692
	c-0.937,0-1.695,0.758-1.695,1.692v17.911c0,1.465,1.193,2.657,2.658,2.657h77.844c1.464,0,2.656-1.192,2.656-2.657V36.651
	C288.736,35.717,287.979,34.959,287.042,34.959"/>
<path fill="#274D73" d="M286.079,7.051h-77.844c-1.464,0-2.656,1.19-2.656,2.656v17.91c0,0.937,0.759,1.695,1.694,1.695
	s1.693-0.759,1.693-1.695V10.439h76.381v17.178c0,0.937,0.759,1.695,1.694,1.695c0.935,0,1.693-0.759,1.693-1.695V9.707
	C288.735,8.241,287.545,7.051,286.079,7.051"/>
</svg>
