<?xml version="1.0" encoding="utf-8"?>
<!-- Generator: Adobe Illustrator 16.0.3, SVG Export Plug-In . SVG Version: 6.00 Build 0)  -->
<!DOCTYPE svg PUBLIC "-//W3C//DTD SVG 1.1//EN" "http://www.w3.org/Graphics/SVG/1.1/DTD/svg11.dtd">
<svg version="1.1" id="Capa_1" xmlns="http://www.w3.org/2000/svg" xmlns:xlink="http://www.w3.org/1999/xlink" x="0px" y="0px"
	 width="247px" height="59px" viewBox="0 0 247 59" enable-background="new 0 0 247 59" xml:space="preserve">
<path fill="#F6F6F6" d="M28.993,0.438H16.264c-5.262,0-9.546,4.284-9.546,9.546v28.641H0.354v9.547c0,5.261,4.283,9.545,9.546,9.545
	h50.914c5.263,0,9.547-4.284,9.547-9.545v-9.547h-6.365V9.984c0-5.262-4.283-9.546-9.546-9.546H35.357H28.993z M63.996,48.172
	c0,1.754-1.426,3.181-3.182,3.181H9.9c-1.756,0-3.182-1.427-3.182-3.181v-3.184h57.278V48.172z M57.632,9.984v28.641h-44.55V9.984
	c0-1.755,1.426-3.182,3.182-3.182H54.45C56.206,6.803,57.632,8.229,57.632,9.984"/>
<rect x="160.229" y="45.311" fill="#F6F6F6" width="8.942" height="4.473"/>
<path fill="#F6F6F6" d="M175.879,0.439h-22.355c-3.698,0-6.707,3.009-6.707,6.707v44.711c0,3.697,3.009,6.705,6.707,6.705h8.941
	h4.471h8.943c3.696,0,6.707-3.008,6.707-6.705V7.146C182.586,3.448,179.575,0.439,175.879,0.439 M178.114,51.857
	c0,1.232-1.002,2.234-2.235,2.234h-22.355c-1.234,0-2.236-1.002-2.236-2.234V40.68h26.827V51.857z M178.114,36.207h-26.827V13.852
	h26.827V36.207z M178.114,9.381h-26.827V7.146c0-1.235,1.002-2.237,2.236-2.237h22.355c1.233,0,2.235,1.002,2.235,2.237V9.381z"/>
<path fill="#F6F6F6" d="M127.518,0.438H87.247c-4.756,0-8.628,3.872-8.628,8.629v28.765c0,4.756,3.872,8.629,8.628,8.629h8.63v5.752
	h-5.753v5.754h14.382h5.753h14.381v-5.754h-5.752v-5.752h8.629c4.756,0,8.629-3.873,8.629-8.629V9.067
	C136.146,4.311,132.273,0.438,127.518,0.438 M113.135,52.213h-11.506v-5.752h11.506V52.213z M130.393,37.832
	c0,1.586-1.289,2.875-2.875,2.875H87.247c-1.586,0-2.875-1.289-2.875-2.875v-2.877h46.021V37.832z M130.393,29.202H84.372V9.067
	c0-1.587,1.289-2.876,2.875-2.876h40.271c1.586,0,2.875,1.289,2.875,2.876V29.202z"/>
<rect x="208.553" y="13.464" fill="#F6F6F6" width="6.396" height="6.396"/>
<rect x="227.744" y="39.049" fill="#F6F6F6" width="6.395" height="6.396"/>
<rect x="221.346" y="13.464" fill="#F6F6F6" width="12.793" height="6.396"/>
<rect x="208.553" y="39.049" fill="#F6F6F6" width="12.793" height="6.396"/>
<path fill="#F6F6F6" d="M224.545,0.438h-6.396H195.76v57.568h51.172V0.438H224.545z M240.535,51.609h-38.377V32.421h38.377V51.609z
	 M240.535,26.024h-38.377V6.835h38.377V26.024z"/>
</svg>
