<?xml version="1.0" encoding="utf-8"?>
<!-- Generator: Adobe Illustrator 16.0.3, SVG Export Plug-In . SVG Version: 6.00 Build 0)  -->
<!DOCTYPE svg PUBLIC "-//W3C//DTD SVG 1.1//EN" "http://www.w3.org/Graphics/SVG/1.1/DTD/svg11.dtd">
<svg version="1.1" id="Capa_1" xmlns="http://www.w3.org/2000/svg" xmlns:xlink="http://www.w3.org/1999/xlink" x="0px" y="0px"
	 width="242px" height="55px" viewBox="0 0 242 55" enable-background="new 0 0 242 55" xml:space="preserve">
<path fill="#F6F6F6" d="M79.438,31.952h-3.85v10.587H61.391V0.43h20.272c11.731,0,19.19,6.137,19.19,15.882
	c0,6.075-2.888,10.648-7.941,13.232l8.843,12.995H86.596L79.438,31.952z M80.761,11.378h-5.173v9.866h5.173
	c3.91,0,5.775-1.865,5.775-4.933C86.536,13.243,84.671,11.378,80.761,11.378"/>
<polygon fill="#F6F6F6" points="147.708,0.43 147.708,42.539 133.513,42.539 133.513,27.021 120.398,27.021 120.398,42.539 
	106.203,42.539 106.203,0.43 120.398,0.43 120.398,15.348 133.513,15.348 133.513,0.43 "/>
<path fill="#F6F6F6" d="M151.966,39.17l2.404-4.571c2.709,1.926,7.039,3.309,11.189,3.309c5.355,0,7.58-1.625,7.58-4.332
	c0-7.158-20.152-0.963-20.152-13.655c0-5.715,5.113-9.563,13.295-9.563c4.15,0,8.844,1.083,11.609,2.886l-2.467,4.573
	c-2.887-1.865-6.074-2.527-9.203-2.527c-5.053,0-7.52,1.865-7.52,4.392c0,7.518,20.213,1.384,20.213,13.776
	c0,5.774-5.295,9.444-13.775,9.444C159.845,42.9,154.612,41.275,151.966,39.17"/>
<path fill="#F6F6F6" d="M213.741,10.656l-15.459,35.071c-2.828,6.738-6.498,8.844-11.371,8.844c-3.066,0-6.193-1.021-8.18-2.949
	l2.467-4.33c1.564,1.504,3.549,2.346,5.713,2.346c2.77,0,4.514-1.264,6.076-4.934l1.023-2.225l-14.076-31.823h6.016l11.127,25.507
	l11.01-25.507H213.741z"/>
<path fill="#F6F6F6" d="M214.7,39.17l2.406-4.571c2.709,1.926,7.037,3.309,11.189,3.309c5.354,0,7.578-1.625,7.578-4.332
	c0-7.158-20.15-0.963-20.15-13.655c0-5.715,5.113-9.563,13.293-9.563c4.152,0,8.844,1.083,11.611,2.886l-2.467,4.573
	c-2.887-1.865-6.076-2.527-9.203-2.527c-5.053,0-7.52,1.865-7.52,4.392c0,7.518,20.211,1.384,20.211,13.776
	c0,5.774-5.293,9.444-13.775,9.444C222.581,42.9,217.347,41.275,214.7,39.17"/>
<path fill="#F6F6F6" d="M35.073,25.569H13.371c0.914,2.396,3.084,3.654,6.283,3.654c2.855,0,4.454-0.742,6.51-2.283l6.738,6.795
	c-3.027,3.313-7.424,5.025-13.648,5.025c-11.48,0-18.903-6.91-18.903-16.219c0-9.48,7.595-16.162,17.703-16.162
	c9.252,0,17.19,5.598,17.19,16.162C35.244,23.456,35.13,24.655,35.073,25.569 M13.143,19.343h10.051
	c-0.513-2.627-2.398-4.169-5.026-4.169C15.485,15.174,13.657,16.716,13.143,19.343"/>
<rect x="39.589" y="16.832" fill="#F6F6F6" width="17.132" height="9.708"/>
</svg>
