<?xml version="1.0" encoding="utf-8"?>
<!-- Generator: Adobe Illustrator 16.0.3, SVG Export Plug-In . SVG Version: 6.00 Build 0)  -->
<!DOCTYPE svg PUBLIC "-//W3C//DTD SVG 1.1//EN" "http://www.w3.org/Graphics/SVG/1.1/DTD/svg11.dtd">
<svg version="1.1" id="Capa_1" xmlns="http://www.w3.org/2000/svg" xmlns:xlink="http://www.w3.org/1999/xlink" x="0px" y="0px"
	 width="79px" height="99px" viewBox="0 0 79 99" enable-background="new 0 0 79 99" xml:space="preserve">
<path fill="#1B9AC4" d="M77.246,34.534c0.798,0,1.443-0.646,1.443-1.444V19.135c0-2.854-2.223-5.203-5.063-5.349
	C56.494,12.915,47.285,5.907,43.322,1.809c-1.01-1.044-2.367-1.618-3.823-1.618s-2.813,0.574-3.822,1.618
	C31.713,5.907,22.505,12.915,5.371,13.786c-2.839,0.146-5.063,2.494-5.063,5.349v40.276c0,11.602,6.241,22.41,16.289,28.211
	l16.343,9.436c2.023,1.168,4.291,1.752,6.559,1.752c2.269,0,4.537-0.584,6.56-1.752l16.344-9.436
	c10.047-5.801,16.289-16.609,16.289-28.209V39.831c0-0.798-0.647-1.443-1.445-1.443s-1.445,0.646-1.445,1.443v19.582
	c0,10.57-5.687,20.422-14.843,25.707l-16.345,9.436c-3.154,1.822-7.074,1.822-10.228,0L18.041,85.12
	C8.885,79.835,3.197,69.983,3.197,59.413V19.135c0-1.314,1.02-2.396,2.321-2.462c18.124-0.924,27.976-8.45,32.236-12.855
	c0.46-0.475,1.079-0.736,1.745-0.736s1.286,0.262,1.745,0.736c4.26,4.405,14.113,11.932,32.234,12.855
	c1.303,0.065,2.322,1.147,2.322,2.462V33.09C75.801,33.889,76.448,34.534,77.246,34.534"/>
<path fill="#1B9AC4" d="M9.537,38.387c-0.798,0-1.445,0.646-1.445,1.444v19.58c0,8.83,4.75,17.055,12.396,21.471l16.344,9.438
	c0.812,0.467,1.734,0.715,2.668,0.715c0.933,0,1.856-0.248,2.667-0.717l16.346-9.436c7.646-4.416,12.395-12.641,12.395-21.471
	V24.458c0-1.706-1.271-3.15-2.959-3.361C54.99,19.466,46.466,14.544,41.595,10.7c-1.233-0.971-2.957-0.971-4.192,0.001
	c-4.869,3.843-13.393,8.765-26.35,10.396c-1.687,0.211-2.96,1.655-2.96,3.361v8.631c0,0.799,0.647,1.445,1.444,1.445
	c0.798,0,1.445-0.646,1.445-1.445v-8.631c0-0.252,0.184-0.465,0.43-0.495C25.03,22.25,34.036,17.039,39.19,12.972
	c0.181-0.145,0.435-0.145,0.616-0.002c5.156,4.069,14.163,9.28,27.781,10.993c0.244,0.03,0.43,0.243,0.43,0.495v34.953
	c0,7.799-4.195,15.068-10.951,18.969l-16.343,9.436c-0.746,0.43-1.703,0.43-2.447,0L21.933,78.38
	c-6.755-3.9-10.951-11.17-10.951-18.969v-19.58C10.981,39.033,10.334,38.387,9.537,38.387"/>
<path fill="#1B9AC4" d="M21.987,46.11c1.173,0,2.276,0.456,3.105,1.287l7.549,7.547c0.565,0.564,1.479,0.563,2.043,0l8.27-8.271
	c0.564-0.564,0.564-1.478,0-2.042c-0.563-0.565-1.479-0.565-2.043,0l-7.248,7.248l-6.527-6.526
	c-1.375-1.375-3.204-2.133-5.149-2.133s-3.773,0.758-5.148,2.132c-1.376,1.377-2.134,3.205-2.134,5.152
	c0,1.945,0.758,3.773,2.134,5.148l11.674,11.674c1.374,1.375,3.203,2.135,5.15,2.135c1.946,0,3.775-0.76,5.148-2.135l23.35-23.35
	c1.375-1.375,2.134-3.204,2.134-5.148c0-1.946-0.759-3.775-2.134-5.151c-1.375-1.375-3.203-2.131-5.148-2.131
	s-3.773,0.757-5.148,2.131l-6.186,6.187c-0.564,0.563-0.564,1.478,0,2.043c0.564,0.563,1.479,0.563,2.043,0l6.186-6.187
	c0.83-0.829,1.933-1.285,3.105-1.285s2.275,0.456,3.105,1.286s1.287,1.934,1.287,3.107s-0.457,2.275-1.287,3.104L36.767,65.286
	c-0.828,0.828-1.931,1.285-3.104,1.285c-1.174,0-2.277-0.457-3.106-1.287L18.882,53.608c-0.831-0.828-1.288-1.932-1.288-3.104
	c0-1.174,0.458-2.278,1.288-3.108C19.711,46.566,20.814,46.11,21.987,46.11"/>
</svg>
