<?xml version="1.0" encoding="utf-8"?>
<!-- Generator: Adobe Illustrator 16.0.3, SVG Export Plug-In . SVG Version: 6.00 Build 0)  -->
<!DOCTYPE svg PUBLIC "-//W3C//DTD SVG 1.1//EN" "http://www.w3.org/Graphics/SVG/1.1/DTD/svg11.dtd">
<svg version="1.1" id="Capa_1" xmlns="http://www.w3.org/2000/svg" xmlns:xlink="http://www.w3.org/1999/xlink" x="0px" y="0px"
	 width="59px" height="40px" viewBox="0 0 59 40" enable-background="new 0 0 59 40" xml:space="preserve">
<rect x="19.17" y="0.28" fill="#E5ECEC" width="20.657" height="39.438"/>
<path fill="#E03B36" d="M19.17,0.281H6.023c-3.098,0-5.633,2.254-5.633,5.446v28.546c0,3.193,2.535,5.446,5.633,5.446H19.17V0.281z"
	/>
<path fill="#E03B36" d="M52.975,0.281H39.828v39.438h13.146c3.099,0,5.634-2.253,5.634-5.446V5.727
	C58.608,2.535,56.073,0.281,52.975,0.281"/>
<path fill="#D42828" d="M52.975,0.281H39.828v28.264l12.958,11.174c3.099,0,5.822-2.253,5.822-5.446V5.727
	C58.608,2.535,56.073,0.281,52.975,0.281"/>
<polygon fill="#DBE7E6" points="39.828,28.545 39.828,0.281 19.17,0.281 19.17,11.455 "/>
<polygon fill="#D42828" points="19.17,0.281 6.023,0.281 19.17,11.455 "/>
<path fill="#BF151A" d="M39.828,39.719h13.146c3.1,0,5.634-1.878,5.634-5.634H39.828V39.719z"/>
<rect x="19.17" y="34.085" fill="#CFE0DE" width="20.657" height="5.635"/>
<path fill="#BF151A" d="M0.391,34.085c0,3.756,2.534,5.634,5.634,5.634h13.145v-5.634H0.391z"/>
<path fill="#BF151A" d="M52.975,0.281H39.828v9.954l18.78,5.821V5.727C58.608,2.535,56.073,0.281,52.975,0.281"/>
<polygon fill="#CFE0DE" points="39.828,10.234 39.828,0.28 19.17,0.28 19.17,4.13 "/>
<polygon fill="#BF151A" points="19.17,0.281 6.023,0.281 19.17,4.131 "/>
</svg>
