<?xml version="1.0" encoding="utf-8"?>
<!-- Generator: Adobe Illustrator 16.0.3, SVG Export Plug-In . SVG Version: 6.00 Build 0)  -->
<!DOCTYPE svg PUBLIC "-//W3C//DTD SVG 1.1//EN" "http://www.w3.org/Graphics/SVG/1.1/DTD/svg11.dtd">
<svg version="1.1" id="Capa_1" xmlns="http://www.w3.org/2000/svg" xmlns:xlink="http://www.w3.org/1999/xlink" x="0px" y="0px"
	 width="121px" height="121px" viewBox="0 0 121 121" enable-background="new 0 0 121 121" xml:space="preserve">
<g>
	<defs>
		<path id="SVGID_1_" d="M60.464,88.145c0-15.268,12.423-27.694,27.694-27.694c15.274,0,27.694,12.427,27.694,27.694
			c0,15.267-12.42,27.695-27.694,27.695C72.887,115.84,60.464,103.411,60.464,88.145 M55.43,88.145
			c0,18.046,14.684,32.729,32.729,32.729c18.048,0,32.729-14.684,32.729-32.729c0-18.047-14.682-32.729-32.729-32.729
			C70.113,55.415,55.43,70.098,55.43,88.145"/>
	</defs>
	<clipPath id="SVGID_2_">
		<use xlink:href="#SVGID_1_"  overflow="visible"/>
	</clipPath>
	
		<linearGradient id="SVGID_3_" gradientUnits="userSpaceOnUse" x1="-899.6104" y1="3523.3027" x2="-898.6104" y2="3523.3027" gradientTransform="matrix(382.6444 274.1006 274.1006 -382.6444 -621738.6875 1594615.625)">
		<stop  offset="0" style="stop-color:#FBCE47"/>
		<stop  offset="1" style="stop-color:#F9A40E"/>
	</linearGradient>
	<polygon clip-path="url(#SVGID_2_)" fill="url(#SVGID_3_)" points="77.628,24.427 151.878,77.613 98.69,151.863 24.44,98.676 	"/>
</g>
<g>
	<defs>
		<path id="SVGID_4_" d="M98.849,76.418L82.998,94.534l-8.168-8.168c-0.981-0.981-2.578-0.981-3.56,0
			c-0.982,0.982-0.982,2.58,0,3.561l10.07,10.07c0.474,0.47,1.118,0.735,1.784,0.735h0.08c0.695-0.026,1.354-0.337,1.812-0.862
			l17.625-20.14c0.916-1.048,0.81-2.633-0.236-3.549c-0.48-0.42-1.072-0.627-1.662-0.627
			C100.043,75.555,99.346,75.846,98.849,76.418"/>
	</defs>
	<clipPath id="SVGID_5_">
		<use xlink:href="#SVGID_4_"  overflow="visible"/>
	</clipPath>
	
		<linearGradient id="SVGID_6_" gradientUnits="userSpaceOnUse" x1="-899.6104" y1="3523.2959" x2="-898.6104" y2="3523.2959" gradientTransform="matrix(382.6444 274.1006 274.1006 -382.6444 -621737.6875 1594613.875)">
		<stop  offset="0" style="stop-color:#FBCE47"/>
		<stop  offset="1" style="stop-color:#F9A40E"/>
	</linearGradient>
	<polygon clip-path="url(#SVGID_5_)" fill="url(#SVGID_6_)" points="81.57,59.805 115.477,84.093 92.274,116.482 58.368,92.194 	"/>
</g>
<g>
	<defs>
		<path id="SVGID_7_" d="M12.629,15.133c-6.938,0-12.588,5.644-12.588,12.588v65.46c0,6.941,5.649,12.588,12.588,12.588h35.247
			c1.391,0,2.52-1.128,2.52-2.52c0-1.389-1.129-2.517-2.52-2.517H12.629c-4.164,0-7.552-3.389-7.552-7.552v-65.46
			c0-4.165,3.388-7.552,7.552-7.552H22.7c1.389,0,2.517-1.129,2.517-2.52c0-1.389-1.128-2.517-2.517-2.517H12.629z"/>
	</defs>
	<clipPath id="SVGID_8_">
		<use xlink:href="#SVGID_7_"  overflow="visible"/>
	</clipPath>
	
		<linearGradient id="SVGID_9_" gradientUnits="userSpaceOnUse" x1="-899.6104" y1="3523.3135" x2="-898.6104" y2="3523.3135" gradientTransform="matrix(382.6444 274.1006 274.1006 -382.6444 -621750.1875 1594631.375)">
		<stop  offset="0" style="stop-color:#FBCE47"/>
		<stop  offset="1" style="stop-color:#F9A40E"/>
	</linearGradient>
	<polygon clip-path="url(#SVGID_8_)" fill="url(#SVGID_9_)" points="17.117,-8.705 93.303,45.869 33.319,129.606 -42.867,75.032 	
		"/>
</g>
<g>
	<defs>
		<path id="SVGID_10_" d="M62.983,15.133c-1.392,0-2.52,1.128-2.52,2.517c0,1.391,1.128,2.52,2.52,2.52h10.068
			c4.166,0,7.555,3.387,7.555,7.552v15.106c0,1.389,1.128,2.517,2.519,2.517c1.388,0,2.517-1.128,2.517-2.517V27.721
			c0-6.944-5.649-12.588-12.59-12.588H62.983z"/>
	</defs>
	<clipPath id="SVGID_11_">
		<use xlink:href="#SVGID_10_"  overflow="visible"/>
	</clipPath>
	
		<linearGradient id="SVGID_12_" gradientUnits="userSpaceOnUse" x1="-899.6104" y1="3523.293" x2="-898.6104" y2="3523.293" gradientTransform="matrix(382.6444 274.1006 274.1006 -382.6444 -621714.1875 1594581.375)">
		<stop  offset="0" style="stop-color:#FBCE47"/>
		<stop  offset="1" style="stop-color:#F9A40E"/>
	</linearGradient>
	<polygon clip-path="url(#SVGID_11_)" fill="url(#SVGID_12_)" points="69.002,3.213 99.944,25.378 77.104,57.263 46.162,35.099 	"/>
</g>
<g>
	<defs>
		<path id="SVGID_13_" d="M25.217,22.685v-7.552h7.554c1.39,0,2.518-1.128,2.518-2.52c0-4.163,3.388-7.552,7.553-7.552
			c4.164,0,7.555,3.389,7.555,7.552c0,1.392,1.128,2.52,2.517,2.52h7.552v7.552c0,1.386-1.128,2.518-2.517,2.518H27.736
			C26.345,25.202,25.217,24.07,25.217,22.685 M30.505,10.098H22.7c-1.391,0-2.518,1.127-2.518,2.516v10.071
			c0,4.165,3.389,7.555,7.554,7.555h30.211c4.165,0,7.553-3.39,7.553-7.555V12.613c0-1.389-1.129-2.516-2.517-2.516h-7.806
			c-1.173-5.74-6.254-10.071-12.337-10.071C36.759,0.026,31.678,4.357,30.505,10.098"/>
	</defs>
	<clipPath id="SVGID_14_">
		<use xlink:href="#SVGID_13_"  overflow="visible"/>
	</clipPath>
	
		<linearGradient id="SVGID_15_" gradientUnits="userSpaceOnUse" x1="-899.6104" y1="3523.3086" x2="-898.6104" y2="3523.3086" gradientTransform="matrix(382.6444 274.1006 274.1006 -382.6444 -621721.6875 1594591.375)">
		<stop  offset="0" style="stop-color:#FBCE47"/>
		<stop  offset="1" style="stop-color:#F9A40E"/>
	</linearGradient>
	<polygon clip-path="url(#SVGID_14_)" fill="url(#SVGID_15_)" points="35.551,-21.427 79.803,10.272 50.132,51.693 5.88,19.994 	"/>
</g>
<g>
	<defs>
		<path id="SVGID_16_" d="M17.665,40.309c-1.391,0-2.519,1.128-2.519,2.519c0,1.389,1.128,2.517,2.519,2.517h50.354
			c1.389,0,2.517-1.128,2.517-2.517c0-1.391-1.128-2.519-2.517-2.519H17.665z"/>
	</defs>
	<clipPath id="SVGID_17_">
		<use xlink:href="#SVGID_16_"  overflow="visible"/>
	</clipPath>
	
		<linearGradient id="SVGID_18_" gradientUnits="userSpaceOnUse" x1="-899.6133" y1="3523.3027" x2="-898.6085" y2="3523.3027" gradientTransform="matrix(382.6444 274.1006 274.1006 -382.6444 -621732.6875 1594607.125)">
		<stop  offset="0" style="stop-color:#FBCE47"/>
		<stop  offset="1" style="stop-color:#F9A40E"/>
	</linearGradient>
	<polygon clip-path="url(#SVGID_17_)" fill="url(#SVGID_18_)" points="33.93,14.087 72.919,42.017 51.751,71.565 12.763,43.636 	"/>
</g>
<g>
	<defs>
		<path id="SVGID_19_" d="M17.665,55.415c-1.391,0-2.519,1.128-2.519,2.519c0,1.389,1.128,2.517,2.519,2.517h35.247
			c1.39,0,2.518-1.128,2.518-2.517c0-1.391-1.128-2.519-2.518-2.519H17.665z"/>
	</defs>
	<clipPath id="SVGID_20_">
		<use xlink:href="#SVGID_19_"  overflow="visible"/>
	</clipPath>
	
		<linearGradient id="SVGID_21_" gradientUnits="userSpaceOnUse" x1="-899.6104" y1="3523.3027" x2="-898.6104" y2="3523.3027" gradientTransform="matrix(382.6444 274.1006 274.1006 -382.6444 -621742.6875 1594620.625)">
		<stop  offset="0" style="stop-color:#FBCE47"/>
		<stop  offset="1" style="stop-color:#F9A40E"/>
	</linearGradient>
	<polygon clip-path="url(#SVGID_20_)" fill="url(#SVGID_21_)" points="28.808,36.344 57.814,57.122 41.769,79.521 12.762,58.743 	
		"/>
</g>
<g>
	<defs>
		<path id="SVGID_22_" d="M17.665,70.521c-1.391,0-2.519,1.128-2.519,2.517c0,1.39,1.128,2.518,2.519,2.518h25.176
			c1.391,0,2.517-1.128,2.517-2.518c0-1.389-1.126-2.517-2.517-2.517H17.665z"/>
	</defs>
	<clipPath id="SVGID_23_">
		<use xlink:href="#SVGID_22_"  overflow="visible"/>
	</clipPath>
	
		<linearGradient id="SVGID_24_" gradientUnits="userSpaceOnUse" x1="-899.6104" y1="3523.3008" x2="-898.6104" y2="3523.3008" gradientTransform="matrix(382.6444 274.1006 274.1006 -382.6444 -621751.1875 1594632.875)">
		<stop  offset="0" style="stop-color:#FBCE47"/>
		<stop  offset="1" style="stop-color:#F9A40E"/>
	</linearGradient>
	<polygon clip-path="url(#SVGID_23_)" fill="url(#SVGID_24_)" points="25.392,56.22 47.74,72.229 35.112,89.858 12.763,73.849 	"/>
</g>
</svg>
