<?xml version="1.0" encoding="utf-8"?>
<!-- Generator: Adobe Illustrator 16.0.3, SVG Export Plug-In . SVG Version: 6.00 Build 0)  -->
<!DOCTYPE svg PUBLIC "-//W3C//DTD SVG 1.1//EN" "http://www.w3.org/Graphics/SVG/1.1/DTD/svg11.dtd">
<svg version="1.1" id="Capa_1" xmlns="http://www.w3.org/2000/svg" xmlns:xlink="http://www.w3.org/1999/xlink" x="0px" y="0px"
	 width="250px" height="250px" viewBox="0 0 250 250" enable-background="new 0 0 250 250" xml:space="preserve">
<g>
	<defs>
		<rect id="SVGID_1_" x="-102" y="-332.5" width="900" height="900"/>
	</defs>
	<clipPath id="SVGID_2_">
		<use xlink:href="#SVGID_1_"  overflow="visible"/>
	</clipPath>
	<g clip-path="url(#SVGID_2_)">
		<defs>
			<rect id="SVGID_3_" x="-102" y="-332.5" width="900" height="900"/>
		</defs>
		<clipPath id="SVGID_4_">
			<use xlink:href="#SVGID_3_"  overflow="visible"/>
		</clipPath>
		<path clip-path="url(#SVGID_4_)" fill="#1C9FE0" d="M201.598,113.136c-4.882-1.199-8.854-2.174-14.486-3.558
			c14.539-15.948,28.342-31.089,42.146-46.23l2.175,0.561c-0.556,20.921-1.112,41.842-1.713,64.43
			c-5.106-3.206-8.893-5.584-13.056-8.198c-23.621,47.682-61.365,72.903-115.169,71.299c-32.357-0.966-69.202-20.921-84.674-45.534
			c36.488,34.604,77.231,45.596,123.535,27.954C169.126,162.898,189.18,142.229,201.598,113.136"/>
		<g opacity="0.5" clip-path="url(#SVGID_4_)">
			<g>
				<defs>
					<rect id="SVGID_5_" x="15.584" y="85.658" width="163.042" height="87.488"/>
				</defs>
				<clipPath id="SVGID_6_">
					<use xlink:href="#SVGID_5_"  overflow="visible"/>
				</clipPath>
				<path clip-path="url(#SVGID_6_)" fill="#1C9FE0" d="M178.626,128.302c-1.58,1.957-3.452,3.68-5.434,5.26
					c-1.979,1.595-4.145,2.96-6.409,4.155c-4.505,2.464-9.57,3.933-14.746,4.551c-5.191,0.641-10.503,0.158-15.593-1.063
					c-5.107-1.21-9.971-3.235-14.55-5.694c-9.165-4.973-17.181-11.651-24.319-18.991l-2.67-2.769
					c-0.902-0.913-1.705-1.904-2.559-2.857c-1.67-1.933-3.391-3.833-4.942-5.853l-2.385-2.991c-0.8-0.994-1.596-1.991-2.33-3.029
					l-4.488-6.175l4.969,1.302c-5.083,2.514-10.178,5.004-15.284,7.473c-5.097,2.487-10.204,4.952-15.323,7.394
					c-5.11,2.459-10.229,4.899-15.361,7.313c-5.123,2.433-10.26,4.837-15.402,7.228l1.96-4.521c0.111,0.355,0.289,0.867,0.453,1.315
					c0.173,0.465,0.347,0.931,0.537,1.398c0.37,0.935,0.769,1.868,1.186,2.796c0.829,1.859,1.723,3.7,2.705,5.497
					c1.949,3.603,4.146,7.083,6.573,10.396c2.433,3.31,5.109,6.447,8.04,9.333c1.475,1.43,2.97,2.848,4.562,4.152l1.168,1.012
					l1.219,0.949c0.82,0.622,1.606,1.298,2.466,1.865c3.326,2.453,6.933,4.512,10.656,6.345c3.708,1.887,7.636,3.327,11.633,4.594
					c8.041,2.387,16.488,3.643,25.044,3.937c-8.505,0.924-17.225,0.649-25.772-1.045c-4.244-0.935-8.504-2.029-12.569-3.699
					c-4.064-1.646-8.057-3.56-11.794-5.916c-7.544-4.612-14.193-10.669-19.805-17.521c-2.824-3.421-5.343-7.087-7.591-10.92
					c-1.136-1.909-2.183-3.874-3.168-5.881c-0.493-1.003-0.955-2.023-1.4-3.062c-0.226-0.516-0.44-1.044-0.652-1.574
					c-0.216-0.55-0.406-1.039-0.632-1.697l-1.035-3.022l2.996-1.499c5.065-2.534,10.137-5.056,15.222-7.548
					c5.077-2.511,10.166-4.997,15.263-7.463c5.09-2.484,10.191-4.943,15.302-7.382c5.103-2.456,10.216-4.892,15.341-7.303
					l3.046-1.434l1.924,2.735l4.25,6.046c0.692,1.022,1.428,2.005,2.175,2.98l2.222,2.942c1.447,1.994,3.046,3.848,4.599,5.747
					c0.791,0.934,1.525,1.926,2.354,2.823l2.448,2.731c1.596,1.863,3.344,3.556,5.054,5.296l1.278,1.311
					c0.438,0.422,0.892,0.824,1.337,1.238l2.685,2.469c0.884,0.841,1.86,1.551,2.787,2.335l1.408,1.151
					c0.465,0.393,0.94,0.767,1.438,1.105l2.945,2.113c0.484,0.367,0.995,0.684,1.508,0.995l1.534,0.951
					c4.099,2.503,8.397,4.732,12.971,6.149c1.142,0.348,2.302,0.63,3.456,0.951c1.163,0.273,2.343,0.446,3.52,0.68
					c1.181,0.171,2.372,0.274,3.565,0.419c1.193,0.019,2.396,0.109,3.597,0.076C161.402,138.669,171.109,134.954,178.626,128.302"/>
			</g>
		</g>
		<g opacity="0.7" clip-path="url(#SVGID_4_)">
			<g>
				<defs>
					<rect id="SVGID_7_" x="24.611" y="58.251" width="146.629" height="65.706"/>
				</defs>
				<clipPath id="SVGID_8_">
					<use xlink:href="#SVGID_7_"  overflow="visible"/>
				</clipPath>
				<path clip-path="url(#SVGID_8_)" fill="#1C9FE0" d="M171.24,122.534c-4.55,1.131-9.275,1.488-13.975,1.413
					c-4.705-0.096-9.409-0.721-14.002-1.852c-9.195-2.252-17.864-6.674-25.298-12.627c-7.454-5.953-13.714-13.33-18.834-21.355
					c-5.153-8.026-9.225-16.692-12.56-25.589l3.454,1.438c-10.367,5.26-20.665,10.711-30.942,16.197
					c-10.273,5.491-20.53,11.038-30.746,16.62l-3.726-7.173c10.488-5.148,20.982-10.243,31.512-15.292
					c10.531-5.043,21.078-10.048,31.736-14.882l2.603-1.181l0.85,2.619c2.847,8.768,6.411,17.32,11.033,25.28
					c4.593,7.962,10.295,15.325,17.228,21.389c6.913,6.062,15.111,10.735,24.019,13.344c4.447,1.31,9.05,2.135,13.7,2.437
					C161.937,123.602,166.648,123.46,171.24,122.534"/>
			</g>
		</g>
		<path clip-path="url(#SVGID_4_)" fill="#1C9FE0" d="M163.635,108.946c-4.181-0.494-8.272-1.623-12.255-3.01
			c-3.984-1.403-7.847-3.159-11.562-5.197c-7.431-4.082-14.224-9.353-20.16-15.472c-5.944-6.12-10.997-13.097-15.22-20.53
			c-4.199-7.452-7.577-15.359-10.235-23.488l3.446,1.564L40.744,70.36L37.402,63l58.166-24.759l2.705-1.151l0.74,2.715
			c2.176,7.973,5.053,15.759,8.748,23.157c3.72,7.378,8.265,14.37,13.742,20.602c5.469,6.229,11.84,11.712,18.946,16.09
			c3.554,2.185,7.279,4.11,11.155,5.695C155.479,106.92,159.488,108.245,163.635,108.946"/>
	</g>
</g>
</svg>
