<?xml version="1.0" encoding="utf-8"?>
<!-- Generator: Adobe Illustrator 16.0.3, SVG Export Plug-In . SVG Version: 6.00 Build 0)  -->
<!DOCTYPE svg PUBLIC "-//W3C//DTD SVG 1.1//EN" "http://www.w3.org/Graphics/SVG/1.1/DTD/svg11.dtd">
<svg version="1.1" id="Capa_1" xmlns="http://www.w3.org/2000/svg" xmlns:xlink="http://www.w3.org/1999/xlink" x="0px" y="0px"
	 width="71px" height="99px" viewBox="0 0 71 99" enable-background="new 0 0 71 99" xml:space="preserve">
<path fill="#B6D96D" d="M61.027,57.608C45.543,75.96,50.148,70.501,39.975,82.558c-2.424,2.872-6.849,2.872-9.271,0
	c-9.892-11.726-5.442-6.45-21.052-24.949C-1.609,44.262-0.773,24.516,11.574,12.167c13.127-13.128,34.412-13.121,47.531,0
	C71.377,24.438,72.355,44.184,61.027,57.608"/>
<path fill="#A2C25B" d="M35.339,72.359c18.502,0,33.5,5.553,33.5,12.4s-14.998,12.399-33.5,12.399
	c-18.502,0-33.501-5.552-33.501-12.399S16.837,72.359,35.339,72.359"/>
<path fill="#B6D96D" d="M20.998,91.78c1.742,1.471,0.354,4.289-1.879,3.831C8.813,93.497,1.839,89.43,1.839,84.759
	c0-6.725,13.746-11.565,29.466-12.308c2.63-0.125,3.232,3.639,0.691,4.323C19.55,80.13,14.532,86.325,20.998,91.78"/>
<path fill="#B6D96D" d="M35.34,21.18c8.093,0,14.656,6.563,14.656,14.657c0,8.095-6.563,14.658-14.656,14.658
	c-8.096,0-14.659-6.563-14.659-14.658C20.681,27.743,27.244,21.18,35.34,21.18"/>
<path fill="#A2C25B" d="M43.668,23.775c1.895,1.312,0.926,4.282-1.377,4.276c-7.733-0.021-14.761,6.203-14.722,14.741
	c0.01,2.313-2.957,3.296-4.277,1.396c-6.684-9.62,0.162-23.01,12.047-23.01C38.434,21.18,41.305,22.139,43.668,23.775"/>
<path fill="#A2C25B" d="M32.068,2.475c8.439-0.799,10.871,11.158,2.829,13.84c-11.413,3.807-20.399,13.729-22.495,26.369
	c-0.919,5.552-8.78,5.762-9.939,0.256C-1.715,23.083,12.381,4.337,32.068,2.475"/>
<path fill="#85B33D" d="M19.047,35.838c0,8.983,7.309,16.292,16.292,16.292c8.984,0,16.292-7.309,16.292-16.292
	s-7.309-16.293-16.292-16.293C26.356,19.545,19.047,26.854,19.047,35.838 M48.361,35.838c0,7.181-5.842,13.021-13.023,13.021
	c-7.18,0-13.021-5.841-13.021-13.021s5.842-13.022,13.021-13.022C42.52,22.815,48.361,28.657,48.361,35.838 M3.43,84.759
	c0,5.093,13.097,10.766,31.89,10.766c18.793,0,31.891-5.673,31.891-10.766c0-2.503-3.271-5.208-8.752-7.233
	c-0.848-0.313-1.279-1.254-0.967-2.102c0.313-0.847,1.254-1.279,2.102-0.966c14.535,5.376,14.559,15.218,0,20.604
	c-13.469,4.979-35.077,4.981-48.547,0C-5.501,88.94-3.636,76.528,19.749,72.11L8.402,58.661c-11.8-13.985-10.944-34.691,2.015-47.65
	C19.58,1.849,32.994-1.545,45.424,2.155c0.865,0.258,1.359,1.168,1.102,2.034c-0.258,0.864-1.168,1.357-2.033,1.1
	C33.213,1.932,21.043,5.01,12.73,13.323C0.887,25.167,0.1,43.752,10.901,56.552l21.053,24.952c1.77,2.099,5.003,2.096,6.771,0
	l21.053-24.952c4.883-5.786,7.559-13.142,7.537-20.71c-0.004-0.901,0.727-1.637,1.631-1.64c0.9-0.003,1.637,0.727,1.639,1.631
	c0.025,8.342-2.926,16.449-8.307,22.829L41.223,83.613c-3.076,3.646-8.695,3.643-11.769,0l-7.263-8.609
	C11.128,76.789,3.43,80.782,3.43,84.759"/>
</svg>
