<?xml version="1.0" encoding="utf-8"?>
<!-- Generator: Adobe Illustrator 16.0.3, SVG Export Plug-In . SVG Version: 6.00 Build 0)  -->
<!DOCTYPE svg PUBLIC "-//W3C//DTD SVG 1.1//EN" "http://www.w3.org/Graphics/SVG/1.1/DTD/svg11.dtd">
<svg version="1.1" id="Capa_1" xmlns="http://www.w3.org/2000/svg" xmlns:xlink="http://www.w3.org/1999/xlink" x="0px" y="0px"
	 width="72.148px" height="100.423px" viewBox="0 0 72.148 100.423" enable-background="new 0 0 72.148 100.423"
	 xml:space="preserve">
<g>
	<defs>
		<path id="SVGID_1_" d="M31.945,73.455c-16.089,0.76-30.16,5.715-30.16,12.6c0,4.779,7.139,8.941,17.686,11.105
			c2.286,0.471,3.708-2.416,1.925-3.92c-6.619-5.584-1.483-11.924,11.256-15.359c2.56-0.689,2.004-4.428-0.578-4.428
			C32.032,73.453,31.989,73.453,31.945,73.455"/>
	</defs>
	<clipPath id="SVGID_2_">
		<use xlink:href="#SVGID_1_"  overflow="visible"/>
	</clipPath>
	
		<linearGradient id="SVGID_3_" gradientUnits="userSpaceOnUse" x1="-897.3569" y1="3607.6211" x2="-896.3574" y2="3607.6211" gradientTransform="matrix(32.5288 0 0 -32.5288 29191.75 117437.2188)">
		<stop  offset="0" style="stop-color:#FBCE47"/>
		<stop  offset="1" style="stop-color:#F1C91A"/>
	</linearGradient>
	<rect x="1.786" y="73.453" clip-path="url(#SVGID_2_)" fill="url(#SVGID_3_)" width="33.427" height="24.178"/>
</g>
<g>
	<defs>
		<path id="SVGID_4_" d="M11.75,11.753C-0.888,24.394-1.743,44.604,9.784,58.264C25.761,77.197,21.205,71.799,31.33,83.803
			c2.481,2.938,7.008,2.938,9.491,0c10.412-12.344,5.698-6.756,21.547-25.539c11.594-13.74,10.592-33.95-1.967-46.51
			C53.685,5.038,44.881,1.679,36.075,1.679C27.271,1.68,18.465,5.037,11.75,11.753"/>
	</defs>
	<clipPath id="SVGID_5_">
		<use xlink:href="#SVGID_4_"  overflow="visible"/>
	</clipPath>
	
		<linearGradient id="SVGID_6_" gradientUnits="userSpaceOnUse" x1="-927.9561" y1="3520.6182" x2="-926.9561" y2="3520.6182" gradientTransform="matrix(231.0968 261.2903 261.2903 -231.0968 -705579.8125 1055932.5)">
		<stop  offset="0" style="stop-color:#FBCE47"/>
		<stop  offset="1" style="stop-color:#F9A40E"/>
	</linearGradient>
	<polygon clip-path="url(#SVGID_5_)" fill="url(#SVGID_6_)" points="40.734,-35.889 116.173,49.407 31.484,124.309 -43.955,39.013 	
		"/>
</g>
<g opacity="0.3">
	<g>
		<defs>
			<rect id="SVGID_7_" x="1.785" y="73.363" width="68.58" height="25.383"/>
		</defs>
		<clipPath id="SVGID_8_">
			<use xlink:href="#SVGID_7_"  overflow="visible"/>
		</clipPath>
		<g clip-path="url(#SVGID_8_)">
			<defs>
				<path id="SVGID_9_" d="M36.075,73.363c18.938,0,34.291,5.682,34.291,12.691c0,7.008-15.353,12.689-34.291,12.689
					c-18.937,0-34.289-5.682-34.289-12.689C1.786,79.045,17.138,73.363,36.075,73.363"/>
			</defs>
			<clipPath id="SVGID_10_">
				<use xlink:href="#SVGID_9_"  overflow="visible"/>
			</clipPath>
			
				<linearGradient id="SVGID_11_" gradientUnits="userSpaceOnUse" x1="-910.7974" y1="3557.8848" x2="-909.7974" y2="3557.8848" gradientTransform="matrix(68.579 0 0 -68.579 62463.3438 244082.0313)">
				<stop  offset="0" style="stop-color:#FBCE47"/>
				<stop  offset="1" style="stop-color:#F9A40E"/>
			</linearGradient>
			<rect x="1.786" y="73.363" clip-path="url(#SVGID_10_)" fill="url(#SVGID_11_)" width="68.58" height="25.381"/>
		</g>
	</g>
</g>
<g>
	<defs>
		<path id="SVGID_12_" d="M21.072,35.981c0,8.286,6.718,15.004,15.004,15.004c8.284,0,15.002-6.718,15.002-15.004
			c0-8.285-6.719-15.001-15.002-15.001C27.79,20.98,21.072,27.696,21.072,35.981"/>
	</defs>
	<clipPath id="SVGID_13_">
		<use xlink:href="#SVGID_12_"  overflow="visible"/>
	</clipPath>
	
		<linearGradient id="SVGID_14_" gradientUnits="userSpaceOnUse" x1="-895.2056" y1="3615.5869" x2="-894.2056" y2="3615.5869" gradientTransform="matrix(30.0049 0 0 -30.0049 26881.6797 108521.4531)">
		<stop  offset="0" style="stop-color:#FBCE47"/>
		<stop  offset="1" style="stop-color:#F1C91A"/>
	</linearGradient>
	<rect x="21.072" y="20.98" clip-path="url(#SVGID_13_)" fill="url(#SVGID_14_)" width="30.006" height="30.005"/>
</g>
<g opacity="0.3">
	<g>
		<defs>
			<rect id="SVGID_15_" x="21.061" y="20.979" width="24.568" height="24.578"/>
		</defs>
		<clipPath id="SVGID_16_">
			<use xlink:href="#SVGID_15_"  overflow="visible"/>
		</clipPath>
		<path clip-path="url(#SVGID_16_)" fill="#E1AC13" d="M44.601,23.635c1.938,1.342,0.946,4.383-1.411,4.377
			c-7.915-0.021-15.108,6.35-15.068,15.088c0.011,2.367-3.027,3.373-4.378,1.431c-6.84-9.848,0.167-23.551,12.331-23.551
			C39.242,20.978,42.18,21.96,44.601,23.635"/>
	</g>
</g>
<g opacity="0.3">
	<g>
		<defs>
			<rect id="SVGID_17_" x="1.671" y="1.794" width="38.989" height="45.57"/>
		</defs>
		<clipPath id="SVGID_18_">
			<use xlink:href="#SVGID_17_"  overflow="visible"/>
		</clipPath>
		<path clip-path="url(#SVGID_18_)" fill="#E1AC13" d="M32.727,1.833c8.638-0.816,11.126,11.42,2.895,14.165
			c-11.682,3.896-20.879,14.053-23.023,26.99c-0.942,5.682-8.988,5.896-10.174,0.261C-1.852,22.926,12.577,3.74,32.727,1.833"/>
	</g>
</g>
<path fill="#E68913" d="M19.398,35.982c0,9.193,7.481,16.676,16.676,16.676c9.194,0,16.675-7.483,16.675-16.676
	c0-9.196-7.481-16.677-16.675-16.677C26.879,19.305,19.398,26.786,19.398,35.982 M49.402,35.982c0,7.349-5.979,13.327-13.328,13.327
	s-13.328-5.979-13.328-13.327c0-7.351,5.979-13.328,13.328-13.328S49.402,28.631,49.402,35.982 M3.415,86.053
	c0,5.213,13.405,11.02,32.641,11.02c19.235,0,32.64-5.807,32.64-11.02c0-2.561-3.348-5.33-8.957-7.402
	c-0.867-0.322-1.31-1.285-0.99-2.152c0.321-0.865,1.285-1.309,2.151-0.988c14.878,5.504,14.899,15.576,0,21.088
	c-13.784,5.1-35.902,5.1-49.689,0c-16.938-6.266-15.029-18.969,8.907-23.49L8.503,59.342C-3.574,45.029-2.697,23.834,10.565,10.571
	c9.379-9.378,23.109-12.852,35.831-9.064c0.887,0.264,1.391,1.195,1.127,2.081c-0.263,0.886-1.195,1.391-2.081,1.127
	c-11.545-3.436-24.001-0.286-32.509,8.223C0.811,25.059,0.006,44.082,11.062,57.184l21.547,25.537c1.813,2.148,5.122,2.146,6.931,0
	l21.549-25.537c4.998-5.924,7.738-13.451,7.714-21.197c-0.003-0.925,0.743-1.677,1.669-1.68c0.923-0.003,1.675,0.744,1.678,1.669
	c0.025,8.538-2.994,16.838-8.503,23.366L42.099,84.881c-3.149,3.732-8.901,3.729-12.048,0l-7.434-8.811
	C11.293,77.896,3.415,81.984,3.415,86.053"/>
</svg>
