<?xml version="1.0" encoding="utf-8"?>
<!-- Generator: Adobe Illustrator 16.0.3, SVG Export Plug-In . SVG Version: 6.00 Build 0)  -->
<!DOCTYPE svg PUBLIC "-//W3C//DTD SVG 1.1//EN" "http://www.w3.org/Graphics/SVG/1.1/DTD/svg11.dtd">
<svg version="1.1" id="Capa_1" xmlns="http://www.w3.org/2000/svg" xmlns:xlink="http://www.w3.org/1999/xlink" x="0px" y="0px"
	 width="360px" height="95px" viewBox="0 0 360 95" enable-background="new 0 0 360 95" xml:space="preserve">
<path fill="#FFFFFF" d="M138.243,66.656c-0.773,0-1.682-0.023-2.727-0.068c-1.046-0.047-2.125-0.137-3.238-0.273
	c-1.114-0.136-2.216-0.307-3.306-0.511c-1.091-0.204-2.091-0.487-2.999-0.853c-2.5-0.953-3.75-2.612-3.75-4.976V28.14
	c0-0.954,0.261-1.692,0.784-2.216c0.522-0.522,1.238-0.943,2.147-1.26c1.545-0.546,3.477-0.943,5.795-1.194
	c2.318-0.249,4.703-0.375,7.158-0.375c5.816,0,10.293,0.978,13.429,2.932c3.136,1.955,4.704,4.976,4.704,9.066
	c0,2.046-0.591,3.808-1.772,5.284c-1.183,1.477-2.773,2.556-4.772,3.238c2.272,0.637,4.169,1.795,5.692,3.476
	c1.522,1.682,2.282,3.796,2.282,6.34c0,4.5-1.67,7.829-5.009,9.987C149.32,65.576,144.515,66.656,138.243,66.656 M133.812,40.41
	h4.977c1.953,0,3.374-0.363,4.26-1.09c0.887-0.728,1.329-1.795,1.329-3.205c0-1.227-0.511-2.204-1.534-2.931
	c-1.022-0.726-2.556-1.091-4.601-1.091c-0.681,0-1.466,0.023-2.352,0.068c-0.886,0.046-1.579,0.114-2.079,0.204V40.41z
	 M133.812,57.043c0.636,0.183,1.454,0.308,2.454,0.375c0.999,0.068,1.954,0.104,2.863,0.104c1.817,0,3.329-0.375,4.534-1.125
	c1.203-0.75,1.806-1.92,1.806-3.511c0-1.5-0.501-2.567-1.5-3.204c-1-0.636-2.522-0.955-4.567-0.955h-5.59V57.043z"/>
<path fill="#FFFFFF" d="M180.85,66.656c-2.683,0-5.171-0.375-7.466-1.125s-4.295-1.874-5.999-3.374
	c-1.703-1.5-3.045-3.386-4.021-5.659c-0.979-2.271-1.465-4.93-1.465-7.975c0-3,0.486-5.578,1.465-7.738
	c0.977-2.157,2.261-3.93,3.852-5.317c1.59-1.386,3.408-2.408,5.454-3.068c2.045-0.658,4.134-0.988,6.271-0.988
	c2.41,0,4.602,0.364,6.58,1.091c1.977,0.727,3.68,1.727,5.111,2.999c1.432,1.273,2.545,2.795,3.34,4.568
	c0.795,1.771,1.193,3.703,1.193,5.793c0,1.547-0.432,2.728-1.295,3.546c-0.865,0.817-2.068,1.341-3.613,1.567l-16.837,2.522
	c0.499,1.5,1.521,2.625,3.067,3.374c1.545,0.75,3.317,1.125,5.316,1.125c1.863,0,3.623-0.238,5.283-0.715
	c1.658-0.479,3.01-1.034,4.057-1.67c0.727,0.453,1.34,1.09,1.84,1.908c0.5,0.817,0.75,1.682,0.75,2.59
	c0,2.046-0.953,3.568-2.863,4.568c-1.455,0.772-3.09,1.295-4.908,1.567C184.145,66.52,182.439,66.656,180.85,66.656 M178.939,39.865
	c-1.09,0-2.033,0.182-2.828,0.545c-0.797,0.365-1.443,0.83-1.943,1.398s-0.875,1.203-1.124,1.908
	c-0.251,0.705-0.399,1.42-0.444,2.146l11.656-1.908c-0.135-0.908-0.635-1.816-1.5-2.727
	C181.895,40.32,180.622,39.865,178.939,39.865"/>
<path fill="#FFFFFF" d="M218.273,66.656c-2.682,0-5.17-0.375-7.465-1.125s-4.295-1.874-5.998-3.374
	c-1.705-1.5-3.045-3.386-4.023-5.659c-0.977-2.271-1.465-4.93-1.465-7.975c0-3,0.488-5.578,1.465-7.738
	c0.979-2.157,2.262-3.93,3.854-5.317c1.59-1.386,3.408-2.408,5.453-3.068c2.045-0.658,4.135-0.988,6.271-0.988
	c2.408,0,4.602,0.364,6.578,1.091c1.979,0.727,3.68,1.727,5.113,2.999c1.432,1.273,2.545,2.795,3.34,4.568
	c0.795,1.771,1.193,3.703,1.193,5.793c0,1.547-0.434,2.728-1.295,3.546c-0.865,0.817-2.068,1.341-3.613,1.567l-16.838,2.522
	c0.5,1.5,1.521,2.625,3.066,3.374c1.545,0.75,3.318,1.125,5.318,1.125c1.863,0,3.623-0.238,5.283-0.715
	c1.658-0.479,3.01-1.034,4.055-1.67c0.729,0.453,1.34,1.09,1.842,1.908c0.498,0.817,0.75,1.682,0.75,2.59
	c0,2.046-0.955,3.568-2.863,4.568c-1.455,0.772-3.092,1.295-4.908,1.567C221.568,66.52,219.863,66.656,218.273,66.656
	 M216.365,39.865c-1.092,0-2.035,0.182-2.83,0.545c-0.795,0.365-1.441,0.83-1.941,1.398s-0.875,1.203-1.125,1.908
	s-0.398,1.42-0.443,2.146l11.656-1.908c-0.135-0.908-0.635-1.816-1.5-2.727C219.318,40.32,218.047,39.865,216.365,39.865"/>
<path fill="#FFFFFF" d="M247.994,25.481c0.771-0.454,1.943-0.886,3.51-1.295c1.568-0.41,3.148-0.614,4.738-0.614
	c2.271,0,4.283,0.33,6.033,0.989c1.75,0.659,2.875,1.693,3.375,3.101c0.816,2.364,1.703,5.113,2.658,8.249
	c0.953,3.136,1.908,6.374,2.863,9.714c0.953,3.342,1.885,6.637,2.795,9.885c0.908,3.25,1.703,6.125,2.387,8.625
	c-0.547,0.637-1.365,1.147-2.455,1.533c-1.092,0.385-2.387,0.579-3.887,0.579c-1.09,0-2.01-0.092-2.76-0.272
	c-0.75-0.183-1.365-0.453-1.842-0.818c-0.477-0.363-0.863-0.84-1.158-1.432c-0.297-0.59-0.557-1.271-0.785-2.045l-1.225-4.703
	h-12.34c-0.365,1.363-0.729,2.771-1.09,4.226c-0.365,1.455-0.729,2.862-1.092,4.226c-0.637,0.229-1.307,0.422-2.012,0.58
	c-0.705,0.159-1.557,0.239-2.557,0.239c-2.316,0-4.033-0.397-5.146-1.192s-1.67-1.897-1.67-3.308c0-0.636,0.09-1.271,0.273-1.907
	c0.18-0.637,0.385-1.387,0.611-2.25c0.318-1.228,0.762-2.75,1.33-4.568c0.568-1.816,1.193-3.783,1.875-5.896s1.408-4.283,2.182-6.51
	s1.5-4.329,2.182-6.306s1.305-3.738,1.875-5.283C247.232,27.481,247.674,26.299,247.994,25.481 M256.174,34.275
	c-0.637,1.909-1.354,4.034-2.146,6.374c-0.797,2.342-1.512,4.716-2.148,7.125h8.453c-0.637-2.455-1.285-4.852-1.943-7.192
	s-1.26-4.442-1.805-6.306H256.174z"/>
<path fill="#FFFFFF" d="M296.871,31.412c2.592,0,4.943,0.33,7.057,0.989c2.113,0.659,3.896,1.511,5.352,2.556
	c0.908,0.637,1.625,1.341,2.148,2.114c0.521,0.772,0.783,1.772,0.783,3V63.93c0,2.408-0.455,4.486-1.363,6.236
	c-0.91,1.75-2.148,3.205-3.715,4.363c-1.568,1.159-3.41,2.012-5.523,2.557s-4.373,0.818-6.781,0.818
	c-4.137,0-7.387-0.558-9.75-1.671c-2.363-1.114-3.545-2.92-3.545-5.419c0-1.046,0.215-1.967,0.648-2.761
	c0.432-0.796,0.92-1.397,1.465-1.806c1.318,0.726,2.807,1.34,4.467,1.84c1.658,0.5,3.373,0.75,5.146,0.75
	c2.453,0,4.406-0.409,5.861-1.227c1.455-0.818,2.184-2.137,2.184-3.955v-1.091c-1.865,0.818-4.139,1.228-6.818,1.228
	c-2.045,0-3.988-0.307-5.828-0.92c-1.842-0.614-3.455-1.568-4.84-2.863c-1.387-1.296-2.5-2.967-3.342-5.012
	c-0.84-2.045-1.26-4.475-1.26-7.293c0-2.772,0.441-5.182,1.328-7.227s2.113-3.738,3.682-5.078c1.568-1.341,3.432-2.341,5.59-3
	C291.975,31.742,294.326,31.412,296.871,31.412 M301.1,41.297c-0.32-0.182-0.785-0.363-1.398-0.545s-1.375-0.273-2.283-0.273
	c-2.229,0-3.898,0.625-5.012,1.875s-1.67,3.033-1.67,5.352c0,2.636,0.557,4.533,1.67,5.692c1.113,1.158,2.533,1.737,4.262,1.737
	c1.863,0,3.34-0.432,4.432-1.295V41.297z"/>
<path fill="#FFFFFF" d="M330.957,65.497c-0.455,0.136-1.172,0.272-2.148,0.409s-1.988,0.204-3.033,0.204
	c-1,0-1.898-0.067-2.693-0.204s-1.465-0.409-2.01-0.818c-0.545-0.408-0.967-0.965-1.262-1.67c-0.295-0.703-0.443-1.625-0.443-2.761
	v-20.45c0-1.046,0.193-1.943,0.58-2.693c0.385-0.75,0.943-1.42,1.67-2.011c0.727-0.59,1.625-1.125,2.693-1.602
	c1.066-0.477,2.215-0.897,3.441-1.261c1.229-0.364,2.5-0.648,3.818-0.852c1.318-0.205,2.635-0.307,3.953-0.307
	c2.182,0,3.908,0.421,5.182,1.261c1.271,0.841,1.908,2.215,1.908,4.124c0,0.637-0.092,1.262-0.273,1.875s-0.408,1.171-0.68,1.67
	c-0.955,0-1.932,0.047-2.932,0.137c-1,0.092-1.979,0.228-2.932,0.408c-0.955,0.184-1.852,0.375-2.693,0.58
	c-0.84,0.204-1.557,0.443-2.146,0.715V65.497z"/>
<path fill="#FFFFFF" d="M347.113,23.231c0-1.727,0.578-3.18,1.738-4.362c1.158-1.182,2.691-1.773,4.602-1.773
	c1.908,0,3.441,0.591,4.602,1.773c1.158,1.182,1.736,2.635,1.736,4.362c0,1.728-0.578,3.182-1.736,4.363
	c-1.16,1.182-2.693,1.773-4.602,1.773c-1.91,0-3.443-0.591-4.602-1.773C347.691,26.413,347.113,24.959,347.113,23.231
	 M359.246,65.497c-0.5,0.091-1.238,0.216-2.215,0.375s-1.967,0.238-2.965,0.238c-1,0-1.898-0.067-2.693-0.204
	s-1.465-0.409-2.012-0.818c-0.545-0.408-0.965-0.965-1.26-1.67c-0.297-0.703-0.443-1.625-0.443-2.761V32.912
	c0.5-0.091,1.238-0.216,2.215-0.375c0.979-0.16,1.965-0.239,2.965-0.239s1.898,0.068,2.693,0.204
	c0.795,0.137,1.467,0.41,2.012,0.818c0.545,0.409,0.965,0.967,1.262,1.671c0.295,0.704,0.441,1.625,0.441,2.761V65.497z"/>
<path fill="#FFFFFF" d="M63.376,25.112c-0.856-1.893-2.444-3.346-4.441-4.099c-1.244-0.469-1.867-1.847-1.396-3.095
	c0.469-1.244,1.847-1.868,3.09-1.398c3.119,1.175,5.647,3.55,7.043,6.645c0.547,1.199,0.028,2.574-1.176,3.118
	C65.17,26.783,63.801,26.267,63.376,25.112"/>
<path fill="#FFFFFF" d="M88.577,28.22H76.839c-1.07-6.536-4.672-12.142-9.874-15.875L74.57,4.74c1.069-1.07,1.069-2.799,0-3.733
	c-1.069-1.07-2.803-1.07-3.733,0l-8.674,8.674C56.291,7.278,49.62,7.278,43.489,9.946l-8.935-8.934c-1.069-1.07-2.803-1.07-3.737,0
	c-1.07,1.068-1.07,2.803,0,3.732l8.005,8.005c-4.933,3.733-8.27,9.205-9.335,15.471H17.744C7.875,28.22,0,36.226,0,45.965
	c0,9.873,8.005,17.744,17.744,17.744h11.743c1.599,10.404,10.134,18.943,21.077,20.147v8.271c0,1.469,1.2,2.668,2.669,2.668
	c1.469,0,2.668-1.199,2.668-2.668v-8.271c10.004-1.199,19.209-8.404,21.077-20.147h11.744c9.869,0,17.744-8,17.744-17.744
	C106.321,36.221,98.451,28.215,88.577,28.22 M28.952,58.367H17.479c-6.8,0-12.402-5.602-12.402-12.402
	c0-6.806,5.602-12.408,12.402-12.408h11.473V58.367z M71.372,28.22H34.689C38.822,8.342,67.369,8.342,71.372,28.22 M40.69,73.973
	h24.811C58.435,80.244,47.761,80.375,40.69,73.973 M69.773,68.641H36.558c-0.8-1.469-1.335-3.072-1.734-4.801h18.279h18.274
	C71.107,65.438,70.437,67.037,69.773,68.641 M71.772,58.367H53.098H34.419v-4.802h37.483v4.802H71.772z M71.772,48.229H34.419
	v-4.537h37.483v4.537H71.772z M71.772,38.359H34.419v-4.802h37.483v4.802H71.772z M88.577,58.497H77.104V33.552h11.473
	c6.806,0,12.407,5.602,12.407,12.407C100.989,52.896,95.388,58.497,88.577,58.497"/>
</svg>
