<?xml version="1.0" encoding="utf-8"?>
<!-- Generator: Adobe Illustrator 16.0.3, SVG Export Plug-In . SVG Version: 6.00 Build 0)  -->
<!DOCTYPE svg PUBLIC "-//W3C//DTD SVG 1.1//EN" "http://www.w3.org/Graphics/SVG/1.1/DTD/svg11.dtd">
<svg version="1.1" id="Capa_1" xmlns="http://www.w3.org/2000/svg" xmlns:xlink="http://www.w3.org/1999/xlink" x="0px" y="0px"
	 width="187px" height="213.891px" viewBox="0 0 187 213.891" enable-background="new 0 0 187 213.891" xml:space="preserve">
<path fill="#1C9FE0" d="M181.954,131.978c2.957-3.302,4.76-7.658,4.76-12.431c0-10.276-8.364-18.641-18.644-18.641h-36.184
	c3.584-10.875,5.111-25.305,5.111-31.49v-6.21c0-13.704-11.15-24.857-24.855-24.857h-6.215c-2.851,0-5.336,1.939-6.027,4.707
	l-3.385,13.543c-4.745,18.967-19.804,39.893-35.389,43.694c-2.731-6.911-9.471-11.815-17.342-11.815H6.5
	c-3.43,0-6.214,2.784-6.214,6.215V206.55c0,3.431,2.784,6.216,6.214,6.216h37.286c7.411,0,13.824-4.347,16.828-10.627l21.352,7.116
	c6.981,2.33,14.257,3.511,21.619,3.511h52.06c10.277,0,18.644-8.365,18.644-18.644c0-2.424-0.466-4.744-1.312-6.869
	c7.904-2.16,13.738-9.403,13.738-17.987c0-4.769-1.803-9.127-4.76-12.429c2.957-3.303,4.76-7.662,4.76-12.43
	C186.714,139.638,184.911,135.28,181.954,131.978 M50,194.122c0,3.426-2.788,6.215-6.214,6.215H12.713v-99.43h31.072
	c3.426,0,6.214,2.788,6.214,6.214L50,194.122L50,194.122z M155.643,138.192h12.43c3.426,0,6.215,2.787,6.215,6.215
	c0,3.426-2.789,6.215-6.215,6.215h-12.43c-3.431,0-6.213,2.783-6.213,6.215c0,3.429,2.782,6.213,6.213,6.213h12.43
	c3.426,0,6.215,2.789,6.215,6.216c0,3.426-2.789,6.213-6.215,6.213h-12.43c-3.431,0-6.213,2.785-6.213,6.215
	c0,3.432,2.782,6.215,6.213,6.215c3.426,0,6.215,2.789,6.215,6.215s-2.789,6.215-6.215,6.215h-52.059
	c-6.023,0-11.978-0.967-17.69-2.873l-23.465-7.821v-76.896c9.748-1.852,19.289-8.024,27.901-18.129
	c8.411-9.868,15.23-22.951,18.242-35.003l2.207-8.837h1.363c6.853,0,12.43,5.576,12.43,12.429v6.21c0,8.343-2.61,24.348-5.95,31.49
	H105.93c-3.431,0-6.216,2.783-6.216,6.214c0,3.429,2.785,6.214,6.216,6.214h62.144c3.426,0,6.215,2.789,6.215,6.213
	c0,3.429-2.789,6.218-6.215,6.218h-12.429c-3.432,0-6.215,2.782-6.215,6.213C149.43,135.409,152.212,138.192,155.643,138.192"/>
<path fill="#1C9FE0" d="M31.357,175.478c3.432,0,6.214,2.782,6.214,6.215c0,3.432-2.782,6.215-6.214,6.215s-6.214-2.783-6.214-6.215
	C25.143,178.26,27.925,175.478,31.357,175.478"/>
<path fill="#1C9FE0" d="M118.357,0.649c-3.434,0-6.215,2.783-6.215,6.215v12.843c0,3.432,2.781,6.213,6.215,6.213
	c3.432,0,6.213-2.781,6.213-6.213V6.864C124.57,3.433,121.789,0.649,118.357,0.649"/>
<path fill="#1C9FE0" d="M91.992,28.054l-8.789-8.788c-2.426-2.428-6.361-2.428-8.788,0c-2.426,2.427-2.426,6.359,0,8.788
	l8.788,8.788c2.427,2.427,6.362,2.428,8.789,0C94.418,34.414,94.418,30.48,91.992,28.054"/>
<path fill="#1C9FE0" d="M162.298,19.265c-2.426-2.427-6.36-2.427-8.786,0l-8.789,8.789c-2.427,2.427-2.427,6.359,0,8.786
	c2.426,2.429,6.36,2.43,8.789,0.002l8.786-8.788C164.727,25.626,164.727,21.692,162.298,19.265"/>
</svg>
