<?xml version="1.0" encoding="utf-8"?>
<!-- Generator: Adobe Illustrator 16.0.3, SVG Export Plug-In . SVG Version: 6.00 Build 0)  -->
<!DOCTYPE svg PUBLIC "-//W3C//DTD SVG 1.1//EN" "http://www.w3.org/Graphics/SVG/1.1/DTD/svg11.dtd">
<svg version="1.1" id="Capa_1" xmlns="http://www.w3.org/2000/svg" xmlns:xlink="http://www.w3.org/1999/xlink" x="0px" y="0px"
	 width="204px" height="53px" viewBox="0 0 204 53" enable-background="new 0 0 204 53" xml:space="preserve">
<polygon fill="#F6F6F6" points="47.49,5.059 47.49,52.977 34.211,52.977 16.002,31.209 16.002,52.977 0.257,52.977 0.257,5.059 
	13.538,5.059 31.746,26.828 31.746,5.059 "/>
<polygon fill="#F6F6F6" points="95.127,40.791 95.127,52.979 55.287,52.979 55.287,5.06 94.238,5.06 94.238,17.244 71.169,17.244 
	71.169,22.857 91.431,22.857 91.431,34.494 71.169,34.494 71.169,40.791 "/>
<polygon fill="#F6F6F6" points="131.334,52.977 123.053,40.176 114.975,52.977 96.561,52.977 113.879,28.813 97.176,5.059 
	115.316,5.059 123.463,17.108 131.402,5.059 148.791,5.059 132.156,28.197 149.816,52.977 "/>
<polygon fill="#F6F6F6" points="161.518,17.586 147.484,17.586 147.484,5.06 191.705,5.06 191.705,17.586 177.672,17.586 
	177.672,52.979 161.518,52.979 "/>
<polygon fill="#F6F6F6" points="203.742,11.057 189.705,0.022 189.705,22.092 "/>
</svg>
