<?xml version="1.0" encoding="utf-8"?>
<!-- Generator: Adobe Illustrator 16.0.3, SVG Export Plug-In . SVG Version: 6.00 Build 0)  -->
<!DOCTYPE svg PUBLIC "-//W3C//DTD SVG 1.1//EN" "http://www.w3.org/Graphics/SVG/1.1/DTD/svg11.dtd">
<svg version="1.1" id="Capa_1" xmlns="http://www.w3.org/2000/svg" xmlns:xlink="http://www.w3.org/1999/xlink" x="0px" y="0px"
	 width="131px" height="131px" viewBox="0 0 131 131" enable-background="new 0 0 131 131" xml:space="preserve">
<g>
	<defs>
		<polygon id="SVGID_1_" points="18.864,30.097 10.688,43.728 14.291,45.892 21.246,34.3 31.553,34.3 31.553,30.097 		"/>
	</defs>
	<clipPath id="SVGID_2_">
		<use xlink:href="#SVGID_1_"  overflow="visible"/>
	</clipPath>
	
		<linearGradient id="SVGID_3_" gradientUnits="userSpaceOnUse" x1="-893.4463" y1="3529.5186" x2="-892.4463" y2="3529.5186" gradientTransform="matrix(425.9125 305.0949 305.0949 -425.9125 -696392.5 1775814.75)">
		<stop  offset="0" style="stop-color:#FBCE47"/>
		<stop  offset="1" style="stop-color:#F9A40E"/>
	</linearGradient>
	<polygon clip-path="url(#SVGID_2_)" fill="url(#SVGID_3_)" points="17.764,20.219 39.03,35.453 24.477,55.77 3.21,40.535 	"/>
</g>
<g>
	<defs>
		<polygon id="SVGID_4_" points="53.684,51.115 53.684,55.317 63.991,55.317 70.943,66.909 74.549,64.744 66.372,51.115 		"/>
	</defs>
	<clipPath id="SVGID_5_">
		<use xlink:href="#SVGID_4_"  overflow="visible"/>
	</clipPath>
	
		<linearGradient id="SVGID_6_" gradientUnits="userSpaceOnUse" x1="-893.4468" y1="3529.5156" x2="-892.4468" y2="3529.5156" gradientTransform="matrix(425.9125 305.0949 305.0949 -425.9125 -696387 1775807.25)">
		<stop  offset="0" style="stop-color:#FBCE47"/>
		<stop  offset="1" style="stop-color:#F9A40E"/>
	</linearGradient>
	<polygon clip-path="url(#SVGID_5_)" fill="url(#SVGID_6_)" points="60.76,41.237 82.025,56.472 67.473,76.787 46.207,61.554 	"/>
</g>
<g>
	<defs>
		<path id="SVGID_7_" d="M38.766,107.863l5.674-9.459l5.675-9.458h18.637l5.675,9.458l5.673,9.459l-11.348,18.915H50.115
			L38.766,107.863z M5.136,86.846l11.349-18.917h18.636l5.676,9.459l5.673,9.458l-5.673,9.457l-5.676,9.459H16.485L5.136,86.846z
			 M78.068,96.303l-5.676-9.457l5.676-9.458l5.676-9.459h18.636l11.35,18.917l-11.35,18.916H83.744L78.068,96.303z M44.44,75.286
			l-5.674-9.459l5.674-9.458l5.675-9.457h18.637L80.1,65.827l-5.673,9.459l-5.675,9.455H50.115L44.44,75.286z M5.136,44.811
			l11.349-18.916h18.636L46.47,44.811l-5.673,9.456l-5.676,9.459H16.485L5.136,44.811z M14.105,21.689L0.234,44.811l12.611,21.017
			L0.234,86.846l13.871,23.118h21.018l12.611,21.018h23.399l12.611-21.018h21.018l13.871-23.118l-13.871-23.12h-21.02L71.131,42.708
			H50.113l-12.61-21.019H14.105z"/>
	</defs>
	<clipPath id="SVGID_8_">
		<use xlink:href="#SVGID_7_"  overflow="visible"/>
	</clipPath>
	
		<linearGradient id="SVGID_9_" gradientUnits="userSpaceOnUse" x1="-893.4468" y1="3529.5371" x2="-892.4468" y2="3529.5371" gradientTransform="matrix(425.9125 305.0949 305.0949 -425.9125 -696403 1775829.75)">
		<stop  offset="0" style="stop-color:#FBCE47"/>
		<stop  offset="1" style="stop-color:#F9A40E"/>
	</linearGradient>
	<polygon clip-path="url(#SVGID_8_)" fill="url(#SVGID_9_)" points="40.385,-34.362 170.372,58.753 78.481,187.033 -51.506,93.919 	
		"/>
</g>
<g>
	<defs>
		<polygon id="SVGID_10_" points="77.295,86.846 86.122,101.558 99.366,101.558 99.366,97.354 88.503,97.354 82.197,86.846 
			89.113,75.317 85.51,73.151 		"/>
	</defs>
	<clipPath id="SVGID_11_">
		<use xlink:href="#SVGID_10_"  overflow="visible"/>
	</clipPath>
	
		<linearGradient id="SVGID_12_" gradientUnits="userSpaceOnUse" x1="-893.4468" y1="3529.5234" x2="-892.4468" y2="3529.5234" gradientTransform="matrix(425.9125 305.0949 305.0949 -425.9125 -696394.5 1775817.5)">
		<stop  offset="0" style="stop-color:#FBCE47"/>
		<stop  offset="1" style="stop-color:#F9A40E"/>
	</linearGradient>
	<polygon clip-path="url(#SVGID_11_)" fill="url(#SVGID_12_)" points="84.779,62.703 112.813,82.784 91.881,112.006 63.847,91.925 	
		"/>
</g>
<g>
	<defs>
		<polygon id="SVGID_13_" points="10.688,87.927 18.864,101.558 31.553,101.558 31.553,97.354 21.246,97.354 14.291,85.763 		"/>
	</defs>
	<clipPath id="SVGID_14_">
		<use xlink:href="#SVGID_13_"  overflow="visible"/>
	</clipPath>
	
		<linearGradient id="SVGID_15_" gradientUnits="userSpaceOnUse" x1="-893.4497" y1="3529.5254" x2="-892.4399" y2="3529.5254" gradientTransform="matrix(425.9125 305.0949 305.0949 -425.9125 -696420.5 1775854.25)">
		<stop  offset="0" style="stop-color:#FBCE47"/>
		<stop  offset="1" style="stop-color:#F9A40E"/>
	</linearGradient>
	<polygon clip-path="url(#SVGID_14_)" fill="url(#SVGID_15_)" points="17.764,75.885 39.03,91.119 24.477,111.436 3.21,96.201 	"/>
</g>
<g>
	<defs>
		<rect id="SVGID_16_" x="61.535" y="93.149" width="4.203" height="4.205"/>
	</defs>
	<clipPath id="SVGID_17_">
		<use xlink:href="#SVGID_16_"  overflow="visible"/>
	</clipPath>
	
		<linearGradient id="SVGID_18_" gradientUnits="userSpaceOnUse" x1="-893.4463" y1="3529.5195" x2="-892.4463" y2="3529.5195" gradientTransform="matrix(425.9125 305.0949 305.0949 -425.9125 -696405.5 1775833.25)">
		<stop  offset="0" style="stop-color:#FBCE47"/>
		<stop  offset="1" style="stop-color:#F9A40E"/>
	</linearGradient>
	<polygon clip-path="url(#SVGID_17_)" fill="url(#SVGID_18_)" points="62.96,91.16 67.729,94.575 64.313,99.345 59.544,95.929 	"/>
</g>
<g>
	<defs>
		<polygon id="SVGID_19_" points="52.493,93.149 43.666,107.863 51.881,121.555 55.486,119.391 48.568,107.863 54.874,97.354 
			57.33,97.354 57.33,93.149 		"/>
	</defs>
	<clipPath id="SVGID_20_">
		<use xlink:href="#SVGID_19_"  overflow="visible"/>
	</clipPath>
	
		<linearGradient id="SVGID_21_" gradientUnits="userSpaceOnUse" x1="-893.4468" y1="3529.5156" x2="-892.4468" y2="3529.5156" gradientTransform="matrix(425.9125 305.0949 305.0949 -425.9125 -696414.5 1775845.5)">
		<stop  offset="0" style="stop-color:#FBCE47"/>
		<stop  offset="1" style="stop-color:#F9A40E"/>
	</linearGradient>
	<polygon clip-path="url(#SVGID_20_)" fill="url(#SVGID_21_)" points="48.299,86.681 70.777,102.782 52.696,128.023 30.219,111.922 
			"/>
</g>
<g>
	<defs>
		<path id="SVGID_22_" d="M96.022,51.777c4.133-0.836,8.996-0.843,13.133-0.005c-1.672,3.441-4.057,5.646-6.562,5.646
			C100.097,57.419,97.7,55.229,96.022,51.777 M94.136,45.847c1.271-0.791,2.518-1.725,3.723-2.797
			c3.906-0.553,8.283-0.385,11.951,0.466c0.471,0.397,0.947,0.774,1.432,1.13c-0.154,1.093-0.361,2.15-0.627,3.152
			c-5.025-1.127-11.016-1.133-16.041-0.014C94.407,47.157,94.256,46.515,94.136,45.847 M103.569,35.954
			c0.481,0.902,1.051,1.799,1.689,2.678c-1.104-0.075-2.209-0.1-3.322-0.082C102.553,37.694,103.102,36.828,103.569,35.954
			 M81.456,43.81c-0.667-0.639-1.007-1.577-1.007-2.79c0-3.146,2.179-7.175,5.685-10.517c5.576-5.314,11.98-6.614,14.242-4.457
			c0.668,0.636,1.007,1.574,1.007,2.785c0,3.145-2.176,7.176-5.683,10.521c-3.878,3.698-8.156,5.453-11.163,5.453
			C83.219,44.805,82.145,44.468,81.456,43.81 M111.438,39.352c-3.507-3.345-5.683-7.376-5.683-10.521
			c0-1.211,0.337-2.149,1.006-2.785c0.687-0.657,1.761-0.994,3.079-0.994c3.009,0,7.286,1.755,11.164,5.451
			c3.506,3.342,5.684,7.371,5.684,10.517c0,1.213-0.339,2.151-1.01,2.79c-0.686,0.657-1.758,0.993-3.074,0.994
			C119.599,44.804,115.317,43.05,111.438,39.352 M98.085,17.486c0-2.317,2.025-4.205,4.511-4.205c2.487,0,4.511,1.888,4.511,4.205
			s-2.023,4.203-4.511,4.203C100.11,21.689,98.085,19.804,98.085,17.486 M106.432,9.842l-0.054,0.104
			c-1.148-0.537-2.421-0.868-3.784-0.868c-1.362,0-2.635,0.331-3.782,0.87l-0.056-0.104c-2.269-4.326-6.158-7.55-10.954-9.073
			l-1.272,4.006c3.734,1.188,6.754,3.68,8.505,7.021l0.453,0.858c-1.006,1.367-1.604,3.031-1.604,4.83
			c0,1.308,0.337,2.529,0.89,3.633c-3.751,0.698-7.901,2.873-11.542,6.343c-4.373,4.168-6.983,9.238-6.983,13.558
			c0,2.375,0.798,4.391,2.31,5.83c1.523,1.452,3.604,2.146,5.969,2.146c1.789,0,3.74-0.421,5.731-1.188
			c1.83,8.255,6.671,13.816,12.337,13.816c5.849,0,10.819-5.982,12.503-14.603c2.6,1.283,5.194,1.975,7.516,1.975
			c2.367,0,4.446-0.693,5.97-2.146c1.512-1.439,2.31-3.455,2.31-5.83c0-4.319-2.611-9.39-6.984-13.558
			c-4.239-4.041-9.176-6.332-13.359-6.572c0.48-1.043,0.76-2.19,0.76-3.405c0-1.802-0.602-3.462-1.603-4.83l0.448-0.858
			c1.754-3.342,4.773-5.834,8.506-7.021l-1.271-4.007C112.594,2.294,108.702,5.518,106.432,9.842"/>
	</defs>
	<clipPath id="SVGID_23_">
		<use xlink:href="#SVGID_22_"  overflow="visible"/>
	</clipPath>
	
		<linearGradient id="SVGID_24_" gradientUnits="userSpaceOnUse" x1="-893.4468" y1="3529.5156" x2="-892.4468" y2="3529.5156" gradientTransform="matrix(425.9125 305.0949 305.0949 -425.9125 -696360 1775769.75)">
		<stop  offset="0" style="stop-color:#FBCE47"/>
		<stop  offset="1" style="stop-color:#F9A40E"/>
	</linearGradient>
	<polygon clip-path="url(#SVGID_23_)" fill="url(#SVGID_24_)" points="94.778,-25.101 159.702,21.406 112.36,87.494 47.437,40.987 	
		"/>
</g>
</svg>
