<?xml version="1.0" encoding="utf-8"?>
<!-- Generator: Adobe Illustrator 16.0.3, SVG Export Plug-In . SVG Version: 6.00 Build 0)  -->
<!DOCTYPE svg PUBLIC "-//W3C//DTD SVG 1.1//EN" "http://www.w3.org/Graphics/SVG/1.1/DTD/svg11.dtd">
<svg version="1.1" id="Capa_1" xmlns="http://www.w3.org/2000/svg" xmlns:xlink="http://www.w3.org/1999/xlink" x="0px" y="0px"
	 width="92px" height="92px" viewBox="0 0 92 92" enable-background="new 0 0 92 92" xml:space="preserve">
<path fill="#FFFFFF" d="M46,0C20.719,0,0.001,20.717,0.001,45.998c0,25.281,20.717,45.998,45.999,45.998
	c25.28,0,45.998-20.717,45.998-45.998C91.998,20.717,71.28,0,46,0"/>
<g opacity="0.1">
	<g>
		<defs>
			<rect id="SVGID_1_" x="46" width="45.998" height="92"/>
		</defs>
		<clipPath id="SVGID_2_">
			<use xlink:href="#SVGID_1_"  overflow="visible"/>
		</clipPath>
		<path clip-path="url(#SVGID_2_)" d="M91.998,46.001c0,25.281-20.717,45.998-45.998,45.998V0.003
			C71.281,0.003,91.998,20.72,91.998,46.001"/>
	</g>
</g>
<g>
	<defs>
		<polygon id="SVGID_3_" points="46,49.574 40.609,54.964 25.568,39.871 17.916,47.527 40.609,70.164 72.197,38.578 64.596,30.977 
					"/>
	</defs>
	<clipPath id="SVGID_4_">
		<use xlink:href="#SVGID_3_"  overflow="visible"/>
	</clipPath>
	
		<linearGradient id="SVGID_5_" gradientUnits="userSpaceOnUse" x1="-914.5576" y1="3499.9414" x2="-913.5576" y2="3499.9414" gradientTransform="matrix(134.5222 -55.2553 -55.2553 -134.5222 316378.3125 420371.125)">
		<stop  offset="0" style="stop-color:#FBCE47"/>
		<stop  offset="1" style="stop-color:#F9A40E"/>
	</linearGradient>
	<polygon clip-path="url(#SVGID_4_)" fill="url(#SVGID_5_)" points="4.143,36.635 64.361,11.899 85.97,64.508 25.752,89.242 	"/>
</g>
</svg>
