<?xml version="1.0" encoding="utf-8"?>
<!-- Generator: Adobe Illustrator 16.0.3, SVG Export Plug-In . SVG Version: 6.00 Build 0)  -->
<!DOCTYPE svg PUBLIC "-//W3C//DTD SVG 1.1//EN" "http://www.w3.org/Graphics/SVG/1.1/DTD/svg11.dtd">
<svg version="1.1" id="Capa_1" xmlns="http://www.w3.org/2000/svg" xmlns:xlink="http://www.w3.org/1999/xlink" x="0px" y="0px"
	 width="149px" height="130px" viewBox="0 0 149 130" enable-background="new 0 0 149 130" xml:space="preserve">
<g>
	<defs>
		<path id="SVGID_1_" d="M49.19,25.327c0,13.979,11.331,25.311,25.31,25.311s25.31-11.332,25.31-25.311
			c0-13.978-11.331-25.311-25.31-25.311S49.19,11.35,49.19,25.327"/>
	</defs>
	<clipPath id="SVGID_2_">
		<use xlink:href="#SVGID_1_"  overflow="visible"/>
	</clipPath>
	
		<linearGradient id="SVGID_3_" gradientUnits="userSpaceOnUse" x1="-884.9824" y1="3528.7891" x2="-883.9824" y2="3528.7891" gradientTransform="matrix(2191.4363 219.5428 219.5428 -2191.4363 1163849.125 7927343.5)">
		<stop  offset="0" style="stop-color:#FBCE47"/>
		<stop  offset="1" style="stop-color:#F9A40E"/>
	</linearGradient>
	<polygon clip-path="url(#SVGID_2_)" fill="url(#SVGID_3_)" points="49.693,-5.004 104.83,0.52 99.306,55.658 44.169,50.135 	"/>
</g>
<g>
	<defs>
		<path id="SVGID_4_" d="M109.701,34.638c0,8.837,7.163,16,16,16s16.002-7.163,16.002-16c0-8.839-7.165-16.002-16.002-16.002
			S109.701,25.799,109.701,34.638"/>
	</defs>
	<clipPath id="SVGID_5_">
		<use xlink:href="#SVGID_4_"  overflow="visible"/>
	</clipPath>
	
		<linearGradient id="SVGID_6_" gradientUnits="userSpaceOnUse" x1="-884.9824" y1="3528.7891" x2="-883.9824" y2="3528.7891" gradientTransform="matrix(2191.4363 219.5428 219.5428 -2191.4363 1163849.125 7927347.5)">
		<stop  offset="0" style="stop-color:#FBCE47"/>
		<stop  offset="1" style="stop-color:#F9A40E"/>
	</linearGradient>
	<polygon clip-path="url(#SVGID_5_)" fill="url(#SVGID_6_)" points="110.019,15.461 144.878,18.953 141.386,53.812 106.526,50.319 	
		"/>
</g>
<g>
	<defs>
		<path id="SVGID_7_" d="M7.296,34.638c0,8.837,7.165,16,16.002,16s16-7.163,16-16c0-8.839-7.163-16.002-16-16.002
			S7.296,25.799,7.296,34.638"/>
	</defs>
	<clipPath id="SVGID_8_">
		<use xlink:href="#SVGID_7_"  overflow="visible"/>
	</clipPath>
	
		<linearGradient id="SVGID_9_" gradientUnits="userSpaceOnUse" x1="-884.9824" y1="3528.7881" x2="-883.9824" y2="3528.7881" gradientTransform="matrix(2191.4363 219.5428 219.5428 -2191.4363 1163849.125 7927357.5)">
		<stop  offset="0" style="stop-color:#FBCE47"/>
		<stop  offset="1" style="stop-color:#F9A40E"/>
	</linearGradient>
	<polygon clip-path="url(#SVGID_8_)" fill="url(#SVGID_9_)" points="7.614,15.461 42.472,18.953 38.98,53.812 4.122,50.319 	"/>
</g>
<g>
	<defs>
		<path id="SVGID_10_" d="M19.776,60.529c-10.891,0-19.752,8.809-19.752,19.634v31.771c0,4.702,3.837,8.523,8.557,8.523
			c20.371,0,17.917,0.368,17.917-0.878c0-22.513-2.667-39.023,12.563-54.573c-4.979-4.08-9.588-4.508-14.899-4.508
			C22.756,60.499,21.301,60.529,19.776,60.529"/>
	</defs>
	<clipPath id="SVGID_11_">
		<use xlink:href="#SVGID_10_"  overflow="visible"/>
	</clipPath>
	
		<linearGradient id="SVGID_12_" gradientUnits="userSpaceOnUse" x1="-884.9824" y1="3528.7891" x2="-883.9824" y2="3528.7891" gradientTransform="matrix(2191.4363 219.5428 219.5428 -2191.4363 1163845.125 7927413.5)">
		<stop  offset="0" style="stop-color:#FBCE47"/>
		<stop  offset="1" style="stop-color:#F9A40E"/>
	</linearGradient>
	<polygon clip-path="url(#SVGID_11_)" fill="url(#SVGID_12_)" points="0.412,56.628 45.045,61.099 38.673,124.698 -5.959,120.227 	
		"/>
</g>
<g>
	<defs>
		<path id="SVGID_13_" d="M48.112,68.528c-15.958,12.784-12.887,29.996-12.887,51.05c0,5.573,4.532,10.19,10.188,10.19
			c61.408,0,63.854,1.979,67.493-6.084c1.194-2.728,0.868-1.86,0.868-27.948c0-20.721-17.942-35.091-32.349-35.091
			c-2.586-0.216-5.105-0.344-7.558-0.344C64.271,60.302,55.709,62.259,48.112,68.528"/>
	</defs>
	<clipPath id="SVGID_14_">
		<use xlink:href="#SVGID_13_"  overflow="visible"/>
	</clipPath>
	
		<linearGradient id="SVGID_15_" gradientUnits="userSpaceOnUse" x1="-884.9824" y1="3528.7891" x2="-883.9824" y2="3528.7891" gradientTransform="matrix(2191.4363 219.5428 219.5428 -2191.4363 1163845.125 7927413.5)">
		<stop  offset="0" style="stop-color:#FBCE47"/>
		<stop  offset="1" style="stop-color:#F9A40E"/>
	</linearGradient>
	<polygon clip-path="url(#SVGID_14_)" fill="url(#SVGID_15_)" points="32.968,52.174 121.188,61.012 113.287,139.875 
		25.067,131.037 	"/>
</g>
<g>
	<defs>
		<path id="SVGID_16_" d="M109.937,65.007c15.119,15.434,12.564,30.817,12.564,54.571c0,1.258-2.037,0.88,17.613,0.88
			c4.889,0,8.861-3.96,8.861-8.826v-31.47c0-10.826-8.861-19.633-19.754-19.633c-1.521,0-2.973-0.029-4.373-0.029
			C119.515,60.499,114.919,60.925,109.937,65.007"/>
	</defs>
	<clipPath id="SVGID_17_">
		<use xlink:href="#SVGID_16_"  overflow="visible"/>
	</clipPath>
	
		<linearGradient id="SVGID_18_" gradientUnits="userSpaceOnUse" x1="-884.9824" y1="3528.7891" x2="-883.9824" y2="3528.7891" gradientTransform="matrix(2191.4363 219.5428 219.5428 -2191.4363 1163845.125 7927403.5)">
		<stop  offset="0" style="stop-color:#FBCE47"/>
		<stop  offset="1" style="stop-color:#F9A40E"/>
	</linearGradient>
	<polygon clip-path="url(#SVGID_17_)" fill="url(#SVGID_18_)" points="110.324,56.627 154.96,61.099 148.587,124.708 
		103.952,120.236 	"/>
</g>
</svg>
