<?xml version="1.0" encoding="utf-8"?>
<!-- Generator: Adobe Illustrator 16.0.3, SVG Export Plug-In . SVG Version: 6.00 Build 0)  -->
<!DOCTYPE svg PUBLIC "-//W3C//DTD SVG 1.1//EN" "http://www.w3.org/Graphics/SVG/1.1/DTD/svg11.dtd">
<svg version="1.1" id="Capa_1" xmlns="http://www.w3.org/2000/svg" xmlns:xlink="http://www.w3.org/1999/xlink" x="0px" y="0px"
	 width="97px" height="87px" viewBox="0 0 97 87" enable-background="new 0 0 97 87" xml:space="preserve">
<path fill="#B6D96D" d="M77.156,1.062H54.688c-10.839,0-19.659,8.82-19.659,19.659c0,9.887,7.337,18.093,16.85,19.459v8.625
	c0,1.136,0.682,2.161,1.734,2.595c1.035,0.433,2.25,0.2,3.061-0.608l10.41-10.411h10.072c10.838,0,19.846-8.82,19.846-19.659
	S87.994,1.062,77.156,1.062 M54.688,23.528c-1.551,0-2.809-1.257-2.809-2.809c0-1.55,1.258-2.808,2.809-2.808
	s2.809,1.258,2.809,2.808C57.496,22.271,56.238,23.528,54.688,23.528 M65.922,23.528c-1.551,0-2.809-1.257-2.809-2.809
	c0-1.55,1.258-2.808,2.809-2.808s2.807,1.258,2.807,2.808C68.729,22.271,67.473,23.528,65.922,23.528 M77.156,23.528
	c-1.553,0-2.811-1.257-2.811-2.809c0-1.55,1.258-2.808,2.811-2.808c1.551,0,2.809,1.258,2.809,2.808
	C79.965,22.271,78.707,23.528,77.156,23.528"/>
<path fill="#B6D96D" d="M64.236,85.315c4.646,0,8.426-3.78,8.426-8.426V65.656c0-1.21-0.775-2.282-1.92-2.664L53.93,57.376
	c-0.822-0.276-1.721-0.15-2.445,0.326l-7.147,4.765c-7.571-3.609-16.552-12.592-20.162-20.161l4.765-7.148
	c0.479-0.721,0.601-1.623,0.325-2.446L23.65,15.9c-0.383-1.147-1.454-1.92-2.663-1.92H9.566c-4.646,0-8.426,3.74-8.426,8.386
	C1.14,54.724,31.879,85.315,64.236,85.315"/>
<path fill="#A2C25B" d="M12.122,12.784c3.054-0.329,3.934,4.602,1.022,5.706c-4.13,1.569-7.382,5.661-8.14,10.872
	c-0.333,2.289-3.179,2.375-3.598,0.105C-0.107,21.281,4.996,13.553,12.122,12.784"/>
<path fill="#85B33D" d="M54.691,52.646c-0.496,0-0.996-0.097-1.477-0.297c-1.436-0.592-2.365-1.983-2.365-3.545v-7.752
	c-4.531-0.855-8.673-3.222-11.739-6.729c-3.297-3.771-5.112-8.603-5.112-13.604c0-11.408,9.281-20.689,20.689-20.689h22.469
	c5.455,0,10.631,2.106,14.574,5.931c0.408,0.395,0.42,1.047,0.021,1.456c-0.395,0.408-1.047,0.418-1.455,0.021
	c-3.557-3.448-8.225-5.349-13.141-5.349H54.688c-10.272,0-18.63,8.358-18.63,18.63c0,9.205,6.865,17.133,15.968,18.44l0.885,0.127
	v9.517c0,0.723,0.428,1.368,1.094,1.643c0.658,0.274,1.438,0.119,1.941-0.385L66.658,39.35h10.498c5.32,0,10.434-2.283,14.025-6.266
	c0.383-0.422,1.033-0.455,1.455-0.075c0.422,0.381,0.455,1.033,0.074,1.455c-3.98,4.414-9.652,6.946-15.555,6.946H67.51
	L57.402,51.519C56.664,52.256,55.688,52.646,54.691,52.646 M77.156,24.559c-2.117,0-3.84-1.722-3.84-3.839
	c0-2.116,1.723-3.838,3.84-3.838c2.115,0,3.838,1.722,3.838,3.838C80.994,22.837,79.271,24.559,77.156,24.559 M77.156,18.941
	c-0.982,0-1.781,0.798-1.781,1.778c0,0.981,0.799,1.779,1.781,1.779c0.979,0,1.777-0.798,1.777-1.779
	C78.934,19.739,78.135,18.941,77.156,18.941 M65.92,24.559c-2.115,0-3.836-1.722-3.836-3.839c0-2.116,1.721-3.838,3.836-3.838
	c2.119,0,3.84,1.722,3.84,3.838C69.76,22.837,68.039,24.559,65.92,24.559 M65.92,18.941c-0.979,0-1.777,0.798-1.777,1.778
	c0,0.981,0.799,1.779,1.777,1.779c0.982,0,1.781-0.798,1.781-1.779C67.701,19.739,66.902,18.941,65.92,18.941 M54.688,24.559
	c-2.115,0-3.838-1.722-3.838-3.839c0-2.116,1.723-3.838,3.838-3.838s3.838,1.722,3.838,3.838
	C58.525,22.837,56.803,24.559,54.688,24.559 M54.688,18.941c-0.98,0-1.777,0.798-1.777,1.778c0,0.981,0.797,1.779,1.777,1.779
	s1.777-0.798,1.777-1.779C56.465,19.739,55.668,18.941,54.688,18.941"/>
<path fill="#85B33D" d="M64.236,86.345c-32.961,0-64.127-31.092-64.127-63.979c0-5.19,4.242-9.415,9.457-9.415h11.421
	c1.654,0,3.118,1.056,3.64,2.624l5.616,16.812c0.378,1.131,0.215,2.35-0.445,3.342l-4.436,6.656c0.727,1.437,1.66,2.949,2.778,4.503
	c0.332,0.461,0.229,1.104-0.233,1.437c-0.461,0.333-1.105,0.229-1.438-0.233c-1.327-1.842-2.411-3.641-3.222-5.341l-0.252-0.528
	l5.089-7.634c0.305-0.46,0.381-1.025,0.206-1.55l-5.617-16.811c-0.242-0.728-0.919-1.216-1.686-1.216H9.566
	c-4.078,0-7.396,3.299-7.396,7.354c0,31.828,30.164,61.92,62.067,61.92c4.078,0,7.395-3.317,7.395-7.396V65.656
	c0-0.768-0.488-1.444-1.213-1.687l-16.813-5.617c-0.521-0.175-1.088-0.099-1.555,0.209l-7.629,5.086l-0.528-0.252
	c-2.185-1.042-4.497-2.514-6.873-4.375c-0.447-0.351-0.526-0.998-0.177-1.446c0.352-0.446,0.998-0.525,1.446-0.175
	c2.067,1.619,4.072,2.923,5.969,3.881l6.656-4.436c1.004-0.662,2.221-0.823,3.344-0.445l16.811,5.616
	c1.568,0.522,2.623,1.985,2.623,3.641V76.89C73.691,82.104,69.449,86.345,64.236,86.345"/>
</svg>
