<?xml version="1.0" encoding="utf-8"?>
<!-- Generator: Adobe Illustrator 16.0.3, SVG Export Plug-In . SVG Version: 6.00 Build 0)  -->
<!DOCTYPE svg PUBLIC "-//W3C//DTD SVG 1.1//EN" "http://www.w3.org/Graphics/SVG/1.1/DTD/svg11.dtd">
<svg version="1.1" id="Capa_1" xmlns="http://www.w3.org/2000/svg" xmlns:xlink="http://www.w3.org/1999/xlink" x="0px" y="0px"
	 width="100px" height="89px" viewBox="0 0 100 89" enable-background="new 0 0 100 89" xml:space="preserve">
<g>
	<defs>
		<path id="SVGID_1_" d="M53.127,21.348c0-1.588,1.288-2.875,2.875-2.875s2.875,1.287,2.875,2.875c0,1.587-1.288,2.875-2.875,2.875
			S53.127,22.935,53.127,21.348 M64.625,21.348c0-1.588,1.288-2.875,2.875-2.875s2.875,1.287,2.875,2.875
			c0,1.587-1.288,2.875-2.875,2.875S64.625,22.935,64.625,21.348 M76.123,21.348c0-1.588,1.288-2.875,2.875-2.875
			s2.875,1.287,2.875,2.875c0,1.587-1.288,2.875-2.875,2.875S76.123,22.935,76.123,21.348 M56.002,1.227
			c-11.093,0-20.121,9.027-20.121,20.121c0,10.119,7.509,18.519,17.246,19.918v8.828c0,1.161,0.699,2.211,1.773,2.654
			c1.062,0.443,2.305,0.205,3.134-0.623l10.655-10.656h10.309c11.095,0,20.313-9.026,20.313-20.121
			c0-11.094-9.219-20.121-20.313-20.121H56.002z"/>
	</defs>
	<clipPath id="SVGID_2_">
		<use xlink:href="#SVGID_1_"  overflow="visible"/>
	</clipPath>
	
		<linearGradient id="SVGID_3_" gradientUnits="userSpaceOnUse" x1="-909.8271" y1="3555.4941" x2="-908.8271" y2="3555.4941" gradientTransform="matrix(63.4311 0 0 -63.4311 57747.2305 225556.1875)">
		<stop  offset="0" style="stop-color:#FBCE47"/>
		<stop  offset="1" style="stop-color:#F9A40E"/>
	</linearGradient>
	<rect x="35.881" y="1.227" clip-path="url(#SVGID_2_)" fill="url(#SVGID_3_)" width="63.431" height="51.965"/>
</g>
<g>
	<defs>
		<path id="SVGID_4_" d="M9.817,14.449c-4.755,0-8.622,3.827-8.622,8.583c0,33.119,31.461,64.431,64.58,64.431
			c4.756,0,8.623-3.869,8.623-8.625V67.34c0-1.237-0.791-2.336-1.965-2.726l-17.207-5.75c-0.842-0.281-1.763-0.153-2.503,0.336
			l-7.315,4.875C37.66,60.38,28.467,51.188,24.771,43.44l4.877-7.316c0.49-0.739,0.614-1.662,0.334-2.503l-5.75-17.208
			c-0.389-1.174-1.487-1.964-2.726-1.964H9.817z"/>
	</defs>
	<clipPath id="SVGID_5_">
		<use xlink:href="#SVGID_4_"  overflow="visible"/>
	</clipPath>
	
		<linearGradient id="SVGID_6_" gradientUnits="userSpaceOnUse" x1="-909.7168" y1="3549.0215" x2="-908.7168" y2="3549.0215" gradientTransform="matrix(73.2045 0 0 -73.2045 66596.5078 259855.2656)">
		<stop  offset="0" style="stop-color:#FBCE47"/>
		<stop  offset="1" style="stop-color:#F9A40E"/>
	</linearGradient>
	<rect x="1.194" y="14.449" clip-path="url(#SVGID_5_)" fill="url(#SVGID_6_)" width="73.204" height="73.014"/>
</g>
<path fill="#E68913" d="M56.006,54.024c-0.508,0-1.021-0.1-1.511-0.304c-1.47-0.605-2.422-2.03-2.422-3.628v-7.936
	c-4.638-0.874-8.876-3.297-12.015-6.887c-3.374-3.859-5.232-8.804-5.232-13.923c0-11.676,9.499-21.175,21.176-21.175h22.996
	c5.583,0,10.882,2.154,14.919,6.068c0.418,0.404,0.428,1.072,0.022,1.49s-1.072,0.428-1.49,0.023
	C88.808,4.224,84.03,2.28,78.998,2.28H56.002c-10.515,0-19.068,8.555-19.068,19.067c0,9.422,7.026,17.536,16.344,18.873l0.904,0.13
	v9.742c0,0.741,0.44,1.4,1.121,1.681c0.674,0.281,1.471,0.122,1.986-0.393l10.965-10.965h10.744c5.447,0,10.681-2.339,14.357-6.413
	c0.39-0.434,1.057-0.468,1.488-0.078c0.432,0.391,0.467,1.057,0.076,1.49c-4.075,4.517-9.879,7.108-15.922,7.108h-9.871
	L58.779,52.871C58.023,53.626,57.023,54.024,56.006,54.024 M78.998,25.275c-2.166,0-3.93-1.762-3.93-3.928
	c0-2.167,1.764-3.928,3.93-3.928s3.929,1.761,3.929,3.928C82.927,23.514,81.164,25.275,78.998,25.275 M78.998,19.526
	c-1.004,0-1.82,0.817-1.82,1.821c0,1.003,0.816,1.821,1.82,1.821s1.82-0.818,1.82-1.821C80.818,20.344,80.002,19.526,78.998,19.526
	 M67.5,25.275c-2.166,0-3.929-1.762-3.929-3.928c0-2.167,1.763-3.928,3.929-3.928s3.929,1.761,3.929,3.928
	C71.429,23.514,69.666,25.275,67.5,25.275 M67.5,19.526c-1.004,0-1.82,0.817-1.82,1.821c0,1.003,0.816,1.821,1.82,1.821
	s1.82-0.818,1.82-1.821C69.32,20.344,68.504,19.526,67.5,19.526 M56.002,25.275c-2.166,0-3.929-1.762-3.929-3.928
	c0-2.167,1.763-3.928,3.929-3.928s3.929,1.761,3.929,3.928C59.931,23.514,58.168,25.275,56.002,25.275 M56.002,19.526
	c-1.004,0-1.82,0.817-1.82,1.821c0,1.003,0.816,1.821,1.82,1.821s1.82-0.818,1.82-1.821C57.822,20.344,57.006,19.526,56.002,19.526"
	/>
<path fill="#E68913" d="M65.775,88.516c-33.738,0-65.635-31.823-65.635-65.482c0-5.315,4.341-9.639,9.677-9.639h11.69
	c1.694,0,3.191,1.08,3.726,2.687l5.748,17.206c0.387,1.158,0.221,2.405-0.456,3.421l-4.54,6.812
	c0.744,1.472,1.699,3.019,2.845,4.609c0.34,0.472,0.233,1.131-0.24,1.471c-0.472,0.342-1.13,0.233-1.471-0.238
	c-1.357-1.887-2.468-3.726-3.299-5.468l-0.257-0.54l5.208-7.813c0.313-0.47,0.39-1.049,0.211-1.587l-5.749-17.205
	c-0.248-0.746-0.941-1.245-1.726-1.245H9.817c-4.174,0-7.569,3.377-7.569,7.53c0,32.576,30.873,63.375,63.527,63.375
	c4.174,0,7.569-3.396,7.569-7.57V67.34c0-0.785-0.5-1.478-1.244-1.725l-17.208-5.749c-0.532-0.181-1.111-0.103-1.59,0.213
	l-7.809,5.206l-0.54-0.258c-2.237-1.067-4.604-2.573-7.036-4.479c-0.458-0.359-0.539-1.021-0.18-1.479
	c0.359-0.458,1.021-0.538,1.479-0.181c2.116,1.657,4.168,2.992,6.11,3.974l6.811-4.539c1.028-0.679,2.274-0.845,3.425-0.456
	l17.204,5.748c1.605,0.533,2.686,2.03,2.686,3.725v11.498C75.453,84.174,71.111,88.516,65.775,88.516"/>
</svg>
