<?xml version="1.0" encoding="utf-8"?>
<!-- Generator: Adobe Illustrator 16.0.3, SVG Export Plug-In . SVG Version: 6.00 Build 0)  -->
<!DOCTYPE svg PUBLIC "-//W3C//DTD SVG 1.1//EN" "http://www.w3.org/Graphics/SVG/1.1/DTD/svg11.dtd">
<svg version="1.1" id="Capa_1" xmlns="http://www.w3.org/2000/svg" xmlns:xlink="http://www.w3.org/1999/xlink" x="0px" y="0px"
	 width="124px" height="156px" viewBox="0 0 124 156" enable-background="new 0 0 124 156" xml:space="preserve">
<path fill="#8AB83D" d="M120.142,53.327c1.683,0,3.045-1.363,3.045-3.046V9.164c0-5.038-4.099-9.137-9.137-9.137H31.206
	c-5.038,0-9.137,4.099-9.137,9.137V54.85l-9.668,9.668C4.496,72.422,0.143,82.932,0.143,94.109v58.813
	c0,1.683,1.364,3.046,3.046,3.046c1.682,0,3.046-1.363,3.046-3.046V94.109c0-9.551,3.719-18.531,10.473-25.285l5.361-5.36v39.063
	l-4.863,9.916c-0.74,1.511-0.116,3.336,1.394,4.076c1.51,0.74,3.335,0.117,4.075-1.394l4.955-10.104l9.307-9.306
	c2.849-2.849,6.637-4.419,10.666-4.419h20.676c-3.078,6.182-9.427,10.238-16.564,10.238h-1.992c-0.808,0-1.583,0.322-2.154,0.893
	l-10.946,10.946c-0.571,0.571-0.892,1.346-0.892,2.153v11.05c0,9.112-3.518,17.711-9.905,24.21c-1.18,1.199-1.163,3.128,0.037,4.308
	c0.593,0.583,1.364,0.873,2.135,0.873h86.053c5.038,0,9.137-4.099,9.137-9.137V77.998c0.001-1.682-1.362-3.046-3.045-3.046
	s-3.046,1.364-3.046,3.046v49.949h-75.3c0.015-0.455,0.025-0.911,0.025-1.369v-9.789l9.163-9.162h0.73
	c3.251,0,6.375-0.641,9.247-1.805c0.031,0.039,0.061,0.078,0.095,0.115c4.92,5.424,9.87,8.25,10.079,8.367
	c0.464,0.264,0.981,0.395,1.497,0.395c0.517,0,1.033-0.131,1.498-0.395c0.818-0.462,20.032-11.559,20.032-32.726
	c0-21.185-19.235-32.086-20.054-32.54c-0.919-0.508-2.033-0.508-2.953,0c-0.817,0.454-20.054,11.355-20.054,32.54
	c0,1.212,0.068,2.425,0.197,3.627h-3.696c-5.656,0-10.973,2.202-14.973,6.202l-4.469,4.47V22.564h88.935v27.717
	C117.096,51.964,118.459,53.327,120.142,53.327 M117.097,134.039v12.792h-0.001c0,1.68-1.366,3.046-3.045,3.046H34.485
	c3.339-4.752,5.598-10.135,6.653-15.838H117.097z M84.893,68.771c0.966,1.86,1.774,3.896,2.336,6.1
	c-0.01,0.009-0.021,0.018-0.03,0.027l-11.52,11.52v-8.432L84.893,68.771z M75.678,57.597c1.788,1.484,3.877,3.474,5.826,5.949
	l-5.826,5.826V57.597z M75.678,95.033l12.367-12.367c-0.441,11.072-7.509,18.91-12.367,23.018V95.033z M69.587,105.711
	c-0.989-0.832-2.07-1.82-3.172-2.961c1.134-0.846,2.197-1.781,3.172-2.811V105.711z M69.587,57.618v11.754l-5.809-5.81
	C65.723,61.095,67.804,59.105,69.587,57.618 M60.385,68.785l9.202,9.201v7.22H57.436c-0.158-1.197-0.242-2.411-0.242-3.627
	C57.194,76.682,58.5,72.408,60.385,68.785 M28.161,16.472V9.164c0-1.68,1.366-3.046,3.046-3.046h82.844
	c1.679,0,3.045,1.366,3.045,3.046v7.308H28.161z"/>
<path fill="#8AB83D" d="M74.78,139.802c-0.568-0.567-1.353-0.893-2.154-0.893c-0.801,0-1.586,0.325-2.153,0.893
	c-0.569,0.566-0.892,1.353-0.892,2.153s0.322,1.587,0.892,2.152c0.567,0.567,1.353,0.894,2.153,0.894
	c0.802,0,1.586-0.326,2.154-0.894c0.565-0.565,0.892-1.352,0.892-2.152S75.346,140.368,74.78,139.802"/>
<path fill="#8AB83D" d="M122.296,62.826c-0.565-0.569-1.353-0.893-2.153-0.893s-1.586,0.324-2.153,0.893
	c-0.566,0.564-0.892,1.351-0.892,2.154c0,0.801,0.325,1.586,0.892,2.153c0.567,0.565,1.35,0.892,2.153,0.892
	c0.801,0,1.588-0.326,2.153-0.892c0.567-0.569,0.892-1.353,0.892-2.153C123.188,64.176,122.863,63.393,122.296,62.826"/>
<path fill="#8AB83D" d="M82.917,43.314c-5.671-5.67-14.898-5.67-20.568,0c-1.189,1.189-1.19,3.119,0,4.309
	c1.189,1.189,3.117,1.189,4.307,0c3.296-3.296,8.658-3.296,11.955,0c0.595,0.594,1.373,0.893,2.152,0.893
	c0.78,0,1.561-0.299,2.154-0.893C84.106,46.434,84.106,44.506,82.917,43.314"/>
<path fill="#8AB83D" d="M91.048,35.184c-10.155-10.153-26.676-10.153-36.831,0c-1.189,1.189-1.189,3.119,0,4.309
	c1.19,1.189,3.118,1.189,4.308,0c7.779-7.779,20.437-7.779,28.216,0c0.594,0.594,1.373,0.893,2.152,0.893
	c0.78,0,1.561-0.299,2.154-0.893C92.237,38.303,92.237,36.375,91.048,35.184"/>
</svg>
