<?xml version="1.0" encoding="utf-8"?>
<!-- Generator: Adobe Illustrator 16.0.3, SVG Export Plug-In . SVG Version: 6.00 Build 0)  -->
<!DOCTYPE svg PUBLIC "-//W3C//DTD SVG 1.1//EN" "http://www.w3.org/Graphics/SVG/1.1/DTD/svg11.dtd">
<svg version="1.1" id="Capa_1" xmlns="http://www.w3.org/2000/svg" xmlns:xlink="http://www.w3.org/1999/xlink" x="0px" y="0px"
	 width="762.18px" height="140.79px" viewBox="0 0 762.18 140.79" enable-background="new 0 0 762.18 140.79" xml:space="preserve">
<g>
	<path fill="#87B53D" d="M186.086,15.779c3.104,1.412,5.495,3.415,7.172,6.01c1.676,2.596,2.516,5.669,2.516,9.221
		c0,3.507-0.839,6.568-2.516,9.187c-1.677,2.619-4.068,4.622-7.172,6.01c-3.105,1.39-6.764,2.083-10.979,2.083h-9.585v13.182
		h-11.013v-47.81h20.598C179.322,13.662,182.981,14.368,186.086,15.779z M182.042,37.123c1.722-1.434,2.583-3.472,2.583-6.113
		c0-2.686-0.862-4.747-2.583-6.181c-1.723-1.435-4.238-2.151-7.546-2.151h-8.974v16.597h8.974
		C177.803,39.274,180.319,38.557,182.042,37.123z"/>
	<path fill="#87B53D" d="M208.792,59.593c-3.059-1.616-5.45-3.859-7.172-6.728c-1.723-2.869-2.583-6.124-2.583-9.767
		c0-3.643,0.86-6.898,2.583-9.767c1.722-2.869,4.113-5.111,7.172-6.728c3.059-1.616,6.515-2.425,10.367-2.425
		c3.852,0,7.296,0.809,10.333,2.425c3.036,1.617,5.416,3.859,7.138,6.728c1.722,2.869,2.583,6.125,2.583,9.767
		c0,3.643-0.862,6.898-2.583,9.767c-1.723,2.869-4.102,5.112-7.138,6.728c-3.037,1.617-6.481,2.425-10.333,2.425
		C215.307,62.018,211.851,61.21,208.792,59.593z M225.855,50.509c1.744-1.844,2.617-4.313,2.617-7.41
		c0-3.096-0.873-5.567-2.617-7.411c-1.745-1.844-3.977-2.766-6.696-2.766s-4.962,0.922-6.73,2.766
		c-1.768,1.844-2.651,4.314-2.651,7.411c0,3.097,0.884,5.566,2.651,7.41c1.768,1.844,4.011,2.767,6.73,2.767
		S224.11,52.354,225.855,50.509z"/>
	<path fill="#87B53D" d="M245.332,10.793h10.605v50.679h-10.605V10.793z"/>
	<path fill="#87B53D" d="M273.136,10.178h11.421l-12.305,9.835h-8.294L273.136,10.178z M264.842,24.726h10.605v36.746h-10.605
		V24.726z"/>
	<path fill="#87B53D" d="M307.874,59.696c-1.043,0.775-2.323,1.355-3.841,1.742c-1.519,0.386-3.116,0.581-4.792,0.581
		c-4.351,0-7.716-1.115-10.095-3.347c-2.379-2.23-3.569-5.509-3.569-9.835V33.742h-5.643v-8.196h5.643v-8.948h10.605v8.948h9.109
		v8.196h-9.109V48.7c0,1.548,0.396,2.744,1.189,3.585c0.792,0.843,1.914,1.264,3.365,1.264c1.676,0,3.104-0.455,4.283-1.366
		L307.874,59.696z"/>
	<path fill="#87B53D" d="M313.448,17.896c-1.224-1.138-1.835-2.549-1.835-4.234c0-1.684,0.612-3.096,1.835-4.235
		c1.224-1.138,2.81-1.708,4.759-1.708c1.948,0,3.535,0.546,4.759,1.639s1.835,2.459,1.835,4.098c0,1.776-0.612,3.244-1.835,4.405
		s-2.811,1.742-4.759,1.742C316.258,19.604,314.672,19.035,313.448,17.896z M312.904,24.726h10.605v36.746h-10.605V24.726z"/>
	<path fill="#87B53D" d="M339.587,59.593c-3.105-1.616-5.53-3.859-7.274-6.728c-1.745-2.869-2.617-6.124-2.617-9.767
		c0-3.643,0.872-6.898,2.617-9.767c1.744-2.869,4.169-5.111,7.274-6.728c3.104-1.616,6.604-2.425,10.503-2.425
		c3.852,0,7.217,0.809,10.095,2.425c2.877,1.617,4.973,3.927,6.288,6.932l-8.226,4.44c-1.903-3.369-4.646-5.054-8.226-5.054
		c-2.765,0-5.054,0.911-6.866,2.732c-1.813,1.822-2.719,4.303-2.719,7.445c0,3.142,0.906,5.624,2.719,7.444
		c1.812,1.822,4.101,2.732,6.866,2.732c3.625,0,6.367-1.684,8.226-5.055l8.226,4.508c-1.315,2.915-3.411,5.191-6.288,6.83
		c-2.878,1.639-6.244,2.459-10.095,2.459C346.191,62.018,342.69,61.21,339.587,59.593z"/>
	<path fill="#87B53D" d="M399.443,28.244c3.035,2.709,4.555,6.796,4.555,12.26v20.968h-9.926v-4.576
		c-1.994,3.415-5.711,5.123-11.148,5.123c-2.811,0-5.247-0.478-7.308-1.434c-2.063-0.957-3.637-2.276-4.725-3.961
		c-1.088-1.684-1.632-3.597-1.632-5.737c0-3.415,1.28-6.101,3.841-8.06c2.56-1.957,6.514-2.937,11.862-2.937h8.43
		c0-2.322-0.703-4.108-2.107-5.361c-1.404-1.252-3.512-1.878-6.322-1.878c-1.949,0-3.864,0.308-5.744,0.922
		c-1.881,0.615-3.479,1.446-4.792,2.493l-3.807-7.445c1.994-1.411,4.385-2.503,7.172-3.278c2.787-0.774,5.652-1.161,8.6-1.161
		C392.055,24.18,396.406,25.535,399.443,28.244z M390.402,53.583c1.404-0.842,2.4-2.083,2.99-3.722v-3.757h-7.273
		c-4.351,0-6.526,1.435-6.526,4.303c0,1.366,0.532,2.448,1.597,3.244c1.064,0.797,2.527,1.195,4.384,1.195
		C387.387,54.847,388.996,54.426,390.402,53.583z"/>
</g>
<g>
	<path fill="#87B53D" d="M464.299,10.793v50.679h-3.33v-8.401c-1.406,2.778-3.377,4.917-5.914,6.42
		c-2.539,1.502-5.416,2.254-8.635,2.254c-3.309,0-6.299-0.774-8.973-2.322c-2.676-1.548-4.771-3.688-6.289-6.42
		s-2.277-5.851-2.277-9.357c0-3.506,0.76-6.636,2.277-9.392c1.518-2.754,3.613-4.894,6.289-6.42
		c2.674-1.525,5.664-2.288,8.973-2.288c3.172,0,6.018,0.751,8.533,2.254c2.514,1.502,4.496,3.597,5.947,6.284V10.793H464.299z
		 M453.932,56.759c2.152-1.274,3.852-3.05,5.1-5.327c1.246-2.276,1.869-4.872,1.869-7.786c0-2.914-0.623-5.509-1.869-7.787
		c-1.248-2.276-2.947-4.052-5.1-5.327c-2.152-1.274-4.588-1.913-7.307-1.913c-2.721,0-5.156,0.638-7.309,1.913
		c-2.152,1.275-3.852,3.051-5.098,5.327c-1.248,2.277-1.871,4.873-1.871,7.787c0,2.914,0.623,5.51,1.871,7.786
		c1.246,2.277,2.945,4.053,5.098,5.327c2.152,1.275,4.588,1.913,7.309,1.913C449.344,58.671,451.779,58.034,453.932,56.759z"/>
	<path fill="#87B53D" d="M507.67,44.465h-30.523c0.092,2.778,0.793,5.249,2.107,7.411c1.314,2.163,3.094,3.836,5.338,5.02
		c2.242,1.185,4.768,1.776,7.578,1.776c2.313,0,4.453-0.42,6.426-1.264c1.971-0.842,3.613-2.083,4.928-3.722l1.973,2.254
		c-1.543,1.868-3.48,3.302-5.813,4.303c-2.336,1.002-4.861,1.503-7.58,1.503c-3.535,0-6.686-0.774-9.449-2.322
		c-2.766-1.548-4.93-3.688-6.492-6.42c-1.564-2.732-2.346-5.851-2.346-9.357c0-3.46,0.736-6.568,2.209-9.323
		c1.473-2.754,3.502-4.906,6.084-6.454c2.584-1.548,5.484-2.322,8.701-2.322c3.219,0,6.107,0.763,8.668,2.288
		c2.561,1.526,4.578,3.654,6.051,6.386s2.209,5.829,2.209,9.289L507.67,44.465z M484.082,30.224
		c-1.996,1.117-3.594,2.688-4.793,4.713c-1.201,2.026-1.893,4.314-2.074,6.864h27.193c-0.137-2.55-0.816-4.826-2.041-6.83
		c-1.223-2.003-2.832-3.574-4.826-4.713c-1.994-1.138-4.238-1.708-6.73-1.708S486.074,29.109,484.082,30.224z"/>
	<path fill="#87B53D" d="M538.668,59.423c-2.719-1.548-4.85-3.699-6.389-6.455c-1.541-2.754-2.313-5.862-2.313-9.323
		c0-3.506,0.771-6.636,2.313-9.392c1.539-2.754,3.67-4.894,6.389-6.42c2.721-1.525,5.801-2.288,9.246-2.288
		c2.855,0,5.449,0.558,7.783,1.673c2.334,1.116,4.227,2.744,5.678,4.883l-2.516,1.844c-1.27-1.776-2.844-3.108-4.725-3.996
		c-1.881-0.888-3.955-1.332-6.221-1.332c-2.764,0-5.246,0.626-7.443,1.878c-2.199,1.253-3.92,3.017-5.166,5.293
		c-1.248,2.278-1.871,4.896-1.871,7.855c0,2.96,0.623,5.578,1.871,7.854c1.246,2.277,2.967,4.042,5.166,5.293
		c2.197,1.253,4.68,1.878,7.443,1.878c2.266,0,4.34-0.444,6.221-1.332c1.881-0.888,3.455-2.22,4.725-3.996l2.516,1.844
		c-1.451,2.141-3.344,3.769-5.678,4.883c-2.334,1.117-4.928,1.674-7.783,1.674C544.469,61.745,541.389,60.971,538.668,59.423z"/>
	<path fill="#87B53D" d="M592.713,28.927c2.357,2.254,3.535,5.566,3.535,9.938v22.607h-3.262V55.12
		c-1.135,2.095-2.789,3.723-4.963,4.884c-2.176,1.161-4.783,1.742-7.818,1.742c-3.943,0-7.059-0.933-9.348-2.801
		c-2.289-1.866-3.434-4.325-3.434-7.376c0-2.959,1.055-5.362,3.162-7.206c2.107-1.844,5.473-2.766,10.096-2.766h12.168v-2.869
		c0-3.323-0.896-5.85-2.686-7.581c-1.791-1.73-4.408-2.596-7.852-2.596c-2.357,0-4.611,0.41-6.764,1.229
		c-2.154,0.82-3.977,1.913-5.473,3.278l-1.699-2.458c1.768-1.593,3.896-2.834,6.389-3.723c2.492-0.888,5.1-1.332,7.818-1.332
		C586.98,25.546,590.357,26.673,592.713,28.927z M588.193,56.896c2.061-1.366,3.613-3.347,4.656-5.942V44.26h-12.102
		c-3.49,0-6.016,0.638-7.58,1.913c-1.563,1.275-2.344,3.029-2.344,5.259c0,2.322,0.859,4.156,2.582,5.498
		c1.723,1.344,4.146,2.015,7.275,2.015C583.627,58.944,586.131,58.262,588.193,56.896z"/>
	<path fill="#87B53D" d="M609.232,10.793h3.398v50.679h-3.398V10.793z"/>
	<path fill="#87B53D" d="M625.752,16.359c-0.545-0.523-0.816-1.172-0.816-1.947c0-0.773,0.271-1.434,0.816-1.98
		c0.543-0.546,1.199-0.82,1.971-0.82c0.77,0,1.428,0.263,1.971,0.786c0.545,0.524,0.816,1.173,0.816,1.946
		c0,0.775-0.271,1.435-0.816,1.981c-0.543,0.546-1.201,0.82-1.971,0.82C626.951,17.145,626.295,16.883,625.752,16.359z
		 M626.023,25.819h3.398v35.653h-3.398V25.819z"/>
	<path fill="#87B53D" d="M674.355,10.793v50.679h-3.33v-8.401c-1.406,2.778-3.377,4.917-5.914,6.42
		c-2.539,1.502-5.416,2.254-8.635,2.254c-3.309,0-6.299-0.774-8.973-2.322c-2.676-1.548-4.771-3.688-6.289-6.42
		s-2.277-5.851-2.277-9.357c0-3.506,0.76-6.636,2.277-9.392c1.518-2.754,3.613-4.894,6.289-6.42
		c2.674-1.525,5.664-2.288,8.973-2.288c3.172,0,6.018,0.751,8.533,2.254c2.514,1.502,4.496,3.597,5.947,6.284V10.793H674.355z
		 M663.988,56.759c2.152-1.274,3.852-3.05,5.1-5.327c1.246-2.276,1.869-4.872,1.869-7.786c0-2.914-0.623-5.509-1.869-7.787
		c-1.248-2.276-2.947-4.052-5.1-5.327c-2.152-1.274-4.588-1.913-7.307-1.913c-2.721,0-5.156,0.638-7.309,1.913
		c-2.152,1.275-3.852,3.051-5.098,5.327c-1.248,2.277-1.871,4.873-1.871,7.787c0,2.914,0.623,5.51,1.871,7.786
		c1.246,2.277,2.945,4.053,5.098,5.327c2.152,1.275,4.588,1.913,7.309,1.913C659.4,58.671,661.836,58.034,663.988,56.759z"/>
	<path fill="#87B53D" d="M709.842,28.927c2.355,2.254,3.535,5.566,3.535,9.938v22.607h-3.264V55.12
		c-1.133,2.095-2.787,3.723-4.963,4.884s-4.781,1.742-7.818,1.742c-3.941,0-7.059-0.933-9.346-2.801
		c-2.289-1.866-3.434-4.325-3.434-7.376c0-2.959,1.053-5.362,3.16-7.206c2.107-1.844,5.473-2.766,10.096-2.766h12.168v-2.869
		c0-3.323-0.895-5.85-2.684-7.581c-1.791-1.73-4.408-2.596-7.854-2.596c-2.355,0-4.611,0.41-6.764,1.229
		c-2.152,0.82-3.977,1.913-5.473,3.278l-1.699-2.458c1.768-1.593,3.898-2.834,6.391-3.723c2.492-0.888,5.098-1.332,7.818-1.332
		C704.107,25.546,707.484,26.673,709.842,28.927z M705.32,56.896c2.063-1.366,3.613-3.347,4.656-5.942V44.26h-12.1
		c-3.49,0-6.016,0.638-7.58,1.913c-1.564,1.275-2.346,3.029-2.346,5.259c0,2.322,0.861,4.156,2.584,5.498
		c1.721,1.344,4.146,2.015,7.273,2.015C700.754,58.944,703.258,58.262,705.32,56.896z"/>
	<path fill="#87B53D" d="M758.039,10.793v50.679h-3.33v-8.401c-1.406,2.778-3.377,4.917-5.914,6.42
		c-2.539,1.502-5.416,2.254-8.635,2.254c-3.309,0-6.299-0.774-8.973-2.322c-2.676-1.548-4.771-3.688-6.289-6.42
		s-2.277-5.851-2.277-9.357c0-3.506,0.76-6.636,2.277-9.392c1.518-2.754,3.613-4.894,6.289-6.42
		c2.674-1.525,5.664-2.288,8.973-2.288c3.172,0,6.018,0.751,8.533,2.254c2.514,1.502,4.496,3.597,5.947,6.284V10.793H758.039z
		 M747.672,56.759c2.152-1.274,3.852-3.05,5.1-5.327c1.246-2.276,1.869-4.872,1.869-7.786c0-2.914-0.623-5.509-1.869-7.787
		c-1.248-2.276-2.947-4.052-5.1-5.327c-2.152-1.274-4.588-1.913-7.307-1.913c-2.721,0-5.156,0.638-7.309,1.913
		c-2.152,1.275-3.852,3.051-5.098,5.327c-1.248,2.277-1.871,4.873-1.871,7.787c0,2.914,0.623,5.51,1.871,7.786
		c1.246,2.277,2.945,4.053,5.098,5.327c2.152,1.275,4.588,1.913,7.309,1.913C743.084,58.671,745.52,58.034,747.672,56.759z"/>
</g>
<g>
	<path fill="#87B53D" d="M184.557,87.426l-18.219,40.502c-1.36,3.143-2.935,5.373-4.725,6.693c-1.791,1.32-3.909,1.98-6.356,1.98
		c-1.631,0-3.161-0.272-4.589-0.819c-1.427-0.546-2.639-1.343-3.637-2.39l1.7-2.596c1.812,1.866,4.011,2.8,6.594,2.8
		c1.722,0,3.195-0.478,4.419-1.435c1.224-0.955,2.356-2.595,3.399-4.917l1.904-4.304l-15.976-35.516h3.603l14.208,31.896
		l14.208-31.896H184.557z"/>
	<path fill="#87B53D" d="M212.36,121.029c-2.719-1.547-4.85-3.699-6.39-6.454c-1.542-2.755-2.312-5.862-2.312-9.323
		c0-3.506,0.77-6.636,2.312-9.391c1.54-2.755,3.671-4.895,6.39-6.42s5.801-2.289,9.246-2.289c2.855,0,5.449,0.559,7.784,1.674
		c2.333,1.116,4.226,2.744,5.676,4.883l-2.515,1.845c-1.27-1.776-2.845-3.108-4.725-3.995c-1.881-0.889-3.955-1.332-6.22-1.332
		c-2.765,0-5.247,0.626-7.444,1.878c-2.199,1.253-3.92,3.017-5.167,5.293c-1.247,2.278-1.869,4.896-1.869,7.854
		c0,2.961,0.622,5.578,1.869,7.855c1.246,2.277,2.968,4.041,5.167,5.293c2.198,1.252,4.679,1.878,7.444,1.878
		c2.266,0,4.339-0.444,6.22-1.332c1.88-0.888,3.455-2.22,4.725-3.995l2.515,1.844c-1.451,2.141-3.343,3.769-5.676,4.883
		c-2.335,1.117-4.929,1.674-7.784,1.674C218.161,123.352,215.08,122.578,212.36,121.029z"/>
	<path fill="#87B53D" d="M273.679,106.072h-30.523c0.09,2.777,0.792,5.248,2.107,7.41c1.314,2.163,3.093,3.836,5.336,5.02
		c2.244,1.186,4.77,1.776,7.58,1.776c2.312,0,4.453-0.421,6.424-1.264c1.971-0.842,3.614-2.083,4.929-3.722l1.971,2.254
		c-1.541,1.867-3.479,3.301-5.813,4.303c-2.334,1.002-4.86,1.502-7.58,1.502c-3.535,0-6.686-0.773-9.45-2.322
		c-2.765-1.547-4.928-3.688-6.492-6.42c-1.563-2.732-2.345-5.851-2.345-9.357c0-3.459,0.736-6.567,2.209-9.322
		c1.472-2.755,3.501-4.906,6.084-6.455c2.583-1.547,5.483-2.322,8.701-2.322c3.218,0,6.107,0.764,8.668,2.289
		c2.56,1.525,4.577,3.653,6.05,6.385c1.472,2.732,2.209,5.83,2.209,9.289L273.679,106.072z M250.089,91.831
		c-1.995,1.116-3.592,2.688-4.792,4.713c-1.202,2.026-1.893,4.314-2.074,6.864h27.193c-0.136-2.55-0.816-4.826-2.04-6.83
		c-1.224-2.003-2.833-3.574-4.827-4.713c-1.995-1.138-4.238-1.707-6.73-1.707C254.327,90.158,252.083,90.716,250.089,91.831z"/>
	<path fill="#87B53D" d="M291.693,89.236c2.311-1.389,5.121-2.084,8.43-2.084V90.5l-0.816-0.068c-3.943,0-7.025,1.24-9.246,3.722
		c-2.221,2.482-3.331,5.932-3.331,10.348v18.577h-3.399V87.426h3.263v7.786C287.682,92.617,289.382,90.625,291.693,89.236z"/>
	<path fill="#87B53D" d="M327.723,120.824c-0.861,0.82-1.938,1.446-3.229,1.879c-1.292,0.432-2.641,0.648-4.045,0.648
		c-3.083,0-5.462-0.854-7.138-2.561c-1.677-1.708-2.516-4.087-2.516-7.138v-23.29h-6.526v-2.938h6.526V79.64h3.399v7.786h11.285
		v2.938h-11.285v22.948c0,2.322,0.555,4.087,1.666,5.294c1.11,1.207,2.753,1.81,4.929,1.81c2.22,0,4.056-0.659,5.507-1.981
		L327.723,120.824z"/>
	<path fill="#87B53D" d="M335.948,77.967c-0.544-0.523-0.816-1.172-0.816-1.947c0-0.773,0.272-1.434,0.816-1.98s1.2-0.82,1.972-0.82
		c0.77,0,1.427,0.264,1.971,0.786c0.544,0.524,0.816,1.173,0.816,1.946c0,0.775-0.272,1.435-0.816,1.98
		c-0.544,0.547-1.201,0.82-1.971,0.82C337.148,78.752,336.492,78.49,335.948,77.967z M336.22,87.426h3.399v35.652h-3.399V87.426z"/>
	<path fill="#87B53D" d="M357.021,82.234v5.191h11.353v2.938h-11.285v32.715h-3.399V90.363h-6.526v-2.938h6.526v-5.464
		c0-3.005,0.86-5.396,2.583-7.171c1.722-1.776,4.147-2.664,7.274-2.664c1.359,0,2.662,0.193,3.909,0.58
		c1.246,0.388,2.277,0.969,3.093,1.742l-1.359,2.596c-1.451-1.32-3.287-1.981-5.507-1.981
		C359.242,75.063,357.021,77.454,357.021,82.234z M380.475,77.967c-0.544-0.523-0.816-1.172-0.816-1.947
		c0-0.773,0.272-1.434,0.816-1.98s1.2-0.82,1.972-0.82c0.77,0,1.428,0.264,1.971,0.786c0.545,0.524,0.816,1.173,0.816,1.946
		c0,0.775-0.271,1.435-0.816,1.98c-0.543,0.547-1.201,0.82-1.971,0.82C381.675,78.752,381.019,78.49,380.475,77.967z
		 M380.747,87.426h3.399v35.652h-3.399V87.426z"/>
	<path fill="#87B53D" d="M402.363,121.029c-2.719-1.547-4.85-3.699-6.389-6.454c-1.541-2.755-2.313-5.862-2.313-9.323
		c0-3.506,0.771-6.636,2.313-9.391c1.539-2.755,3.67-4.895,6.389-6.42c2.721-1.525,5.801-2.289,9.246-2.289
		c2.855,0,5.449,0.559,7.783,1.674c2.334,1.116,4.227,2.744,5.678,4.883l-2.516,1.845c-1.27-1.776-2.844-3.108-4.725-3.995
		c-1.881-0.889-3.955-1.332-6.221-1.332c-2.764,0-5.246,0.626-7.443,1.878c-2.199,1.253-3.92,3.017-5.166,5.293
		c-1.248,2.278-1.871,4.896-1.871,7.854c0,2.961,0.623,5.578,1.871,7.855c1.246,2.277,2.967,4.041,5.166,5.293
		c2.197,1.252,4.68,1.878,7.443,1.878c2.266,0,4.34-0.444,6.221-1.332s3.455-2.22,4.725-3.995l2.516,1.844
		c-1.451,2.141-3.344,3.769-5.678,4.883c-2.334,1.117-4.928,1.674-7.783,1.674C408.164,123.352,405.084,122.578,402.363,121.029z"/>
	<path fill="#87B53D" d="M456.408,90.533c2.357,2.254,3.535,5.566,3.535,9.938v22.607h-3.262v-6.352
		c-1.135,2.096-2.789,3.723-4.963,4.884c-2.176,1.161-4.783,1.741-7.818,1.741c-3.943,0-7.059-0.933-9.348-2.801
		c-2.289-1.865-3.434-4.324-3.434-7.375c0-2.96,1.055-5.362,3.162-7.207c2.107-1.844,5.473-2.766,10.096-2.766h12.168v-2.869
		c0-3.322-0.896-5.85-2.686-7.58c-1.791-1.73-4.408-2.596-7.852-2.596c-2.357,0-4.611,0.41-6.764,1.229
		c-2.154,0.82-3.977,1.913-5.473,3.279l-1.699-2.459c1.768-1.594,3.896-2.834,6.389-3.723c2.492-0.888,5.1-1.332,7.818-1.332
		C450.676,87.152,454.053,88.279,456.408,90.533z M451.889,118.502c2.061-1.365,3.613-3.346,4.656-5.941v-6.693h-12.102
		c-3.49,0-6.016,0.638-7.58,1.912c-1.563,1.275-2.344,3.029-2.344,5.26c0,2.322,0.859,4.155,2.582,5.498
		c1.723,1.344,4.146,2.014,7.275,2.014C447.322,120.551,449.826,119.869,451.889,118.502z"/>
	<path fill="#87B53D" d="M477.891,121.029c-2.719-1.547-4.85-3.699-6.391-6.454s-2.311-5.862-2.311-9.323
		c0-3.506,0.77-6.636,2.311-9.391s3.672-4.895,6.391-6.42s5.801-2.289,9.246-2.289c2.855,0,5.449,0.559,7.783,1.674
		c2.334,1.116,4.225,2.744,5.676,4.883l-2.516,1.845c-1.268-1.776-2.844-3.108-4.725-3.995c-1.881-0.889-3.953-1.332-6.219-1.332
		c-2.766,0-5.246,0.626-7.445,1.878c-2.197,1.253-3.92,3.017-5.166,5.293c-1.246,2.278-1.869,4.896-1.869,7.854
		c0,2.961,0.623,5.578,1.869,7.855s2.969,4.041,5.166,5.293c2.199,1.252,4.68,1.878,7.445,1.878c2.266,0,4.338-0.444,6.219-1.332
		s3.457-2.22,4.725-3.995l2.516,1.844c-1.451,2.141-3.342,3.769-5.676,4.883c-2.334,1.117-4.928,1.674-7.783,1.674
		C483.691,123.352,480.609,122.578,477.891,121.029z"/>
	<path fill="#87B53D" d="M509.502,77.967c-0.543-0.523-0.816-1.172-0.816-1.947c0-0.773,0.273-1.434,0.816-1.98
		s1.201-0.82,1.971-0.82c0.771,0,1.428,0.264,1.973,0.786c0.543,0.524,0.814,1.173,0.814,1.946c0,0.775-0.271,1.435-0.814,1.98
		c-0.545,0.547-1.201,0.82-1.973,0.82C510.703,78.752,510.045,78.49,509.502,77.967z M509.773,87.426h3.4v35.652h-3.4V87.426z"/>
	<path fill="#87B53D" d="M531.357,121.029c-2.697-1.547-4.816-3.699-6.357-6.454s-2.311-5.862-2.311-9.323
		c0-3.459,0.77-6.567,2.311-9.322s3.66-4.906,6.357-6.455c2.695-1.547,5.721-2.322,9.074-2.322s6.379,0.775,9.076,2.322
		c2.695,1.549,4.814,3.7,6.355,6.455s2.313,5.863,2.313,9.322c0,3.461-0.771,6.568-2.313,9.323s-3.66,4.907-6.355,6.454
		c-2.697,1.549-5.723,2.322-9.076,2.322S534.053,122.578,531.357,121.029z M547.74,118.365c2.152-1.273,3.852-3.049,5.098-5.326
		s1.871-4.873,1.871-7.787c0-2.913-0.625-5.509-1.871-7.786c-1.246-2.276-2.945-4.052-5.098-5.327
		c-2.152-1.274-4.59-1.912-7.309-1.912s-5.156,0.638-7.307,1.912c-2.154,1.275-3.854,3.051-5.1,5.327
		c-1.246,2.277-1.869,4.873-1.869,7.786c0,2.914,0.623,5.51,1.869,7.787s2.945,4.053,5.1,5.326c2.15,1.275,4.588,1.913,7.307,1.913
		S545.588,119.641,547.74,118.365z"/>
	<path fill="#87B53D" d="M595.633,91.046c2.584,2.595,3.875,6.329,3.875,11.201v20.831h-3.398V102.52
		c0-4.006-1.01-7.057-3.025-9.151c-2.018-2.095-4.84-3.142-8.465-3.142c-4.17,0-7.455,1.252-9.857,3.756
		c-2.402,2.505-3.602,5.874-3.602,10.109v18.986h-3.4V87.426h3.264v7.718c1.223-2.503,3.047-4.462,5.473-5.874
		c2.424-1.41,5.291-2.117,8.6-2.117C589.537,87.152,593.049,88.45,595.633,91.046z"/>
	<path fill="#87B53D" d="M642.607,106.072h-30.523c0.09,2.777,0.791,5.248,2.107,7.41c1.314,2.163,3.092,3.836,5.336,5.02
		c2.244,1.186,4.77,1.776,7.58,1.776c2.311,0,4.453-0.421,6.424-1.264c1.973-0.842,3.613-2.083,4.93-3.722l1.971,2.254
		c-1.541,1.867-3.479,3.301-5.813,4.303s-4.861,1.502-7.58,1.502c-3.535,0-6.686-0.773-9.449-2.322
		c-2.766-1.547-4.928-3.688-6.492-6.42c-1.563-2.732-2.346-5.851-2.346-9.357c0-3.459,0.736-6.567,2.209-9.322
		s3.502-4.906,6.086-6.455c2.582-1.547,5.482-2.322,8.701-2.322c3.217,0,6.105,0.764,8.668,2.289
		c2.559,1.525,4.576,3.653,6.049,6.385c1.473,2.732,2.211,5.83,2.211,9.289L642.607,106.072z M619.018,91.831
		c-1.994,1.116-3.592,2.688-4.793,4.713c-1.201,2.026-1.893,4.314-2.072,6.864h27.191c-0.135-2.55-0.816-4.826-2.039-6.83
		c-1.225-2.003-2.832-3.574-4.826-4.713c-1.996-1.138-4.238-1.707-6.73-1.707C623.254,90.158,621.012,90.716,619.018,91.831z"/>
	<path fill="#87B53D" d="M653.074,122.055c-2.582-0.865-4.6-1.958-6.049-3.279l1.563-2.732c1.451,1.23,3.32,2.254,5.609,3.074
		c2.287,0.82,4.678,1.229,7.172,1.229c3.58,0,6.221-0.591,7.92-1.776c1.699-1.184,2.549-2.822,2.549-4.917
		c0-1.503-0.465-2.687-1.395-3.552c-0.928-0.864-2.072-1.502-3.432-1.912s-3.242-0.842-5.643-1.298
		c-2.811-0.501-5.076-1.047-6.799-1.64c-1.723-0.591-3.195-1.547-4.418-2.868c-1.225-1.32-1.836-3.142-1.836-5.464
		c0-2.823,1.166-5.157,3.5-7.001c2.334-1.845,5.654-2.767,9.961-2.767c2.266,0,4.508,0.319,6.729,0.957s4.033,1.479,5.439,2.526
		l-1.564,2.732c-1.449-1.047-3.104-1.845-4.961-2.391c-1.859-0.546-3.764-0.819-5.711-0.819c-3.309,0-5.803,0.614-7.479,1.844
		c-1.678,1.229-2.516,2.846-2.516,4.85c0,1.594,0.477,2.834,1.428,3.723c0.953,0.887,2.119,1.548,3.502,1.98
		c1.381,0.434,3.318,0.899,5.813,1.4c2.764,0.501,4.996,1.035,6.695,1.604s3.139,1.492,4.316,2.767
		c1.178,1.275,1.768,3.028,1.768,5.259c0,2.96-1.223,5.327-3.67,7.103c-2.447,1.776-5.893,2.664-10.334,2.664
		C658.377,123.352,655.658,122.92,653.074,122.055z"/>
</g>
<path fill="#87B53D" d="M122.655,38.282l-0.005-0.109c-0.061-1.352-0.102-2.782-0.126-4.372
	c-0.116-7.757-6.282-14.173-14.039-14.606c-16.174-0.903-28.687-6.177-39.378-16.597l-0.091-0.087
	c-3.487-3.198-8.747-3.198-12.235,0L56.69,2.598c-10.691,10.42-23.204,15.694-39.378,16.598C9.555,19.628,3.388,26.044,3.273,33.802
	c-0.023,1.58-0.065,3.009-0.126,4.371L3.14,38.427c-0.314,16.493-0.705,37.02,6.162,55.65c3.776,10.246,9.494,19.151,16.996,26.474
	c8.543,8.336,19.733,14.955,33.258,19.672c0.44,0.153,0.897,0.277,1.363,0.371c0.657,0.131,1.318,0.196,1.979,0.196
	c0.662,0,1.324-0.065,1.98-0.196c0.466-0.094,0.926-0.22,1.368-0.373c13.51-4.726,24.687-11.348,33.224-19.684
	c7.498-7.323,13.216-16.23,16.995-26.479C123.357,75.371,122.968,54.806,122.655,38.282 M108.72,91.202
	c-7.243,19.637-22.027,33.123-45.198,41.226c-0.083,0.028-0.171,0.053-0.262,0.071c-0.239,0.047-0.483,0.047-0.726-0.001
	c-0.089-0.02-0.178-0.042-0.259-0.07c-23.196-8.088-37.99-21.565-45.227-41.205c-6.329-17.172-5.971-36.015-5.654-52.638
	l0.002-0.092c0.064-1.429,0.107-2.925,0.131-4.57c0.051-3.444,2.795-6.293,6.245-6.486c9.154-0.51,17.195-2.279,24.583-5.406
	c7.379-3.124,13.932-7.526,20.032-13.459c0.311-0.263,0.713-0.264,1.022,0c6.102,5.933,12.655,10.335,20.033,13.459
	c7.388,3.127,15.429,4.896,24.584,5.406c3.45,0.193,6.194,3.042,6.244,6.488c0.025,1.652,0.068,3.149,0.132,4.568
	C114.718,55.135,115.067,73.992,108.72,91.202"/>
<path fill="#87B53D" d="M62.896,35.395c-19.332,0-35.059,15.728-35.059,35.059c0,19.332,15.727,35.061,35.059,35.061
	c19.331,0,35.059-15.729,35.059-35.061C97.956,51.123,82.228,35.395,62.896,35.395 M62.896,97.258
	c-14.78,0-26.804-12.023-26.804-26.805c0-14.779,12.024-26.803,26.804-26.803c14.779,0,26.803,12.024,26.803,26.803
	C89.699,85.234,77.675,97.258,62.896,97.258"/>
<path fill="#87B53D" d="M72.973,59.57L56.688,75.854l-4.42-4.42c-1.612-1.611-4.225-1.611-5.838,0c-1.61,1.612-1.61,4.225,0,5.836
	l7.34,7.34c0.806,0.805,1.862,1.209,2.918,1.209s2.112-0.404,2.918-1.209L78.81,65.406c1.611-1.612,1.611-4.225,0-5.836
	C77.198,57.957,74.584,57.957,72.973,59.57"/>
</svg>
