<?xml version="1.0" encoding="utf-8"?>
<!-- Generator: Adobe Illustrator 16.0.3, SVG Export Plug-In . SVG Version: 6.00 Build 0)  -->
<!DOCTYPE svg PUBLIC "-//W3C//DTD SVG 1.1//EN" "http://www.w3.org/Graphics/SVG/1.1/DTD/svg11.dtd">
<svg version="1.1" id="Capa_1" xmlns="http://www.w3.org/2000/svg" xmlns:xlink="http://www.w3.org/1999/xlink" x="0px" y="0px"
	 width="122px" height="121px" viewBox="0 0 122 121" enable-background="new 0 0 122 121" xml:space="preserve">
<g>
	<defs>
		<path id="SVGID_1_" d="M3.612,74.057c0-0.693,0.567-1.264,1.266-1.264h15.169c0.699,0,1.265,0.57,1.265,1.264v43.324H3.612V74.057
			z M4.878,69.246c-2.654,0-4.813,2.158-4.813,4.811v45.1c0,0.98,0.796,1.773,1.773,1.773h21.246c0.981,0,1.775-0.793,1.775-1.773
			v-45.1c0-2.652-2.159-4.811-4.813-4.811H4.878z"/>
	</defs>
	<clipPath id="SVGID_2_">
		<use xlink:href="#SVGID_1_"  overflow="visible"/>
	</clipPath>
	
		<linearGradient id="SVGID_3_" gradientUnits="userSpaceOnUse" x1="-898.8525" y1="3523.6406" x2="-897.8525" y2="3523.6406" gradientTransform="matrix(383.4973 274.7115 274.7115 -383.4973 -623520.5 1598143.25)">
		<stop  offset="0" style="stop-color:#FBCE47"/>
		<stop  offset="1" style="stop-color:#F9A40E"/>
	</linearGradient>
	<polygon clip-path="url(#SVGID_2_)" fill="url(#SVGID_3_)" points="8.474,57.508 49.327,86.773 16.452,132.668 -24.402,103.402 	
		"/>
</g>
<g>
	<defs>
		<path id="SVGID_4_" d="M35.721,62.16c0-0.695,0.567-1.265,1.265-1.265h15.17c0.697,0,1.263,0.57,1.263,1.265v55.221H35.721V62.16z
			 M36.985,57.348c-2.654,0-4.813,2.159-4.813,4.812v56.996c0,0.98,0.795,1.773,1.775,1.773h21.246c0.979,0,1.775-0.793,1.775-1.773
			V62.16c0-2.653-2.159-4.812-4.813-4.812H36.985z"/>
	</defs>
	<clipPath id="SVGID_5_">
		<use xlink:href="#SVGID_4_"  overflow="visible"/>
	</clipPath>
	
		<linearGradient id="SVGID_6_" gradientUnits="userSpaceOnUse" x1="-898.855" y1="3523.6406" x2="-897.851" y2="3523.6406" gradientTransform="matrix(383.4973 274.7115 274.7115 -383.4973 -623507 1598124)">
		<stop  offset="0" style="stop-color:#FBCE47"/>
		<stop  offset="1" style="stop-color:#F9A40E"/>
	</linearGradient>
	<polygon clip-path="url(#SVGID_5_)" fill="url(#SVGID_6_)" points="40.581,45.61 87.068,78.91 48.56,132.668 2.072,99.367 	"/>
</g>
<g>
	<defs>
		<path id="SVGID_7_" d="M67.83,50.263c0-0.697,0.564-1.264,1.264-1.264h15.168c0.697,0,1.265,0.566,1.265,1.264v67.118h0.002H67.83
			V50.263z M69.094,45.453c-2.654,0-4.813,2.156-4.813,4.811v68.893c0,0.98,0.794,1.773,1.775,1.773h21.245
			c0.98,0,1.774-0.793,1.774-1.773V50.263c0-2.654-2.159-4.811-4.813-4.811H69.094z"/>
	</defs>
	<clipPath id="SVGID_8_">
		<use xlink:href="#SVGID_7_"  overflow="visible"/>
	</clipPath>
	
		<linearGradient id="SVGID_9_" gradientUnits="userSpaceOnUse" x1="-898.8496" y1="3523.6387" x2="-897.8532" y2="3523.6387" gradientTransform="matrix(383.4973 274.7115 274.7115 -383.4973 -623493 1598105)">
		<stop  offset="0" style="stop-color:#FBCE47"/>
		<stop  offset="1" style="stop-color:#F9A40E"/>
	</linearGradient>
	<polygon clip-path="url(#SVGID_8_)" fill="url(#SVGID_9_)" points="72.688,33.714 124.807,71.049 80.667,132.668 28.549,95.334 	
		"/>
</g>
<g>
	<defs>
		<path id="SVGID_10_" d="M99.937,38.365c0-0.696,0.565-1.264,1.263-1.264h15.171c0.695,0,1.265,0.567,1.265,1.264v79.016H99.937
			V38.365z M101.199,33.554c-2.652,0-4.811,2.157-4.811,4.811v80.792c0,0.98,0.794,1.773,1.774,1.773h21.245
			c0.979,0,1.775-0.793,1.775-1.773V38.365c0-2.653-2.159-4.811-4.813-4.811H101.199z"/>
	</defs>
	<clipPath id="SVGID_11_">
		<use xlink:href="#SVGID_10_"  overflow="visible"/>
	</clipPath>
	
		<linearGradient id="SVGID_12_" gradientUnits="userSpaceOnUse" x1="-898.8525" y1="3523.6396" x2="-897.8525" y2="3523.6396" gradientTransform="matrix(383.4973 274.7115 274.7115 -383.4973 -623479.5 1598085.75)">
		<stop  offset="0" style="stop-color:#FBCE47"/>
		<stop  offset="1" style="stop-color:#F9A40E"/>
	</linearGradient>
	<polygon clip-path="url(#SVGID_11_)" fill="url(#SVGID_12_)" points="104.797,21.816 162.547,63.186 112.774,132.668 
		55.024,91.299 	"/>
</g>
<g>
	<defs>
		<path id="SVGID_13_" d="M91.432,2.219c-0.676,1.238-0.596,2.728,0.21,3.885l2.004,2.888
			c-10.372,5.984-34.818,18.064-68.128,21.603c-0.976,0.104-1.682,0.978-1.578,1.953c0.097,0.911,0.867,1.586,1.762,1.586
			c0.063,0,0.125-0.004,0.19-0.009c35.914-3.814,61.768-17.391,71.215-23.053c0.867-0.52,1.123-1.701,0.546-2.533
			c0,0-3.041-4.377-3.096-4.455c-0.077-0.11,0.003-0.247,0.132-0.245c0,0,19.112,0.678,19.192,0.679
			c0.103,0.006,0.175,0.108,0.144,0.205c0,0-6.056,18.194-6.065,18.223c-0.04,0.121-0.201,0.144-0.272,0.041l-2.746-3.953
			c-0.536-0.771-1.58-0.99-2.382-0.502c-4.139,2.527-11.061,6.388-20.54,10.426c-0.902,0.384-1.321,1.426-0.938,2.328
			c0.386,0.901,1.427,1.32,2.328,0.937c8.656-3.687,15.239-7.237,19.565-9.8l1.799,2.588c0.805,1.159,2.171,1.754,3.566,1.554
			c1.397-0.204,2.541-1.159,2.986-2.495l6.064-18.226c0.371-1.118,0.199-2.313-0.475-3.282c-0.671-0.966-1.73-1.545-2.91-1.587
			L94.813,0.292c-0.045-0.002-0.09-0.003-0.136-0.003C93.316,0.29,92.087,1.021,91.432,2.219"/>
	</defs>
	<clipPath id="SVGID_14_">
		<use xlink:href="#SVGID_13_"  overflow="visible"/>
	</clipPath>
	
		<linearGradient id="SVGID_15_" gradientUnits="userSpaceOnUse" x1="-898.8525" y1="3523.6406" x2="-897.8525" y2="3523.6406" gradientTransform="matrix(383.4973 274.7115 274.7115 -383.4973 -623464 1598064.25)">
		<stop  offset="0" style="stop-color:#FBCE47"/>
		<stop  offset="1" style="stop-color:#F9A40E"/>
	</linearGradient>
	<polygon clip-path="url(#SVGID_14_)" fill="url(#SVGID_15_)" points="55.688,-44.175 133.783,11.767 85.909,78.598 7.814,22.656 	
		"/>
</g>
<g>
	<defs>
		<path id="SVGID_16_" d="M18.489,31.199c-3.85,0.253-7.726,0.383-11.522,0.383c-0.979,0-1.774,0.794-1.774,1.772v12.748
			c0,0.98,0.795,1.774,1.774,1.774c29.377,0,53.89-6.947,69.277-12.774c0.918-0.347,1.38-1.371,1.033-2.286
			c-0.348-0.919-1.372-1.379-2.288-1.031C60.188,37.388,36.794,44.047,8.742,44.318v-9.197c3.302-0.035,6.652-0.162,9.982-0.383
			c0.977-0.063,1.717-0.909,1.652-1.887c-0.062-0.938-0.843-1.656-1.769-1.656C18.569,31.195,18.529,31.197,18.489,31.199"/>
	</defs>
	<clipPath id="SVGID_17_">
		<use xlink:href="#SVGID_16_"  overflow="visible"/>
	</clipPath>
	
		<linearGradient id="SVGID_18_" gradientUnits="userSpaceOnUse" x1="-898.8525" y1="3523.6387" x2="-897.8525" y2="3523.6387" gradientTransform="matrix(383.4973 274.7115 274.7115 -383.4973 -623484 1598092.5)">
		<stop  offset="0" style="stop-color:#FBCE47"/>
		<stop  offset="1" style="stop-color:#F9A40E"/>
	</linearGradient>
	<polygon clip-path="url(#SVGID_17_)" fill="url(#SVGID_18_)" points="29.755,-3.094 85.521,36.852 53.062,82.166 -2.705,42.219 	
		"/>
</g>
</svg>
