<?xml version="1.0" encoding="utf-8"?>
<!-- Generator: Adobe Illustrator 16.0.3, SVG Export Plug-In . SVG Version: 6.00 Build 0)  -->
<!DOCTYPE svg PUBLIC "-//W3C//DTD SVG 1.1//EN" "http://www.w3.org/Graphics/SVG/1.1/DTD/svg11.dtd">
<svg version="1.1" id="Capa_1" xmlns="http://www.w3.org/2000/svg" xmlns:xlink="http://www.w3.org/1999/xlink" x="0px" y="0px"
	 width="185.545px" height="158.85px" viewBox="0 0 185.545 158.85" enable-background="new 0 0 185.545 158.85"
	 xml:space="preserve">
<path fill="#87B53D" d="M180.627,113.441c-1.255-4.575-5.093-7.98-9.787-8.687v-68.79h5.995c1.656,0,2.998-1.342,2.998-2.997V2.996
	c0-1.657-1.342-2.997-2.998-2.997H44.958c-1.656,0-2.998,1.34-2.998,2.997v29.972c0,1.655,1.342,2.997,2.998,2.997h5.994v59.944
	h-2.997c-7.439-0.018-14.726,2.114-20.98,6.142V86.917c0-1.656-1.343-2.998-2.998-2.998H2.997C1.341,83.919,0,85.261,0,86.917
	v68.937c0,1.655,1.341,2.997,2.997,2.997h20.98c1.655,0,2.998-1.342,2.998-2.997v-15.131c6.256,4.022,13.541,6.155,20.98,6.139
	h49.214c3.41-0.006,6.804-0.453,10.098-1.332l64.893-17.383C178.544,126.406,182.328,119.839,180.627,113.441 M47.955,5.992h125.883
	v23.979H47.955V5.992z M56.947,35.964h107.899v69.307l-34.785,9.328c-1.433-3.416-4.355-5.981-7.928-6.961l-40.385-10.83
	c-2.274-0.598-4.616-0.901-6.967-0.898H56.947V35.964z M20.98,152.855H5.994V89.915H20.98V152.855z M170.604,122.355l-64.881,17.383
	c-2.791,0.745-5.665,1.124-8.554,1.13H47.955c-7.136,0.017-14.083-2.301-19.782-6.596l-1.198-0.897v-23.979l1.198-0.898
	c5.699-4.296,12.646-6.613,19.782-6.595h26.826c1.83-0.002,3.656,0.236,5.427,0.704l40.373,10.822
	c2.384,0.657,4.13,2.702,4.403,5.161c0.032,0.123,0.071,0.244,0.12,0.363c-0.035,0.129-0.062,0.26-0.079,0.393
	c0.003,0.488-0.063,0.973-0.197,1.441c-0.706,2.611-3.073,4.428-5.779,4.434c-0.528,0.004-1.051-0.063-1.561-0.198l-25.476-6.832
	c-1.045-0.31-2.177-0.027-2.955,0.735c-0.777,0.764-1.08,1.889-0.789,2.939c0.291,1.05,1.13,1.859,2.191,2.113l25.476,6.834
	c1.018,0.27,2.066,0.401,3.12,0.401c5.389-0.004,10.111-3.608,11.535-8.807c0.167-0.602,0.28-1.217,0.34-1.838l36.539-9.798
	c0.26-0.063,0.543-0.133,0.809-0.177c2.984-0.386,5.79,1.502,6.561,4.407c0.134,0.508,0.202,1.029,0.198,1.554
	C175.041,119.272,173.223,121.648,170.604,122.355"/>
<path fill="#87B53D" d="M95.91,47.954h29.972c1.655,0,2.997-1.343,2.997-2.998c0-1.656-1.342-2.997-2.997-2.997H95.91
	c-1.655,0-2.997,1.341-2.997,2.997C92.913,46.611,94.255,47.954,95.91,47.954"/>
</svg>
