<?xml version="1.0" encoding="utf-8"?>
<!-- Generator: Adobe Illustrator 16.0.3, SVG Export Plug-In . SVG Version: 6.00 Build 0)  -->
<!DOCTYPE svg PUBLIC "-//W3C//DTD SVG 1.1//EN" "http://www.w3.org/Graphics/SVG/1.1/DTD/svg11.dtd">
<svg version="1.1" id="Capa_1" xmlns="http://www.w3.org/2000/svg" xmlns:xlink="http://www.w3.org/1999/xlink" x="0px" y="0px"
	 width="707.85px" height="143.12px" viewBox="0 0 707.85 143.12" enable-background="new 0 0 707.85 143.12" xml:space="preserve">
<g>
	<path fill="#87B53D" d="M148.611,61.127c-3.726-1.082-6.718-2.488-8.976-4.218l3.965-8.796c2.163,1.586,4.734,2.86,7.715,3.821
		c2.979,0.962,5.959,1.442,8.94,1.442c3.317,0,5.768-0.492,7.354-1.478c1.586-0.985,2.379-2.295,2.379-3.93
		c0-1.201-0.469-2.199-1.406-2.992c-0.937-0.793-2.139-1.43-3.605-1.911c-1.467-0.48-3.449-1.01-5.948-1.586
		c-3.846-0.913-6.994-1.826-9.445-2.74c-2.452-0.913-4.555-2.379-6.309-4.398c-1.755-2.019-2.631-4.71-2.631-8.075
		c0-2.932,0.793-5.588,2.379-7.967c1.586-2.379,3.977-4.265,7.174-5.66c3.196-1.394,7.102-2.091,11.716-2.091
		c3.22,0,6.368,0.385,9.445,1.153c3.076,0.77,5.768,1.875,8.075,3.316l-3.605,8.869c-4.663-2.643-9.326-3.966-13.987-3.966
		c-3.269,0-5.685,0.53-7.246,1.586c-1.563,1.058-2.343,2.451-2.343,4.182s0.901,3.017,2.704,3.857
		c1.803,0.842,4.554,1.671,8.256,2.487c3.845,0.914,6.994,1.828,9.445,2.74c2.452,0.914,4.554,2.355,6.309,4.326
		c1.754,1.972,2.632,4.639,2.632,8.003c0,2.884-0.806,5.516-2.416,7.895c-1.611,2.379-4.026,4.267-7.246,5.66
		c-3.221,1.394-7.138,2.091-11.752,2.091C156.193,62.749,152.336,62.208,148.611,61.127z"/>
	<path fill="#87B53D" d="M196.268,59.901c-3.244-1.706-5.78-4.074-7.606-7.102c-1.827-3.028-2.74-6.464-2.74-10.311
		c0-3.845,0.913-7.282,2.74-10.31c1.826-3.028,4.362-5.395,7.606-7.102c3.245-1.706,6.91-2.56,10.996-2.56
		c4.085,0,7.738,0.854,10.959,2.56c3.22,1.707,5.743,4.074,7.571,7.102c1.826,3.028,2.74,6.465,2.74,10.31
		c0,3.846-0.914,7.282-2.74,10.311c-1.828,3.028-4.351,5.396-7.571,7.102c-3.221,1.707-6.874,2.56-10.959,2.56
		C203.178,62.46,199.513,61.608,196.268,59.901z M214.365,50.312c1.85-1.946,2.776-4.553,2.776-7.823
		c0-3.268-0.926-5.876-2.776-7.823c-1.851-1.947-4.218-2.92-7.102-2.92c-2.884,0-5.263,0.973-7.138,2.92
		c-1.875,1.947-2.812,4.555-2.812,7.823c0,3.27,0.937,5.876,2.812,7.823c1.875,1.947,4.254,2.92,7.138,2.92
		C210.147,53.232,212.515,52.258,214.365,50.312z"/>
	<path fill="#87B53D" d="M236.032,8.386h11.248v53.498h-11.248V8.386z"/>
	<path fill="#87B53D" d="M296.812,23.094v38.79h-10.671V57.27c-1.49,1.683-3.27,2.968-5.335,3.857
		c-2.067,0.889-4.302,1.333-6.705,1.333c-5.096,0-9.133-1.465-12.113-4.398c-2.981-2.931-4.47-7.282-4.47-13.05V23.094h11.248v20.26
		c0,6.249,2.619,9.373,7.859,9.373c2.691,0,4.854-0.876,6.489-2.632c1.634-1.754,2.452-4.362,2.452-7.823V23.094H296.812z"/>
	<path fill="#87B53D" d="M314.873,59.901c-3.293-1.706-5.865-4.074-7.715-7.102c-1.851-3.028-2.776-6.464-2.776-10.311
		c0-3.845,0.925-7.282,2.776-10.31c1.85-3.028,4.422-5.395,7.715-7.102c3.292-1.706,7.005-2.56,11.139-2.56
		c4.085,0,7.654,0.854,10.707,2.56c3.052,1.707,5.274,4.146,6.669,7.318l-8.724,4.687c-2.019-3.557-4.928-5.335-8.724-5.335
		c-2.933,0-5.36,0.962-7.282,2.884c-1.923,1.923-2.884,4.542-2.884,7.859c0,3.317,0.961,5.937,2.884,7.859
		c1.922,1.923,4.35,2.884,7.282,2.884c3.845,0,6.752-1.778,8.724-5.335l8.724,4.758c-1.395,3.077-3.618,5.48-6.669,7.21
		c-3.053,1.73-6.622,2.596-10.707,2.596C321.877,62.46,318.164,61.608,314.873,59.901z"/>
	<path fill="#87B53D" d="M350.453,15.884c-1.298-1.201-1.947-2.691-1.947-4.47c0-1.777,0.649-3.268,1.947-4.47
		c1.298-1.201,2.979-1.802,5.047-1.802c2.066,0,3.748,0.577,5.047,1.73c1.297,1.153,1.946,2.596,1.946,4.326
		c0,1.875-0.649,3.425-1.946,4.651c-1.299,1.226-2.98,1.838-5.047,1.838C353.432,17.687,351.75,17.086,350.453,15.884z
		 M349.876,23.094h11.247v38.79h-11.247V23.094z"/>
	<path fill="#87B53D" d="M379.04,59.901c-3.244-1.706-5.78-4.074-7.606-7.102c-1.827-3.028-2.74-6.464-2.74-10.311
		c0-3.845,0.913-7.282,2.74-10.31c1.826-3.028,4.362-5.395,7.606-7.102c3.245-1.706,6.909-2.56,10.995-2.56
		c4.085,0,7.738,0.854,10.96,2.56c3.22,1.707,5.743,4.074,7.57,7.102c1.826,3.028,2.739,6.465,2.739,10.31
		c0,3.846-0.913,7.282-2.739,10.311c-1.827,3.028-4.351,5.396-7.57,7.102c-3.222,1.707-6.875,2.56-10.96,2.56
		C385.949,62.46,382.285,61.608,379.04,59.901z M397.138,50.312c1.85-1.946,2.775-4.553,2.775-7.823
		c0-3.268-0.926-5.876-2.775-7.823c-1.852-1.947-4.218-2.92-7.103-2.92c-2.884,0-5.263,0.973-7.138,2.92
		c-1.874,1.947-2.812,4.555-2.812,7.823c0,3.27,0.938,5.876,2.812,7.823c1.875,1.947,4.254,2.92,7.138,2.92
		C392.92,53.232,395.286,52.258,397.138,50.312z"/>
	<path fill="#87B53D" d="M454.024,26.843c2.956,2.884,4.435,7.163,4.435,12.833v22.207h-11.248V41.407
		c0-3.075-0.674-5.371-2.019-6.885c-1.347-1.514-3.293-2.271-5.841-2.271c-2.836,0-5.095,0.878-6.777,2.632
		c-1.683,1.755-2.523,4.362-2.523,7.823v19.179h-11.247v-38.79h10.743v4.542c1.489-1.633,3.34-2.895,5.551-3.785
		c2.211-0.889,4.639-1.334,7.282-1.334C447.187,22.517,451.068,23.959,454.024,26.843z"/>
	<path fill="#87B53D" d="M506.837,45.661h-29.345c0.528,2.404,1.777,4.303,3.749,5.696c1.971,1.395,4.422,2.091,7.354,2.091
		c2.019,0,3.809-0.3,5.371-0.901c1.562-0.601,3.016-1.55,4.362-2.848l5.984,6.489c-3.653,4.182-8.989,6.272-16.006,6.272
		c-4.375,0-8.245-0.853-11.608-2.56c-3.365-1.706-5.961-4.074-7.787-7.102c-1.827-3.028-2.739-6.464-2.739-10.311
		c0-3.796,0.9-7.221,2.703-10.274c1.803-3.052,4.277-5.431,7.427-7.138c3.147-1.706,6.669-2.56,10.563-2.56
		c3.797,0,7.233,0.818,10.311,2.452c3.075,1.634,5.49,3.978,7.246,7.03c1.754,3.053,2.631,6.597,2.631,10.635
		C507.053,42.777,506.981,43.787,506.837,45.661z M480.521,33.188c-1.73,1.442-2.788,3.414-3.173,5.912h19.106
		c-0.385-2.451-1.441-4.409-3.172-5.876c-1.73-1.466-3.847-2.199-6.345-2.199C484.389,31.025,482.251,31.746,480.521,33.188z"/>
	<path fill="#87B53D" d="M518.156,61.271c-3.076-0.793-5.527-1.79-7.354-2.992l3.749-8.075c1.73,1.106,3.821,2.007,6.272,2.704
		c2.451,0.697,4.854,1.045,7.21,1.045c4.759,0,7.138-1.177,7.138-3.533c0-1.105-0.648-1.898-1.946-2.379
		c-1.298-0.48-3.293-0.889-5.984-1.226c-3.173-0.48-5.793-1.033-7.859-1.658c-2.066-0.624-3.857-1.73-5.371-3.317
		c-1.514-1.586-2.271-3.845-2.271-6.777c0-2.451,0.709-4.625,2.127-6.525c1.418-1.898,3.484-3.376,6.201-4.434
		c2.715-1.057,5.923-1.586,9.625-1.586c2.74,0,5.468,0.301,8.184,0.901c2.715,0.602,4.963,1.431,6.741,2.487l-3.749,8.003
		c-3.414-1.922-7.138-2.884-11.176-2.884c-2.404,0-4.206,0.337-5.407,1.009c-1.202,0.674-1.803,1.539-1.803,2.596
		c0,1.202,0.649,2.043,1.947,2.523c1.298,0.481,3.363,0.938,6.2,1.37c3.173,0.529,5.768,1.094,7.787,1.694
		c2.019,0.602,3.772,1.694,5.263,3.28c1.489,1.586,2.235,3.798,2.235,6.633c0,2.404-0.721,4.542-2.163,6.417
		s-3.545,3.329-6.309,4.362c-2.765,1.033-6.045,1.55-9.842,1.55C524.381,62.46,521.232,62.064,518.156,61.271z"/>
</g>
<g>
	<path fill="#87B53D" d="M144.97,77.277c-0.577-0.553-0.865-1.237-0.865-2.055s0.289-1.515,0.865-2.092
		c0.577-0.577,1.273-0.865,2.091-0.865c0.816,0,1.514,0.277,2.091,0.83c0.577,0.553,0.865,1.237,0.865,2.055
		s-0.289,1.514-0.865,2.09c-0.577,0.578-1.274,0.865-2.091,0.865C146.244,78.105,145.547,77.83,144.97,77.277z M145.259,87.263
		h3.605v37.636h-3.605V87.263z"/>
	<path fill="#87B53D" d="M221.936,91.084c2.667,2.74,4.001,6.682,4.001,11.824v21.99h-3.605v-21.701c0-4.229-1.034-7.45-3.1-9.662
		c-2.067-2.21-4.952-3.316-8.652-3.316c-4.23,0-7.583,1.322-10.058,3.965c-2.477,2.645-3.713,6.201-3.713,10.672v20.043h-3.605
		v-21.701c0-4.229-1.034-7.45-3.1-9.662c-2.067-2.21-4.952-3.316-8.652-3.316c-4.23,0-7.583,1.322-10.058,3.965
		c-2.477,2.645-3.713,6.201-3.713,10.672v20.043h-3.605V87.263h3.461v8.075c1.249-2.643,3.111-4.697,5.587-6.164
		c2.475-1.467,5.419-2.199,8.833-2.199c3.412,0,6.309,0.77,8.688,2.307c2.379,1.539,4.074,3.798,5.083,6.777
		c1.25-2.787,3.208-4.998,5.876-6.633c2.668-1.634,5.779-2.451,9.337-2.451C215.603,86.975,219.268,88.344,221.936,91.084z"/>
	<path fill="#87B53D" d="M269.197,89.426c2.836,1.635,5.059,3.894,6.669,6.777c1.61,2.884,2.416,6.177,2.416,9.878
		c0,3.702-0.806,7.006-2.416,9.913c-1.611,2.909-3.833,5.168-6.669,6.777c-2.836,1.611-6.009,2.416-9.517,2.416
		c-3.316,0-6.321-0.781-9.012-2.344c-2.693-1.561-4.784-3.736-6.273-6.525v22.568h-3.605V87.263h3.461v8.868
		c1.489-2.884,3.592-5.131,6.309-6.741c2.715-1.61,5.756-2.415,9.121-2.415C263.188,86.975,266.361,87.792,269.197,89.426z
		 M267.251,119.924c2.307-1.345,4.121-3.22,5.443-5.623c1.321-2.403,1.983-5.144,1.983-8.22c0-3.075-0.662-5.815-1.983-8.22
		c-1.323-2.402-3.136-4.277-5.443-5.623c-2.308-1.346-4.903-2.02-7.787-2.02c-2.884,0-5.468,0.674-7.75,2.02
		c-2.284,1.346-4.086,3.221-5.408,5.623c-1.323,2.404-1.983,5.145-1.983,8.22c0,3.076,0.66,5.816,1.983,8.22
		c1.321,2.403,3.124,4.278,5.408,5.623c2.282,1.347,4.867,2.02,7.75,2.02C262.348,121.943,264.943,121.271,267.251,119.924z"/>
	<path fill="#87B53D" d="M289.457,71.401h3.605v53.498h-3.605V71.401z"/>
	<path fill="#87B53D" d="M340.069,106.945h-32.373c0.096,2.934,0.84,5.541,2.235,7.824c1.394,2.283,3.281,4.049,5.66,5.299
		c2.379,1.25,5.058,1.875,8.039,1.875c2.451,0,4.723-0.444,6.813-1.334c2.091-0.889,3.833-2.199,5.227-3.93l2.091,2.379
		c-1.634,1.972-3.689,3.486-6.165,4.543c-2.476,1.058-5.155,1.586-8.039,1.586c-3.749,0-7.09-0.816-10.022-2.451
		c-2.932-1.634-5.227-3.895-6.885-6.777c-1.659-2.885-2.488-6.176-2.488-9.878c0-3.652,0.781-6.933,2.343-9.842
		c1.562-2.907,3.713-5.179,6.453-6.813c2.74-1.634,5.815-2.451,9.229-2.451c3.412,0,6.477,0.805,9.192,2.415
		c2.715,1.61,4.854,3.857,6.417,6.741c1.562,2.885,2.343,6.153,2.343,9.806L340.069,106.945z M315.051,91.913
		c-2.116,1.179-3.81,2.837-5.083,4.976c-1.274,2.139-2.007,4.555-2.199,7.246h28.84c-0.145-2.691-0.865-5.095-2.163-7.211
		c-1.298-2.114-3.004-3.772-5.119-4.975c-2.116-1.201-4.495-1.803-7.138-1.803C319.545,90.146,317.166,90.736,315.051,91.913z"/>
	<path fill="#87B53D" d="M409.177,91.084c2.668,2.74,4.002,6.682,4.002,11.824v21.99h-3.605v-21.701c0-4.229-1.034-7.45-3.101-9.662
		c-2.067-2.21-4.951-3.316-8.651-3.316c-4.23,0-7.583,1.322-10.059,3.965c-2.476,2.645-3.713,6.201-3.713,10.672v20.043h-3.604
		v-21.701c0-4.229-1.034-7.45-3.101-9.662c-2.067-2.21-4.952-3.316-8.652-3.316c-4.229,0-7.583,1.322-10.058,3.965
		c-2.477,2.645-3.713,6.201-3.713,10.672v20.043h-3.605V87.263h3.461v8.075c1.249-2.643,3.111-4.697,5.588-6.164
		c2.475-1.467,5.418-2.199,8.832-2.199c3.412,0,6.309,0.77,8.688,2.307c2.379,1.539,4.073,3.798,5.083,6.777
		c1.249-2.787,3.208-4.998,5.876-6.633c2.667-1.634,5.779-2.451,9.337-2.451C402.843,86.975,406.509,88.344,409.177,91.084z"/>
	<path fill="#87B53D" d="M459.826,106.945h-32.373c0.096,2.934,0.841,5.541,2.235,7.824c1.394,2.283,3.28,4.049,5.66,5.299
		c2.379,1.25,5.058,1.875,8.039,1.875c2.451,0,4.723-0.444,6.813-1.334c2.091-0.889,3.832-2.199,5.228-3.93l2.091,2.379
		c-1.635,1.972-3.689,3.486-6.165,4.543c-2.476,1.058-5.155,1.586-8.039,1.586c-3.749,0-7.091-0.816-10.021-2.451
		c-2.933-1.634-5.228-3.895-6.886-6.777c-1.658-2.885-2.487-6.176-2.487-9.878c0-3.652,0.78-6.933,2.343-9.842
		c1.562-2.907,3.713-5.179,6.453-6.813c2.74-1.634,5.815-2.451,9.229-2.451s6.477,0.805,9.193,2.415
		c2.715,1.61,4.854,3.857,6.417,6.741c1.561,2.885,2.343,6.153,2.343,9.806L459.826,106.945z M434.808,91.913
		c-2.115,1.179-3.81,2.837-5.083,4.976c-1.274,2.139-2.008,4.555-2.199,7.246h28.84c-0.144-2.691-0.865-5.095-2.163-7.211
		c-1.297-2.114-3.004-3.772-5.119-4.975c-2.115-1.201-4.494-1.803-7.138-1.803S436.922,90.736,434.808,91.913z"/>
	<path fill="#87B53D" d="M500.634,91.084c2.74,2.74,4.11,6.682,4.11,11.824v21.99h-3.605v-21.701c0-4.229-1.07-7.45-3.208-9.662
		c-2.14-2.21-5.132-3.316-8.977-3.316c-4.423,0-7.907,1.322-10.454,3.965c-2.549,2.645-3.821,6.201-3.821,10.672v20.043h-3.605
		V87.263h3.461v8.147c1.298-2.643,3.232-4.711,5.804-6.201c2.571-1.488,5.611-2.234,9.121-2.234
		C494.169,86.975,497.895,88.344,500.634,91.084z"/>
	<path fill="#87B53D" d="M538.27,122.52c-0.913,0.865-2.055,1.526-3.425,1.982c-1.37,0.457-2.801,0.686-4.29,0.686
		c-3.27,0-5.793-0.901-7.57-2.704c-1.778-1.802-2.668-4.313-2.668-7.534V90.363h-6.921v-3.101h6.921v-8.22h3.605v8.22h11.969v3.101
		h-11.969v24.226c0,2.451,0.588,4.314,1.767,5.587c1.177,1.275,2.92,1.911,5.227,1.911c2.354,0,4.302-0.696,5.841-2.091
		L538.27,122.52z"/>
	<path fill="#87B53D" d="M571.724,90.543c2.499,2.379,3.749,5.877,3.749,10.49v23.865h-3.461v-6.705
		c-1.202,2.212-2.956,3.93-5.263,5.155c-2.308,1.226-5.072,1.839-8.292,1.839c-4.182,0-7.487-0.984-9.914-2.956
		c-2.428-1.971-3.641-4.566-3.641-7.787c0-3.124,1.117-5.659,3.353-7.606s5.804-2.92,10.707-2.92h12.906v-3.028
		c0-3.509-0.95-6.176-2.849-8.003c-1.899-1.826-4.675-2.74-8.327-2.74c-2.5,0-4.892,0.433-7.174,1.298
		c-2.284,0.865-4.218,2.019-5.805,3.461l-1.802-2.596c1.874-1.682,4.133-2.992,6.777-3.929c2.643-0.938,5.407-1.406,8.291-1.406
		C565.643,86.975,569.224,88.164,571.724,90.543z M566.929,120.068c2.187-1.441,3.833-3.533,4.939-6.273v-7.065h-12.834
		c-3.702,0-6.381,0.674-8.039,2.019c-1.658,1.347-2.487,3.197-2.487,5.553c0,2.451,0.912,4.387,2.739,5.804
		c1.826,1.418,4.398,2.127,7.715,2.127C562.086,122.231,564.741,121.51,566.929,120.068z"/>
	<path fill="#87B53D" d="M623.778,71.401v53.498h-3.532v-8.867c-1.491,2.932-3.582,5.19-6.273,6.777
		c-2.692,1.586-5.744,2.379-9.156,2.379c-3.51,0-6.682-0.816-9.518-2.451c-2.836-1.634-5.059-3.895-6.669-6.777
		c-1.611-2.885-2.415-6.176-2.415-9.878c0-3.701,0.804-7.005,2.415-9.914c1.61-2.907,3.833-5.167,6.669-6.777
		s6.008-2.415,9.518-2.415c3.364,0,6.381,0.793,9.049,2.379c2.667,1.586,4.77,3.798,6.309,6.633V71.401H623.778z M612.783,119.924
		c2.282-1.345,4.085-3.22,5.407-5.623s1.983-5.144,1.983-8.22c0-3.075-0.661-5.815-1.983-8.22c-1.322-2.402-3.125-4.277-5.407-5.623
		c-2.283-1.346-4.866-2.02-7.751-2.02c-2.884,0-5.468,0.674-7.75,2.02c-2.284,1.346-4.086,3.221-5.408,5.623
		c-1.322,2.404-1.982,5.145-1.982,8.22c0,3.076,0.66,5.816,1.982,8.22s3.124,4.278,5.408,5.623c2.282,1.347,4.866,2.02,7.75,2.02
		C607.917,121.943,610.5,121.271,612.783,119.924z"/>
	<path fill="#87B53D" d="M662.424,90.543c2.499,2.379,3.749,5.877,3.749,10.49v23.865h-3.461v-6.705
		c-1.202,2.212-2.956,3.93-5.263,5.155c-2.308,1.226-5.072,1.839-8.292,1.839c-4.182,0-7.487-0.984-9.914-2.956
		c-2.428-1.971-3.641-4.566-3.641-7.787c0-3.124,1.117-5.659,3.353-7.606s5.804-2.92,10.707-2.92h12.906v-3.028
		c0-3.509-0.95-6.176-2.849-8.003c-1.899-1.826-4.675-2.74-8.327-2.74c-2.5,0-4.892,0.433-7.174,1.298
		c-2.284,0.865-4.218,2.019-5.805,3.461l-1.802-2.596c1.874-1.682,4.133-2.992,6.777-3.929c2.643-0.938,5.407-1.406,8.291-1.406
		C656.343,86.975,659.924,88.164,662.424,90.543z M657.629,120.068c2.187-1.441,3.833-3.533,4.939-6.273v-7.065h-12.834
		c-3.702,0-6.381,0.674-8.039,2.019c-1.658,1.347-2.487,3.197-2.487,5.553c0,2.451,0.912,4.387,2.739,5.804
		c1.826,1.418,4.398,2.127,7.715,2.127C652.786,122.231,655.441,121.51,657.629,120.068z"/>
	<path fill="#87B53D" d="M681.891,123.817c-2.74-0.913-4.879-2.065-6.417-3.461l1.658-2.884c1.538,1.298,3.521,2.379,5.948,3.244
		c2.427,0.865,4.963,1.299,7.606,1.299c3.797,0,6.598-0.625,8.4-1.875c1.802-1.25,2.703-2.98,2.703-5.191
		c0-1.586-0.493-2.836-1.478-3.75c-0.986-0.912-2.199-1.586-3.642-2.018c-1.441-0.434-3.437-0.889-5.984-1.371
		c-2.98-0.527-5.384-1.104-7.21-1.729c-1.827-0.624-3.389-1.634-4.687-3.028c-1.298-1.394-1.946-3.316-1.946-5.768
		c0-2.98,1.237-5.443,3.713-7.391s5.996-2.92,10.563-2.92c2.403,0,4.782,0.336,7.138,1.01c2.355,0.673,4.278,1.563,5.769,2.667
		l-1.658,2.884c-1.539-1.105-3.293-1.946-5.264-2.523c-1.972-0.576-3.99-0.865-6.057-0.865c-3.509,0-6.153,0.648-7.931,1.947
		c-1.778,1.297-2.668,3.004-2.668,5.119c0,1.683,0.505,2.992,1.515,3.93c1.009,0.937,2.246,1.635,3.713,2.09
		c1.466,0.458,3.521,0.95,6.165,1.479c2.931,0.529,5.299,1.094,7.102,1.694c1.803,0.602,3.328,1.575,4.578,2.92
		c1.249,1.347,1.875,3.197,1.875,5.552c0,3.125-1.298,5.624-3.894,7.498c-2.596,1.875-6.249,2.813-10.959,2.813
		C687.515,125.188,684.631,124.73,681.891,123.817z"/>
</g>
<path fill="#87B53D" d="M98.515,51.896c1.381,0,2.501-1.119,2.501-2.5V15.639c0-4.136-3.366-7.501-7.502-7.501H25.501
	c-4.136,0-7.501,3.365-7.501,7.501v37.507l-7.938,7.938C3.573,67.573,0,76.201,0,85.377v48.285c0,1.381,1.119,2.5,2.5,2.5
	s2.501-1.119,2.501-2.5V85.377c0-7.841,3.053-15.213,8.597-20.758L18,60.218v32.07l-3.993,8.142
	c-0.608,1.24-0.095,2.738,1.145,3.346c1.239,0.609,2.738,0.096,3.346-1.143l4.067-8.297l7.641-7.641
	c2.339-2.338,5.449-3.627,8.757-3.627h16.974c-2.528,5.074-7.739,8.406-13.6,8.406h-1.635c-0.663,0-1.299,0.264-1.768,0.732
	l-8.987,8.986c-0.469,0.469-0.732,1.104-0.732,1.768v9.072c0,7.48-2.888,14.539-8.132,19.875c-0.968,0.986-0.954,2.568,0.031,3.537
	c0.487,0.479,1.119,0.717,1.752,0.717h70.648c4.136,0,7.502-3.365,7.502-7.502V72.15c0-1.381-1.119-2.5-2.5-2.5
	c-1.382,0-2.501,1.12-2.501,2.5v41.008h-61.82c0.013-0.375,0.021-0.748,0.021-1.125v-8.037l7.522-7.521h0.6
	c2.669,0,5.234-0.525,7.591-1.482c0.026,0.033,0.05,0.066,0.078,0.096c4.04,4.451,8.103,6.773,8.275,6.869
	c0.381,0.215,0.805,0.324,1.229,0.324c0.425,0,0.849-0.109,1.23-0.324c0.672-0.379,16.446-9.488,16.446-26.867
	c0-17.392-15.792-26.342-16.464-26.714c-0.754-0.418-1.67-0.418-2.424,0c-0.672,0.372-16.464,9.322-16.464,26.714
	c0,0.996,0.056,1.991,0.162,2.979h-3.034c-4.644,0-9.009,1.808-12.293,5.092l-3.669,3.669V26.64h73.014v22.756
	C96.015,50.777,97.134,51.896,98.515,51.896 M96.015,118.158v10.502c0,1.379-1.122,2.5-2.5,2.5H28.193
	c2.741-3.9,4.596-8.318,5.462-13.002H96.015z M69.577,64.576c0.792,1.527,1.456,3.197,1.917,5.007
	c-0.008,0.008-0.017,0.014-0.024,0.023l-9.458,9.457v-6.922L69.577,64.576z M62.012,55.402c1.468,1.218,3.182,2.852,4.782,4.884
	l-4.782,4.783V55.402z M62.012,86.137l10.153-10.154c-0.362,9.09-6.164,15.525-10.153,18.896V86.137z M57.011,94.902
	c-0.812-0.684-1.699-1.494-2.604-2.432c0.93-0.693,1.804-1.461,2.604-2.307V94.902z M57.011,55.419v9.65L52.242,60.3
	C53.839,58.273,55.547,56.64,57.011,55.419 M49.457,64.587l7.554,7.554v5.928h-9.975c-0.13-0.983-0.2-1.98-0.2-2.979
	C46.836,71.07,47.909,67.561,49.457,64.587 M23.001,21.639v-6c0-1.378,1.122-2.5,2.5-2.5h68.014c1.378,0,2.5,1.122,2.5,2.5v6H23.001
	z"/>
<path fill="#87B53D" d="M61.274,122.891c-0.465-0.465-1.11-0.732-1.768-0.732c-0.657,0-1.302,0.268-1.768,0.732
	c-0.467,0.465-0.732,1.109-0.732,1.768c0,0.656,0.265,1.303,0.732,1.768c0.466,0.465,1.111,0.732,1.768,0.732
	c0.658,0,1.303-0.268,1.768-0.732s0.733-1.111,0.733-1.768C62.007,124,61.739,123.355,61.274,122.891"/>
<path fill="#87B53D" d="M100.284,59.696c-0.465-0.468-1.11-0.733-1.768-0.733c-0.658,0-1.303,0.265-1.768,0.733
	c-0.465,0.462-0.733,1.108-0.733,1.768c0,0.657,0.268,1.302,0.733,1.768c0.465,0.464,1.108,0.732,1.768,0.732
	c0.658,0,1.303-0.268,1.768-0.732c0.465-0.468,0.732-1.111,0.732-1.768C101.016,60.803,100.749,60.161,100.284,59.696"/>
<path fill="#87B53D" d="M67.955,43.677c-4.656-4.656-12.231-4.656-16.887,0c-0.976,0.976-0.977,2.56,0,3.536
	c0.977,0.977,2.56,0.977,3.536,0c2.706-2.705,7.109-2.705,9.814,0c0.489,0.488,1.129,0.733,1.768,0.733
	c0.641,0,1.281-0.245,1.769-0.733C68.931,46.237,68.931,44.654,67.955,43.677"/>
<path fill="#87B53D" d="M74.63,37.002c-8.336-8.336-21.901-8.336-30.237,0c-0.977,0.976-0.977,2.56,0,3.536
	c0.976,0.976,2.559,0.976,3.536,0c6.387-6.386,16.778-6.386,23.165,0c0.488,0.488,1.128,0.733,1.768,0.733
	c0.64,0,1.28-0.245,1.768-0.733C75.607,39.562,75.607,37.979,74.63,37.002"/>
</svg>
