<?xml version="1.0" encoding="utf-8"?>
<!-- Generator: Adobe Illustrator 16.0.3, SVG Export Plug-In . SVG Version: 6.00 Build 0)  -->
<!DOCTYPE svg PUBLIC "-//W3C//DTD SVG 1.1//EN" "http://www.w3.org/Graphics/SVG/1.1/DTD/svg11.dtd">
<svg version="1.1" id="Capa_1" xmlns="http://www.w3.org/2000/svg" xmlns:xlink="http://www.w3.org/1999/xlink" x="0px" y="0px"
	 width="918.09px" height="158.85px" viewBox="0 0 918.09 158.85" enable-background="new 0 0 918.09 158.85" xml:space="preserve">
<g>
	<path fill="#87B53D" d="M220.428,65.975c-3.726-1.082-6.718-2.488-8.976-4.218l3.965-8.796c2.163,1.586,4.734,2.86,7.715,3.821
		c2.979,0.962,5.959,1.442,8.94,1.442c3.317,0,5.768-0.492,7.354-1.478c1.586-0.985,2.379-2.295,2.379-3.93
		c0-1.201-0.469-2.199-1.406-2.992c-0.937-0.793-2.139-1.43-3.605-1.911c-1.467-0.48-3.449-1.01-5.948-1.586
		c-3.846-0.913-6.994-1.826-9.445-2.74c-2.452-0.913-4.555-2.379-6.309-4.398c-1.755-2.019-2.631-4.71-2.631-8.075
		c0-2.932,0.793-5.588,2.379-7.967c1.586-2.379,3.977-4.265,7.174-5.66c3.196-1.394,7.102-2.091,11.716-2.091
		c3.22,0,6.368,0.385,9.445,1.153c3.076,0.77,5.768,1.875,8.075,3.316l-3.605,8.869c-4.663-2.643-9.326-3.966-13.987-3.966
		c-3.269,0-5.685,0.53-7.246,1.586c-1.563,1.058-2.343,2.451-2.343,4.182s0.901,3.017,2.704,3.857
		c1.803,0.842,4.554,1.671,8.256,2.487c3.845,0.914,6.994,1.828,9.445,2.74c2.452,0.914,4.554,2.355,6.309,4.326
		c1.754,1.972,2.632,4.639,2.632,8.003c0,2.884-0.806,5.516-2.416,7.895c-1.611,2.379-4.026,4.267-7.246,5.66
		c-3.221,1.394-7.138,2.091-11.752,2.091C228.01,67.597,224.152,67.056,220.428,65.975z"/>
	<path fill="#87B53D" d="M267.075,64.749c-3.244-1.706-5.78-4.074-7.606-7.102c-1.827-3.028-2.74-6.464-2.74-10.311
		c0-3.845,0.913-7.282,2.74-10.31c1.826-3.028,4.362-5.395,7.606-7.102c3.245-1.706,6.91-2.56,10.996-2.56
		c4.085,0,7.738,0.854,10.959,2.56c3.22,1.707,5.743,4.074,7.571,7.102c1.826,3.028,2.74,6.465,2.74,10.31
		c0,3.846-0.914,7.282-2.74,10.311c-1.828,3.028-4.351,5.396-7.571,7.102c-3.221,1.707-6.874,2.56-10.959,2.56
		C273.985,67.308,270.32,66.456,267.075,64.749z M285.172,55.159c1.85-1.946,2.776-4.553,2.776-7.823
		c0-3.268-0.926-5.876-2.776-7.823c-1.851-1.947-4.218-2.92-7.102-2.92c-2.884,0-5.263,0.973-7.138,2.92
		c-1.875,1.947-2.812,4.555-2.812,7.823c0,3.27,0.937,5.876,2.812,7.823c1.875,1.947,4.254,2.92,7.138,2.92
		C280.955,58.08,283.322,57.106,285.172,55.159z"/>
	<path fill="#87B53D" d="M305.83,13.233h11.248v53.498H305.83V13.233z"/>
	<path fill="#87B53D" d="M365.528,27.941v38.79h-10.671v-4.614c-1.49,1.683-3.27,2.968-5.335,3.857
		c-2.067,0.889-4.302,1.333-6.705,1.333c-5.096,0-9.133-1.465-12.113-4.398c-2.981-2.931-4.47-7.282-4.47-13.05V27.941h11.248v20.26
		c0,6.249,2.619,9.373,7.859,9.373c2.691,0,4.854-0.876,6.489-2.632c1.634-1.754,2.452-4.362,2.452-7.823V27.941H365.528z"/>
	<path fill="#87B53D" d="M382.579,64.749c-3.293-1.706-5.865-4.074-7.715-7.102c-1.851-3.028-2.776-6.464-2.776-10.311
		c0-3.845,0.925-7.282,2.776-10.31c1.85-3.028,4.422-5.395,7.715-7.102c3.292-1.706,7.005-2.56,11.139-2.56
		c4.085,0,7.654,0.854,10.707,2.56c3.052,1.707,5.274,4.146,6.669,7.318l-8.724,4.687c-2.019-3.557-4.928-5.335-8.724-5.335
		c-2.933,0-5.36,0.962-7.282,2.884c-1.923,1.923-2.884,4.542-2.884,7.859c0,3.317,0.961,5.937,2.884,7.859
		c1.922,1.923,4.35,2.884,7.282,2.884c3.845,0,6.752-1.778,8.724-5.335l8.724,4.758c-1.395,3.077-3.618,5.48-6.669,7.21
		c-3.053,1.73-6.622,2.596-10.707,2.596C389.584,67.308,385.871,66.456,382.579,64.749z"/>
	<path fill="#87B53D" d="M417.15,20.731c-1.298-1.201-1.947-2.691-1.947-4.47c0-1.777,0.649-3.268,1.947-4.47
		c1.298-1.201,2.979-1.802,5.047-1.802c2.066,0,3.749,0.577,5.047,1.73c1.298,1.153,1.947,2.596,1.947,4.326
		c0,1.875-0.649,3.425-1.947,4.651c-1.298,1.226-2.98,1.838-5.047,1.838C420.129,22.534,418.448,21.934,417.15,20.731z
		 M416.573,27.941h11.248v38.79h-11.248V27.941z"/>
	<path fill="#87B53D" d="M444.728,64.749c-3.244-1.706-5.78-4.074-7.606-7.102c-1.827-3.028-2.74-6.464-2.74-10.311
		c0-3.845,0.913-7.282,2.74-10.31c1.826-3.028,4.362-5.395,7.606-7.102c3.245-1.706,6.91-2.56,10.996-2.56
		c4.085,0,7.738,0.854,10.958,2.56c3.221,1.707,5.744,4.074,7.571,7.102c1.826,3.028,2.739,6.465,2.739,10.31
		c0,3.846-0.913,7.282-2.739,10.311c-1.827,3.028-4.351,5.396-7.571,7.102c-3.221,1.707-6.874,2.56-10.958,2.56
		C451.637,67.308,447.972,66.456,444.728,64.749z M462.824,55.159c1.851-1.946,2.776-4.553,2.776-7.823
		c0-3.268-0.926-5.876-2.776-7.823c-1.85-1.947-4.217-2.92-7.101-2.92c-2.884,0-5.263,0.973-7.138,2.92
		c-1.875,1.947-2.812,4.555-2.812,7.823c0,3.27,0.937,5.876,2.812,7.823c1.875,1.947,4.254,2.92,7.138,2.92
		C458.607,58.08,460.975,57.106,462.824,55.159z"/>
	<path fill="#87B53D" d="M518.631,31.691c2.955,2.884,4.434,7.163,4.434,12.833v22.207h-11.248V46.255
		c0-3.075-0.674-5.371-2.019-6.885c-1.347-1.514-3.293-2.271-5.84-2.271c-2.837,0-5.096,0.878-6.777,2.632
		c-1.683,1.755-2.523,4.362-2.523,7.823v19.179H483.41v-38.79h10.742v4.542c1.489-1.633,3.34-2.895,5.552-3.785
		c2.21-0.889,4.638-1.334,7.282-1.334C511.792,27.365,515.674,28.807,518.631,31.691z"/>
	<path fill="#87B53D" d="M570.434,50.509h-29.345c0.528,2.404,1.778,4.303,3.749,5.696c1.971,1.395,4.422,2.091,7.354,2.091
		c2.019,0,3.809-0.3,5.371-0.901c1.562-0.601,3.017-1.55,4.362-2.848l5.984,6.489c-3.654,4.182-8.988,6.272-16.006,6.272
		c-4.375,0-8.244-0.853-11.608-2.56c-3.365-1.706-5.961-4.074-7.787-7.102c-1.827-3.028-2.739-6.464-2.739-10.311
		c0-3.796,0.9-7.221,2.703-10.274c1.803-3.052,4.277-5.431,7.426-7.138c3.148-1.706,6.67-2.56,10.563-2.56
		c3.796,0,7.233,0.818,10.31,2.452c3.076,1.634,5.492,3.978,7.246,7.03c1.755,3.053,2.633,6.597,2.633,10.635
		C570.65,47.625,570.578,48.634,570.434,50.509z M544.117,38.036c-1.73,1.442-2.789,3.414-3.172,5.912h19.105
		c-0.385-2.451-1.441-4.409-3.172-5.876c-1.73-1.466-3.846-2.199-6.346-2.199C547.986,35.873,545.848,36.594,544.117,38.036z"/>
	<path fill="#87B53D" d="M580.672,66.119c-3.076-0.793-5.528-1.79-7.354-2.992l3.749-8.075c1.73,1.106,3.822,2.007,6.273,2.704
		c2.451,0.697,4.854,1.045,7.209,1.045c4.76,0,7.139-1.177,7.139-3.533c0-1.105-0.648-1.898-1.947-2.379
		c-1.297-0.48-3.293-0.889-5.984-1.226c-3.172-0.48-5.793-1.033-7.858-1.658c-2.067-0.624-3.857-1.73-5.372-3.317
		c-1.514-1.586-2.271-3.845-2.271-6.777c0-2.451,0.708-4.625,2.127-6.525c1.417-1.898,3.484-3.376,6.2-4.434
		c2.715-1.057,5.924-1.586,9.625-1.586c2.74,0,5.468,0.301,8.184,0.901c2.715,0.602,4.963,1.431,6.742,2.487l-3.75,8.003
		c-3.413-1.922-7.138-2.884-11.176-2.884c-2.403,0-4.206,0.337-5.406,1.009c-1.203,0.674-1.803,1.539-1.803,2.596
		c0,1.202,0.648,2.043,1.946,2.523c1.298,0.481,3.364,0.938,6.2,1.37c3.173,0.529,5.769,1.094,7.787,1.694
		c2.02,0.602,3.773,1.694,5.264,3.28c1.489,1.586,2.234,3.798,2.234,6.633c0,2.404-0.721,4.542-2.162,6.417
		c-1.442,1.875-3.546,3.329-6.309,4.362c-2.766,1.033-6.046,1.55-9.842,1.55C586.896,67.308,583.747,66.912,580.672,66.119z"/>
</g>
<path fill="#87B53D" d="M180.627,113.441c-1.255-4.576-5.093-7.981-9.787-8.687V35.964h5.995c1.656,0,2.998-1.342,2.998-2.997V2.996
	c0-1.657-1.342-2.997-2.998-2.997H44.958c-1.656,0-2.998,1.34-2.998,2.997v29.972c0,1.655,1.342,2.997,2.998,2.997h5.994v59.944
	h-2.997c-7.439-0.017-14.726,2.115-20.98,6.142V86.917c0-1.656-1.343-2.998-2.998-2.998H2.997C1.341,83.919,0,85.261,0,86.917
	v68.937c0,1.655,1.341,2.997,2.997,2.997h20.98c1.655,0,2.998-1.342,2.998-2.997v-15.131c6.256,4.022,13.541,6.155,20.98,6.139
	h49.214c3.41-0.006,6.804-0.454,10.098-1.332l64.893-17.383C178.544,126.406,182.328,119.839,180.627,113.441 M47.955,5.992h125.883
	v23.979H47.955V5.992z M56.947,35.964h107.899v69.307l-34.785,9.328c-1.433-3.416-4.355-5.982-7.928-6.961L81.748,96.808
	c-2.274-0.598-4.616-0.902-6.967-0.899H56.947V35.964z M20.98,152.855H5.994v-62.94H20.98V152.855z M170.604,122.355l-64.881,17.383
	c-2.791,0.745-5.665,1.124-8.554,1.129H47.955c-7.136,0.017-14.083-2.3-19.782-6.595l-1.198-0.898v-23.978l1.198-0.899
	c5.699-4.296,12.646-6.613,19.782-6.594h26.826c1.83-0.002,3.656,0.236,5.427,0.704l40.373,10.822
	c2.384,0.657,4.13,2.702,4.403,5.161c0.032,0.123,0.071,0.244,0.12,0.363c-0.035,0.129-0.062,0.26-0.079,0.393
	c0.003,0.488-0.063,0.973-0.197,1.441c-0.706,2.612-3.073,4.428-5.779,4.434c-0.528,0.004-1.051-0.063-1.561-0.198l-25.476-6.832
	c-1.045-0.31-2.177-0.028-2.955,0.735c-0.777,0.764-1.08,1.889-0.789,2.939s1.13,1.86,2.191,2.114l25.476,6.834
	c1.018,0.269,2.066,0.401,3.12,0.401c5.389-0.004,10.111-3.608,11.535-8.807c0.167-0.601,0.28-1.216,0.34-1.837l36.539-9.798
	c0.26-0.064,0.543-0.133,0.809-0.177c2.984-0.386,5.79,1.502,6.561,4.407c0.134,0.508,0.202,1.029,0.198,1.554
	C175.041,119.272,173.223,121.648,170.604,122.355"/>
<path fill="#87B53D" d="M95.91,47.954h29.972c1.655,0,2.997-1.342,2.997-2.998c0-1.656-1.342-2.997-2.997-2.997H95.91
	c-1.655,0-2.997,1.341-2.997,2.997C92.913,46.611,94.255,47.954,95.91,47.954"/>
<g>
	<path fill="#87B53D" d="M222.194,120.158c-2.884-1.634-5.144-3.905-6.777-6.814c-1.635-2.907-2.452-6.188-2.452-9.841
		c0-3.701,0.817-7.005,2.452-9.914c1.633-2.907,3.894-5.167,6.777-6.777s6.152-2.415,9.806-2.415c3.028,0,5.779,0.589,8.255,1.766
		c2.475,1.179,4.481,2.896,6.021,5.156l-2.668,1.946c-1.346-1.874-3.017-3.28-5.011-4.218c-1.995-0.938-4.194-1.406-6.597-1.406
		c-2.933,0-5.564,0.661-7.895,1.982c-2.332,1.322-4.158,3.186-5.479,5.588c-1.323,2.404-1.983,5.168-1.983,8.292
		c0,3.125,0.66,5.888,1.983,8.292c1.321,2.403,3.147,4.266,5.479,5.587c2.331,1.323,4.962,1.983,7.895,1.983
		c2.403,0,4.602-0.469,6.597-1.406c1.994-0.938,3.665-2.344,5.011-4.219l2.668,1.947c-1.539,2.26-3.545,3.979-6.021,5.155
		c-2.476,1.179-5.227,1.767-8.255,1.767C228.347,122.609,225.078,121.793,222.194,120.158z"/>
	<path fill="#87B53D" d="M260.443,120.158c-2.86-1.634-5.108-3.905-6.741-6.814c-1.635-2.907-2.452-6.188-2.452-9.841
		c0-3.652,0.817-6.933,2.452-9.842c1.633-2.907,3.881-5.179,6.741-6.813c2.859-1.634,6.068-2.451,9.625-2.451
		c3.557,0,6.765,0.817,9.625,2.451c2.859,1.635,5.106,3.906,6.741,6.813c1.633,2.909,2.451,6.189,2.451,9.842
		c0,3.653-0.818,6.934-2.451,9.841c-1.635,2.909-3.882,5.181-6.741,6.814c-2.86,1.635-6.069,2.451-9.625,2.451
		C266.511,122.609,263.302,121.793,260.443,120.158z M277.819,117.346c2.283-1.345,4.085-3.22,5.408-5.623
		c1.321-2.403,1.983-5.144,1.983-8.22c0-3.075-0.662-5.815-1.983-8.22c-1.323-2.402-3.125-4.277-5.408-5.623
		c-2.283-1.346-4.867-2.02-7.75-2.02c-2.884,0-5.468,0.674-7.751,2.02c-2.283,1.346-4.086,3.221-5.407,5.623
		c-1.323,2.404-1.983,5.145-1.983,8.22c0,3.076,0.66,5.816,1.983,8.22c1.321,2.403,3.124,4.278,5.407,5.623
		c2.283,1.347,4.867,2.02,7.751,2.02C272.952,119.365,275.536,118.692,277.819,117.346z"/>
	<path fill="#87B53D" d="M356.913,88.506c2.667,2.74,4.001,6.682,4.001,11.824v21.99h-3.605v-21.701c0-4.229-1.034-7.45-3.1-9.662
		c-2.067-2.21-4.952-3.316-8.652-3.316c-4.23,0-7.583,1.322-10.058,3.966c-2.477,2.644-3.713,6.2-3.713,10.671v20.043h-3.605
		v-21.701c0-4.229-1.034-7.45-3.1-9.662c-2.067-2.21-4.952-3.316-8.652-3.316c-4.23,0-7.583,1.322-10.058,3.966
		c-2.477,2.644-3.713,6.2-3.713,10.671v20.043h-3.605V84.685h3.461v8.075c1.249-2.643,3.111-4.697,5.587-6.164
		c2.475-1.467,5.419-2.199,8.833-2.199c3.412,0,6.309,0.77,8.688,2.307c2.379,1.539,4.074,3.798,5.083,6.777
		c1.25-2.787,3.208-4.998,5.876-6.633c2.668-1.634,5.779-2.451,9.337-2.451C350.579,84.396,354.245,85.766,356.913,88.506z"/>
	<path fill="#87B53D" d="M379.912,120.158c-2.86-1.634-5.108-3.905-6.741-6.814c-1.635-2.907-2.452-6.188-2.452-9.841
		c0-3.652,0.817-6.933,2.452-9.842c1.633-2.907,3.881-5.179,6.741-6.813c2.859-1.634,6.068-2.451,9.625-2.451
		c3.557,0,6.765,0.817,9.625,2.451c2.859,1.635,5.106,3.906,6.741,6.813c1.633,2.909,2.451,6.189,2.451,9.842
		c0,3.653-0.818,6.934-2.451,9.841c-1.635,2.909-3.882,5.181-6.741,6.814c-2.86,1.635-6.069,2.451-9.625,2.451
		C385.979,122.609,382.771,121.793,379.912,120.158z M397.288,117.346c2.283-1.345,4.085-3.22,5.408-5.623
		c1.321-2.403,1.983-5.144,1.983-8.22c0-3.075-0.662-5.815-1.983-8.22c-1.323-2.402-3.125-4.277-5.408-5.623
		c-2.283-1.346-4.867-2.02-7.75-2.02c-2.884,0-5.468,0.674-7.751,2.02c-2.283,1.346-4.086,3.221-5.407,5.623
		c-1.323,2.404-1.983,5.145-1.983,8.22c0,3.076,0.66,5.816,1.983,8.22c1.321,2.403,3.124,4.278,5.407,5.623
		c2.283,1.347,4.867,2.02,7.751,2.02C392.421,119.365,395.004,118.692,397.288,117.346z"/>
	<path fill="#87B53D" d="M436.906,121.239c-2.74-0.913-4.879-2.065-6.417-3.461l1.658-2.884c1.538,1.298,3.521,2.379,5.948,3.244
		c2.427,0.865,4.963,1.299,7.607,1.299c3.796,0,6.597-0.625,8.399-1.875c1.803-1.25,2.704-2.98,2.704-5.191
		c0-1.586-0.493-2.836-1.478-3.75c-0.985-0.912-2.199-1.586-3.641-2.018c-1.442-0.434-3.437-0.889-5.984-1.371
		c-2.981-0.527-5.384-1.104-7.21-1.729c-1.828-0.624-3.389-1.634-4.687-3.028c-1.298-1.394-1.947-3.316-1.947-5.768
		c0-2.98,1.237-5.443,3.713-7.391c2.475-1.947,5.996-2.92,10.563-2.92c2.403,0,4.782,0.336,7.138,1.01
		c2.354,0.673,4.277,1.563,5.768,2.667l-1.658,2.884c-1.539-1.105-3.293-1.946-5.264-2.523c-1.971-0.576-3.99-0.865-6.056-0.865
		c-3.509,0-6.153,0.648-7.931,1.947c-1.779,1.297-2.667,3.004-2.667,5.119c0,1.683,0.504,2.992,1.514,3.93
		c1.009,0.937,2.246,1.635,3.713,2.09c1.466,0.458,3.521,0.95,6.165,1.479c2.932,0.529,5.299,1.094,7.102,1.694
		c1.802,0.602,3.328,1.575,4.578,2.92c1.25,1.347,1.875,3.197,1.875,5.552c0,3.125-1.298,5.624-3.893,7.498
		c-2.596,1.875-6.249,2.813-10.959,2.813C442.53,122.609,439.646,122.152,436.906,121.239z"/>
	<path fill="#87B53D" d="M501.291,104.367h-32.373c0.096,2.934,0.84,5.541,2.234,7.824s3.281,4.049,5.66,5.299
		s5.059,1.875,8.039,1.875c2.451,0,4.723-0.444,6.814-1.334c2.09-0.889,3.832-2.199,5.227-3.93l2.091,2.379
		c-1.634,1.972-3.689,3.486-6.165,4.543c-2.476,1.058-5.154,1.586-8.039,1.586c-3.748,0-7.09-0.816-10.021-2.451
		c-2.932-1.634-5.227-3.895-6.885-6.777c-1.659-2.885-2.488-6.176-2.488-9.878c0-3.652,0.781-6.933,2.344-9.842
		c1.561-2.907,3.713-5.179,6.453-6.813c2.739-1.634,5.814-2.451,9.229-2.451c3.412,0,6.477,0.805,9.192,2.415
		s4.854,3.857,6.417,6.741c1.562,2.885,2.344,6.153,2.344,9.806L501.291,104.367z M476.271,89.335
		c-2.115,1.179-3.81,2.837-5.082,4.976c-1.274,2.139-2.008,4.555-2.199,7.246h28.84c-0.145-2.691-0.865-5.095-2.163-7.211
		c-1.298-2.114-3.005-3.772-5.119-4.975c-2.116-1.201-4.495-1.803-7.138-1.803C480.766,87.568,478.387,88.158,476.271,89.335z"/>
	<path fill="#87B53D" d="M520.396,86.596c2.451-1.467,5.431-2.199,8.939-2.199v3.533l-0.865-0.072c-4.182,0-7.45,1.31-9.805,3.93
		c-2.355,2.619-3.533,6.261-3.533,10.922v19.611h-3.605V84.685h3.461v8.22C516.143,90.164,517.945,88.063,520.396,86.596z"/>
	<path fill="#87B53D" d="M570.145,84.685l-17.016,37.636h-3.677l-16.943-37.636h3.821l14.996,33.671l15.142-33.671H570.145z"/>
	<path fill="#87B53D" d="M576.706,74.699c-0.577-0.552-0.865-1.237-0.865-2.055c0-0.817,0.288-1.514,0.865-2.091
		c0.577-0.577,1.273-0.865,2.091-0.865c0.816,0,1.514,0.277,2.092,0.829c0.576,0.553,0.865,1.238,0.865,2.055
		c0,0.818-0.289,1.514-0.865,2.091c-0.578,0.577-1.275,0.865-2.092,0.865C577.979,75.528,577.283,75.252,576.706,74.699z
		 M576.994,84.685h3.605v37.636h-3.605V84.685z"/>
	<path fill="#87B53D" d="M599.922,120.158c-2.885-1.634-5.145-3.905-6.777-6.814c-1.635-2.907-2.452-6.188-2.452-9.841
		c0-3.701,0.817-7.005,2.452-9.914c1.633-2.907,3.893-5.167,6.777-6.777c2.883-1.61,6.152-2.415,9.805-2.415
		c3.029,0,5.779,0.589,8.256,1.766c2.475,1.179,4.481,2.896,6.021,5.156l-2.668,1.946c-1.347-1.874-3.017-3.28-5.011-4.218
		c-1.995-0.938-4.194-1.406-6.598-1.406c-2.932,0-5.563,0.661-7.895,1.982c-2.332,1.322-4.158,3.186-5.479,5.588
		c-1.323,2.404-1.983,5.168-1.983,8.292c0,3.125,0.66,5.888,1.983,8.292c1.321,2.403,3.147,4.266,5.479,5.587
		c2.331,1.323,4.963,1.983,7.895,1.983c2.403,0,4.603-0.469,6.598-1.406c1.994-0.938,3.664-2.344,5.011-4.219l2.668,1.947
		c-1.539,2.26-3.546,3.979-6.021,5.155c-2.477,1.179-5.227,1.767-8.256,1.767C606.074,122.609,602.805,121.793,599.922,120.158z"/>
	<path fill="#87B53D" d="M633.52,74.699c-0.577-0.552-0.865-1.237-0.865-2.055c0-0.817,0.288-1.514,0.865-2.091
		c0.576-0.577,1.273-0.865,2.091-0.865c0.816,0,1.514,0.277,2.091,0.829c0.576,0.553,0.865,1.238,0.865,2.055
		c0,0.818-0.289,1.514-0.865,2.091c-0.577,0.577-1.274,0.865-2.091,0.865C634.793,75.528,634.096,75.252,633.52,74.699z
		 M633.808,84.685h3.604v37.636h-3.604V84.685z"/>
	<path fill="#87B53D" d="M656.698,120.158c-2.86-1.634-5.108-3.905-6.741-6.814c-1.635-2.907-2.451-6.188-2.451-9.841
		c0-3.652,0.816-6.933,2.451-9.842c1.633-2.907,3.881-5.179,6.741-6.813c2.859-1.634,6.067-2.451,9.626-2.451
		c3.557,0,6.765,0.817,9.625,2.451c2.859,1.635,5.106,3.906,6.741,6.813c1.634,2.909,2.451,6.189,2.451,9.842
		c0,3.653-0.817,6.934-2.451,9.841c-1.635,2.909-3.882,5.181-6.741,6.814c-2.86,1.635-6.068,2.451-9.625,2.451
		C662.766,122.609,659.558,121.793,656.698,120.158z M674.074,117.346c2.283-1.345,4.085-3.22,5.408-5.623
		c1.32-2.403,1.982-5.144,1.982-8.22c0-3.075-0.662-5.815-1.982-8.22c-1.323-2.402-3.125-4.277-5.408-5.623s-4.867-2.02-7.75-2.02
		c-2.885,0-5.469,0.674-7.752,2.02s-4.086,3.221-5.406,5.623c-1.323,2.404-1.983,5.145-1.983,8.22c0,3.076,0.66,5.816,1.983,8.22
		c1.32,2.403,3.123,4.278,5.406,5.623c2.283,1.347,4.867,2.02,7.752,2.02C669.207,119.365,671.791,118.692,674.074,117.346z"/>
	<path fill="#87B53D" d="M715.314,121.096c-1.418-5.721-2.127-11.896-2.127-18.53s0.709-12.845,2.127-18.638
		c1.417-5.792,3.448-10.827,6.092-15.105h3.461c-5.432,9.277-8.146,20.525-8.146,33.743c0,13.22,2.715,24.466,8.146,33.743h-3.461
		C718.763,131.885,716.731,126.814,715.314,121.096z"/>
	<path fill="#87B53D" d="M738.747,120.771c-3.341-1.272-5.948-2.92-7.823-4.938l1.658-2.74c1.778,1.875,4.17,3.401,7.174,4.578
		c3.004,1.179,6.165,1.768,9.482,1.768c4.806,0,8.435-0.913,10.887-2.74c2.451-1.826,3.677-4.205,3.677-7.139
		c0-2.258-0.648-4.061-1.946-5.407c-1.298-1.345-2.909-2.379-4.831-3.101c-1.923-0.721-4.519-1.465-7.786-2.234
		c-3.703-0.912-6.67-1.803-8.905-2.668s-4.134-2.199-5.696-4.002s-2.343-4.217-2.343-7.246c0-2.451,0.649-4.697,1.946-6.741
		c1.299-2.042,3.281-3.665,5.949-4.867c2.668-1.201,5.995-1.803,9.985-1.803c2.787,0,5.527,0.409,8.22,1.226
		c2.691,0.818,5.021,1.923,6.993,3.317l-1.369,2.956c-2.02-1.394-4.243-2.452-6.67-3.172c-2.428-0.721-4.819-1.082-7.174-1.082
		c-4.663,0-8.196,0.937-10.599,2.812c-2.404,1.875-3.605,4.303-3.605,7.281c0,2.261,0.649,4.063,1.947,5.408s2.908,2.379,4.83,3.1
		c1.922,0.722,4.543,1.491,7.859,2.309c3.701,0.913,6.657,1.802,8.868,2.667s4.098,2.175,5.66,3.929
		c1.562,1.756,2.343,4.123,2.343,7.103c0,2.452-0.661,4.687-1.982,6.706c-1.322,2.018-3.353,3.629-6.093,4.83
		c-2.739,1.202-6.104,1.803-10.094,1.803C745.607,122.682,742.088,122.045,738.747,120.771z"/>
	<path fill="#87B53D" d="M801.149,87.965c2.499,2.379,3.749,5.877,3.749,10.49v23.865h-3.461v-6.705
		c-1.202,2.212-2.956,3.93-5.263,5.155c-2.308,1.226-5.072,1.839-8.292,1.839c-4.182,0-7.487-0.984-9.914-2.956
		c-2.428-1.971-3.641-4.566-3.641-7.787c0-3.124,1.117-5.659,3.353-7.606s5.804-2.92,10.707-2.92h12.906v-3.028
		c0-3.509-0.95-6.176-2.849-8.003c-1.899-1.826-4.675-2.74-8.327-2.74c-2.5,0-4.892,0.433-7.174,1.298
		c-2.284,0.865-4.218,2.019-5.805,3.461l-1.802-2.596c1.874-1.682,4.133-2.992,6.777-3.929c2.643-0.938,5.407-1.406,8.291-1.406
		C795.068,84.396,798.649,85.586,801.149,87.965z M796.354,117.49c2.187-1.441,3.833-3.533,4.939-6.273v-7.065H788.46
		c-3.702,0-6.381,0.674-8.039,2.019c-1.658,1.347-2.487,3.197-2.487,5.553c0,2.451,0.912,4.387,2.739,5.804
		c1.826,1.418,4.398,2.127,7.715,2.127C791.512,119.653,794.167,118.932,796.354,117.49z"/>
	<path fill="#87B53D" d="M842.102,87.965c2.499,2.379,3.749,5.877,3.749,10.49v23.865h-3.461v-6.705
		c-1.202,2.212-2.956,3.93-5.263,5.155c-2.308,1.226-5.072,1.839-8.292,1.839c-4.182,0-7.487-0.984-9.914-2.956
		c-2.428-1.971-3.641-4.566-3.641-7.787c0-3.124,1.117-5.659,3.353-7.606s5.804-2.92,10.707-2.92h12.906v-3.028
		c0-3.509-0.95-6.176-2.849-8.003c-1.899-1.826-4.675-2.74-8.327-2.74c-2.5,0-4.892,0.433-7.174,1.298
		c-2.284,0.865-4.218,2.019-5.805,3.461l-1.802-2.596c1.874-1.682,4.133-2.992,6.777-3.929c2.643-0.938,5.407-1.406,8.291-1.406
		C836.021,84.396,839.602,85.586,842.102,87.965z M837.307,117.49c2.187-1.441,3.833-3.533,4.939-6.273v-7.065h-12.834
		c-3.702,0-6.381,0.674-8.039,2.019c-1.658,1.347-2.487,3.197-2.487,5.553c0,2.451,0.912,4.387,2.739,5.804
		c1.826,1.418,4.398,2.127,7.715,2.127C832.464,119.653,835.119,118.932,837.307,117.49z"/>
	<path fill="#87B53D" d="M863.551,120.771c-3.342-1.272-5.948-2.92-7.823-4.938l1.658-2.74c1.778,1.875,4.17,3.401,7.175,4.578
		c3.003,1.179,6.164,1.768,9.48,1.768c4.807,0,8.436-0.913,10.888-2.74c2.451-1.826,3.677-4.205,3.677-7.139
		c0-2.258-0.648-4.061-1.946-5.407c-1.298-1.345-2.909-2.379-4.831-3.101c-1.923-0.721-4.519-1.465-7.787-2.234
		c-3.701-0.912-6.669-1.803-8.904-2.668s-4.134-2.199-5.695-4.002c-1.563-1.803-2.344-4.217-2.344-7.246
		c0-2.451,0.649-4.697,1.947-6.741c1.297-2.042,3.28-3.665,5.948-4.867c2.667-1.201,5.995-1.803,9.985-1.803
		c2.787,0,5.527,0.409,8.22,1.226c2.691,0.818,5.021,1.923,6.993,3.317l-1.369,2.956c-2.02-1.394-4.243-2.452-6.67-3.172
		c-2.428-0.721-4.819-1.082-7.174-1.082c-4.663,0-8.195,0.937-10.599,2.812c-2.404,1.875-3.605,4.303-3.605,7.281
		c0,2.261,0.649,4.063,1.947,5.408s2.907,2.379,4.831,3.1c1.922,0.722,4.542,1.491,7.858,2.309c3.701,0.913,6.657,1.802,8.868,2.667
		s4.098,2.175,5.66,3.929c1.562,1.756,2.343,4.123,2.343,7.103c0,2.452-0.661,4.687-1.982,6.706
		c-1.322,2.018-3.353,3.629-6.093,4.83c-2.739,1.202-6.104,1.803-10.094,1.803C870.411,122.682,866.891,122.045,863.551,120.771z"/>
	<path fill="#87B53D" d="M898.339,136.309c2.787-4.712,4.83-9.854,6.128-15.43c1.298-5.576,1.947-11.68,1.947-18.313
		s-0.649-12.737-1.947-18.313c-1.298-5.575-3.341-10.718-6.128-15.429h3.389c2.691,4.278,4.746,9.313,6.164,15.105
		c1.418,5.793,2.127,12.004,2.127,18.638s-0.709,12.822-2.127,18.565c-1.418,5.744-3.473,10.803-6.164,15.178H898.339z"/>
</g>
</svg>
