<?xml version="1.0" encoding="utf-8"?>
<!-- Generator: Adobe Illustrator 16.0.3, SVG Export Plug-In . SVG Version: 6.00 Build 0)  -->
<!DOCTYPE svg PUBLIC "-//W3C//DTD SVG 1.1//EN" "http://www.w3.org/Graphics/SVG/1.1/DTD/svg11.dtd">
<svg version="1.1" id="Capa_1" xmlns="http://www.w3.org/2000/svg" xmlns:xlink="http://www.w3.org/1999/xlink" x="0px" y="0px"
	 width="64px" height="81px" viewBox="0 0 64 81" enable-background="new 0 0 64 81" xml:space="preserve">
<path fill="#FFFFFF" d="M55.568,10.667h-7.281V7.409c0-1.054-1.148-1.532-2.203-1.532h-5.652c-1.342-3.832-4.695-5.748-8.527-5.748
	c-3.79-0.144-7.238,2.181-8.527,5.748H17.82c-1.055,0-2.107,0.479-2.107,1.532v3.259H8.43c-4.314,0.046-7.844,3.449-8.047,7.761
	v54.898c0,4.217,3.832,7.283,8.047,7.283h47.139c4.217,0,8.049-3.066,8.049-7.283V18.428C63.414,14.117,59.885,10.713,55.568,10.667
	 M19.545,9.709h5.27c0.92-0.112,1.658-0.813,1.82-1.726c0.567-2.47,2.735-4.245,5.27-4.311c2.51,0.076,4.646,1.854,5.174,4.311
	c0.172,0.945,0.959,1.653,1.916,1.726h5.461v7.665h-24.91V9.709z M59.785,73.326c0,2.109-2.107,3.449-4.217,3.449H8.43
	c-2.107,0-4.215-1.34-4.215-3.449V18.428C4.41,16.233,6.229,14.541,8.43,14.5h7.283v4.886c0.1,1.074,1.03,1.877,2.107,1.82h28.264
	c1.098,0.06,2.055-0.732,2.203-1.82V14.5h7.281c2.203,0.041,4.021,1.733,4.217,3.929V73.326z"/>
<path fill="#FFFFFF" d="M24.622,43.089c-0.719-0.757-1.912-0.8-2.683-0.096l-6.132,5.845l-2.587-2.683
	c-0.719-0.757-1.911-0.799-2.682-0.095c-0.743,0.776-0.743,2.001,0,2.777l3.928,4.024c0.34,0.381,0.831,0.591,1.341,0.575
	c0.505-0.007,0.987-0.214,1.341-0.575l7.474-7.089c0.74-0.68,0.79-1.832,0.11-2.573C24.697,43.161,24.661,43.124,24.622,43.089"/>
<path fill="#FFFFFF" d="M52.12,47.209H30.083c-1.058,0-1.916,0.858-1.916,1.916c0,1.06,0.858,1.917,1.916,1.917H52.12
	c1.058,0,1.916-0.857,1.916-1.917C54.036,48.067,53.178,47.209,52.12,47.209"/>
<path fill="#FFFFFF" d="M24.622,27.76c-0.719-0.758-1.912-0.801-2.683-0.096l-6.132,5.844l-2.587-2.683
	c-0.719-0.757-1.911-0.799-2.682-0.095c-0.743,0.776-0.743,2.001,0,2.777l3.928,4.024c0.34,0.381,0.831,0.591,1.341,0.576
	c0.505-0.008,0.987-0.214,1.341-0.576l7.474-7.089c0.74-0.68,0.79-1.831,0.11-2.573C24.697,27.831,24.661,27.795,24.622,27.76"/>
<path fill="#FFFFFF" d="M52.12,31.879H30.083c-1.058,0-1.916,0.858-1.916,1.918c0,1.058,0.858,1.915,1.916,1.915H52.12
	c1.058,0,1.916-0.857,1.916-1.915C54.036,32.737,53.178,31.879,52.12,31.879"/>
<path fill="#FFFFFF" d="M24.622,58.419c-0.719-0.758-1.912-0.8-2.683-0.096l-6.132,5.845l-2.587-2.684
	c-0.719-0.756-1.911-0.799-2.682-0.095c-0.743,0.777-0.743,2.001,0,2.778l3.928,4.023c0.34,0.381,0.831,0.592,1.341,0.576
	c0.505-0.007,0.987-0.214,1.341-0.576l7.474-7.089c0.74-0.68,0.79-1.831,0.11-2.573C24.697,58.491,24.661,58.454,24.622,58.419"/>
<path fill="#FFFFFF" d="M52.12,62.539H30.083c-1.058,0-1.916,0.857-1.916,1.916c0,1.06,0.858,1.916,1.916,1.916H52.12
	c1.058,0,1.916-0.856,1.916-1.916C54.036,63.396,53.178,62.539,52.12,62.539"/>
</svg>
