<?xml version="1.0" encoding="utf-8"?>
<!-- Generator: Adobe Illustrator 16.0.3, SVG Export Plug-In . SVG Version: 6.00 Build 0)  -->
<!DOCTYPE svg PUBLIC "-//W3C//DTD SVG 1.1//EN" "http://www.w3.org/Graphics/SVG/1.1/DTD/svg11.dtd">
<svg version="1.1" id="Capa_1" xmlns="http://www.w3.org/2000/svg" xmlns:xlink="http://www.w3.org/1999/xlink" x="0px" y="0px"
	 width="101px" height="73px" viewBox="0 0 101 73" enable-background="new 0 0 101 73" xml:space="preserve">
<path fill="#FFFFFF" d="M23.74,52.156c-5.541,0-10.048,4.506-10.048,10.047S18.199,72.25,23.74,72.25
	c5.54,0,10.047-4.506,10.047-10.047S29.28,52.156,23.74,52.156 M23.74,68.899c-3.694,0-6.698-3.004-6.698-6.696
	c0-3.695,3.004-6.699,6.698-6.699c3.693,0,6.697,3.004,6.697,6.699C30.438,65.896,27.434,68.899,23.74,68.899"/>
<path fill="#FFFFFF" d="M80.672,52.156c-5.541,0-10.048,4.506-10.048,10.047S75.131,72.25,80.672,72.25
	c5.54,0,10.047-4.506,10.047-10.047S86.212,52.156,80.672,52.156 M80.672,68.899c-3.694,0-6.698-3.004-6.698-6.696
	c0-3.695,3.004-6.699,6.698-6.699c3.693,0,6.697,3.004,6.697,6.699C87.369,65.896,84.365,68.899,80.672,68.899"/>
<path fill="#FFFFFF" d="M100.499,42.877l-15.07-23.441c-0.309-0.48-0.839-0.77-1.409-0.77H65.602c-0.926,0-1.675,0.75-1.675,1.675
	v41.861c0,0.927,0.749,1.674,1.675,1.674h6.697v-3.349h-5.023V22.016h15.83l14.311,22.26v16.252h-8.372v3.349h10.047
	c0.926,0,1.674-0.747,1.674-1.674V43.783C100.765,43.464,100.673,43.147,100.499,42.877"/>
<path fill="#FFFFFF" d="M73.974,40.434V28.713H87.37v-3.349H72.3c-0.927,0-1.675,0.751-1.675,1.674v15.071
	c0,0.926,0.748,1.674,1.675,1.674h25.116v-3.35H73.974z"/>
<path fill="#FFFFFF" d="M65.602,6.944H1.972c-0.925,0-1.675,0.752-1.675,1.676v53.583c0,0.926,0.75,1.674,1.675,1.674h13.396v-3.35
	H3.646V10.295h60.28v50.232H32.112v3.35h33.489c0.926,0,1.674-0.748,1.674-1.674V8.62C67.275,7.696,66.527,6.944,65.602,6.944"/>
<rect x="1.972" y="53.829" fill="#FFFFFF" width="10.047" height="3.35"/>
<rect x="35.461" y="53.829" fill="#FFFFFF" width="28.466" height="3.35"/>
<rect x="92.393" y="53.829" fill="#FFFFFF" width="6.698" height="3.35"/>
<rect x="6.995" y="13.643" fill="#FFFFFF" width="58.605" height="3.349"/>
<rect x="22.065" y="60.527" fill="#FFFFFF" width="3.35" height="3.349"/>
<rect x="78.997" y="60.527" fill="#FFFFFF" width="3.349" height="3.349"/>
<rect x="6.995" y="0.247" fill="#FFFFFF" width="23.441" height="3.349"/>
<rect x="0.298" y="0.247" fill="#FFFFFF" width="3.349" height="3.349"/>
</svg>
