<?xml version="1.0" encoding="utf-8"?>
<!-- Generator: Adobe Illustrator 16.0.3, SVG Export Plug-In . SVG Version: 6.00 Build 0)  -->
<!DOCTYPE svg PUBLIC "-//W3C//DTD SVG 1.1//EN" "http://www.w3.org/Graphics/SVG/1.1/DTD/svg11.dtd">
<svg version="1.1" id="Capa_1" xmlns="http://www.w3.org/2000/svg" xmlns:xlink="http://www.w3.org/1999/xlink" x="0px" y="0px"
	 width="48px" height="48px" viewBox="0 0 48 48" enable-background="new 0 0 48 48" xml:space="preserve">
<path fill="#009BDE" d="M24.006,0.389C37.047,0.389,47.617,10.96,47.617,24c0,13.042-10.57,23.611-23.611,23.611
	C10.966,47.611,0.395,37.042,0.395,24C0.396,10.96,10.966,0.389,24.006,0.389"/>
<path fill="#0294C6" d="M17.973,34.65l12.14,12.143c10.056-2.682,17.504-11.844,17.504-22.792V23.33l-9.534-8.789L17.973,34.65z"/>
<path fill="#FFFFFF" d="M24.602,29.289c1.043,1.043,1.043,2.83,0,3.873l-2.16,2.16c-1.043,1.043-2.83,1.043-3.873,0l-9.46-9.535
	c-1.042-1.043-1.042-2.83,0-3.873l2.16-2.16c1.043-1.043,2.831-1.043,3.874,0L24.602,29.289z"/>
<path fill="#FFFFFF" d="M32.869,12.827c1.043-1.043,2.832-1.043,3.873,0l2.16,2.16c1.043,1.043,1.043,2.83,0,3.873L22.517,35.174
	c-1.043,1.043-2.831,1.043-3.873,0l-2.16-2.16c-1.043-1.043-1.043-2.832,0-3.873L32.869,12.827z"/>
</svg>
