<?xml version="1.0" encoding="utf-8"?>
<!-- Generator: Adobe Illustrator 16.0.3, SVG Export Plug-In . SVG Version: 6.00 Build 0)  -->
<!DOCTYPE svg PUBLIC "-//W3C//DTD SVG 1.1//EN" "http://www.w3.org/Graphics/SVG/1.1/DTD/svg11.dtd">
<svg version="1.1" id="Capa_1" xmlns="http://www.w3.org/2000/svg" xmlns:xlink="http://www.w3.org/1999/xlink" x="0px" y="0px"
	 width="161px" height="161px" viewBox="0 0 161 161" enable-background="new 0 0 161 161" xml:space="preserve">
<g>
	<g>
		<defs>
			<rect id="SVGID_1_" x="0.21" y="0.21" width="160.579" height="160.58"/>
		</defs>
		<clipPath id="SVGID_2_">
			<use xlink:href="#SVGID_1_"  overflow="visible"/>
		</clipPath>
		<g clip-path="url(#SVGID_2_)">
			<defs>
				<path id="SVGID_3_" d="M87.557,160.793H73.444c-5.188,0-9.409-4.221-9.409-9.409c0-4.376,3.003-8.064,7.057-9.112v-3.902
					c0-0.893-0.648-1.666-1.542-1.84c-7.513-1.46-14.548-4.373-20.909-8.66c-0.762-0.514-1.772-0.428-2.404,0.203l-2.785,2.783
					c1.942,3.382,1.697,7.737-0.856,10.787c-1.698,2.025-4.18,3.254-6.81,3.37c-2.629,0.113-5.207-0.885-7.07-2.745l-9.979-9.981
					c-1.776-1.777-2.756-4.14-2.756-6.653s0.979-4.876,2.756-6.654c1.777-1.776,4.141-2.754,6.654-2.754
					c1.709,0,3.349,0.451,4.782,1.299l2.758-2.758c0.631-0.631,0.717-1.643,0.203-2.404c-4.286-6.361-7.2-13.396-8.66-20.909
					c-0.174-0.894-0.947-1.542-1.84-1.542h-3.899c-0.426,1.667-1.308,3.189-2.582,4.418c-1.854,1.79-4.293,2.72-6.874,2.633
					c-5.085-0.181-9.069-4.378-9.069-9.554V73.443c0-2.572,1.02-4.975,2.869-6.764c1.85-1.787,4.291-2.726,6.86-2.64
					c4.161,0.139,7.678,3.12,8.752,7.052h3.943c0.893,0,1.666-0.648,1.839-1.542c1.461-7.513,4.374-14.548,8.661-20.909
					c0.513-0.763,0.428-1.773-0.203-2.405l-2.758-2.759c-1.435,0.849-3.074,1.301-4.783,1.301c-2.514,0-4.876-0.979-6.653-2.756
					c-3.669-3.668-3.669-9.638,0-13.307l9.979-9.979c3.669-3.67,9.639-3.669,13.308,0c1.777,1.777,2.756,4.14,2.756,6.654
					c0,1.709-0.452,3.348-1.301,4.781l2.759,2.759c0.632,0.632,1.643,0.716,2.403,0.203c6.362-4.286,13.397-7.2,20.91-8.66
					c0.894-0.174,1.542-0.948,1.542-1.839v-3.905c-4.054-1.046-7.057-4.735-7.057-9.111c0-5.188,4.221-9.409,9.409-9.409h14.113
					c5.189,0,9.41,4.221,9.41,9.409c0,4.376-3.004,8.065-7.057,9.111v3.905c0,0.891,0.648,1.665,1.541,1.839
					c7.514,1.46,14.549,4.374,20.91,8.66c0.762,0.513,1.773,0.429,2.404-0.203l2.762-2.761c-2.127-3.608-1.643-8.339,1.451-11.433
					c3.67-3.669,9.639-3.67,13.309,0l9.979,9.979c3.67,3.669,3.67,9.637,0,13.307c-1.777,1.777-4.139,2.756-6.652,2.756
					c-1.709,0-3.35-0.452-4.781-1.301l-2.76,2.759c-0.631,0.632-0.717,1.643-0.203,2.405c4.287,6.361,7.201,13.396,8.66,20.908
					c0.174,0.895,0.947,1.543,1.84,1.543h3.936c1.018-3.765,4.271-6.67,8.232-7.021h0.002c2.635-0.234,5.258,0.655,7.197,2.432
					c1.943,1.778,3.059,4.308,3.059,6.94v14.115c0,2.631-1.115,5.161-3.059,6.94c-1.939,1.777-4.566,2.663-7.197,2.431
					c-3.963-0.35-7.217-3.256-8.234-7.02h-3.936c-0.893,0-1.666,0.648-1.84,1.542c-1.459,7.513-4.373,14.548-8.66,20.909
					c-0.514,0.762-0.428,1.773,0.203,2.404l2.76,2.758c1.432-0.848,3.072-1.299,4.781-1.299c2.514,0,4.875,0.978,6.652,2.754
					c1.779,1.778,2.756,4.141,2.756,6.654s-0.977,4.876-2.756,6.653l-9.979,9.981c-1.863,1.86-4.438,2.861-7.07,2.745
					c-2.629-0.116-5.111-1.345-6.811-3.37c-2.553-3.05-2.799-7.405-0.855-10.787l-2.785-2.783c-0.631-0.631-1.643-0.717-2.404-0.203
					c-6.361,4.287-13.396,7.2-20.908,8.66c-0.895,0.174-1.543,0.947-1.543,1.84v3.902c4.055,1.048,7.057,4.736,7.057,9.112
					C96.967,156.572,92.746,160.793,87.557,160.793 M47.555,121.266c1.591,0,3.193,0.461,4.59,1.401
					c5.66,3.813,11.919,6.406,18.602,7.705c3.834,0.745,6.617,4.106,6.617,7.997v5.958c0,2.162-1.758,3.921-3.92,3.921
					c-1.729,0-3.137,1.406-3.137,3.136s1.407,3.136,3.137,3.136h14.113c1.73,0,3.137-1.406,3.137-3.136s-1.406-3.136-3.137-3.136
					c-2.16,0-3.92-1.759-3.92-3.921v-5.958c0-3.889,2.785-7.252,6.619-7.997c6.682-1.299,12.939-3.892,18.6-7.705
					c3.246-2.187,7.598-1.779,10.346,0.97l4.314,4.314c1.473,1.473,1.473,3.871,0,5.344c-1.195,1.195-1.326,3.092-0.299,4.319
					c0.58,0.69,1.387,1.093,2.275,1.132c0.895,0.037,1.729-0.285,2.359-0.915l9.979-9.979c0.594-0.594,0.92-1.381,0.92-2.219
					s-0.326-1.625-0.92-2.218c-1.223-1.223-3.213-1.222-4.436,0l-0.1,0.101c-1.473,1.474-3.871,1.474-5.344,0l-4.314-4.313
					c-2.748-2.749-3.156-7.101-0.969-10.347c3.813-5.659,6.406-11.918,7.703-18.6c0.746-3.835,4.109-6.619,7.998-6.619h6.1
					c2.084,0,3.779,1.695,3.779,3.779c0,1.689,1.248,3.124,2.842,3.266c0.898,0.078,1.754-0.209,2.41-0.81
					c0.658-0.603,1.02-1.424,1.02-2.313V73.443c0-0.89-0.361-1.713-1.02-2.314c-0.656-0.602-1.518-0.889-2.41-0.809
					c-1.594,0.141-2.842,1.574-2.842,3.265c0,2.084-1.695,3.779-3.779,3.779h-6.1c-3.889,0-7.252-2.783-7.998-6.618
					c-1.299-6.684-3.891-12.941-7.703-18.602c-2.188-3.246-1.779-7.596,0.969-10.345l4.215-4.214c1.527-1.527,4.016-1.527,5.545,0
					c1.223,1.223,3.211,1.225,4.436,0c1.223-1.223,1.223-3.213,0-4.436l-9.98-9.979c-1.223-1.223-3.213-1.224-4.436,0
					c-1.223,1.222-1.223,3.212,0,4.435c1.527,1.529,1.527,4.016,0,5.544l-4.215,4.214c-2.748,2.749-7.1,3.157-10.344,0.97
					c-5.66-3.814-11.92-6.405-18.602-7.704c-3.834-0.745-6.619-4.109-6.619-7.997v-5.959c0-2.161,1.76-3.92,3.92-3.92
					c1.73,0,3.137-1.407,3.137-3.137S89.287,6.48,87.557,6.48H73.444c-1.729,0-3.137,1.408-3.137,3.137s1.407,3.137,3.137,3.137
					c2.162,0,3.92,1.759,3.92,3.92v5.959c0,3.888-2.783,7.252-6.618,7.997c-6.682,1.299-12.94,3.89-18.601,7.704
					c-3.245,2.186-7.597,1.779-10.345-0.97l-4.213-4.214c-0.741-0.74-1.149-1.725-1.149-2.772s0.408-2.032,1.149-2.773
					c1.222-1.222,1.222-3.212,0-4.435c-1.225-1.224-3.214-1.223-4.437,0l-9.979,9.98c-1.224,1.223-1.224,3.212,0,4.436
					c0.592,0.593,1.379,0.919,2.217,0.919s1.625-0.326,2.218-0.919c1.528-1.529,4.016-1.527,5.545,0l4.214,4.214
					c2.748,2.749,3.156,7.099,0.971,10.345c-3.815,5.66-6.407,11.918-7.707,18.602c-0.744,3.835-4.107,6.618-7.996,6.618H16.51
					c-2.071,0-3.757-1.685-3.757-3.756c0-1.764-1.357-3.244-3.025-3.298c-0.858-0.033-1.675,0.281-2.291,0.877
					c-0.616,0.598-0.956,1.398-0.956,2.256v13.964c0,1.752,1.354,3.226,3.019,3.285c0.864,0.032,1.678-0.281,2.295-0.878
					c0.618-0.596,0.959-1.398,0.959-2.256c0-2.164,1.759-3.922,3.921-3.922h5.958c3.889,0,7.252,2.784,7.996,6.619
					c1.3,6.682,3.892,12.94,7.707,18.6c2.186,3.246,1.777,7.598-0.971,10.346l-4.314,4.314c-1.474,1.474-3.871,1.473-5.344,0
					l-0.101-0.101c-0.593-0.593-1.38-0.919-2.218-0.919s-1.625,0.326-2.217,0.919c-0.593,0.593-0.918,1.38-0.918,2.218
					s0.324,1.625,0.918,2.219l9.979,9.979c0.63,0.63,1.469,0.955,2.357,0.916c0.89-0.039,1.698-0.441,2.277-1.133
					c1.027-1.227,0.896-3.123-0.3-4.318c-1.473-1.474-1.473-3.871,0-5.344l4.314-4.314
					C43.366,122.071,45.451,121.266,47.555,121.266"/>
			</defs>
			<clipPath id="SVGID_4_">
				<use xlink:href="#SVGID_3_"  overflow="visible"/>
			</clipPath>
			<defs>
				<filter id="Adobe_OpacityMaskFilter" filterUnits="userSpaceOnUse" x="-66.606" y="-66.605" width="294.213" height="294.213">
					<feColorMatrix  type="matrix" values="1 0 0 0 0  0 1 0 0 0  0 0 1 0 0  0 0 0 1 0"/>
				</filter>
			</defs>
			<mask maskUnits="userSpaceOnUse" x="-66.606" y="-66.605" width="294.213" height="294.213" id="SVGID_5_">
				<g filter="url(#Adobe_OpacityMaskFilter)">
					
						<linearGradient id="SVGID_6_" gradientUnits="userSpaceOnUse" x1="-879.543" y1="3607.9268" x2="-878.543" y2="3607.9268" gradientTransform="matrix(373.1613 199.7419 199.7419 -373.1613 -392534.4063 1522008.5)">
						<stop  offset="0" style="stop-color:#FFFFFF"/>
						<stop  offset="0.5279" style="stop-color:#FFFFFF"/>
						<stop  offset="0.605" style="stop-color:#FCFCFC"/>
						<stop  offset="0.6667" style="stop-color:#F2F2F2"/>
						<stop  offset="0.723" style="stop-color:#E1E1E1"/>
						<stop  offset="0.7761" style="stop-color:#C9C9C9"/>
						<stop  offset="0.827" style="stop-color:#AAAAAA"/>
						<stop  offset="0.8763" style="stop-color:#858585"/>
						<stop  offset="0.9242" style="stop-color:#585858"/>
						<stop  offset="0.9698" style="stop-color:#262626"/>
						<stop  offset="1" style="stop-color:#000000"/>
					</linearGradient>
					<polygon clip-path="url(#SVGID_4_)" fill="url(#SVGID_6_)" points="35.971,-66.606 227.607,35.971 125.031,227.606 
						-66.605,125.029 					"/>
				</g>
			</mask>
			
				<linearGradient id="SVGID_7_" gradientUnits="userSpaceOnUse" x1="-879.543" y1="3607.9268" x2="-878.543" y2="3607.9268" gradientTransform="matrix(373.1613 199.7419 199.7419 -373.1613 -392534.5313 1522008.625)">
				<stop  offset="0" style="stop-color:#64B430"/>
				<stop  offset="0.5279" style="stop-color:#1D97C3"/>
				<stop  offset="0.719" style="stop-color:#1C99C3"/>
				<stop  offset="0.8718" style="stop-color:#1D9FC3"/>
				<stop  offset="1" style="stop-color:#1CA9C4"/>
			</linearGradient>
			<polygon clip-path="url(#SVGID_4_)" mask="url(#SVGID_5_)" fill="url(#SVGID_7_)" points="35.971,-66.605 227.607,35.971 
				125.031,227.607 -66.606,125.03 			"/>
		</g>
		<g clip-path="url(#SVGID_2_)">
			<defs>
				<path id="SVGID_8_" d="M68.386,67.289c-7.264,0-13.174-5.909-13.174-13.173c0-7.265,5.91-13.173,13.174-13.173
					s13.172,5.908,13.172,13.173C81.559,61.38,75.65,67.289,68.386,67.289 M68.386,47.216c-3.806,0-6.9,3.095-6.9,6.9
					c0,3.805,3.095,6.901,6.9,6.901c3.805,0,6.899-3.097,6.899-6.901C75.286,50.311,72.191,47.216,68.386,47.216"/>
			</defs>
			<clipPath id="SVGID_9_">
				<use xlink:href="#SVGID_8_"  overflow="visible"/>
			</clipPath>
			<defs>
				<filter id="Adobe_OpacityMaskFilter_1_" filterUnits="userSpaceOnUse" x="44.251" y="29.981" width="48.268" height="48.27">
					<feColorMatrix  type="matrix" values="1 0 0 0 0  0 1 0 0 0  0 0 1 0 0  0 0 0 1 0"/>
				</filter>
			</defs>
			<mask maskUnits="userSpaceOnUse" x="44.251" y="29.981" width="48.268" height="48.27" id="SVGID_10_">
				<g filter="url(#Adobe_OpacityMaskFilter_1_)">
					
						<linearGradient id="SVGID_11_" gradientUnits="userSpaceOnUse" x1="-879.5435" y1="3607.9258" x2="-878.5435" y2="3607.9258" gradientTransform="matrix(373.1613 199.7419 199.7419 -373.1613 -392525.9063 1521993)">
						<stop  offset="0" style="stop-color:#FFFFFF"/>
						<stop  offset="0.5279" style="stop-color:#FFFFFF"/>
						<stop  offset="0.605" style="stop-color:#FCFCFC"/>
						<stop  offset="0.6667" style="stop-color:#F2F2F2"/>
						<stop  offset="0.723" style="stop-color:#E1E1E1"/>
						<stop  offset="0.7761" style="stop-color:#C9C9C9"/>
						<stop  offset="0.827" style="stop-color:#AAAAAA"/>
						<stop  offset="0.8763" style="stop-color:#858585"/>
						<stop  offset="0.9242" style="stop-color:#585858"/>
						<stop  offset="0.9698" style="stop-color:#262626"/>
						<stop  offset="1" style="stop-color:#000000"/>
					</linearGradient>
					<polygon clip-path="url(#SVGID_9_)" fill="url(#SVGID_11_)" points="61.081,29.982 92.521,46.811 75.692,78.251 44.251,61.422 
											"/>
				</g>
			</mask>
			
				<linearGradient id="SVGID_12_" gradientUnits="userSpaceOnUse" x1="-879.5435" y1="3607.9258" x2="-878.5435" y2="3607.9258" gradientTransform="matrix(373.1613 199.7419 199.7419 -373.1613 -392526.0313 1521993.125)">
				<stop  offset="0" style="stop-color:#64B430"/>
				<stop  offset="0.5279" style="stop-color:#1D97C3"/>
				<stop  offset="0.719" style="stop-color:#1C99C3"/>
				<stop  offset="0.8718" style="stop-color:#1D9FC3"/>
				<stop  offset="1" style="stop-color:#1CA9C4"/>
			</linearGradient>
			<polygon clip-path="url(#SVGID_9_)" mask="url(#SVGID_10_)" fill="url(#SVGID_12_)" points="61.081,29.981 92.52,46.811 
				75.692,78.251 44.251,61.422 			"/>
		</g>
		<g clip-path="url(#SVGID_2_)">
			<defs>
				<path id="SVGID_13_" d="M59.487,111.804c-6.284,0-11.396-5.112-11.396-11.396s5.111-11.396,11.396-11.396
					c6.283,0,11.396,5.112,11.396,11.396S65.77,111.804,59.487,111.804 M59.487,95.285c-2.825,0-5.123,2.298-5.123,5.123
					c0,2.824,2.298,5.123,5.123,5.123c2.824,0,5.122-2.299,5.122-5.123C64.609,97.583,62.311,95.285,59.487,95.285"/>
			</defs>
			<clipPath id="SVGID_14_">
				<use xlink:href="#SVGID_13_"  overflow="visible"/>
			</clipPath>
			<defs>
				<filter id="Adobe_OpacityMaskFilter_2_" filterUnits="userSpaceOnUse" x="38.609" y="79.53" width="41.756" height="41.757">
					<feColorMatrix  type="matrix" values="1 0 0 0 0  0 1 0 0 0  0 0 1 0 0  0 0 0 1 0"/>
				</filter>
			</defs>
			<mask maskUnits="userSpaceOnUse" x="38.609" y="79.53" width="41.756" height="41.757" id="SVGID_15_">
				<g filter="url(#Adobe_OpacityMaskFilter_2_)">
					
						<linearGradient id="SVGID_16_" gradientUnits="userSpaceOnUse" x1="-879.54" y1="3607.9258" x2="-878.5467" y2="3607.9258" gradientTransform="matrix(373.1613 199.7419 199.7419 -373.1613 -392547.4063 1522032.75)">
						<stop  offset="0" style="stop-color:#FFFFFF"/>
						<stop  offset="0.5279" style="stop-color:#FFFFFF"/>
						<stop  offset="0.605" style="stop-color:#FCFCFC"/>
						<stop  offset="0.6667" style="stop-color:#F2F2F2"/>
						<stop  offset="0.723" style="stop-color:#E1E1E1"/>
						<stop  offset="0.7761" style="stop-color:#C9C9C9"/>
						<stop  offset="0.827" style="stop-color:#AAAAAA"/>
						<stop  offset="0.8763" style="stop-color:#858585"/>
						<stop  offset="0.9242" style="stop-color:#585858"/>
						<stop  offset="0.9698" style="stop-color:#262626"/>
						<stop  offset="1" style="stop-color:#000000"/>
					</linearGradient>
					<polygon clip-path="url(#SVGID_14_)" fill="url(#SVGID_16_)" points="53.167,79.531 80.365,94.089 65.806,121.287 
						38.608,106.729 					"/>
				</g>
			</mask>
			
				<linearGradient id="SVGID_17_" gradientUnits="userSpaceOnUse" x1="-879.54" y1="3607.9277" x2="-878.5467" y2="3607.9277" gradientTransform="matrix(373.1613 199.7419 199.7419 -373.1613 -392547.5313 1522032.875)">
				<stop  offset="0" style="stop-color:#64B430"/>
				<stop  offset="0.5279" style="stop-color:#1D97C3"/>
				<stop  offset="0.719" style="stop-color:#1C99C3"/>
				<stop  offset="0.8718" style="stop-color:#1D9FC3"/>
				<stop  offset="1" style="stop-color:#1CA9C4"/>
			</linearGradient>
			<polygon clip-path="url(#SVGID_14_)" mask="url(#SVGID_15_)" fill="url(#SVGID_17_)" points="53.167,79.53 80.365,94.089 
				65.806,121.287 38.609,106.729 			"/>
		</g>
		<g clip-path="url(#SVGID_2_)">
			<defs>
				<path id="SVGID_18_" d="M102.402,108.684c-9.828,0-18.1-7.354-19.238-17.105c-0.201-1.72,1.031-3.277,2.752-3.479
					c1.721-0.199,3.277,1.031,3.479,2.752c0.77,6.59,6.361,11.559,13.008,11.559c7.223,0,13.098-5.875,13.098-13.098
					c0-6.688-5.004-12.285-11.641-13.018c-1.721-0.189-2.963-1.738-2.771-3.461c0.188-1.723,1.74-2.961,3.459-2.773
					c9.82,1.084,17.227,9.36,17.227,19.252C121.773,99.993,113.086,108.684,102.402,108.684"/>
			</defs>
			<clipPath id="SVGID_19_">
				<use xlink:href="#SVGID_18_"  overflow="visible"/>
			</clipPath>
			<defs>
				<filter id="Adobe_OpacityMaskFilter_3_" filterUnits="userSpaceOnUse" x="66.816" y="53.726" width="71.106" height="71.105">
					<feColorMatrix  type="matrix" values="1 0 0 0 0  0 1 0 0 0  0 0 1 0 0  0 0 0 1 0"/>
				</filter>
			</defs>
			<mask maskUnits="userSpaceOnUse" x="66.816" y="53.726" width="71.106" height="71.105" id="SVGID_20_">
				<g filter="url(#Adobe_OpacityMaskFilter_3_)">
					
						<linearGradient id="SVGID_21_" gradientUnits="userSpaceOnUse" x1="-879.541" y1="3607.9258" x2="-878.5449" y2="3607.9258" gradientTransform="matrix(373.1613 199.7419 199.7419 -373.1613 -392532.9063 1522006.25)">
						<stop  offset="0" style="stop-color:#FFFFFF"/>
						<stop  offset="0.5279" style="stop-color:#FFFFFF"/>
						<stop  offset="0.605" style="stop-color:#FCFCFC"/>
						<stop  offset="0.6667" style="stop-color:#F2F2F2"/>
						<stop  offset="0.723" style="stop-color:#E1E1E1"/>
						<stop  offset="0.7761" style="stop-color:#C9C9C9"/>
						<stop  offset="0.827" style="stop-color:#AAAAAA"/>
						<stop  offset="0.8763" style="stop-color:#858585"/>
						<stop  offset="0.9242" style="stop-color:#585858"/>
						<stop  offset="0.9698" style="stop-color:#262626"/>
						<stop  offset="1" style="stop-color:#000000"/>
					</linearGradient>
					<polygon clip-path="url(#SVGID_19_)" fill="url(#SVGID_21_)" points="91.607,53.726 137.922,78.517 113.131,124.831 
						66.816,100.04 					"/>
				</g>
			</mask>
			
				<linearGradient id="SVGID_22_" gradientUnits="userSpaceOnUse" x1="-879.541" y1="3607.9277" x2="-878.5449" y2="3607.9277" gradientTransform="matrix(373.1613 199.7419 199.7419 -373.1613 -392533.0313 1522006.375)">
				<stop  offset="0" style="stop-color:#64B430"/>
				<stop  offset="0.5279" style="stop-color:#1D97C3"/>
				<stop  offset="0.719" style="stop-color:#1C99C3"/>
				<stop  offset="0.8718" style="stop-color:#1D9FC3"/>
				<stop  offset="1" style="stop-color:#1CA9C4"/>
			</linearGradient>
			<polygon clip-path="url(#SVGID_19_)" mask="url(#SVGID_20_)" fill="url(#SVGID_22_)" points="91.605,53.726 137.922,78.517 
				113.131,124.831 66.816,100.04 			"/>
		</g>
		<g clip-path="url(#SVGID_2_)">
			<defs>
				<path id="SVGID_23_" d="M98.379,57.253c-0.826,0-1.635-0.335-2.219-0.919c-0.582-0.583-0.918-1.393-0.918-2.217
					c0-0.828,0.334-1.635,0.918-2.219c0.584-0.582,1.393-0.918,2.219-0.918c0.824,0,1.633,0.336,2.217,0.918
					c0.584,0.584,0.92,1.394,0.92,2.219c0,0.824-0.336,1.634-0.92,2.217C100.012,56.918,99.203,57.253,98.379,57.253"/>
			</defs>
			<clipPath id="SVGID_24_">
				<use xlink:href="#SVGID_23_"  overflow="visible"/>
			</clipPath>
			<defs>
				<filter id="Adobe_OpacityMaskFilter_4_" filterUnits="userSpaceOnUse" x="92.633" y="48.37" width="11.492" height="11.493">
					<feColorMatrix  type="matrix" values="1 0 0 0 0  0 1 0 0 0  0 0 1 0 0  0 0 0 1 0"/>
				</filter>
			</defs>
			<mask maskUnits="userSpaceOnUse" x="92.633" y="48.37" width="11.492" height="11.493" id="SVGID_25_">
				<g filter="url(#Adobe_OpacityMaskFilter_4_)">
					
						<linearGradient id="SVGID_26_" gradientUnits="userSpaceOnUse" x1="-879.5435" y1="3607.9258" x2="-878.5435" y2="3607.9258" gradientTransform="matrix(373.1613 199.7419 199.7419 -373.1613 -392519.4063 1521980.5)">
						<stop  offset="0" style="stop-color:#FFFFFF"/>
						<stop  offset="0.5279" style="stop-color:#FFFFFF"/>
						<stop  offset="0.605" style="stop-color:#FCFCFC"/>
						<stop  offset="0.6667" style="stop-color:#F2F2F2"/>
						<stop  offset="0.723" style="stop-color:#E1E1E1"/>
						<stop  offset="0.7761" style="stop-color:#C9C9C9"/>
						<stop  offset="0.827" style="stop-color:#AAAAAA"/>
						<stop  offset="0.8763" style="stop-color:#858585"/>
						<stop  offset="0.9242" style="stop-color:#585858"/>
						<stop  offset="0.9698" style="stop-color:#262626"/>
						<stop  offset="1" style="stop-color:#000000"/>
					</linearGradient>
					<polygon clip-path="url(#SVGID_24_)" fill="url(#SVGID_26_)" points="96.639,48.369 104.125,52.377 100.119,59.862 
						92.633,55.855 					"/>
				</g>
			</mask>
			
				<linearGradient id="SVGID_27_" gradientUnits="userSpaceOnUse" x1="-879.5435" y1="3607.9258" x2="-878.5435" y2="3607.9258" gradientTransform="matrix(373.1613 199.7419 199.7419 -373.1613 -392519.5313 1521980.625)">
				<stop  offset="0" style="stop-color:#64B430"/>
				<stop  offset="0.5279" style="stop-color:#1D97C3"/>
				<stop  offset="0.719" style="stop-color:#1C99C3"/>
				<stop  offset="0.8718" style="stop-color:#1D9FC3"/>
				<stop  offset="1" style="stop-color:#1CA9C4"/>
			</linearGradient>
			<polygon clip-path="url(#SVGID_24_)" mask="url(#SVGID_25_)" fill="url(#SVGID_27_)" points="96.639,48.37 104.125,52.377 
				100.117,59.863 92.633,55.855 			"/>
		</g>
		<g clip-path="url(#SVGID_2_)">
			<defs>
				<path id="SVGID_28_" d="M80.5,120.961c-0.825,0-1.634-0.336-2.218-0.92c-0.583-0.583-0.919-1.393-0.919-2.217
					c0-0.825,0.336-1.635,0.919-2.219c0.584-0.582,1.389-0.918,2.218-0.918c0.826,0,1.634,0.336,2.216,0.918
					c0.584,0.584,0.92,1.394,0.92,2.219c0,0.824-0.336,1.634-0.92,2.217C82.135,120.625,81.326,120.961,80.5,120.961"/>
			</defs>
			<clipPath id="SVGID_29_">
				<use xlink:href="#SVGID_28_"  overflow="visible"/>
			</clipPath>
			<defs>
				<filter id="Adobe_OpacityMaskFilter_5_" filterUnits="userSpaceOnUse" x="74.753" y="112.077" width="11.495" height="11.494">
					<feColorMatrix  type="matrix" values="1 0 0 0 0  0 1 0 0 0  0 0 1 0 0  0 0 0 1 0"/>
				</filter>
			</defs>
			<mask maskUnits="userSpaceOnUse" x="74.753" y="112.077" width="11.495" height="11.494" id="SVGID_30_">
				<g filter="url(#Adobe_OpacityMaskFilter_5_)">
					
						<linearGradient id="SVGID_31_" gradientUnits="userSpaceOnUse" x1="-879.5435" y1="3607.9258" x2="-878.5435" y2="3607.9258" gradientTransform="matrix(373.1613 199.7419 199.7419 -373.1613 -392549.9063 1522037.5)">
						<stop  offset="0" style="stop-color:#FFFFFF"/>
						<stop  offset="0.5279" style="stop-color:#FFFFFF"/>
						<stop  offset="0.605" style="stop-color:#FCFCFC"/>
						<stop  offset="0.6667" style="stop-color:#F2F2F2"/>
						<stop  offset="0.723" style="stop-color:#E1E1E1"/>
						<stop  offset="0.7761" style="stop-color:#C9C9C9"/>
						<stop  offset="0.827" style="stop-color:#AAAAAA"/>
						<stop  offset="0.8763" style="stop-color:#858585"/>
						<stop  offset="0.9242" style="stop-color:#585858"/>
						<stop  offset="0.9698" style="stop-color:#262626"/>
						<stop  offset="1" style="stop-color:#000000"/>
					</linearGradient>
					<polygon clip-path="url(#SVGID_29_)" fill="url(#SVGID_31_)" points="78.761,112.077 86.248,116.085 82.24,123.571 
						74.753,119.564 					"/>
				</g>
			</mask>
			
				<linearGradient id="SVGID_32_" gradientUnits="userSpaceOnUse" x1="-879.5435" y1="3607.9277" x2="-878.5435" y2="3607.9277" gradientTransform="matrix(373.1613 199.7419 199.7419 -373.1613 -392550.0313 1522037.625)">
				<stop  offset="0" style="stop-color:#64B430"/>
				<stop  offset="0.5279" style="stop-color:#1D97C3"/>
				<stop  offset="0.719" style="stop-color:#1C99C3"/>
				<stop  offset="0.8718" style="stop-color:#1D9FC3"/>
				<stop  offset="1" style="stop-color:#1CA9C4"/>
			</linearGradient>
			<polygon clip-path="url(#SVGID_29_)" mask="url(#SVGID_30_)" fill="url(#SVGID_32_)" points="78.761,112.077 86.248,116.084 
				82.24,123.571 74.753,119.563 			"/>
		</g>
		<g clip-path="url(#SVGID_2_)">
			<defs>
				<path id="SVGID_33_" d="M45.269,83.678c-0.828,0-1.634-0.336-2.218-0.919c-0.587-0.583-0.919-1.393-0.919-2.218
					c0-0.827,0.332-1.634,0.919-2.217c0.581-0.587,1.39-0.919,2.218-0.919c0.825,0,1.634,0.332,2.218,0.919
					c0.583,0.583,0.919,1.393,0.919,2.217c0,0.825-0.336,1.632-0.919,2.218C46.903,83.342,46.094,83.678,45.269,83.678"/>
			</defs>
			<clipPath id="SVGID_34_">
				<use xlink:href="#SVGID_33_"  overflow="visible"/>
			</clipPath>
			<defs>
				<filter id="Adobe_OpacityMaskFilter_6_" filterUnits="userSpaceOnUse" x="39.522" y="74.795" width="11.494" height="11.493">
					<feColorMatrix  type="matrix" values="1 0 0 0 0  0 1 0 0 0  0 0 1 0 0  0 0 0 1 0"/>
				</filter>
			</defs>
			<mask maskUnits="userSpaceOnUse" x="39.522" y="74.795" width="11.494" height="11.493" id="SVGID_35_">
				<g filter="url(#Adobe_OpacityMaskFilter_6_)">
					
						<linearGradient id="SVGID_36_" gradientUnits="userSpaceOnUse" x1="-879.5342" y1="3607.9258" x2="-878.558" y2="3607.9258" gradientTransform="matrix(373.1613 199.7419 199.7419 -373.1613 -392542.4063 1522023.25)">
						<stop  offset="0" style="stop-color:#FFFFFF"/>
						<stop  offset="0.5279" style="stop-color:#FFFFFF"/>
						<stop  offset="0.605" style="stop-color:#FCFCFC"/>
						<stop  offset="0.6667" style="stop-color:#F2F2F2"/>
						<stop  offset="0.723" style="stop-color:#E1E1E1"/>
						<stop  offset="0.7761" style="stop-color:#C9C9C9"/>
						<stop  offset="0.827" style="stop-color:#AAAAAA"/>
						<stop  offset="0.8763" style="stop-color:#858585"/>
						<stop  offset="0.9242" style="stop-color:#585858"/>
						<stop  offset="0.9698" style="stop-color:#262626"/>
						<stop  offset="1" style="stop-color:#000000"/>
					</linearGradient>
					<polygon clip-path="url(#SVGID_34_)" fill="url(#SVGID_36_)" points="43.53,74.795 51.016,78.803 47.009,86.289 39.522,82.281 
											"/>
				</g>
			</mask>
			
				<linearGradient id="SVGID_37_" gradientUnits="userSpaceOnUse" x1="-879.5342" y1="3607.9258" x2="-878.558" y2="3607.9258" gradientTransform="matrix(373.1613 199.7419 199.7419 -373.1613 -392542.0313 1522023.375)">
				<stop  offset="0" style="stop-color:#64B430"/>
				<stop  offset="0.5279" style="stop-color:#1D97C3"/>
				<stop  offset="0.719" style="stop-color:#1C99C3"/>
				<stop  offset="0.8718" style="stop-color:#1D9FC3"/>
				<stop  offset="1" style="stop-color:#1CA9C4"/>
			</linearGradient>
			<polygon clip-path="url(#SVGID_34_)" mask="url(#SVGID_35_)" fill="url(#SVGID_37_)" points="43.529,74.795 51.016,78.803 
				47.008,86.288 39.522,82.281 			"/>
		</g>
		<g clip-path="url(#SVGID_2_)">
			<defs>
				<path id="SVGID_38_" d="M90.889,81.009c-0.824,0-1.635-0.336-2.217-0.919c-0.584-0.583-0.918-1.393-0.918-2.218
					c0-0.828,0.334-1.634,0.918-2.221c0.582-0.583,1.393-0.915,2.217-0.915s1.635,0.332,2.217,0.915
					c0.584,0.587,0.92,1.393,0.92,2.221c0,0.825-0.336,1.631-0.92,2.218C92.523,80.673,91.713,81.009,90.889,81.009"/>
			</defs>
			<clipPath id="SVGID_39_">
				<use xlink:href="#SVGID_38_"  overflow="visible"/>
			</clipPath>
			<defs>
				<filter id="Adobe_OpacityMaskFilter_7_" filterUnits="userSpaceOnUse" x="85.143" y="72.127" width="11.492" height="11.492">
					<feColorMatrix  type="matrix" values="1 0 0 0 0  0 1 0 0 0  0 0 1 0 0  0 0 0 1 0"/>
				</filter>
			</defs>
			<mask maskUnits="userSpaceOnUse" x="85.143" y="72.127" width="11.492" height="11.492" id="SVGID_40_">
				<g filter="url(#Adobe_OpacityMaskFilter_7_)">
					
						<linearGradient id="SVGID_41_" gradientUnits="userSpaceOnUse" x1="-879.5547" y1="3607.9258" x2="-878.5303" y2="3607.9258" gradientTransform="matrix(373.1613 199.7419 199.7419 -373.1613 -392530.9063 1522002)">
						<stop  offset="0" style="stop-color:#FFFFFF"/>
						<stop  offset="0.5279" style="stop-color:#FFFFFF"/>
						<stop  offset="0.605" style="stop-color:#FCFCFC"/>
						<stop  offset="0.6667" style="stop-color:#F2F2F2"/>
						<stop  offset="0.723" style="stop-color:#E1E1E1"/>
						<stop  offset="0.7761" style="stop-color:#C9C9C9"/>
						<stop  offset="0.827" style="stop-color:#AAAAAA"/>
						<stop  offset="0.8763" style="stop-color:#858585"/>
						<stop  offset="0.9242" style="stop-color:#585858"/>
						<stop  offset="0.9698" style="stop-color:#262626"/>
						<stop  offset="1" style="stop-color:#000000"/>
					</linearGradient>
					<polygon clip-path="url(#SVGID_39_)" fill="url(#SVGID_41_)" points="89.15,72.127 96.635,76.134 92.629,83.619 85.143,79.612 
											"/>
				</g>
			</mask>
			
				<linearGradient id="SVGID_42_" gradientUnits="userSpaceOnUse" x1="-879.5552" y1="3607.9258" x2="-878.5308" y2="3607.9258" gradientTransform="matrix(373.1613 199.7419 199.7419 -373.1613 -392531.0313 1522002.125)">
				<stop  offset="0" style="stop-color:#64B430"/>
				<stop  offset="0.5279" style="stop-color:#1D97C3"/>
				<stop  offset="0.719" style="stop-color:#1C99C3"/>
				<stop  offset="0.8718" style="stop-color:#1D9FC3"/>
				<stop  offset="1" style="stop-color:#1CA9C4"/>
			</linearGradient>
			<polygon clip-path="url(#SVGID_39_)" mask="url(#SVGID_40_)" fill="url(#SVGID_42_)" points="89.15,72.127 96.635,76.133 
				92.629,83.619 85.143,79.612 			"/>
		</g>
	</g>
</g>
</svg>
