<?xml version="1.0" encoding="utf-8"?>
<!-- Generator: Adobe Illustrator 16.0.3, SVG Export Plug-In . SVG Version: 6.00 Build 0)  -->
<!DOCTYPE svg PUBLIC "-//W3C//DTD SVG 1.1//EN" "http://www.w3.org/Graphics/SVG/1.1/DTD/svg11.dtd">
<svg version="1.1" id="Capa_1" xmlns="http://www.w3.org/2000/svg" xmlns:xlink="http://www.w3.org/1999/xlink" x="0px" y="0px"
	 width="97px" height="92px" viewBox="0 0 97 92" enable-background="new 0 0 97 92" xml:space="preserve">
<path fill="#1B97C3" d="M94.582,4.307L59.414,29.731l-5.771,4.182c-3.057,2.258-7.229,2.258-10.286,0l-5.771-4.182L2.376,4.349
	C4.333,1.61,7.5-0.013,10.866,0h75.269C89.477,0,92.617,1.602,94.582,4.307"/>
<g opacity="0.2">
	<g>
		<defs>
			<rect id="SVGID_1_" x="0.415" y="4.308" width="96.169" height="59.546"/>
		</defs>
		<clipPath id="SVGID_2_">
			<use xlink:href="#SVGID_1_"  overflow="visible"/>
		</clipPath>
		<path clip-path="url(#SVGID_2_)" fill="#1B97C3" d="M2.376,4.349l35.21,25.383L3.464,63.854c-1.962-1.966-3.057-4.629-3.053-7.4
			V10.454C0.402,8.259,1.089,6.122,2.376,4.349"/>
		<path clip-path="url(#SVGID_2_)" fill="#1B97C3" d="M96.588,10.454v45.998c0.006,2.773-1.09,5.436-3.051,7.401L59.414,29.731
			L94.582,4.308C95.887,6.089,96.588,8.242,96.588,10.454"/>
	</g>
</g>
<path fill="#6EB12F" d="M63.135,75.27c-2.775,0-4.182-2.091-4.182-6.271c0.068-5.843-4.611-10.635-10.453-10.702
	c-5.842-0.067-10.634,4.612-10.701,10.454s4.612,10.634,10.454,10.701c3.131,0.037,6.118-1.317,8.155-3.692
	c1.387,2.379,3.977,3.801,6.727,3.692c8.363,0,8.363-7.869,8.363-10.453c0-12.705-10.295-23-22.998-23
	c-12.704,0-22.999,10.295-22.999,22.994c0,12.7,10.295,22.999,22.999,22.999c5.966,0,11.701-2.32,15.99-6.469
	c0.832-0.807,0.85-2.137,0.043-2.965c-0.809-0.832-2.137-0.849-2.969-0.042c-7.482,7.214-19.395,7-26.609-0.48
	c-7.213-7.481-7-19.395,0.481-26.607c7.48-7.214,19.395-7.001,26.608,0.48c3.387,3.513,5.277,8.204,5.273,13.084
	C67.316,73.685,66.264,75.27,63.135,75.27 M48.5,75.27c-3.463,0-6.272-2.811-6.272-6.271c0-3.464,2.81-6.273,6.272-6.273
	c3.462,0,6.271,2.806,6.271,6.273C54.773,72.463,51.963,75.27,48.5,75.27"/>
<path fill="#1B97C3" d="M59.414,29.731l-5.771,4.182c-3.057,2.258-7.229,2.258-10.286,0l-5.771-4.182L3.464,63.854
	c1.965,1.961,4.629,3.057,7.401,3.053h10.559c1.133-14.954,14.172-26.156,29.121-25.027c13.381,1.012,24.016,11.646,25.027,25.027
	h10.563c2.773,0.004,5.436-1.092,7.402-3.053L59.414,29.731z"/>
<path fill="#1B7D9D" d="M86.135,66.906h-8.363c-1.154,0-2.092-0.937-2.092-2.091s0.938-2.091,2.092-2.091h8.363
	c3.459,0,6.271-2.814,6.271-6.272V10.454c0-3.458-2.814-6.272-6.271-6.272h-75.27c-3.457,0-6.271,2.811-6.271,6.272v45.998
	c0,3.458,2.814,6.272,6.271,6.272h8.364c1.154,0,2.091,0.933,2.091,2.091s-0.937,2.091-2.091,2.091h-8.364
	c-5.762,0-10.453-4.692-10.453-10.454V10.454C0.412,4.691,5.103,0,10.865,0h75.27C91.9,0,96.588,4.688,96.588,10.454v45.998
	C96.588,62.214,91.9,66.906,86.135,66.906"/>
<path fill="#1B7D9D" d="M48.504,37.697c-2.237,0-4.476-0.698-6.386-2.095L9.644,12.147c-0.94-0.677-1.149-1.981-0.472-2.919
	c0.673-0.94,1.978-1.149,2.918-0.471L44.582,32.22c2.354,1.719,5.495,1.719,7.833,0.008L84.91,8.758
	c0.936-0.675,2.24-0.47,2.918,0.467s0.465,2.246-0.469,2.919l-32.49,23.463C52.971,36.999,50.736,37.697,48.504,37.697"/>
<path fill="#1B7D9D" d="M10.866,58.543c-0.535,0-1.07-0.205-1.48-0.61c-0.815-0.815-0.815-2.142,0-2.957l20.908-20.907
	c0.815-0.816,2.141-0.816,2.956,0c0.815,0.815,0.815,2.141,0,2.956L12.341,57.933C11.936,58.338,11.401,58.543,10.866,58.543"/>
<path fill="#1B7D9D" d="M86.135,58.543c-0.535,0-1.07-0.205-1.479-0.61l-20.91-20.908c-0.814-0.815-0.814-2.142,0-2.957
	c0.816-0.815,2.141-0.815,2.957,0l20.908,20.908c0.814,0.815,0.814,2.142,0,2.956C87.205,58.338,86.67,58.543,86.135,58.543"/>
<path fill="#1B7D9D" d="M48.512,92c-0.129,0-0.259,0-0.389-0.004c-6.143-0.1-11.876-2.589-16.149-7.005
	c-8.818-9.115-8.576-23.701,0.535-32.516c4.416-4.274,10.329-6.574,16.371-6.47c6.139,0.101,11.875,2.589,16.149,7
	c4.17,4.312,6.469,9.99,6.469,15.991c0,1.154-0.936,2.091-2.09,2.091s-2.09-0.937-2.09-2.091c0-4.909-1.883-9.556-5.299-13.085
	c-3.496-3.608-8.188-5.645-13.214-5.729c-4.926,0-9.78,1.803-13.394,5.299c-7.456,7.213-7.652,19.147-0.435,26.604
	c3.495,3.612,8.188,5.648,13.214,5.729c5.043,0.176,9.776-1.798,13.393-5.293c0.828-0.8,2.154-0.783,2.957,0.049
	s0.781,2.153-0.051,2.957C60.172,89.708,54.514,92,48.512,92"/>
<path fill="#1B7D9D" d="M48.5,79.451c-5.763,0-10.454-4.692-10.454-10.454c0-5.763,4.691-10.454,10.454-10.454
	c5.761,0,10.453,4.688,10.453,10.454S54.262,79.451,48.5,79.451 M48.5,62.725c-3.459,0-6.272,2.814-6.272,6.272
	s2.813,6.272,6.272,6.272c3.458,0,6.271-2.814,6.271-6.272C54.773,65.538,51.959,62.725,48.5,62.725"/>
<path fill="#1B7D9D" d="M63.135,79.451c-5.234,0-8.363-3.91-8.363-10.454c0-1.153,0.938-2.091,2.092-2.091s2.09,0.933,2.09,2.091
	c0,4.16,1.41,6.272,4.182,6.272c3.129,0,4.182-1.585,4.182-6.272c0-1.153,0.938-2.091,2.092-2.091s2.09,0.933,2.09,2.091
	C71.498,71.581,71.498,79.451,63.135,79.451"/>
</svg>
