<?xml version="1.0" encoding="utf-8"?>
<!-- Generator: Adobe Illustrator 16.0.3, SVG Export Plug-In . SVG Version: 6.00 Build 0)  -->
<!DOCTYPE svg PUBLIC "-//W3C//DTD SVG 1.1//EN" "http://www.w3.org/Graphics/SVG/1.1/DTD/svg11.dtd">
<svg version="1.1" id="Capa_1" xmlns="http://www.w3.org/2000/svg" xmlns:xlink="http://www.w3.org/1999/xlink" x="0px" y="0px"
	 width="100px" height="100px" viewBox="0 0 100 100" enable-background="new 0 0 100 100" xml:space="preserve">
<path fill="#009BDE" d="M73.613,30.974H29.472c-10.442,0.012-18.905,8.475-18.917,18.917c0,2.849-2.31,5.16-5.159,5.16
	c-2.85,0-5.159-2.311-5.159-5.16c0-16.12,13.115-29.235,29.235-29.235h44.141l6.879,5.159L73.613,30.974z M94.822,44.732
	c-2.848,0-5.158,2.31-5.158,5.159c-0.012,10.443-8.475,18.906-18.918,18.917h-44.14l-6.879,5.159l6.879,5.158h44.14
	c16.121,0,29.236-13.115,29.236-29.236C99.982,47.042,97.672,44.732,94.822,44.732 M70.402,50.579l27.516-20.637
	c2.279-1.709,2.742-4.943,1.031-7.222c-0.293-0.393-0.639-0.739-1.031-1.033L70.402,1.05c-2.279-1.711-5.512-1.25-7.223,1.028
	c-1.712,2.278-1.25,5.513,1.026,7.224l0.004,0.003l22.015,16.51L64.21,42.325c-2.278,1.709-2.739,4.943-1.03,7.224
	C64.889,51.826,68.123,52.289,70.402,50.579 M37.039,97.699c1.71-2.277,1.248-5.512-1.032-7.223L13.995,73.969l22.012-16.51
	c2.281-1.709,2.743-4.943,1.035-7.223c-1.709-2.28-4.942-2.743-7.223-1.035l-0.003,0.003L2.3,69.842
	c-2.279,1.709-2.741,4.941-1.032,7.221c0.294,0.394,0.641,0.74,1.032,1.033l27.516,20.637C32.096,100.441,35.33,99.98,37.039,97.699
	"/>
</svg>
