<?xml version="1.0" encoding="utf-8"?>
<!-- Generator: Adobe Illustrator 16.0.3, SVG Export Plug-In . SVG Version: 6.00 Build 0)  -->
<!DOCTYPE svg PUBLIC "-//W3C//DTD SVG 1.1//EN" "http://www.w3.org/Graphics/SVG/1.1/DTD/svg11.dtd">
<svg version="1.1" id="Capa_1" xmlns="http://www.w3.org/2000/svg" xmlns:xlink="http://www.w3.org/1999/xlink" x="0px" y="0px"
	 width="1410.822px" height="720px" viewBox="120.352 0 1410.822 720" enable-background="new 120.352 0 1410.822 720"
	 xml:space="preserve">
<rect x="-60.758" y="-42.5" display="none" fill="#FF0000" stroke="#000000" stroke-miterlimit="10" width="1249" height="820"/>
<rect x="-102.254" y="-61.223" display="none" fill="#EA0606" width="1764.176" height="876.088"/>
<image display="none" overflow="visible" enable-background="new    " width="1280" height="720" xlink:href="6EA92652.png" >
</image>
<g>
	<path fill="#FFFFFF" d="M139.928,219.073c6.15,0,10.975,1.764,14.502,5.284c3.52,3.527,5.293,8.248,5.293,14.161v212.563
		c0,6.137-1.773,10.967-5.293,14.485c-3.527,3.526-8.352,5.302-14.502,5.302c-5.462,0-10.066-1.773-13.805-5.302
		c-3.764-3.521-5.633-8.351-5.633-14.485V238.52c0-5.913,1.869-10.635,5.633-14.162
		C129.861,220.837,134.465,219.073,139.928,219.073"/>
	<path fill="#FFFFFF" d="M201.338,278.77c11.144,0,17.748,5.697,19.794,17.063c5.908-6.593,13.197-11.818,21.826-15.693
		c8.654-3.857,18.312-5.789,29.008-5.789c12.286,0,23.429,2.219,33.438,6.657c10.01,4.433,18.54,10.501,25.587,18.246
		c7.058,7.742,12.448,16.887,16.204,27.462c3.752,10.576,5.623,22.005,5.623,34.287v90.423c0,6.127-1.756,10.923-5.283,14.318
		c-3.521,3.427-8.24,5.127-14.162,5.127c-5.683,0-10.345-1.7-13.983-5.127c-3.64-3.396-5.462-8.191-5.462-14.318V361
		c0-6.585-1.01-12.787-3.062-18.594c-2.054-5.797-4.952-10.865-8.699-15.188c-3.761-4.306-8.365-7.733-13.827-10.233
		c-5.462-2.484-11.599-3.744-18.419-3.744c-6.829,0-13.085,1.26-18.767,3.744c-5.69,2.5-10.567,5.869-14.662,10.069
		c-4.096,4.214-7.235,9.216-9.397,15.005c-2.157,5.814-3.225,12.125-3.225,18.941v90.423c0,6.127-1.773,10.923-5.301,14.318
		c-3.52,3.427-8.36,5.127-14.494,5.127c-5.457,0-10.063-1.7-13.831-5.127c-3.746-3.396-5.622-8.191-5.622-14.318V295.83
		c0-5.219,1.655-9.385,4.943-12.456C192.875,280.309,196.792,278.77,201.338,278.77"/>
	<path fill="#FFFFFF" d="M394.447,278.77c11.146,0,17.74,5.697,19.804,17.063c5.899-6.593,13.181-11.818,21.829-15.693
		c8.645-3.857,18.301-5.789,29.005-5.789c12.27,0,23.413,2.219,33.431,6.657c10.009,4.433,18.539,10.501,25.596,18.246
		c7.047,7.742,12.438,16.887,16.195,27.462c3.751,10.576,5.631,22.005,5.631,34.287v90.423c0,6.127-1.771,10.923-5.292,14.318
		c-3.521,3.427-8.241,5.127-14.17,5.127c-5.682,0-10.337-1.7-13.978-5.127c-3.641-3.396-5.463-8.191-5.463-14.318V361
		c0-6.585-1.009-12.787-3.066-18.594c-2.045-5.797-4.938-10.865-8.691-15.188c-3.76-4.306-8.365-7.733-13.827-10.233
		c-5.461-2.484-11.59-3.744-18.419-3.744c-6.827,0-13.077,1.26-18.772,3.744c-5.684,2.5-10.567,5.869-14.654,10.069
		c-4.096,4.214-7.235,9.216-9.388,15.005c-2.166,5.814-3.243,12.125-3.243,18.941v90.423c0,6.127-1.765,10.923-5.292,14.318
		c-3.528,3.427-8.36,5.127-14.501,5.127c-5.458,0-10.066-1.7-13.814-5.127c-3.756-3.396-5.632-8.191-5.632-14.318V295.83
		c0-5.219,1.648-9.385,4.945-12.456C385.975,280.309,389.893,278.77,394.447,278.77"/>
	<path fill="#FFFFFF" d="M664.664,274.348c13.869,0,26.896,2.666,39.074,8.018c12.158,5.351,22.789,12.563,31.887,21.656
		c9.104,9.104,16.268,19.735,21.51,31.901c5.213,12.165,7.844,25.202,7.844,39.082c0,13.864-2.631,26.893-7.844,39.058
		c-5.242,12.157-12.406,22.742-21.51,31.729c-9.098,9.003-19.729,16.09-31.887,21.308c-12.178,5.235-25.205,7.869-39.074,7.869
		c-13.881,0-26.905-2.634-39.067-7.869c-12.17-5.218-22.806-12.305-31.896-21.308c-9.107-8.985-16.271-19.57-21.5-31.729
		c-5.229-12.166-7.851-25.191-7.851-39.058c0-13.88,2.621-26.917,7.851-39.082c5.229-12.166,12.393-22.8,21.5-31.901
		c9.09-9.094,19.726-16.308,31.896-21.656C637.757,277.014,650.783,274.348,664.664,274.348 M664.664,313.57
		c-8.638,0-16.67,1.604-24.059,4.787c-7.396,3.179-13.822,7.553-19.275,13.116c-5.462,5.599-9.784,12.134-12.957,19.627
		c-3.195,7.521-4.772,15.48-4.772,23.902c0,8.414,1.577,16.316,4.772,23.703c3.173,7.387,7.495,13.822,12.957,19.265
		c5.453,5.464,11.881,9.796,19.275,12.978c7.389,3.18,15.421,4.777,24.059,4.777c8.414,0,16.313-1.6,23.718-4.777
		c7.384-3.182,13.862-7.514,19.444-12.978c5.57-5.44,9.947-11.878,13.139-19.265c3.178-7.387,4.764-15.289,4.764-23.703
		c0-8.422-1.586-16.382-4.764-23.902c-3.189-7.493-7.566-14.028-13.139-19.627c-5.582-5.563-12.063-9.938-19.444-13.116
		C680.977,315.176,673.078,313.57,664.664,313.57 M706.969,210.543c4.549,0,8.189,1.424,10.922,4.257
		c2.723,2.849,4.088,6.658,4.088,11.429c0,3.196-0.855,6.146-2.561,8.879c-1.695,2.731-4.494,4.67-8.354,5.805l-66.201,20.802
		c-2.722,0.92-5.342,1.359-7.836,1.359c-4.096,0-7.395-1.648-9.896-4.937c-2.511-3.288-3.747-6.998-3.747-11.09
		c0-2.731,0.896-5.574,2.721-8.53c1.813-2.955,4.658-5.01,8.522-6.145l64.84-20.465
		C702.414,211.007,704.916,210.543,706.969,210.543"/>
	<path fill="#FFFFFF" d="M873.477,292.077c2.943-8.86,9.088-13.31,18.418-13.31c5.004,0,9.541,1.83,13.645,5.467
		c4.102,3.645,6.143,8.424,6.143,14.328c0,2.731-0.455,5.457-1.357,8.188L854.711,457.21c-1.604,4.321-4.045,7.67-7.348,10.063
		c-3.295,2.395-6.879,3.597-10.736,3.597c-3.869,0-7.445-1.146-10.764-3.421c-3.289-2.264-5.842-5.697-7.661-10.236l-55.61-149.771
		c-1.363-2.947-2.041-5.922-2.041-8.879c0-5.903,2.094-10.685,6.309-14.326c4.197-3.639,8.801-5.467,13.816-5.467
		c4.994,0,8.869,1.094,11.59,3.246c2.734,2.17,5.008,5.516,6.838,10.063l37.523,104.07L873.477,292.077z"/>
	<path fill="#FFFFFF" d="M1105.473,451.081c0,6.137-1.771,10.967-5.291,14.494c-3.521,3.528-8.354,5.302-14.494,5.302
		c-5.445,0-10.059-1.773-13.824-5.302c-3.746-3.527-5.629-8.357-5.629-14.494v-1.026c-3.182,3.183-6.879,6.313-11.086,9.383
		c-4.195,3.074-8.879,5.74-13.984,8.012c-5.111,2.274-10.521,4.106-16.191,5.458c-5.703,1.367-11.387,2.053-17.066,2.053
		c-14.561,0-27.994-2.625-40.268-7.86c-12.264-5.218-22.854-12.313-31.716-21.314c-8.892-8.969-15.819-19.57-20.819-31.721
		c-5.016-12.165-7.508-25.191-7.508-39.064c0-13.871,2.492-26.908,7.508-39.082c5-12.148,11.982-22.791,20.977-31.895
		c8.982-9.102,19.621-16.314,31.9-21.656c12.287-5.342,25.594-8.024,39.926-8.024c12.729,0,23.984,2.161,33.771,6.483
		c9.789,4.324,17.971,10.129,24.561,17.398c0-5.912,1.883-10.625,5.629-14.152c3.768-3.52,8.379-5.299,13.824-5.299
		c6.141,0,10.975,1.779,14.494,5.299c3.52,3.527,5.291,8.24,5.291,14.152v152.857L1105.473,451.081L1105.473,451.081z
		 M1007.904,313.57c-8.649,0-16.67,1.604-24.059,4.787c-7.396,3.179-13.814,7.561-19.277,13.126
		c-5.461,5.589-9.781,12.133-12.971,19.617c-3.195,7.521-4.764,15.474-4.764,23.896c0,8.414,1.566,16.325,4.764,23.712
		c3.188,7.378,7.51,13.813,12.971,19.28c5.463,5.446,11.881,9.771,19.277,12.951c7.389,3.196,15.408,4.786,24.059,4.786
		c8.174,0,15.867-1.59,23.023-4.786c7.168-3.18,13.314-7.505,18.424-12.951c5.129-5.467,9.158-11.902,12.115-19.28
		c2.951-7.387,4.42-15.298,4.42-23.712c0-8.422-1.469-16.373-4.42-23.896c-2.957-7.484-6.986-14.028-12.115-19.617
		c-5.107-5.565-11.256-9.947-18.424-13.126C1023.771,315.176,1016.078,313.57,1007.904,313.57"/>
	<path fill="#FFFFFF" d="M1170.652,280.482h12.277c5.91,0,10.639,1.766,14.154,5.302c3.525,3.521,5.299,8.354,5.299,14.483
		c0,5.449-1.771,10.079-5.299,13.813c-3.518,3.769-8.244,5.632-14.154,5.632h-12.277v90.761c0,4.538,0.625,8.191,1.867,10.916
		c1.254,2.726,3.006,4.896,5.291,6.485c2.262,1.59,4.779,2.725,7.504,3.41c2.729,0.68,5.682,1.136,8.861,1.356
		c5.244,0.474,9.266,2.454,12.119,5.975c2.852,3.536,4.268,8.257,4.268,14.162c0,5.457-1.926,9.847-5.793,13.135
		c-3.885,3.305-9.559,4.953-17.055,4.953c-7.982,0-15.369-1.146-22.188-3.421c-6.828-2.253-12.779-5.849-17.91-10.733
		c-5.115-4.896-9.092-11.146-11.934-18.766c-2.857-7.62-4.273-16.683-4.273-27.134v-91.102c-5.252-0.68-9.289-2.833-12.131-6.477
		c-2.83-3.646-4.256-7.95-4.256-12.971c0-5.459,1.426-9.945,4.256-13.476c2.842-3.521,6.879-5.507,12.131-5.972v-57.658
		c0-6.145,1.875-10.974,5.623-14.502c3.756-3.528,8.361-5.292,13.84-5.292c6.123,0,10.939,1.764,14.486,5.292
		c3.525,3.528,5.291,8.357,5.291,14.502L1170.652,280.482L1170.652,280.482z"/>
	<path fill="#FFFFFF" d="M1303.705,274.339c13.637,0,26.563,2.625,38.723,7.859c12.17,5.217,22.805,12.229,31.922,20.977
		c9.071,8.755,16.299,18.992,21.646,30.701c5.336,11.729,8.02,24.06,8.02,37.021c0,6.603-1.697,11.612-5.115,15.017
		c-3.41,3.404-8.201,5.127-14.32,5.127h-138.545c1.141,6.361,3.527,12.272,7.177,17.725c3.64,5.466,8.136,10.188,13.468,14.16
		c5.35,3.984,11.223,7.123,17.582,9.395c6.359,2.27,12.836,3.411,19.446,3.411c8.407,0,16.146-1.491,23.209-4.439
		c7.041-2.955,13.298-7.163,18.761-12.62c2.271-2.054,4.771-3.7,7.489-4.97c2.745-1.228,5.351-1.854,7.866-1.854
		c5.229,0,9.604,1.931,13.134,5.807c3.524,3.852,5.284,8.404,5.284,13.64c0,2.733-0.342,5.335-1.014,7.835
		c-0.693,2.519-2.056,4.788-4.088,6.825c-8.884,9.79-19.361,17.078-31.404,21.848c-12.049,4.779-25.135,7.163-39.238,7.163
		c-13.877,0-26.893-2.625-39.063-7.858c-12.172-5.22-22.813-12.313-31.906-21.316c-9.088-8.969-16.266-19.57-21.5-31.72
		c-5.221-12.166-7.834-25.192-7.834-39.065c0-13.871,2.613-26.908,7.834-39.082c5.234-12.146,12.412-22.791,21.5-31.895
		c9.094-9.102,19.734-16.314,31.906-21.656C1276.813,277.021,1289.828,274.339,1303.705,274.339 M1303.705,313.57
		c-6.609,0-13.086,1.157-19.445,3.42c-6.359,2.275-12.119,5.458-17.229,9.549c-5.131,4.092-9.508,8.879-13.143,14.327
		c-3.643,5.467-6.143,11.379-7.5,17.757h114.643c-1.152-6.378-3.553-12.29-7.162-17.757c-3.658-5.448-8.092-10.235-13.316-14.327
		c-5.23-4.091-11.031-7.271-17.395-9.549C1316.783,314.729,1310.301,313.57,1303.705,313.57"/>
	<path fill="#FFFFFF" d="M1527.145,240.954c0,4.671-0.789,9.085-2.297,13.268c-1.535,4.157-3.699,7.769-6.531,10.816
		c-2.809,3.056-6.244,5.474-10.299,7.271c-4.033,1.798-8.545,2.701-13.582,2.701c-5.021,0-9.516-0.902-13.512-2.701
		c-4.004-1.797-7.396-4.215-10.236-7.271c-2.824-3.048-4.994-6.659-6.521-10.816c-1.518-4.183-2.281-8.596-2.281-13.268v-11.446
		h-25.566c-2.428,0-4.338-0.679-5.711-2.07c-1.399-1.391-2.086-3.297-2.086-5.715c0-2.152,0.687-3.975,2.086-5.449
		c1.373-1.483,3.283-2.22,5.711-2.22h83.143c2.332,0,4.2,0.736,5.592,2.22c1.381,1.474,2.094,3.296,2.094,5.449v19.231H1527.145
		L1527.145,240.954z M1477.348,229.508v11.446c0,2.518,0.381,4.92,1.158,7.205c0.752,2.287,1.863,4.257,3.363,5.914
		c1.473,1.655,3.264,2.98,5.374,3.974c2.11,0.995,4.511,1.492,7.19,1.492c2.697,0,5.096-0.497,7.197-1.492
		c2.109-0.993,3.9-2.318,5.389-3.974c1.479-1.657,2.619-3.627,3.438-5.914c0.809-2.285,1.197-4.688,1.197-7.205v-11.446H1477.348z"
		/>
	<path fill="#FFFFFF" d="M1506.014,314.563c0,5.385-1.031,10.471-3.094,15.265c-2.063,4.796-4.832,8.985-8.285,12.598
		c-3.449,3.577-7.479,6.419-12.102,8.54c-4.613,2.095-9.488,3.153-14.596,3.153c-2.604,0-4.582-0.678-5.928-2.021
		c-1.342-1.352-2.012-3.229-2.012-5.646v-54.628c-2.52,0.445-4.852,1.391-6.998,2.814c-2.162,1.44-4.012,3.213-5.588,5.316
		c-1.574,2.104-2.801,4.423-3.689,6.939c-0.906,2.502-1.357,5.067-1.357,7.67c0,3.319,0.588,6.358,1.748,9.144
		c1.172,2.8,2.824,5.25,4.984,7.403c0.801,0.901,1.447,1.888,1.942,2.966c0.491,1.066,0.759,2.095,0.759,3.079
		c0,2.069-0.775,3.811-2.297,5.186c-1.529,1.394-3.313,2.104-5.391,2.104c-1.084,0-2.104-0.148-3.076-0.415
		c-0.995-0.265-1.9-0.812-2.693-1.605c-3.861-3.512-6.754-7.636-8.619-12.39c-1.892-4.753-2.824-9.905-2.824-15.471
		c0-5.482,1.023-10.617,3.094-15.413c2.063-4.795,4.869-8.984,8.416-12.58c3.527-3.594,7.721-6.41,12.51-8.465
		c4.791-2.069,9.932-3.104,15.398-3.104c5.463,0,10.609,1.035,15.408,3.104c4.791,2.055,8.981,4.871,12.586,8.465
		c3.59,3.596,6.432,7.785,8.535,12.58C1504.945,303.945,1506.014,309.081,1506.014,314.563 M1490.539,314.563
		c0-2.601-0.447-5.168-1.35-7.668c-0.891-2.519-2.145-4.787-3.771-6.8c-1.604-2.021-3.505-3.752-5.644-5.185
		c-2.16-1.436-4.475-2.411-6.996-2.949v45.193c2.521-0.446,4.836-1.381,6.996-2.814c2.141-1.44,4.039-3.181,5.644-5.25
		c1.627-2.063,2.882-4.354,3.771-6.874C1490.09,319.715,1490.539,317.163,1490.539,314.563"/>
	<path fill="#FFFFFF" d="M1504.258,368.776c0,2.245-0.703,3.908-2.086,4.983c-1.4,1.068-3.281,1.707-5.707,1.88
		c2.865,2.609,4.938,5.429,6.191,8.481c1.242,3.058,1.873,6.601,1.873,10.625c0,2.254-0.604,4.1-1.812,5.59
		c-1.222,1.483-3.161,2.229-5.851,2.229c-2.151,0-3.899-0.548-5.188-1.623c-1.303-1.076-2.037-2.782-2.225-5.119
		c-0.26-3.842-0.855-7.037-1.739-9.559c-0.905-2.501-2.146-4.472-3.702-5.911c-1.572-1.439-3.449-2.421-5.648-2.948
		c-2.205-0.547-4.646-0.828-7.328-0.828h-35.396c-1.965,0-3.656-0.694-5.039-2.079c-1.4-1.391-2.08-3.237-2.08-5.582
		c0-2.327,0.681-4.214,2.08-5.656c1.383-1.433,3.104-2.163,5.164-2.163h60.024c2.323,0,4.323,0.571,5.989,1.69
		C1503.434,363.915,1504.258,365.912,1504.258,368.776"/>
	<path fill="#FFFFFF" d="M1428.523,463.505c0-4.389,2.225-6.99,6.709-7.802c-2.604-1.797-4.658-4.207-6.182-7.271
		c-1.521-3.038-2.291-6.685-2.291-10.905c0-4.828,0.814-9.192,2.426-13.028c1.613-3.866,3.85-7.138,6.727-9.839
		c2.865-2.698,6.322-4.753,10.354-6.192c4.045-1.426,8.471-2.139,13.342-2.139h36.982c2.428,0,4.317,0.697,5.646,2.088
		c1.352,1.375,2.021,3.247,2.021,5.581c0,2.237-0.67,4.076-2.021,5.501c-1.329,1.447-3.221,2.152-5.646,2.152h-36.982
		c-5.311,0-9.541,1.416-12.729,4.249c-3.182,2.832-4.773,6.966-4.773,12.456c0,5.458,1.568,9.549,4.703,12.229
		c3.14,2.701,7.396,4.035,12.801,4.035h36.982c2.428,0,4.318,0.687,5.647,2.086c1.351,1.392,2.021,3.304,2.021,5.707
		c0,2.171-0.67,3.975-2.021,5.466c-1.329,1.49-3.222,2.218-5.647,2.218h-61.357c-2.061,0-3.695-0.652-4.911-1.953
		C1429.117,466.851,1428.523,465.293,1428.523,463.505 M1531.174,455.157c0,1.797-0.566,3.229-1.689,4.306
		c-1.117,1.085-2.615,1.625-4.492,1.625c-1.271,0-2.436-0.35-3.51-1.028c-1.08-0.66-1.842-1.756-2.291-3.296L1511,430.676
		c-0.381-1.077-0.534-2.104-0.534-3.098c0-1.623,0.627-2.914,1.937-3.909c1.295-0.978,2.761-1.475,4.363-1.475
		c1.086,0,2.207,0.362,3.379,1.094c1.16,0.714,1.976,1.822,2.414,3.338l8.076,25.583
		C1530.988,453.368,1531.174,454.346,1531.174,455.157"/>
	<path fill="#FFFFFF" d="M177.063,140.859c0,0.596-0.015,1.109-0.049,1.557c-0.046,0.447-0.112,0.836-0.195,1.168
		c-0.103,0.33-0.223,0.621-0.364,0.886c-0.145,0.257-0.409,0.58-0.781,0.943c-0.373,0.373-1.144,0.936-2.332,1.698
		c-1.188,0.762-2.654,1.499-4.419,2.221c-1.755,0.72-3.772,1.333-6.053,1.829c-2.274,0.505-4.768,0.762-7.476,0.762
		c-4.662,0-8.886-0.779-12.642-2.335c-3.757-1.557-6.966-3.86-9.611-6.89c-2.653-3.041-4.688-6.792-6.112-11.264
		c-1.425-4.456-2.137-9.59-2.137-15.413c0-5.963,0.762-11.28,2.308-15.951c1.53-4.663,3.696-8.622,6.467-11.852
		c2.783-3.246,6.108-5.723,9.976-7.42c3.876-1.707,8.158-2.56,12.866-2.56c2.065,0,4.096,0.19,6.054,0.588
		c1.96,0.381,3.78,0.878,5.446,1.466c1.668,0.587,3.146,1.284,4.441,2.062c1.298,0.771,2.196,1.407,2.697,1.913
		c0.5,0.505,0.824,0.887,0.977,1.135c0.141,0.266,0.261,0.572,0.356,0.92c0.092,0.355,0.17,0.77,0.229,1.25
		c0.05,0.481,0.073,1.062,0.073,1.724c0,0.745-0.033,1.374-0.106,1.887c-0.079,0.522-0.188,0.961-0.332,1.309
		c-0.153,0.347-0.331,0.614-0.534,0.778c-0.203,0.167-0.46,0.249-0.753,0.249c-0.518,0-1.251-0.365-2.183-1.085
		c-0.933-0.721-2.137-1.516-3.603-2.394c-1.471-0.861-3.26-1.656-5.362-2.386c-2.101-0.729-4.63-1.077-7.57-1.077
		c-3.196,0-6.115,0.63-8.746,1.914c-2.621,1.268-4.864,3.156-6.725,5.641c-1.862,2.475-3.309,5.499-4.331,9.077
		c-1.019,3.577-1.528,7.668-1.528,12.256c0,4.555,0.484,8.58,1.475,12.092c0.985,3.495,2.401,6.418,4.24,8.779
		c1.851,2.343,4.111,4.124,6.795,5.333c2.679,1.2,5.707,1.806,9.098,1.806c2.866,0,5.379-0.348,7.517-1.061
		c2.145-0.696,3.967-1.491,5.479-2.36c1.499-0.869,2.736-1.665,3.715-2.361c0.964-0.712,1.73-1.059,2.289-1.059
		c0.252,0,0.484,0.049,0.667,0.165c0.19,0.116,0.332,0.331,0.442,0.646c0.121,0.315,0.195,0.746,0.252,1.309
		C177.04,139.301,177.063,140.006,177.063,140.859"/>
	<path fill="#FFFFFF" d="M235.19,124.08c0,4.075-0.542,7.826-1.61,11.255c-1.081,3.421-2.68,6.377-4.812,8.862
		c-2.13,2.476-4.8,4.414-8.005,5.806c-3.205,1.391-6.919,2.086-11.143,2.086c-4.104,0-7.69-0.613-10.746-1.838
		c-3.052-1.225-5.607-2.998-7.641-5.333c-2.033-2.336-3.553-5.167-4.554-8.506c-0.999-3.337-1.5-7.106-1.5-11.331
		c0-4.081,0.525-7.825,1.585-11.254c1.053-3.429,2.647-6.376,4.776-8.861c2.128-2.485,4.79-4.407,7.97-5.781
		c3.188-1.375,6.912-2.054,11.169-2.054c4.112,0,7.702,0.614,10.754,1.831c3.052,1.217,5.606,3.006,7.64,5.334
		c2.039,2.343,3.563,5.176,4.58,8.505C234.681,116.129,235.19,119.897,235.19,124.08 M225.683,124.692
		c0-2.708-0.256-5.259-0.753-7.668c-0.5-2.41-1.342-4.522-2.492-6.336c-1.165-1.813-2.733-3.246-4.71-4.306
		c-1.982-1.051-4.45-1.582-7.411-1.582c-2.721,0-5.073,0.48-7.032,1.44c-1.966,0.961-3.577,2.328-4.849,4.083
		c-1.275,1.764-2.215,3.842-2.832,6.253c-0.612,2.418-0.928,5.043-0.928,7.892c0,2.742,0.257,5.317,0.767,7.719
		c0.501,2.409,1.337,4.521,2.517,6.31c1.181,1.798,2.759,3.222,4.742,4.282c1.976,1.052,4.442,1.575,7.396,1.575
		c2.688,0,5.027-0.472,7.011-1.442c1.979-0.96,3.607-2.31,4.878-4.049c1.272-1.739,2.208-3.818,2.808-6.228
		C225.384,130.226,225.683,127.583,225.683,124.692"/>
	<path fill="#FFFFFF" d="M291.972,149.638c0,0.298-0.066,0.547-0.22,0.746c-0.152,0.207-0.396,0.38-0.745,0.53
		c-0.356,0.148-0.833,0.265-1.417,0.339c-0.604,0.075-1.341,0.109-2.23,0.109c-0.892,0-1.629-0.034-2.221-0.109
		c-0.596-0.074-1.06-0.19-1.416-0.339c-0.348-0.149-0.604-0.323-0.758-0.53c-0.145-0.199-0.219-0.448-0.219-0.746v-43.845h-22.448
		v43.845c0,0.298-0.066,0.547-0.22,0.746c-0.145,0.207-0.397,0.38-0.745,0.53c-0.357,0.148-0.824,0.265-1.416,0.339
		c-0.598,0.075-1.342,0.109-2.225,0.109c-0.89,0-1.636-0.034-2.232-0.109c-0.583-0.074-1.059-0.19-1.415-0.339
		c-0.349-0.149-0.593-0.323-0.746-0.53c-0.152-0.199-0.219-0.448-0.219-0.746v-43.845h-7.057c-0.592,0-1.043-0.298-1.342-0.885
		c-0.294-0.588-0.438-1.549-0.438-2.891c0-0.695,0.033-1.292,0.107-1.771c0.078-0.489,0.187-0.886,0.331-1.193
		c0.154-0.313,0.34-0.546,0.56-0.679c0.224-0.125,0.484-0.19,0.782-0.19h7.057v-5.393c0-3.436,0.331-6.394,0.997-8.862
		c0.663-2.451,1.656-4.488,2.97-6.078c1.316-1.59,2.944-2.767,4.895-3.537c1.942-0.753,4.174-1.134,6.699-1.134
		c0.808,0,1.619,0.041,2.444,0.116c0.812,0.067,1.552,0.182,2.22,0.331c0.662,0.149,1.245,0.307,1.747,0.464
		c0.501,0.174,0.841,0.348,1.026,0.538c0.187,0.19,0.34,0.381,0.452,0.58c0.107,0.208,0.202,0.456,0.27,0.754
		c0.078,0.298,0.137,0.662,0.17,1.109c0.033,0.448,0.059,0.986,0.059,1.606c0,1.194-0.092,2.038-0.277,2.56
		c-0.187,0.521-0.501,0.778-0.94,0.778c-0.298,0-0.612-0.066-0.928-0.19c-0.315-0.132-0.712-0.264-1.186-0.414
		c-0.484-0.149-1.068-0.298-1.755-0.422c-0.68-0.133-1.546-0.19-2.589-0.19c-2.555,0-4.368,0.935-5.445,2.832
		c-1.068,1.889-1.61,4.903-1.61,9.052v5.5h28.841c0.969,0,1.682,0.255,2.138,0.753c0.46,0.496,0.695,1.192,0.695,2.086
		L291.972,149.638L291.972,149.638z M292.974,82.794c0,1.036-0.083,1.913-0.248,2.609c-0.166,0.712-0.456,1.275-0.861,1.707
		c-0.409,0.414-0.979,0.729-1.698,0.91c-0.721,0.183-1.635,0.273-2.749,0.273c-1.078,0-1.976-0.091-2.696-0.273
		c-0.721-0.182-1.296-0.497-1.719-0.91c-0.426-0.431-0.732-0.994-0.919-1.707c-0.188-0.696-0.276-1.573-0.276-2.609
		c0-1.035,0.089-1.896,0.276-2.583c0.187-0.688,0.493-1.267,0.919-1.723c0.423-0.455,0.998-0.778,1.719-0.952
		c0.721-0.157,1.618-0.249,2.696-0.249c1.114,0,2.028,0.091,2.749,0.249c0.72,0.174,1.289,0.497,1.698,0.952
		c0.405,0.456,0.695,1.035,0.861,1.723C292.891,80.898,292.974,81.759,292.974,82.794"/>
	<path fill="#FFFFFF" d="M351.982,149.638c0,0.298-0.075,0.547-0.22,0.746c-0.146,0.207-0.394,0.38-0.72,0.53
		c-0.332,0.148-0.8,0.265-1.394,0.339c-0.596,0.075-1.333,0.109-2.223,0.109c-0.924,0-1.688-0.034-2.283-0.109
		c-0.583-0.074-1.051-0.19-1.383-0.339c-0.335-0.149-0.574-0.323-0.729-0.53c-0.146-0.199-0.22-0.448-0.22-0.746v-29.285
		c0-2.849-0.22-5.143-0.671-6.882c-0.439-1.748-1.086-3.238-1.943-4.505c-0.848-1.251-1.948-2.22-3.308-2.892
		c-1.346-0.662-2.915-1.001-4.688-1.001c-2.298,0-4.596,0.82-6.894,2.443c-2.298,1.64-4.7,4.024-7.227,7.172v34.949
		c0,0.298-0.066,0.547-0.221,0.746c-0.145,0.207-0.389,0.38-0.721,0.53c-0.331,0.148-0.799,0.265-1.383,0.339
		c-0.603,0.075-1.357,0.109-2.29,0.109c-0.881,0-1.618-0.034-2.211-0.109c-0.604-0.074-1.071-0.19-1.429-0.339
		c-0.349-0.149-0.594-0.323-0.721-0.53c-0.125-0.199-0.195-0.448-0.195-0.746V99.632c0-0.299,0.06-0.547,0.17-0.746
		c0.121-0.208,0.331-0.398,0.671-0.564c0.333-0.165,0.755-0.265,1.271-0.33c0.519-0.058,1.206-0.083,2.063-0.083
		c0.813,0,1.482,0.025,2.024,0.083c0.535,0.065,0.952,0.166,1.246,0.33c0.299,0.166,0.51,0.356,0.638,0.564
		c0.138,0.199,0.194,0.447,0.194,0.746v6.608c2.816-3.146,5.632-5.45,8.423-6.915c2.796-1.466,5.619-2.195,8.481-2.195
		c3.333,0,6.129,0.563,8.41,1.69c2.28,1.143,4.124,2.641,5.531,4.539c1.408,1.888,2.414,4.1,3.027,6.633
		c0.608,2.543,0.915,5.582,0.915,9.143v30.503H351.982L351.982,149.638z"/>
	<path fill="#FFFFFF" d="M406.378,149.705c0,0.431-0.144,0.762-0.439,0.994c-0.298,0.215-0.703,0.38-1.222,0.497
		c-0.525,0.107-1.279,0.166-2.281,0.166c-0.957,0-1.73-0.059-2.307-0.166c-0.567-0.116-0.99-0.282-1.257-0.497
		c-0.253-0.232-0.381-0.563-0.381-0.994v-5.011c-2.187,2.336-4.621,4.149-7.313,5.442c-2.679,1.292-5.527,1.946-8.529,1.946
		c-2.63,0-5.003-0.339-7.131-1.027c-2.137-0.687-3.95-1.681-5.453-2.973c-1.496-1.292-2.664-2.882-3.495-4.77
		c-0.833-1.897-1.255-4.041-1.255-6.452c0-2.815,0.575-5.258,1.73-7.329c1.143-2.07,2.791-3.809,4.943-5.168
		c2.146-1.375,4.774-2.401,7.884-3.089c3.114-0.687,6.617-1.027,10.502-1.027h6.896v-3.893c0-1.929-0.203-3.635-0.608-5.11
		c-0.408-1.473-1.072-2.707-1.979-3.693c-0.907-0.977-2.087-1.723-3.528-2.219c-1.44-0.498-3.222-0.762-5.333-0.762
		c-2.266,0-4.282,0.281-6.079,0.812c-1.798,0.546-3.375,1.134-4.731,1.781c-1.352,0.645-2.479,1.233-3.385,1.78
		c-0.906,0.531-1.577,0.795-2.028,0.795c-0.293,0-0.56-0.066-0.778-0.215c-0.22-0.149-0.413-0.364-0.584-0.662
		c-0.162-0.299-0.29-0.68-0.355-1.144c-0.078-0.464-0.112-0.969-0.112-1.532c0-0.919,0.059-1.648,0.188-2.195
		c0.138-0.53,0.452-1.043,0.948-1.524c0.501-0.48,1.358-1.043,2.579-1.698c1.23-0.646,2.639-1.233,4.232-1.772
		c1.586-0.538,3.334-0.986,5.222-1.333c1.885-0.357,3.793-0.531,5.718-0.531c3.596,0,6.646,0.406,9.178,1.225
		c2.51,0.813,4.551,2.005,6.104,3.578c1.553,1.575,2.688,3.529,3.391,5.864c0.704,2.335,1.055,5.061,1.055,8.167v33.739H406.378
		L406.378,149.705z M397.271,126.863h-7.835c-2.521,0-4.708,0.215-6.555,0.63c-1.859,0.43-3.396,1.059-4.617,1.896
		c-1.222,0.837-2.12,1.831-2.695,2.99c-0.566,1.176-0.866,2.518-0.866,4.033c0,2.6,0.833,4.663,2.478,6.204
		c1.656,1.541,3.955,2.302,6.92,2.302c2.409,0,4.642-0.613,6.691-1.839c2.063-1.217,4.216-3.089,6.479-5.607V126.863
		L397.271,126.863z"/>
	<path fill="#FFFFFF" d="M466.285,149.638c0,0.298-0.08,0.547-0.22,0.746c-0.153,0.207-0.39,0.38-0.721,0.53
		c-0.339,0.148-0.809,0.265-1.393,0.339c-0.598,0.075-1.343,0.109-2.23,0.109c-0.924,0-1.679-0.034-2.282-0.109
		c-0.584-0.074-1.043-0.19-1.383-0.339c-0.331-0.149-0.575-0.323-0.721-0.53c-0.152-0.199-0.229-0.448-0.229-0.746v-29.285
		c0-2.849-0.22-5.143-0.662-6.882c-0.438-1.748-1.093-3.238-1.94-4.505c-0.857-1.251-1.959-2.22-3.307-2.892
		c-1.351-0.662-2.919-1.001-4.698-1.001c-2.3,0-4.598,0.82-6.889,2.443c-2.307,1.64-4.708,4.024-7.225,7.172v34.949
		c0,0.298-0.076,0.547-0.222,0.746c-0.152,0.207-0.391,0.38-0.721,0.53c-0.332,0.148-0.8,0.265-1.392,0.339
		c-0.598,0.075-1.359,0.109-2.282,0.109c-0.89,0-1.627-0.034-2.223-0.109c-0.603-0.074-1.063-0.19-1.416-0.339
		c-0.356-0.149-0.595-0.323-0.729-0.53c-0.125-0.199-0.194-0.448-0.194-0.746V99.632c0-0.299,0.063-0.547,0.172-0.746
		c0.119-0.208,0.34-0.398,0.671-0.564c0.331-0.165,0.754-0.265,1.271-0.33c0.525-0.058,1.213-0.083,2.069-0.083
		c0.812,0,1.48,0.025,2.018,0.083c0.533,0.065,0.952,0.166,1.254,0.33c0.29,0.166,0.501,0.356,0.64,0.564
		c0.137,0.199,0.192,0.447,0.192,0.746v6.608c2.816-3.146,5.625-5.45,8.424-6.915c2.801-1.466,5.622-2.195,8.474-2.195
		c3.33,0,6.129,0.563,8.419,1.69c2.271,1.143,4.115,2.641,5.521,4.539c1.416,1.888,2.425,4.1,3.028,6.633
		c0.607,2.543,0.923,5.582,0.923,9.143v30.503H466.285L466.285,149.638z"/>
	<path fill="#FFFFFF" d="M518.957,142.027c0,0.629-0.017,1.185-0.058,1.64c-0.046,0.464-0.103,0.853-0.194,1.167
		c-0.096,0.315-0.206,0.588-0.331,0.828c-0.128,0.249-0.435,0.596-0.891,1.06c-0.468,0.464-1.247,1.043-2.368,1.723
		c-1.103,0.68-2.355,1.3-3.748,1.839c-1.392,0.53-2.89,0.96-4.528,1.309c-1.628,0.322-3.313,0.496-5.054,0.496
		c-3.594,0-6.773-0.596-9.559-1.789c-2.781-1.175-5.104-2.916-6.972-5.192c-1.872-2.278-3.298-5.077-4.282-8.389
		c-0.985-3.313-1.466-7.14-1.466-11.472c0-4.928,0.592-9.16,1.805-12.695c1.205-3.537,2.852-6.444,4.944-8.696
		c2.097-2.261,4.555-3.934,7.388-5.027c2.842-1.094,5.895-1.648,9.201-1.648c1.586,0,3.14,0.158,4.63,0.447
		c1.511,0.299,2.883,0.696,4.148,1.169c1.255,0.488,2.382,1.035,3.354,1.664c0.979,0.63,1.698,1.167,2.143,1.615
		c0.446,0.439,0.754,0.804,0.924,1.061c0.16,0.257,0.307,0.563,0.414,0.911c0.11,0.356,0.178,0.754,0.224,1.201
		c0.033,0.446,0.059,0.993,0.059,1.664c0,1.441-0.17,2.451-0.501,3.022c-0.34,0.581-0.745,0.871-1.222,0.871
		c-0.56,0-1.205-0.307-1.926-0.919c-0.72-0.613-1.636-1.292-2.745-2.021c-1.114-0.745-2.459-1.424-4.029-2.038
		c-1.567-0.613-3.438-0.918-5.591-0.918c-4.401,0-7.784,1.697-10.132,5.093c-2.361,3.379-3.529,8.298-3.529,14.741
		c0,3.23,0.299,6.046,0.916,8.48c0.608,2.427,1.502,4.448,2.688,6.079c1.194,1.632,2.646,2.85,4.368,3.645
		c1.723,0.796,3.695,1.192,5.918,1.192c2.104,0,3.961-0.332,5.557-0.994c1.594-0.679,2.978-1.408,4.137-2.203
		c1.172-0.795,2.15-1.516,2.945-2.17c0.794-0.645,1.424-0.96,1.866-0.96c0.253,0,0.472,0.066,0.657,0.215
		c0.187,0.149,0.341,0.397,0.479,0.745c0.127,0.356,0.218,0.796,0.281,1.343C518.934,140.644,518.957,141.29,518.957,142.027"/>
	<path fill="#FFFFFF" d="M541.352,82.737c0,2.153-0.406,3.61-1.229,4.389c-0.814,0.778-2.308,1.176-4.497,1.176
		c-2.152,0-3.619-0.381-4.414-1.143c-0.809-0.763-1.196-2.196-1.196-4.307c0-2.153,0.406-3.611,1.222-4.389
		c0.813-0.779,2.314-1.176,4.493-1.176c2.152,0,3.632,0.381,4.427,1.143C540.945,79.191,541.352,80.625,541.352,82.737
		 M540.291,149.638c0,0.298-0.076,0.547-0.219,0.746c-0.145,0.207-0.39,0.38-0.721,0.53c-0.332,0.148-0.809,0.265-1.393,0.339
		c-0.598,0.075-1.357,0.109-2.281,0.109c-0.881,0-1.626-0.034-2.226-0.109c-0.583-0.074-1.06-0.19-1.416-0.339
		c-0.354-0.149-0.583-0.323-0.72-0.53c-0.137-0.199-0.193-0.448-0.193-0.746V99.633c0-0.257,0.059-0.497,0.193-0.729
		c0.138-0.215,0.364-0.397,0.72-0.548c0.356-0.148,0.833-0.265,1.416-0.339c0.6-0.066,1.345-0.107,2.226-0.107
		c0.924,0,1.686,0.042,2.281,0.107c0.584,0.074,1.061,0.19,1.393,0.339c0.331,0.15,0.576,0.333,0.721,0.548
		c0.143,0.232,0.219,0.472,0.219,0.729V149.638z"/>
	<path fill="#FFFFFF" d="M594.914,149.705c0,0.431-0.146,0.762-0.445,0.994c-0.298,0.215-0.703,0.38-1.223,0.497
		c-0.524,0.107-1.278,0.166-2.28,0.166c-0.956,0-1.73-0.059-2.308-0.166c-0.566-0.116-0.989-0.282-1.247-0.497
		c-0.262-0.232-0.39-0.563-0.39-0.994v-5.011c-2.186,2.336-4.621,4.149-7.304,5.442c-2.696,1.292-5.537,1.946-8.53,1.946
		c-2.63,0-5.01-0.339-7.141-1.027c-2.127-0.687-3.941-1.681-5.453-2.973c-1.493-1.292-2.653-2.882-3.495-4.77
		c-0.832-1.897-1.254-4.041-1.254-6.452c0-2.815,0.575-5.258,1.729-7.329c1.144-2.07,2.792-3.809,4.944-5.168
		c2.146-1.375,4.782-2.401,7.885-3.089c3.114-0.687,6.617-1.027,10.51-1.027h6.887v-3.893c0-1.929-0.201-3.635-0.606-5.11
		c-0.418-1.473-1.072-2.707-1.979-3.693c-0.906-0.977-2.079-1.723-3.526-2.219c-1.441-0.498-3.224-0.762-5.334-0.762
		c-2.257,0-4.281,0.281-6.079,0.812c-1.797,0.546-3.375,1.134-4.726,1.781c-1.356,0.645-2.483,1.233-3.392,1.78
		c-0.908,0.531-1.587,0.795-2.029,0.795c-0.295,0-0.551-0.066-0.771-0.215c-0.229-0.149-0.422-0.364-0.583-0.662
		c-0.171-0.299-0.3-0.68-0.365-1.144c-0.079-0.464-0.11-0.969-0.11-1.532c0-0.919,0.059-1.648,0.193-2.195
		c0.128-0.53,0.443-1.043,0.939-1.524c0.501-0.48,1.356-1.043,2.58-1.698c1.229-0.646,2.638-1.233,4.229-1.772
		c1.595-0.538,3.334-0.986,5.223-1.333c1.885-0.357,3.793-0.531,5.729-0.531c3.586,0,6.646,0.406,9.168,1.225
		c2.518,0.813,4.551,2.005,6.104,3.578c1.563,1.575,2.688,3.529,3.393,5.864s1.061,5.061,1.061,8.167v33.739H594.914
		L594.914,149.705z M585.8,126.863h-7.834c-2.522,0-4.709,0.215-6.557,0.63c-1.857,0.43-3.396,1.059-4.616,1.896
		c-1.223,0.837-2.121,1.831-2.695,2.99c-0.567,1.176-0.857,2.518-0.857,4.033c0,2.6,0.824,4.663,2.479,6.204
		c1.646,1.541,3.954,2.302,6.909,2.302c2.411,0,4.644-0.613,6.7-1.839c2.056-1.217,4.207-3.089,6.474-5.607L585.8,126.863
		L585.8,126.863z"/>
	<path fill="#FFFFFF" d="M654.586,149.638c0,0.298-0.06,0.563-0.194,0.779c-0.12,0.215-0.349,0.397-0.664,0.53
		c-0.312,0.132-0.728,0.232-1.255,0.298c-0.52,0.083-1.145,0.117-1.879,0.117c-0.782,0-1.438-0.034-1.946-0.117
		c-0.521-0.066-0.948-0.166-1.278-0.298c-0.342-0.132-0.575-0.315-0.729-0.53c-0.146-0.215-0.211-0.481-0.211-0.779v-6.609
		c-2.639,2.849-5.366,5.068-8.199,6.667c-2.832,1.598-5.938,2.393-9.304,2.393c-3.674,0-6.806-0.712-9.391-2.153
		c-2.604-1.423-4.708-3.346-6.316-5.763c-1.604-2.436-2.783-5.284-3.528-8.564c-0.737-3.28-1.102-6.733-1.102-10.361
		c0-4.298,0.453-8.174,1.391-11.644c0.925-3.462,2.291-6.418,4.104-8.854c1.813-2.452,4.069-4.339,6.75-5.648
		c2.688-1.317,5.794-1.971,9.313-1.971c2.922,0,5.598,0.638,8.021,1.922c2.436,1.275,4.823,3.146,7.2,5.631V75.631
		c0-0.265,0.066-0.513,0.195-0.753c0.127-0.241,0.38-0.432,0.743-0.555c0.373-0.133,0.843-0.24,1.416-0.331
		c0.577-0.1,1.317-0.149,2.209-0.149c0.915,0,1.677,0.049,2.271,0.149c0.595,0.091,1.054,0.198,1.389,0.331
		c0.331,0.124,0.589,0.314,0.752,0.555c0.168,0.24,0.243,0.488,0.243,0.753V149.638L654.586,149.638z M645.368,114.465
		c-2.482-3.072-4.887-5.416-7.199-7.032c-2.314-1.607-4.728-2.418-7.253-2.418c-2.33,0-4.307,0.563-5.944,1.672
		c-1.628,1.11-2.948,2.584-3.978,4.39c-1.01,1.813-1.756,3.875-2.212,6.17c-0.467,2.294-0.693,4.629-0.693,6.998
		c0,2.517,0.193,4.984,0.585,7.387c0.389,2.418,1.06,4.554,2.022,6.418c0.971,1.88,2.239,3.371,3.835,4.497
		c1.586,1.135,3.596,1.707,5.996,1.707c1.229,0,2.402-0.174,3.536-0.505c1.126-0.332,2.29-0.887,3.47-1.666
		c1.186-0.778,2.425-1.788,3.725-3.031c1.296-1.242,2.672-2.767,4.111-4.588L645.368,114.465L645.368,114.465z"/>
	<path fill="#FFFFFF" d="M718.047,124.08c0,4.075-0.537,7.826-1.611,11.255c-1.076,3.421-2.674,6.377-4.805,8.862
		c-2.137,2.476-4.8,4.414-8.004,5.806c-3.207,1.391-6.921,2.086-11.146,2.086c-4.104,0-7.693-0.613-10.745-1.838
		c-3.061-1.225-5.604-2.998-7.641-5.333c-2.037-2.336-3.563-5.167-4.563-8.506c-1.002-3.337-1.499-7.106-1.499-11.331
		c0-4.081,0.535-7.825,1.586-11.254c1.062-3.429,2.647-6.376,4.782-8.861c2.129-2.485,4.784-4.407,7.973-5.781
		c3.189-1.375,6.912-2.054,11.169-2.054c4.104,0,7.691,0.614,10.754,1.831c3.053,1.217,5.607,3.006,7.641,5.334
		c2.039,2.343,3.563,5.176,4.58,8.505C717.545,116.129,718.047,119.897,718.047,124.08 M708.547,124.692
		c0-2.708-0.254-5.259-0.754-7.668c-0.512-2.41-1.344-4.522-2.508-6.336c-1.148-1.813-2.721-3.246-4.702-4.306
		c-1.983-1.051-4.442-1.582-7.404-1.582c-2.731,0-5.071,0.48-7.031,1.44c-1.967,0.961-3.577,2.328-4.85,4.083
		c-1.271,1.764-2.225,3.842-2.831,6.253c-0.62,2.418-0.925,5.043-0.925,7.892c0,2.742,0.255,5.317,0.755,7.719
		c0.495,2.409,1.336,4.521,2.524,6.31c1.183,1.798,2.758,3.222,4.742,4.282c1.975,1.052,4.434,1.575,7.396,1.575
		c2.688,0,5.02-0.472,7.002-1.442c1.986-0.96,3.613-2.31,4.881-4.049c1.27-1.739,2.201-3.818,2.807-6.228
		C708.24,130.226,708.547,127.583,708.547,124.692"/>
	<path fill="#FFFFFF" d="M803.287,123.848c0,4.381-0.482,8.307-1.424,11.785c-0.945,3.488-2.336,6.436-4.174,8.87
		c-1.82,2.426-4.096,4.291-6.801,5.607c-2.707,1.317-5.801,1.979-9.277,1.979c-1.484,0-2.852-0.157-4.111-0.447
		c-1.258-0.298-2.484-0.762-3.697-1.392c-1.207-0.629-2.402-1.424-3.578-2.385c-1.188-0.969-2.443-2.095-3.785-3.396v25.003
		c0,0.306-0.065,0.554-0.221,0.777c-0.152,0.224-0.383,0.407-0.723,0.556c-0.33,0.149-0.799,0.265-1.391,0.331
		c-0.59,0.083-1.357,0.116-2.281,0.116c-0.889,0-1.619-0.033-2.223-0.116c-0.592-0.066-1.063-0.182-1.41-0.331
		c-0.354-0.149-0.598-0.332-0.727-0.556c-0.127-0.223-0.195-0.472-0.195-0.777V99.631c0-0.34,0.061-0.597,0.16-0.804
		c0.121-0.206,0.34-0.381,0.682-0.538c0.328-0.141,0.752-0.248,1.271-0.297c0.52-0.051,1.146-0.083,1.893-0.083
		c0.779,0,1.416,0.033,1.916,0.083c0.502,0.049,0.916,0.157,1.256,0.297c0.332,0.157,0.561,0.332,0.695,0.538
		c0.117,0.208,0.193,0.464,0.193,0.804v6.724c1.514-1.557,2.979-2.906,4.389-4.059c1.406-1.142,2.822-2.103,4.246-2.865
		c1.432-0.761,2.893-1.333,4.393-1.723c1.5-0.381,3.078-0.58,4.752-0.58c3.619,0,6.727,0.704,9.275,2.112
		c2.559,1.408,4.639,3.337,6.252,5.773c1.605,2.451,2.787,5.301,3.521,8.53C802.906,116.792,803.287,120.221,803.287,123.848
		 M793.779,124.908c0-2.551-0.192-5.019-0.582-7.42c-0.395-2.377-1.061-4.497-2.021-6.361c-0.939-1.838-2.223-3.329-3.824-4.439
		c-1.606-1.109-3.604-1.672-5.978-1.672c-1.196,0-2.378,0.182-3.53,0.53c-1.154,0.356-2.332,0.911-3.52,1.674
		c-1.195,0.753-2.45,1.755-3.748,2.997c-1.309,1.242-2.689,2.775-4.141,4.588v19.894c2.539,3.072,4.943,5.424,7.209,7.056
		c2.281,1.623,4.662,2.435,7.164,2.435c2.311,0,4.293-0.547,5.947-1.656c1.664-1.11,3-2.601,4.025-4.447
		c1.029-1.856,1.781-3.927,2.268-6.221C793.531,129.563,793.779,127.244,793.779,124.908"/>
	<path fill="#FFFFFF" d="M863.568,124.08c0,4.075-0.535,7.826-1.611,11.255c-1.08,3.421-2.678,6.377-4.805,8.862
		c-2.137,2.476-4.807,4.414-8.004,5.806c-3.207,1.391-6.92,2.086-11.145,2.086c-4.104,0-7.691-0.613-10.744-1.838
		c-3.063-1.225-5.604-2.998-7.643-5.333c-2.047-2.336-3.561-5.167-4.563-8.506c-1.004-3.337-1.5-7.106-1.5-11.331
		c0-4.081,0.533-7.825,1.586-11.254c1.061-3.429,2.646-6.376,4.783-8.861c2.127-2.485,4.781-4.407,7.973-5.781
		c3.188-1.375,6.91-2.054,11.168-2.054c4.104,0,7.691,0.614,10.752,1.831c3.053,1.217,5.609,3.006,7.643,5.334
		c2.035,2.343,3.563,5.176,4.579,8.505C863.066,116.129,863.568,119.897,863.568,124.08 M854.07,124.692
		c0-2.708-0.256-5.259-0.758-7.668c-0.508-2.41-1.342-4.522-2.506-6.336c-1.148-1.813-2.717-3.246-4.701-4.306
		c-1.984-1.051-4.443-1.582-7.404-1.582c-2.73,0-5.072,0.48-7.029,1.44c-1.969,0.961-3.578,2.328-4.852,4.083
		c-1.271,1.764-2.223,3.842-2.832,6.253c-0.623,2.418-0.922,5.043-0.922,7.892c0,2.742,0.25,5.317,0.752,7.719
		c0.496,2.409,1.336,4.521,2.527,6.31c1.18,1.798,2.748,3.222,4.74,4.282c1.977,1.052,4.436,1.575,7.396,1.575
		c2.688,0,5.019-0.472,7.002-1.442c1.986-0.96,3.615-2.31,4.879-4.049c1.271-1.739,2.201-3.818,2.809-6.228
		C853.762,130.226,854.07,127.583,854.07,124.692"/>
	<path fill="#FFFFFF" d="M906.297,102.911c0,0.813-0.018,1.5-0.05,2.055c-0.048,0.555-0.118,0.993-0.229,1.308
		c-0.107,0.314-0.246,0.554-0.414,0.712c-0.172,0.174-0.4,0.256-0.699,0.256c-0.297,0-0.653-0.082-1.072-0.256
		c-0.434-0.158-0.906-0.332-1.441-0.489c-0.543-0.174-1.146-0.323-1.814-0.472c-0.661-0.149-1.383-0.224-2.164-0.224
		c-0.932,0-1.831,0.173-2.723,0.555c-0.889,0.364-1.83,0.978-2.807,1.839c-0.986,0.845-2.012,1.97-3.092,3.378
		c-1.066,1.408-2.25,3.131-3.553,5.169v32.895c0,0.298-0.074,0.547-0.219,0.754c-0.154,0.206-0.389,0.381-0.729,0.521
		c-0.329,0.148-0.802,0.265-1.396,0.331c-0.582,0.083-1.344,0.117-2.271,0.117c-0.892,0-1.628-0.034-2.22-0.117
		c-0.596-0.066-1.059-0.183-1.418-0.331c-0.354-0.141-0.596-0.315-0.719-0.521c-0.138-0.207-0.199-0.456-0.199-0.754V99.632
		c0-0.299,0.063-0.547,0.166-0.746c0.107-0.208,0.334-0.396,0.666-0.563c0.332-0.165,0.77-0.273,1.281-0.33
		c0.516-0.051,1.203-0.083,2.055-0.083c0.824,0,1.488,0.033,2.027,0.083c0.533,0.057,0.948,0.166,1.256,0.33
		c0.293,0.166,0.508,0.354,0.631,0.563c0.131,0.199,0.195,0.447,0.195,0.746v7.279c1.366-1.996,2.655-3.635,3.869-4.895
		c1.193-1.258,2.329-2.244,3.406-2.964c1.08-0.729,2.148-1.226,3.201-1.508c1.051-0.272,2.119-0.414,3.195-0.414
		c0.479,0,1.024,0.033,1.637,0.083c0.611,0.058,1.246,0.157,1.916,0.299c0.672,0.156,1.265,0.332,1.809,0.504
		c0.531,0.19,0.913,0.373,1.139,0.555c0.227,0.19,0.373,0.365,0.438,0.53c0.082,0.166,0.145,0.381,0.193,0.638
		c0.061,0.256,0.096,0.638,0.121,1.143C906.291,101.388,906.297,102.066,906.297,102.911"/>
</g>
<g display="none">
	<polygon display="inline" fill="#FFFFFF" points="120.428,264.945 167.118,264.945 205.346,373.097 246.475,264.945 
		275.026,264.945 315.428,371.878 353.691,264.945 400.689,264.945 331.322,455.046 301.09,455.046 260.555,346.72 218.793,455.046 
		188.911,455.046 	"/>
	<path display="inline" fill="#FFFFFF" d="M594.085,303.382l-39.71,21.846c-7.462-7.804-14.843-13.222-22.13-16.241
		c-7.288-3.033-15.83-4.551-25.629-4.551c-17.843,0-32.271,5.317-43.296,15.963c-11.024,10.638-16.527,24.281-16.527,40.901
		c0,16.168,5.313,29.373,15.917,39.607c10.617,10.23,24.554,15.354,41.813,15.354c21.347,0,37.961-7.279,49.852-21.84l37.612,25.75
		c-20.387,26.514-49.153,39.771-86.313,39.771c-33.428,0-59.615-9.898-78.538-29.705c-18.934-19.805-28.395-42.98-28.395-69.539
		c0-18.399,4.597-35.357,13.801-50.848c9.206-15.485,22.05-27.653,38.525-36.513c16.493-8.856,34.915-13.279,55.313-13.279
		c18.863,0,35.812,3.754,50.838,11.27C572.245,278.835,584.536,289.528,594.085,303.382"/>
	<path display="inline" fill="#FFFFFF" d="M757.686,264.945h47.701v190.105h-47.701v-20.096
		c-9.306,8.852-18.644,15.227-28.007,19.131c-9.368,3.896-19.521,5.857-30.452,5.857c-24.554,0-45.787-9.523-63.705-28.574
		c-17.928-19.043-26.879-42.716-26.879-71.023c0-29.358,8.672-53.408,26.015-72.167c17.327-18.748,38.391-28.122,63.172-28.122
		c11.399,0,22.095,2.156,32.106,6.467c10.001,4.302,19.254,10.766,27.75,19.39V264.945L757.686,264.945z M707.543,304.08
		c-14.744,0-27,5.22-36.753,15.646c-9.739,10.427-14.621,23.792-14.621,40.103c0,16.421,4.964,29.938,14.89,40.535
		c9.928,10.602,22.144,15.898,36.66,15.898c14.981,0,27.396-5.213,37.264-15.639c9.867-10.427,14.797-24.084,14.797-40.973
		c0-16.539-4.93-29.936-14.797-40.188C735.112,309.206,722.643,304.08,707.543,304.08"/>
	<path display="inline" fill="#FFFFFF" d="M843.857,264.945h40.892v23.938c4.421-9.433,10.31-16.598,17.644-21.49
		c7.342-4.888,15.377-7.34,24.117-7.34c6.172,0,12.635,1.633,19.396,4.894l-14.852,41.063c-5.591-2.803-10.197-4.197-13.796-4.197
		c-7.353,0-13.552,4.544-18.619,13.627c-5.062,9.086-7.603,26.914-7.603,53.475l0.174,9.256v76.875h-47.353V264.945L843.857,264.945
		z"/>
	<path display="inline" fill="#FFFFFF" d="M1161.365,373.794h-153.233c2.215,13.521,8.12,24.266,17.731,32.244
		c9.605,7.973,21.862,11.971,36.787,11.971c17.816,0,33.137-6.229,45.945-18.691l40.191,18.867
		c-10.021,14.201-22.025,24.723-35.997,31.533c-13.971,6.816-30.579,10.229-49.799,10.229c-29.819,0-54.105-9.414-72.858-28.223
		c-18.76-18.811-28.129-42.371-28.129-70.672c0-29.007,9.347-53.089,28.047-72.256c18.691-19.16,42.135-28.742,70.32-28.742
		c29.936,0,54.28,9.582,73.032,28.742c18.755,19.167,28.135,44.472,28.135,75.922L1161.365,373.794z M1113.665,336.229
		c-3.146-10.595-9.368-19.219-18.632-25.86c-9.281-6.624-20.051-9.948-32.301-9.948c-13.297,0-24.969,3.73-34.997,11.183
		c-6.313,4.659-12.136,12.865-17.505,24.629h103.435V336.229z"/>
</g>
</svg>
