<?xml version="1.0" encoding="utf-8"?>
<!-- Generator: Adobe Illustrator 16.0.3, SVG Export Plug-In . SVG Version: 6.00 Build 0)  -->
<!DOCTYPE svg PUBLIC "-//W3C//DTD SVG 1.1//EN" "http://www.w3.org/Graphics/SVG/1.1/DTD/svg11.dtd">
<svg version="1.1" id="Capa_1" xmlns="http://www.w3.org/2000/svg" xmlns:xlink="http://www.w3.org/1999/xlink" x="0px" y="0px"
	 width="73px" height="101px" viewBox="0 0 73 101" enable-background="new 0 0 73 101" xml:space="preserve">
<g opacity="0.3">
	<g>
		<defs>
			<rect id="SVGID_1_" x="1.872" y="73.968" width="32.528" height="23.759"/>
		</defs>
		<clipPath id="SVGID_2_">
			<use xlink:href="#SVGID_1_"  overflow="visible"/>
		</clipPath>
		<path clip-path="url(#SVGID_2_)" fill="#FFFFFF" d="M21.481,93.755c1.783,1.505,0.362,4.39-1.923,3.921
			C9.01,95.512,1.872,91.349,1.872,86.568c0-6.882,14.07-11.837,30.16-12.598c2.692-0.127,3.308,3.724,0.706,4.427
			C20,81.83,14.863,88.172,21.481,93.755"/>
	</g>
</g>
<path fill="#1B97C3" d="M62.453,58.778c-15.85,18.784-11.135,13.197-21.547,25.537c-2.481,2.939-7.012,2.939-9.491,0
	C21.292,72.314,25.847,77.713,9.87,58.778c-11.527-13.66-10.672-33.87,1.966-46.51c13.436-13.437,35.221-13.43,48.651,0
	C73.045,24.828,74.047,45.038,62.453,58.778"/>
<g opacity="0.2">
	<g>
		<defs>
			<rect id="SVGID_3_" x="21.157" y="21.494" width="30.005" height="30.005"/>
		</defs>
		<clipPath id="SVGID_4_">
			<use xlink:href="#SVGID_3_"  overflow="visible"/>
		</clipPath>
		<path clip-path="url(#SVGID_4_)" fill="#4DB3CD" d="M36.161,21.494c8.285,0,15.001,6.717,15.001,15.001
			c0,8.286-6.717,15.004-15.001,15.004c-8.286,0-15.003-6.718-15.003-15.004C21.158,28.211,27.875,21.494,36.161,21.494"/>
	</g>
</g>
<g opacity="0.3">
	<g>
		<defs>
			<rect id="SVGID_5_" x="21.146" y="21.494" width="24.568" height="24.577"/>
		</defs>
		<clipPath id="SVGID_6_">
			<use xlink:href="#SVGID_5_"  overflow="visible"/>
		</clipPath>
		<path clip-path="url(#SVGID_6_)" fill="#FFFFFF" d="M44.686,24.15c1.938,1.341,0.947,4.383-1.41,4.377
			c-7.916-0.021-15.108,6.349-15.068,15.087c0.011,2.368-3.027,3.374-4.377,1.432c-6.841-9.848,0.166-23.552,12.331-23.552
			C39.327,21.493,42.266,22.475,44.686,24.15"/>
	</g>
</g>
<g opacity="0.3">
	<g>
		<defs>
			<rect id="SVGID_7_" x="1.757" y="2.309" width="38.988" height="45.571"/>
		</defs>
		<clipPath id="SVGID_8_">
			<use xlink:href="#SVGID_7_"  overflow="visible"/>
		</clipPath>
		<path clip-path="url(#SVGID_8_)" fill="#FFFFFF" d="M32.813,2.349c8.639-0.817,11.126,11.42,2.896,14.165
			c-11.682,3.896-20.88,14.053-23.024,26.99c-0.941,5.682-8.988,5.896-10.174,0.261C-1.767,23.441,12.664,4.255,32.813,2.349"/>
	</g>
</g>
<path fill="#1B7D9D" d="M19.485,36.496c0,9.194,7.48,16.677,16.675,16.677s16.674-7.482,16.674-16.677
	c0-9.195-7.479-16.676-16.674-16.676S19.485,27.301,19.485,36.496 M49.488,36.496c0,7.35-5.979,13.328-13.328,13.328
	c-7.349,0-13.328-5.979-13.328-13.328s5.979-13.328,13.328-13.328C43.51,23.168,49.488,29.146,49.488,36.496 M3.5,86.568
	c0,5.212,13.405,11.02,32.641,11.02c19.234,0,32.64-5.808,32.64-11.02c0-2.562-3.348-5.33-8.957-7.404
	c-0.867-0.32-1.311-1.283-0.99-2.15c0.32-0.866,1.283-1.31,2.15-0.989c14.879,5.504,14.9,15.577,0,21.088
	c-13.783,5.1-35.901,5.101-49.688,0c-16.938-6.265-15.028-18.969,8.907-23.49L8.589,59.857C-3.489,45.543-2.612,24.35,10.651,11.085
	C20.03,1.707,33.76-1.766,46.482,2.021c0.887,0.264,1.391,1.195,1.127,2.081s-1.194,1.391-2.082,1.127
	c-11.544-3.437-24-0.286-32.508,8.223C0.896,25.574,0.092,44.597,11.147,57.698l21.548,25.538c1.812,2.148,5.122,2.146,6.93,0
	l21.547-25.538c4.998-5.923,7.738-13.451,7.715-21.197c-0.002-0.924,0.744-1.676,1.67-1.679c0.922-0.003,1.674,0.744,1.678,1.669
	c0.025,8.538-2.994,16.837-8.504,23.366L42.184,85.396c-3.149,3.733-8.9,3.729-12.047,0l-7.434-8.812
	C11.379,78.411,3.5,82.498,3.5,86.568"/>
<g opacity="0.2">
	<g>
		<defs>
			<rect id="SVGID_9_" x="1.871" y="73.878" width="68.578" height="25.382"/>
		</defs>
		<clipPath id="SVGID_10_">
			<use xlink:href="#SVGID_9_"  overflow="visible"/>
		</clipPath>
		<path clip-path="url(#SVGID_10_)" fill="#1B97C3" d="M36.161,73.878c18.937,0,34.291,5.682,34.291,12.691
			c0,7.009-15.354,12.69-34.291,12.69s-34.29-5.682-34.29-12.69C1.871,79.56,17.224,73.878,36.161,73.878"/>
	</g>
</g>
</svg>
