<?xml version="1.0" encoding="utf-8"?>
<!-- Generator: Adobe Illustrator 16.0.3, SVG Export Plug-In . SVG Version: 6.00 Build 0)  -->
<!DOCTYPE svg PUBLIC "-//W3C//DTD SVG 1.1//EN" "http://www.w3.org/Graphics/SVG/1.1/DTD/svg11.dtd">
<svg version="1.1" id="Capa_1" xmlns="http://www.w3.org/2000/svg" xmlns:xlink="http://www.w3.org/1999/xlink" x="0px" y="0px"
	 width="149px" height="130px" viewBox="0 0 149 130" enable-background="new 0 0 149 130" xml:space="preserve">
<g>
	<g>
		<defs>
			<path id="SVGID_1_" d="M74.523,0c13.979,0,25.311,11.332,25.311,25.311S88.502,50.62,74.523,50.62S49.212,39.289,49.212,25.31
				S60.545,0,74.523,0"/>
		</defs>
		<clipPath id="SVGID_2_">
			<use xlink:href="#SVGID_1_"  overflow="visible"/>
		</clipPath>
		<defs>
			<filter id="Adobe_OpacityMaskFilter" filterUnits="userSpaceOnUse" x="33.495" y="-15.719" width="82.057" height="82.058">
				<feColorMatrix  type="matrix" values="1 0 0 0 0  0 1 0 0 0  0 0 1 0 0  0 0 0 1 0"/>
			</filter>
		</defs>
		<mask maskUnits="userSpaceOnUse" x="33.495" y="-15.719" width="82.057" height="82.058" id="SVGID_3_">
			<g filter="url(#Adobe_OpacityMaskFilter)">
				<g>
					<defs>
						<path id="SVGID_4_" d="M74.523,0c13.979,0,25.311,11.332,25.311,25.311S88.502,50.62,74.523,50.62S49.212,39.289,49.212,25.31
							S60.545,0,74.523,0"/>
					</defs>
					<clipPath id="SVGID_5_" clip-path="url(#SVGID_2_)">
						<use xlink:href="#SVGID_4_"  overflow="visible"/>
					</clipPath>
					
						<linearGradient id="SVGID_6_" gradientUnits="userSpaceOnUse" x1="-1110.0552" y1="-3168.624" x2="-1109.045" y2="-3168.624" gradientTransform="matrix(1254.1936 436.6452 -436.6452 1254.1936 8071.2393 4458563)">
						<stop  offset="0" style="stop-color:#FFFFFF"/>
						<stop  offset="0.5279" style="stop-color:#FFFFFF"/>
						<stop  offset="0.605" style="stop-color:#FCFCFC"/>
						<stop  offset="0.6667" style="stop-color:#F2F2F2"/>
						<stop  offset="0.723" style="stop-color:#E1E1E1"/>
						<stop  offset="0.7761" style="stop-color:#C9C9C9"/>
						<stop  offset="0.827" style="stop-color:#AAAAAA"/>
						<stop  offset="0.8763" style="stop-color:#858585"/>
						<stop  offset="0.9242" style="stop-color:#585858"/>
						<stop  offset="0.9698" style="stop-color:#262626"/>
						<stop  offset="1" style="stop-color:#000000"/>
					</linearGradient>
					<polygon clip-path="url(#SVGID_5_)" fill="url(#SVGID_6_)" points="54.685,-15.719 115.552,5.473 94.361,66.339 33.495,45.147 
											"/>
				</g>
			</g>
		</mask>
		<polygon clip-path="url(#SVGID_2_)" mask="url(#SVGID_3_)" fill="#009BDE" points="54.685,-15.719 115.552,5.473 94.361,66.339 
			33.495,45.147 		"/>
	</g>
</g>
<g>
	<g>
		<defs>
			<path id="SVGID_7_" d="M125.727,18.619c8.836,0,16,7.163,16,16s-7.164,16.001-16,16.001c-8.838,0-16.002-7.164-16.002-16.001
				S116.889,18.619,125.727,18.619"/>
		</defs>
		<clipPath id="SVGID_9_">
			<use xlink:href="#SVGID_7_"  overflow="visible"/>
		</clipPath>
		<defs>
			<filter id="Adobe_OpacityMaskFilter_1_" filterUnits="userSpaceOnUse" x="99.788" y="8.683" width="51.874" height="51.874">
				<feColorMatrix  type="matrix" values="1 0 0 0 0  0 1 0 0 0  0 0 1 0 0  0 0 0 1 0"/>
			</filter>
		</defs>
		<mask maskUnits="userSpaceOnUse" x="99.788" y="8.683" width="51.874" height="51.874" id="SVGID_8_">
			<g filter="url(#Adobe_OpacityMaskFilter_1_)">
				<g>
					<defs>
						<path id="SVGID_10_" d="M125.727,18.619c8.836,0,16,7.163,16,16s-7.164,16.001-16,16.001c-8.838,0-16.002-7.164-16.002-16.001
							S116.889,18.619,125.727,18.619"/>
					</defs>
					<clipPath id="SVGID_11_" clip-path="url(#SVGID_9_)">
						<use xlink:href="#SVGID_10_"  overflow="visible"/>
					</clipPath>
					
						<linearGradient id="SVGID_12_" gradientUnits="userSpaceOnUse" x1="-1110.0498" y1="-3168.624" x2="-1109.0498" y2="-3168.624" gradientTransform="matrix(1254.1936 436.6452 -436.6452 1254.1936 8074.2393 4458555)">
						<stop  offset="0" style="stop-color:#FFFFFF"/>
						<stop  offset="0.5279" style="stop-color:#FFFFFF"/>
						<stop  offset="0.605" style="stop-color:#FCFCFC"/>
						<stop  offset="0.6667" style="stop-color:#F2F2F2"/>
						<stop  offset="0.723" style="stop-color:#E1E1E1"/>
						<stop  offset="0.7761" style="stop-color:#C9C9C9"/>
						<stop  offset="0.827" style="stop-color:#AAAAAA"/>
						<stop  offset="0.8763" style="stop-color:#858585"/>
						<stop  offset="0.9242" style="stop-color:#585858"/>
						<stop  offset="0.9698" style="stop-color:#262626"/>
						<stop  offset="1" style="stop-color:#000000"/>
					</linearGradient>
					<polygon clip-path="url(#SVGID_11_)" fill="url(#SVGID_12_)" points="113.184,8.683 151.662,22.078 138.268,60.557 
						99.788,47.16 					"/>
				</g>
			</g>
		</mask>
		<polygon clip-path="url(#SVGID_9_)" mask="url(#SVGID_8_)" fill="#009BDE" points="113.184,8.683 151.662,22.078 138.268,60.557 
			99.788,47.16 		"/>
	</g>
</g>
<g>
	<g>
		<defs>
			<path id="SVGID_14_" d="M23.322,18.619c8.837,0,16,7.163,16,16s-7.163,16.001-16,16.001c-8.837,0-16.001-7.164-16.001-16.001
				S14.485,18.619,23.322,18.619"/>
		</defs>
		<clipPath id="SVGID_15_">
			<use xlink:href="#SVGID_14_"  overflow="visible"/>
		</clipPath>
		<defs>
			<filter id="Adobe_OpacityMaskFilter_2_" filterUnits="userSpaceOnUse" x="-2.616" y="8.683" width="51.874" height="51.874">
				<feColorMatrix  type="matrix" values="1 0 0 0 0  0 1 0 0 0  0 0 1 0 0  0 0 0 1 0"/>
			</filter>
		</defs>
		<mask maskUnits="userSpaceOnUse" x="-2.616" y="8.683" width="51.874" height="51.874" id="SVGID_13_">
			<g filter="url(#Adobe_OpacityMaskFilter_2_)">
				<g>
					<defs>
						<path id="SVGID_16_" d="M23.322,18.619c8.837,0,16,7.163,16,16s-7.163,16.001-16,16.001c-8.837,0-16.001-7.164-16.001-16.001
							S14.485,18.619,23.322,18.619"/>
					</defs>
					<clipPath id="SVGID_17_" clip-path="url(#SVGID_15_)">
						<use xlink:href="#SVGID_16_"  overflow="visible"/>
					</clipPath>
					
						<linearGradient id="SVGID_19_" gradientUnits="userSpaceOnUse" x1="-1110.0498" y1="-3168.624" x2="-1109.0498" y2="-3168.624" gradientTransform="matrix(1254.1936 436.6452 -436.6452 1254.1936 8063.2393 4458587)">
						<stop  offset="0" style="stop-color:#FFFFFF"/>
						<stop  offset="0.5279" style="stop-color:#FFFFFF"/>
						<stop  offset="0.605" style="stop-color:#FCFCFC"/>
						<stop  offset="0.6667" style="stop-color:#F2F2F2"/>
						<stop  offset="0.723" style="stop-color:#E1E1E1"/>
						<stop  offset="0.7761" style="stop-color:#C9C9C9"/>
						<stop  offset="0.827" style="stop-color:#AAAAAA"/>
						<stop  offset="0.8763" style="stop-color:#858585"/>
						<stop  offset="0.9242" style="stop-color:#585858"/>
						<stop  offset="0.9698" style="stop-color:#262626"/>
						<stop  offset="1" style="stop-color:#000000"/>
					</linearGradient>
					<polygon clip-path="url(#SVGID_17_)" fill="url(#SVGID_19_)" points="10.78,8.683 49.258,22.078 35.862,60.557 -2.616,47.16 
											"/>
				</g>
			</g>
		</mask>
		<polygon clip-path="url(#SVGID_15_)" mask="url(#SVGID_13_)" fill="#009BDE" points="10.78,8.683 49.258,22.078 35.862,60.557 
			-2.616,47.16 		"/>
	</g>
</g>
<g>
	<g>
		<defs>
			<path id="SVGID_20_" d="M39.086,64.989c-6.298-5.161-12.002-4.479-19.285-4.479c-10.892,0-19.753,8.81-19.753,19.636v31.771
				c0,4.701,3.837,8.522,8.556,8.522c20.372,0,17.917,0.369,17.917-0.879C26.521,97.05,23.854,80.54,39.086,64.989"/>
		</defs>
		<clipPath id="SVGID_21_">
			<use xlink:href="#SVGID_20_"  overflow="visible"/>
		</clipPath>
		<defs>
			<filter id="Adobe_OpacityMaskFilter_3_" filterUnits="userSpaceOnUse" x="-18.888" y="47.706" width="76.909" height="85.228">
				<feColorMatrix  type="matrix" values="1 0 0 0 0  0 1 0 0 0  0 0 1 0 0  0 0 0 1 0"/>
			</filter>
		</defs>
		<mask maskUnits="userSpaceOnUse" x="-18.888" y="47.706" width="76.909" height="85.228" id="SVGID_18_">
			<g filter="url(#Adobe_OpacityMaskFilter_3_)">
				<g>
					<defs>
						<path id="SVGID_22_" d="M39.086,64.989c-6.298-5.161-12.002-4.479-19.285-4.479c-10.892,0-19.753,8.81-19.753,19.636v31.771
							c0,4.701,3.837,8.522,8.556,8.522c20.372,0,17.917,0.369,17.917-0.879C26.521,97.05,23.854,80.54,39.086,64.989"/>
					</defs>
					<clipPath id="SVGID_24_" clip-path="url(#SVGID_21_)">
						<use xlink:href="#SVGID_22_"  overflow="visible"/>
					</clipPath>
					
						<linearGradient id="SVGID_25_" gradientUnits="userSpaceOnUse" x1="-1110.0557" y1="-3168.624" x2="-1109.0442" y2="-3168.624" gradientTransform="matrix(1254.1936 436.6452 -436.6452 1254.1936 8045.2393 4458638)">
						<stop  offset="0" style="stop-color:#FFFFFF"/>
						<stop  offset="0.5279" style="stop-color:#FFFFFF"/>
						<stop  offset="0.605" style="stop-color:#FCFCFC"/>
						<stop  offset="0.6667" style="stop-color:#F2F2F2"/>
						<stop  offset="0.723" style="stop-color:#E1E1E1"/>
						<stop  offset="0.7761" style="stop-color:#C9C9C9"/>
						<stop  offset="0.827" style="stop-color:#AAAAAA"/>
						<stop  offset="0.8763" style="stop-color:#858585"/>
						<stop  offset="0.9242" style="stop-color:#585858"/>
						<stop  offset="0.9698" style="stop-color:#262626"/>
						<stop  offset="1" style="stop-color:#000000"/>
					</linearGradient>
					<polygon clip-path="url(#SVGID_24_)" fill="url(#SVGID_25_)" points="4.268,47.706 58.021,66.421 34.865,132.934 
						-18.888,114.219 					"/>
				</g>
			</g>
		</mask>
		<polygon clip-path="url(#SVGID_21_)" mask="url(#SVGID_18_)" fill="#009BDE" points="4.268,47.706 58.021,66.421 34.865,132.934 
			-18.888,114.219 		"/>
	</g>
</g>
<g>
	<g>
		<defs>
			<path id="SVGID_26_" d="M81.451,60.628c-12.722-1.062-23.777,0.012-33.314,7.884c-15.959,12.783-12.888,29.995-12.888,51.051
				c0,5.571,4.533,10.188,10.188,10.188c61.409,0,63.853,1.979,67.495-6.083c1.193-2.729,0.866-1.859,0.866-27.949
				C113.798,74.997,95.855,60.628,81.451,60.628"/>
		</defs>
		<clipPath id="SVGID_27_">
			<use xlink:href="#SVGID_26_"  overflow="visible"/>
		</clipPath>
		<defs>
			<filter id="Adobe_OpacityMaskFilter_4_" filterUnits="userSpaceOnUse" x="9.77" y="34.121" width="126.762" height="123.056">
				<feColorMatrix  type="matrix" values="1 0 0 0 0  0 1 0 0 0  0 0 1 0 0  0 0 0 1 0"/>
			</filter>
		</defs>
		<mask maskUnits="userSpaceOnUse" x="9.77" y="34.121" width="126.762" height="123.056" id="SVGID_23_">
			<g filter="url(#Adobe_OpacityMaskFilter_4_)">
				<g>
					<defs>
						<path id="SVGID_29_" d="M81.451,60.628c-12.722-1.062-23.777,0.012-33.314,7.884c-15.959,12.783-12.888,29.995-12.888,51.051
							c0,5.571,4.533,10.188,10.188,10.188c61.409,0,63.853,1.979,67.495-6.083c1.193-2.729,0.866-1.859,0.866-27.949
							C113.798,74.997,95.855,60.628,81.451,60.628"/>
					</defs>
					<clipPath id="SVGID_30_" clip-path="url(#SVGID_27_)">
						<use xlink:href="#SVGID_29_"  overflow="visible"/>
					</clipPath>
					
						<linearGradient id="SVGID_31_" gradientUnits="userSpaceOnUse" x1="-1110.0498" y1="-3168.626" x2="-1109.0498" y2="-3168.626" gradientTransform="matrix(1254.1936 436.6452 -436.6452 1254.1936 8048.2393 4458628)">
						<stop  offset="0" style="stop-color:#FFFFFF"/>
						<stop  offset="0.5279" style="stop-color:#FFFFFF"/>
						<stop  offset="0.605" style="stop-color:#FCFCFC"/>
						<stop  offset="0.6667" style="stop-color:#F2F2F2"/>
						<stop  offset="0.723" style="stop-color:#E1E1E1"/>
						<stop  offset="0.7761" style="stop-color:#C9C9C9"/>
						<stop  offset="0.827" style="stop-color:#AAAAAA"/>
						<stop  offset="0.8763" style="stop-color:#858585"/>
						<stop  offset="0.9242" style="stop-color:#585858"/>
						<stop  offset="0.9698" style="stop-color:#262626"/>
						<stop  offset="1" style="stop-color:#000000"/>
					</linearGradient>
					<polygon clip-path="url(#SVGID_30_)" fill="url(#SVGID_31_)" points="41.036,34.121 136.532,67.367 105.266,157.177 
						9.77,123.93 					"/>
				</g>
			</g>
		</mask>
		<polygon clip-path="url(#SVGID_27_)" mask="url(#SVGID_23_)" fill="#009BDE" points="41.036,34.121 136.532,67.367 
			105.266,157.177 9.77,123.93 		"/>
	</g>
</g>
<g>
	<g>
		<defs>
			<path id="SVGID_32_" d="M129.245,60.512c-7.321,0-12.994-0.677-19.284,4.477c15.116,15.436,12.564,30.819,12.564,54.573
				c0,1.256-2.037,0.879,17.611,0.879c4.889,0,8.861-3.961,8.861-8.826V80.146C148.999,69.32,140.139,60.512,129.245,60.512"/>
		</defs>
		<clipPath id="SVGID_33_">
			<use xlink:href="#SVGID_32_"  overflow="visible"/>
		</clipPath>
		<defs>
			<filter id="Adobe_OpacityMaskFilter_5_" filterUnits="userSpaceOnUse" x="91.025" y="47.713" width="76.91" height="85.227">
				<feColorMatrix  type="matrix" values="1 0 0 0 0  0 1 0 0 0  0 0 1 0 0  0 0 0 1 0"/>
			</filter>
		</defs>
		<mask maskUnits="userSpaceOnUse" x="91.025" y="47.713" width="76.91" height="85.227" id="SVGID_28_">
			<g filter="url(#Adobe_OpacityMaskFilter_5_)">
				<g>
					<defs>
						<path id="SVGID_34_" d="M129.245,60.512c-7.321,0-12.994-0.677-19.284,4.477c15.116,15.436,12.564,30.819,12.564,54.573
							c0,1.256-2.037,0.879,17.611,0.879c4.889,0,8.861-3.961,8.861-8.826V80.146C148.999,69.32,140.139,60.512,129.245,60.512"/>
					</defs>
					<clipPath id="SVGID_35_" clip-path="url(#SVGID_33_)">
						<use xlink:href="#SVGID_34_"  overflow="visible"/>
					</clipPath>
					
						<linearGradient id="SVGID_36_" gradientUnits="userSpaceOnUse" x1="-1110.0566" y1="-3168.624" x2="-1109.0452" y2="-3168.624" gradientTransform="matrix(1254.1936 436.6452 -436.6452 1254.1936 8057.2393 4458604)">
						<stop  offset="0" style="stop-color:#FFFFFF"/>
						<stop  offset="0.5279" style="stop-color:#FFFFFF"/>
						<stop  offset="0.605" style="stop-color:#FCFCFC"/>
						<stop  offset="0.6667" style="stop-color:#F2F2F2"/>
						<stop  offset="0.723" style="stop-color:#E1E1E1"/>
						<stop  offset="0.7761" style="stop-color:#C9C9C9"/>
						<stop  offset="0.827" style="stop-color:#AAAAAA"/>
						<stop  offset="0.8763" style="stop-color:#858585"/>
						<stop  offset="0.9242" style="stop-color:#585858"/>
						<stop  offset="0.9698" style="stop-color:#262626"/>
						<stop  offset="1" style="stop-color:#000000"/>
					</linearGradient>
					<polygon clip-path="url(#SVGID_35_)" fill="url(#SVGID_36_)" points="114.182,47.713 167.936,66.428 144.779,132.939 
						91.025,114.225 					"/>
				</g>
			</g>
		</mask>
		<polygon clip-path="url(#SVGID_33_)" mask="url(#SVGID_28_)" fill="#009BDE" points="114.182,47.713 167.936,66.428 
			144.779,132.939 91.025,114.225 		"/>
	</g>
</g>
</svg>
