<?xml version="1.0" encoding="utf-8"?>
<!-- Generator: Adobe Illustrator 16.0.3, SVG Export Plug-In . SVG Version: 6.00 Build 0)  -->
<!DOCTYPE svg PUBLIC "-//W3C//DTD SVG 1.1//EN" "http://www.w3.org/Graphics/SVG/1.1/DTD/svg11.dtd">
<svg version="1.1" id="Capa_1" xmlns="http://www.w3.org/2000/svg" xmlns:xlink="http://www.w3.org/1999/xlink" x="0px" y="0px"
	 width="100px" height="89px" viewBox="0 0 100 89" enable-background="new 0 0 100 89" xml:space="preserve">
<path fill="#1B97C3" d="M79.271,1.382H56.275c-11.093,0-20.122,9.028-20.122,20.122c0,10.12,7.51,18.52,17.247,19.917v8.828
	c0,1.162,0.699,2.212,1.775,2.655c1.061,0.442,2.303,0.205,3.133-0.623l10.656-10.656h10.307c11.094,0,20.314-9.027,20.314-20.121
	S90.365,1.382,79.271,1.382 M56.275,24.378c-1.588,0-2.875-1.287-2.875-2.874c0-1.588,1.287-2.875,2.875-2.875
	s2.875,1.287,2.875,2.875C59.15,23.091,57.863,24.378,56.275,24.378 M67.773,24.378c-1.588,0-2.875-1.287-2.875-2.874
	c0-1.588,1.287-2.875,2.875-2.875s2.875,1.287,2.875,2.875C70.648,23.091,69.361,24.378,67.773,24.378 M79.271,24.378
	c-1.588,0-2.873-1.287-2.873-2.874c0-1.588,1.285-2.875,2.873-2.875s2.875,1.287,2.875,2.875
	C82.146,23.091,80.859,24.378,79.271,24.378"/>
<path fill="#1B97C3" d="M66.049,87.618c4.756,0,8.623-3.869,8.623-8.624V67.496c0-1.238-0.791-2.336-1.965-2.726l-17.205-5.749
	c-0.844-0.283-1.764-0.154-2.504,0.334l-7.316,4.876c-7.748-3.694-16.941-12.888-20.636-20.636l4.876-7.315
	c0.491-0.738,0.614-1.662,0.334-2.504l-5.749-17.207c-0.39-1.173-1.488-1.965-2.726-1.965H10.092c-4.756,0-8.624,3.828-8.624,8.584
	C1.468,56.307,32.93,87.618,66.049,87.618"/>
<g opacity="0.3">
	<g>
		<defs>
			<rect id="SVGID_1_" x="1.468" y="13.364" width="14.11" height="18.789"/>
		</defs>
		<clipPath id="SVGID_2_">
			<use xlink:href="#SVGID_1_"  overflow="visible"/>
		</clipPath>
		<g opacity="0.3" clip-path="url(#SVGID_2_)">
			<g>
				<defs>
					<rect id="SVGID_3_" x="1.468" y="13.364" width="14.11" height="18.789"/>
				</defs>
				<clipPath id="SVGID_4_">
					<use xlink:href="#SVGID_3_"  overflow="visible"/>
				</clipPath>
				<path clip-path="url(#SVGID_4_)" fill="#FFFFFF" d="M12.708,13.381c3.126-0.337,4.027,4.709,1.048,5.841
					c-4.228,1.605-7.557,5.793-8.332,11.127c-0.341,2.343-3.253,2.432-3.683,0.107C0.193,22.078,5.416,14.167,12.708,13.381"/>
			</g>
		</g>
	</g>
</g>
<path fill="#1B7D9D" d="M56.279,54.181c-0.508,0-1.02-0.1-1.51-0.304c-1.471-0.605-2.422-2.031-2.422-3.628v-7.936
	c-4.638-0.874-8.876-3.297-12.015-6.887c-3.374-3.859-5.232-8.804-5.232-13.923c0-11.676,9.499-21.175,21.175-21.175h22.996
	c5.584,0,10.883,2.154,14.92,6.068c0.418,0.404,0.428,1.072,0.023,1.49c-0.406,0.418-1.074,0.428-1.492,0.023
	c-3.641-3.531-8.418-5.475-13.451-5.475H56.275c-10.513,0-19.067,8.554-19.067,19.067c0,9.422,7.025,17.536,16.342,18.873
	l0.904,0.13v9.742c0,0.74,0.441,1.4,1.123,1.681c0.672,0.281,1.469,0.122,1.984-0.393l10.965-10.966h10.744
	c5.447,0,10.682-2.338,14.357-6.413c0.391-0.433,1.057-0.467,1.488-0.077c0.434,0.391,0.467,1.057,0.078,1.489
	c-4.076,4.518-9.881,7.109-15.924,7.109H69.4L59.053,53.026C58.299,53.781,57.299,54.181,56.279,54.181 M79.271,25.432
	c-2.166,0-3.928-1.762-3.928-3.929c0-2.166,1.762-3.927,3.928-3.927s3.93,1.761,3.93,3.927
	C83.201,23.67,81.438,25.432,79.271,25.432 M79.271,19.683c-1.004,0-1.82,0.817-1.82,1.82c0,1.004,0.816,1.821,1.82,1.821
	s1.82-0.817,1.82-1.821C81.092,20.5,80.275,19.683,79.271,19.683 M67.773,25.432c-2.166,0-3.928-1.762-3.928-3.929
	c0-2.166,1.762-3.927,3.928-3.927s3.93,1.761,3.93,3.927C71.703,23.67,69.939,25.432,67.773,25.432 M67.773,19.683
	c-1.004,0-1.82,0.817-1.82,1.82c0,1.004,0.816,1.821,1.82,1.821s1.82-0.817,1.82-1.821C69.594,20.5,68.777,19.683,67.773,19.683
	 M56.275,25.432c-2.166,0-3.928-1.762-3.928-3.929c0-2.166,1.762-3.927,3.928-3.927s3.93,1.761,3.93,3.927
	C60.205,23.67,58.441,25.432,56.275,25.432 M56.275,19.683c-1.004,0-1.82,0.817-1.82,1.82c0,1.004,0.816,1.821,1.82,1.821
	s1.82-0.817,1.82-1.821C58.096,20.5,57.279,19.683,56.275,19.683"/>
<path fill="#1B7D9D" d="M66.049,88.672c-33.737,0-65.634-31.824-65.634-65.483c0-5.314,4.341-9.638,9.678-9.638h11.689
	c1.694,0,3.191,1.08,3.726,2.687l5.749,17.206c0.386,1.157,0.22,2.404-0.457,3.421l-4.54,6.812c0.744,1.471,1.699,3.019,2.845,4.609
	c0.341,0.472,0.233,1.131-0.239,1.471c-0.473,0.341-1.131,0.233-1.471-0.239c-1.358-1.886-2.469-3.725-3.299-5.467l-0.258-0.54
	l5.208-7.813c0.313-0.471,0.39-1.05,0.211-1.587l-5.749-17.206c-0.247-0.745-0.941-1.244-1.726-1.244H10.092
	c-4.174,0-7.57,3.377-7.57,7.529c0,32.576,30.873,63.375,63.527,63.375c4.174,0,7.57-3.396,7.57-7.569V67.496
	c0-0.785-0.5-1.479-1.244-1.726l-17.207-5.75c-0.533-0.179-1.113-0.101-1.59,0.215l-7.81,5.205l-0.54-0.258
	c-2.236-1.066-4.604-2.572-7.036-4.478c-0.458-0.359-0.539-1.021-0.18-1.48c0.359-0.458,1.021-0.538,1.48-0.18
	c2.115,1.657,4.167,2.992,6.109,3.973l6.81-4.539c1.029-0.678,2.275-0.844,3.426-0.456l17.203,5.748
	c1.605,0.534,2.686,2.031,2.686,3.726v11.498C75.727,84.33,71.385,88.672,66.049,88.672"/>
</svg>
