<?xml version="1.0" encoding="utf-8"?>
<!-- Generator: Adobe Illustrator 16.0.3, SVG Export Plug-In . SVG Version: 6.00 Build 0)  -->
<!DOCTYPE svg PUBLIC "-//W3C//DTD SVG 1.1//EN" "http://www.w3.org/Graphics/SVG/1.1/DTD/svg11.dtd">
<svg version="1.1" id="Capa_1" xmlns="http://www.w3.org/2000/svg" xmlns:xlink="http://www.w3.org/1999/xlink" x="0px" y="0px"
	 width="600px" height="600px" viewBox="0 0 600 600" enable-background="new 0 0 600 600" xml:space="preserve">
<g>
	<defs>
		<rect id="SVGID_1_" width="600" height="600"/>
	</defs>
	<clipPath id="SVGID_2_">
		<use xlink:href="#SVGID_1_"  overflow="visible"/>
	</clipPath>
	<g clip-path="url(#SVGID_2_)">
		<path fill="#FFFFFF" d="M137.328,201.839c0,0,256.041,77.868,238.882-89.746c0,0,109.544,194.011-102.943,361.624
			c0,0,40.913-27.716,54.111-110.862c0,0-30.355,91.065-100.304,117.462C227.074,480.316,376.21,316.661,137.328,201.839"/>
		<path fill="#FFFFFF" d="M191.439,248.032c0,0-80.508,97.666,6.599,199.29c0,0-19.797-44.873-13.198-102.944
			c0,0,7.919,88.427,42.233,113.503C227.073,457.88,302.302,350.976,191.439,248.032"/>
		<path fill="#FFFFFF" d="M270.627,492.194c0,0,134.619-50.152,157.056-244.163c0,0,42.233,67.311-7.919,164.975
			c0,0,30.355-22.436,42.233-95.024C461.997,317.981,484.434,518.59,270.627,492.194"/>
		<path fill="#FFFFFF" d="M319.466,134.801c11.409,24.035,4.11,51.374-16.303,61.063c-20.413,9.69-46.21-1.938-57.619-25.973
			c-11.409-24.034-4.11-51.373,16.303-61.063C282.26,99.138,308.057,110.768,319.466,134.801"/>
	</g>
</g>
<g display="none">
	<path display="inline" fill="#8CC63F" d="M144.485,490.306h14.261l11.677,33.036l12.563-33.036h8.724l12.337,32.662l11.69-32.662
		h14.354l-21.188,58.066h-9.233l-12.382-33.09l-12.755,33.09h-9.126L144.485,490.306z"/>
	<path display="inline" fill="#8CC63F" d="M289.273,502.047l-12.129,6.671c-2.28-2.383-4.533-4.037-6.76-4.963
		c-2.227-0.925-4.836-1.388-7.828-1.388c-5.45,0-9.859,1.625-13.225,4.876c-3.367,3.25-5.049,7.416-5.049,12.495
		c0,4.938,1.62,8.971,4.862,12.097c3.241,3.126,7.499,4.688,12.771,4.688c6.52,0,11.596-2.223,15.229-6.671l11.489,7.866
		c-6.227,8.099-15.016,12.147-26.365,12.147c-10.212,0-18.208-3.023-23.99-9.072c-5.782-6.049-8.672-13.13-8.672-21.242
		c0-5.621,1.405-10.798,4.216-15.53c2.81-4.731,6.733-8.45,11.768-11.154c5.034-2.703,10.665-4.056,16.892-4.056
		c5.764,0,10.941,1.147,15.53,3.442C282.602,494.549,286.355,497.813,289.273,502.047z"/>
</g>
<g display="none">
	<path display="inline" fill="#8CC63F" d="M339.145,490.306h14.569v58.066h-14.569v-6.138c-2.844,2.704-5.696,4.652-8.557,5.844
		c-2.86,1.192-5.961,1.788-9.302,1.788c-7.499,0-13.984-2.908-19.458-8.726c-5.473-5.817-8.208-13.049-8.208-21.695
		c0-8.966,2.647-16.313,7.943-22.042c5.295-5.728,11.728-8.592,19.297-8.592c3.482,0,6.752,0.658,9.808,1.975
		c3.057,1.316,5.882,3.291,8.478,5.924V490.306z M323.828,502.261c-4.504,0-8.245,1.593-11.224,4.776
		c-2.979,3.185-4.469,7.268-4.469,12.248c0,5.017,1.516,9.145,4.548,12.382c3.032,3.238,6.764,4.856,11.196,4.856
		c4.575,0,8.369-1.592,11.383-4.776c3.014-3.184,4.521-7.355,4.521-12.515c0-5.052-1.508-9.145-4.521-12.275
		S328.438,502.261,323.828,502.261z"/>
	<path display="inline" fill="#8CC63F" d="M365.356,490.306h12.488v7.312c1.353-2.882,3.149-5.07,5.391-6.564
		c2.242-1.494,4.697-2.241,7.365-2.241c1.886,0,3.86,0.498,5.924,1.494l-4.536,12.542c-1.708-0.854-3.114-1.281-4.216-1.281
		c-2.242,0-4.137,1.388-5.685,4.163s-2.321,8.219-2.321,16.331l0.054,2.829v23.482h-14.464V490.306z"/>
</g>
<g display="none">
	<path display="inline" fill="#8CC63F" d="M462.452,523.555h-46.806c0.676,4.128,2.482,7.41,5.418,9.847
		c2.935,2.438,6.679,3.656,11.234,3.656c5.443,0,10.121-1.903,14.036-5.711l12.274,5.765c-3.06,4.341-6.725,7.552-10.994,9.633
		c-4.27,2.082-9.34,3.122-15.21,3.122c-9.108,0-16.527-2.873-22.256-8.619c-5.729-5.745-8.592-12.942-8.592-21.588
		c0-8.859,2.854-16.216,8.565-22.068s12.871-8.779,21.481-8.779c9.144,0,16.58,2.927,22.309,8.779s8.593,13.582,8.593,23.188
		L462.452,523.555z M447.883,512.08c-0.963-3.237-2.86-5.87-5.694-7.898s-6.121-3.042-9.863-3.042
		c-4.063,0-7.627,1.139-10.691,3.416c-1.925,1.423-3.707,3.932-5.347,7.524H447.883z"/>
</g>
</svg>
