<?xml version="1.0" encoding="utf-8"?>
<!-- Generator: Adobe Illustrator 16.0.3, SVG Export Plug-In . SVG Version: 6.00 Build 0)  -->
<!DOCTYPE svg PUBLIC "-//W3C//DTD SVG 1.1//EN" "http://www.w3.org/Graphics/SVG/1.1/DTD/svg11.dtd">
<svg version="1.1" id="Capa_1" xmlns="http://www.w3.org/2000/svg" xmlns:xlink="http://www.w3.org/1999/xlink" x="0px" y="0px"
	 width="272px" height="254px" viewBox="0 0 272 254" enable-background="new 0 0 272 254" xml:space="preserve">
<g>
	<path fill="#87B53D" d="M28.969,228.053H13.682l-2.841,7.023H0.409l15.958-36.152h10.071l16.01,36.152H31.81L28.969,228.053z
		 M25.974,220.512l-4.648-11.568l-4.647,11.568H25.974z"/>
	<path fill="#87B53D" d="M74.727,207.084v22.879c0,5.199-1.412,9.098-4.234,11.698c-2.824,2.599-6.887,3.899-12.188,3.899
		c-2.755,0-5.338-0.311-7.747-0.93c-2.41-0.62-4.459-1.533-6.146-2.737l3.564-6.869c1.136,0.93,2.573,1.661,4.313,2.194
		c1.737,0.534,3.451,0.801,5.139,0.801c2.582,0,4.475-0.568,5.681-1.703c1.205-1.137,1.808-2.824,1.808-5.063v-0.93
		c-1.894,2.205-4.666,3.306-8.315,3.306c-2.479,0-4.769-0.56-6.868-1.679c-2.101-1.118-3.771-2.702-5.01-4.751
		c-1.239-2.048-1.859-4.415-1.859-7.102c0-2.651,0.62-5.001,1.859-7.05c1.239-2.048,2.909-3.632,5.01-4.751
		c2.1-1.118,4.39-1.679,6.868-1.679c3.994,0,6.921,1.291,8.78,3.873v-3.408H74.727z M63.287,224.23
		c1.153-1.066,1.73-2.444,1.73-4.132c0-1.687-0.568-3.056-1.704-4.105c-1.137-1.05-2.601-1.575-4.391-1.575
		s-3.263,0.525-4.415,1.575c-1.154,1.05-1.73,2.419-1.73,4.105c0,1.688,0.585,3.065,1.756,4.132c1.17,1.068,2.634,1.602,4.39,1.602
		S62.133,225.299,63.287,224.23z"/>
	<path fill="#87B53D" d="M94.274,207.574c1.602-0.637,3.435-0.955,5.5-0.955v8.832c-0.896-0.104-1.636-0.155-2.221-0.155
		c-2.101,0-3.744,0.567-4.932,1.704c-1.188,1.137-1.782,2.875-1.782,5.217v12.859h-9.813v-27.992h9.348v3.357
		C91.373,209.168,92.674,208.213,94.274,207.574z"/>
	<path fill="#87B53D" d="M104.423,202.487c-1.103-0.998-1.653-2.237-1.653-3.718s0.551-2.721,1.653-3.719
		c1.102-0.998,2.547-1.498,4.338-1.498c1.79,0,3.236,0.474,4.339,1.42c1.101,0.947,1.652,2.162,1.652,3.642
		c0,1.55-0.552,2.833-1.652,3.848c-1.103,1.016-2.549,1.523-4.339,1.523C106.97,203.985,105.524,203.486,104.423,202.487z
		 M103.854,207.084h9.813v27.992h-9.813V207.084z"/>
</g>
<g>
	<path fill="#87B53D" d="M136.908,233.475c-0.723,0.62-1.618,1.094-2.686,1.421s-2.169,0.491-3.305,0.491
		c-2.755,0-4.89-0.74-6.404-2.222c-1.516-1.479-2.272-3.597-2.272-6.353v-15.029h-4.648v-4.08h4.648v-5.99h4.958v5.99h7.851v4.08
		h-7.851v14.823c0,1.48,0.369,2.616,1.11,3.408c0.74,0.792,1.799,1.188,3.176,1.188c1.516,0,2.807-0.431,3.874-1.291
		L136.908,233.475z"/>
	<path fill="#87B53D" d="M151.473,208.686c1.687-0.826,3.735-1.24,6.146-1.24v4.803c-0.276-0.033-0.654-0.051-1.137-0.051
		c-2.686,0-4.795,0.801-6.326,2.401c-1.532,1.601-2.298,3.882-2.298,6.843v13.635h-4.958v-27.373h4.751v4.598
		C148.511,210.717,149.785,209.512,151.473,208.686z"/>
	<path fill="#87B53D" d="M182.382,210.234c2.014,1.859,3.021,4.631,3.021,8.314v16.527h-4.699v-3.615
		c-0.826,1.274-2.006,2.246-3.538,2.918s-3.349,1.008-5.448,1.008c-3.065,0-5.519-0.74-7.359-2.222
		c-1.843-1.479-2.764-3.425-2.764-5.836c0-2.409,0.878-4.347,2.634-5.81c1.757-1.463,4.545-2.195,8.367-2.195h7.85v-0.981
		c0-2.134-0.619-3.771-1.858-4.906c-1.24-1.136-3.065-1.704-5.475-1.704c-1.619,0-3.202,0.268-4.752,0.801
		c-1.549,0.533-2.858,1.248-3.925,2.143l-2.065-3.719c1.411-1.136,3.099-2.005,5.061-2.607c1.963-0.602,4.046-0.904,6.249-0.904
		C177.466,207.445,180.367,208.375,182.382,210.234z M177.449,230.299c1.377-0.844,2.376-2.04,2.995-3.59v-3.821h-7.644
		c-4.2,0-6.301,1.412-6.301,4.235c0,1.377,0.534,2.462,1.602,3.254c1.066,0.792,2.548,1.188,4.441,1.188
		S176.072,231.143,177.449,230.299z"/>
	<path fill="#87B53D" d="M199.166,233.578c-2.187-1.205-3.899-2.866-5.139-4.983c-1.239-2.118-1.859-4.519-1.859-7.204
		s0.62-5.088,1.859-7.205s2.952-3.771,5.139-4.958c2.187-1.188,4.674-1.782,7.463-1.782c2.479,0,4.691,0.5,6.637,1.498
		c1.944,0.999,3.451,2.445,4.519,4.338l-3.77,2.428c-0.861-1.309-1.929-2.289-3.202-2.943c-1.274-0.654-2.686-0.982-4.235-0.982
		c-1.79,0-3.4,0.396-4.829,1.188s-2.548,1.92-3.356,3.383c-0.81,1.464-1.214,3.143-1.214,5.036c0,1.928,0.404,3.623,1.214,5.086
		c0.809,1.465,1.928,2.592,3.356,3.383c1.429,0.793,3.039,1.188,4.829,1.188c1.55,0,2.961-0.327,4.235-0.981
		c1.273-0.653,2.341-1.635,3.202-2.943l3.77,2.375c-1.067,1.895-2.574,3.35-4.519,4.364c-1.945,1.017-4.157,1.524-6.637,1.524
		C203.84,235.387,201.353,234.784,199.166,233.578z"/>
	<path fill="#87B53D" d="M248.41,223.043h-22.208c0.311,2.41,1.369,4.347,3.177,5.811c1.808,1.463,4.054,2.194,6.739,2.194
		c3.271,0,5.905-1.102,7.902-3.306l2.737,3.202c-1.24,1.446-2.781,2.548-4.623,3.306s-3.898,1.137-6.171,1.137
		c-2.893,0-5.458-0.595-7.695-1.782c-2.239-1.188-3.969-2.849-5.19-4.983c-1.223-2.135-1.834-4.545-1.834-7.23
		c0-2.651,0.594-5.045,1.782-7.18c1.188-2.135,2.822-3.796,4.906-4.983c2.083-1.188,4.433-1.782,7.05-1.782
		c2.616,0,4.949,0.594,6.998,1.782c2.048,1.188,3.648,2.849,4.803,4.983c1.153,2.135,1.73,4.58,1.73,7.334
		C248.514,221.924,248.479,222.423,248.41,223.043z M229.017,213.798c-1.601,1.446-2.539,3.341-2.814,5.681h17.56
		c-0.275-2.306-1.214-4.191-2.814-5.654s-3.59-2.195-5.965-2.195C232.606,211.629,230.618,212.352,229.017,213.798z"/>
	<path fill="#87B53D" d="M263.956,208.686c1.687-0.826,3.735-1.24,6.146-1.24v4.803c-0.276-0.033-0.654-0.051-1.137-0.051
		c-2.686,0-4.795,0.801-6.326,2.401c-1.532,1.601-2.298,3.882-2.298,6.843v13.635h-4.958v-27.373h4.751v4.598
		C260.994,210.717,262.269,209.512,263.956,208.686z"/>
</g>
<path fill="#274D73" d="M136.132,49.305c-35.106,0-63.567,28.461-63.567,63.568c0,34.952,28.207,63.311,63.1,63.561
	c0.156,0.002,0.312,0.002,0.468,0.002h46.586c9.379,0,16.983-7.602,16.983-16.979v-46.579v-0.006
	C199.701,77.766,171.24,49.305,136.132,49.305 M120.062,115.122c0-8.875,7.195-16.07,16.07-16.07s16.071,7.195,16.071,16.07
	c0,8.875-7.196,16.07-16.071,16.07S120.062,123.996,120.062,115.122"/>
<path fill="#84A146" d="M136.182,38.68c0,0-3.329-30.706,32.188-29.596h14.427c0,0,0.74,29.596-31.815,29.596H136.182z"/>
<path display="none" fill="#185379" d="M182.808,253.945H2.723c-1.504,0-2.723-1.219-2.723-2.725c0-1.504,1.219-2.723,2.723-2.723
	h180.085c1.505,0,2.725,1.219,2.725,2.723C185.532,252.727,184.313,253.945,182.808,253.945"/>
</svg>
