<?xml version="1.0" encoding="utf-8"?>
<!-- Generator: Adobe Illustrator 16.0.3, SVG Export Plug-In . SVG Version: 6.00 Build 0)  -->
<!DOCTYPE svg PUBLIC "-//W3C//DTD SVG 1.1//EN" "http://www.w3.org/Graphics/SVG/1.1/DTD/svg11.dtd">
<svg version="1.1" id="Capa_1" xmlns="http://www.w3.org/2000/svg" xmlns:xlink="http://www.w3.org/1999/xlink" x="0px" y="0px"
	 width="141px" height="197px" viewBox="0 0 141 197" enable-background="new 0 0 141 197" xml:space="preserve">
<path fill="#F6A426" d="M2.361,148.935c0-9.536,7.999-15.074,15.074-15.074c7.998,0,14.763,6.766,14.763,15.074
	c0,6.461-3.69,11.377-8.613,13.536c1.848,1.537,3.075,3.993,3.075,6.454c0,4.612-3.689,8.309-8.302,8.309h-3.69v-27.685h3.69v10.149
	c5.227-0.31,9.84-4.612,9.84-10.764c0-5.847-5.227-11.074-11.069-11.074c-9.845,0-14.149,11.074-8.923,18.149l-3.075,2.151
	C2.982,154.774,2.361,151.699,2.361,148.935 M22.972,168.62c0-2.461-2.152-4.612-4.613-4.612v9.227
	C20.82,173.233,22.972,171.082,22.972,168.62"/>
<path fill="#F6A426" d="M38.969,176.923c-4.613,0-8.31-3.999-8.31-8.302c0-4.613,3.697-8.31,8.31-8.31
	c4.612,0,8.302,3.696,8.302,8.31v0.613H34.045c0.311,2.461,2.461,4.305,4.613,4.305c1.538,0,2.772-0.614,3.69-1.538l3.081,1.848
	C44.196,175.695,41.735,176.923,38.969,176.923 M38.969,163.697c-1.849,0-3.696,1.228-4.31,3.075h8.923
	C42.348,164.925,40.81,163.697,38.969,163.697"/>
<path fill="#F6A426" d="M57.732,176.923c-4.613,0-8.31-3.999-8.31-8.302c0-4.613,3.697-8.31,8.31-8.31
	c4.612,0,8.302,3.696,8.302,8.31v0.613H52.808c0.311,2.461,2.461,4.305,4.613,4.305c1.538,0,2.772-0.614,3.697-1.538l3.075,1.848
	C62.959,175.695,60.498,176.923,57.732,176.923 M57.732,163.697c-1.849,0-3.689,1.228-4.31,3.075h8.923
	C61.421,164.925,59.883,163.697,57.732,163.697"/>
<path fill="#F6A426" d="M74.342,176.922h-3.695v-32.298c0-5.841,4.923-10.765,10.77-10.765c5.842,0,10.765,4.924,10.765,10.765
	v32.608h-3.689v-10.461H74.342V176.922z M88.492,145.859c0-5.847-3.386-8.31-7.074-8.31c-3.387,0-7.076,2.462-7.076,8.31v16.915
	h14.149L88.492,145.859L88.492,145.859z"/>
<path fill="#F6A426" d="M114.02,168.62c0,2.462-1.229,4.613-2.766,6.455c3.379,1.848,5.842,5.537,5.842,10.156
	c0,6.151-5.228,11.378-11.377,11.378c-3.696,0-7.076-1.848-9.233-4.613l2.461-2.151c1.537,2.151,3.696,3.379,6.461,3.379
	c4.31,0,7.998-3.379,7.998-7.992c0-4.309-3.688-7.998-7.998-7.998c-2.151,0-4,0.923-5.538,2.461l-2.764-2.461
	c0.923-0.924,1.841-1.538,2.764-2.157c-1.841-1.538-3.074-3.993-3.074-6.455c0-4.612,3.688-8.309,8.31-8.309
	c1.84,0,3.378,0.615,4.612,1.538l0.613-1.538h3.69l-1.843,4C113.715,165.235,114.02,166.772,114.02,168.62 M100.793,168.62
	c0,2.766,2.152,4.917,4.924,4.917c2.765,0,4.916-2.151,4.916-4.917c0-2.461-2.151-4.923-4.916-4.923
	C102.945,163.697,100.793,166.158,100.793,168.62"/>
<path fill="#F6A426" d="M126.328,160.008c1.536,0,2.765,0.305,3.992,1.228l-1.228,3.075c0,0-0.923-0.924-2.765-0.924
	c-3.386,0-4,3.387-4,5.233v8.303h-3.386v-16.61h3.386v0.923C123.246,160.622,124.479,160.008,126.328,160.008"/>
<path fill="#F6A426" d="M133.093,154.774c0-1.228,0.922-1.842,1.848-1.842c0.918,0,1.841,0.924,1.841,1.842
	c0,0.924-0.923,1.848-1.841,1.848C134.015,156.622,133.093,155.699,133.093,154.774 M133.396,160.313h3.387v16.921h-3.387V160.313z"
	/>
<path fill="#F49D1A" d="M116.795,36.992H101.32c-1.409-8.616-6.158-16.006-13.016-20.927L98.33,6.039
	c1.409-1.409,1.409-3.688,0-4.921c-1.41-1.409-3.695-1.409-4.921,0L81.975,12.554c-7.74-3.169-16.534-3.169-24.616,0.35L45.58,1.125
	c-1.409-1.41-3.695-1.41-4.927,0c-1.409,1.409-1.409,3.695,0,4.921l10.553,10.553c-6.502,4.921-10.902,12.134-12.305,20.394H23.422
	c-13.01,0-23.391,10.552-23.391,23.39c0,13.018,10.552,23.392,23.391,23.392h15.479c2.108,13.714,13.359,24.972,27.785,26.559
	v10.902c0,1.936,1.581,3.517,3.517,3.517c1.938,0,3.518-1.581,3.518-3.517v-10.902c13.187-1.581,25.32-11.079,27.785-26.559h15.479
	c13.01,0,23.391-10.546,23.391-23.392C140.185,47.538,129.81,36.986,116.795,36.992 M38.196,76.732H23.072
	c-8.965,0-16.349-7.385-16.349-16.351c0-8.971,7.384-16.354,16.349-16.354h15.124V76.732z M94.114,36.992H45.758
	C51.206,10.788,88.838,10.788,94.114,36.992 M53.669,97.304h32.705C77.061,105.57,62.99,105.741,53.669,97.304 M92.006,90.275
	H48.222c-1.054-1.938-1.759-4.051-2.286-6.33h24.095H94.12C93.766,86.053,92.883,88.16,92.006,90.275 M94.641,76.732H70.025H45.402
	v-6.33h49.411v6.33H94.641z M94.641,63.366H45.402v-5.981h49.411v5.981H94.641z M94.641,50.357H45.402v-6.33h49.411v6.33H94.641z
	 M116.795,76.903H101.67V44.021h15.125c8.971,0,16.354,7.384,16.354,16.355C133.155,69.52,125.772,76.903,116.795,76.903"/>
</svg>
