<?xml version="1.0" encoding="utf-8"?>
<!-- Generator: Adobe Illustrator 16.0.3, SVG Export Plug-In . SVG Version: 6.00 Build 0)  -->
<!DOCTYPE svg PUBLIC "-//W3C//DTD SVG 1.1//EN" "http://www.w3.org/Graphics/SVG/1.1/DTD/svg11.dtd">
<svg version="1.1" id="Capa_1" xmlns="http://www.w3.org/2000/svg" xmlns:xlink="http://www.w3.org/1999/xlink" x="0px" y="0px"
	 width="444px" height="108px" viewBox="0 0 444 108" enable-background="new 0 0 444 108" xml:space="preserve">
<path fill="#FFFFFF" d="M124.288,50.761c-3.258-0.8-5.909-1.452-9.669-2.375c9.705-10.646,18.919-20.752,28.132-30.859
	c0.484,0.125,0.969,0.25,1.452,0.375c-0.371,13.964-0.742,27.929-1.144,43.006c-3.408-2.139-5.935-3.727-8.714-5.471
	c-15.767,31.826-40.961,48.662-76.874,47.59c-21.6-0.643-46.194-13.963-56.521-30.393c24.356,23.098,51.551,30.436,82.46,18.658
	C102.613,83.977,115.999,70.18,124.288,50.761"/>
<path fill="#FFFFFF" d="M108.955,60.885c-1.055,1.305-2.305,2.455-3.628,3.51c-1.32,1.064-2.767,1.977-4.278,2.773
	c-3.007,1.645-6.387,2.625-9.842,3.037c-3.466,0.43-7.012,0.107-10.409-0.709c-3.408-0.807-6.656-2.158-9.712-3.801
	c-6.117-3.318-11.468-7.777-16.234-12.676l-1.781-1.847c-0.602-0.611-1.138-1.271-1.708-1.908c-1.115-1.29-2.263-2.558-3.3-3.907
	l-1.591-1.996c-0.535-0.664-1.065-1.33-1.555-2.022l-2.996-4.122l3.317,0.869c-3.393,1.678-6.795,3.34-10.202,4.988
	c-3.402,1.66-6.811,3.306-10.228,4.936c-3.412,1.641-6.829,3.27-10.254,4.881c-3.419,1.625-6.848,3.228-10.281,4.826l1.309-3.019
	c0.074,0.238,0.192,0.58,0.303,0.878c0.114,0.311,0.231,0.621,0.357,0.934c0.247,0.625,0.514,1.248,0.792,1.867
	c0.553,1.24,1.15,2.469,1.806,3.67c1.302,2.402,2.767,4.727,4.387,6.938c1.624,2.209,3.411,4.303,5.367,6.23
	c0.984,0.953,1.982,1.9,3.045,2.771l0.78,0.674l0.813,0.635c0.547,0.414,1.073,0.865,1.647,1.244
	c2.22,1.639,4.627,3.012,7.112,4.236c2.475,1.258,5.098,2.221,7.765,3.066c5.368,1.592,11.006,2.432,16.718,2.627
	c-5.678,0.617-11.498,0.434-17.204-0.697c-2.833-0.623-5.676-1.355-8.389-2.469c-2.713-1.1-5.379-2.377-7.873-3.949
	c-5.035-3.078-9.474-7.121-13.22-11.695c-1.885-2.285-3.566-4.73-5.066-7.289c-0.758-1.275-1.458-2.588-2.115-3.926
	c-0.33-0.67-0.637-1.352-0.935-2.043c-0.151-0.346-0.293-0.697-0.435-1.051c-0.144-0.367-0.271-0.695-0.422-1.133L0.125,54.2
	l1.999-1c3.381-1.692,6.767-3.376,10.161-5.04c3.389-1.676,6.785-3.335,10.189-4.982c3.396-1.657,6.801-3.299,10.213-4.927
	c3.407-1.639,6.819-3.265,10.24-4.875l2.034-0.957l1.283,1.826l2.837,4.035c0.462,0.683,0.954,1.339,1.452,1.99l1.484,1.964
	c0.965,1.331,2.033,2.568,3.069,3.835c0.528,0.624,1.018,1.287,1.571,1.885l1.634,1.823c1.065,1.243,2.232,2.374,3.374,3.535
	l0.852,0.875c0.293,0.281,0.596,0.55,0.893,0.827l1.793,1.646c0.59,0.563,1.241,1.035,1.86,1.561l0.94,0.768
	c0.31,0.262,0.628,0.512,0.96,0.738l1.966,1.41c0.322,0.246,0.664,0.455,1.006,0.664l1.024,0.635
	c2.736,1.672,5.604,3.16,8.658,4.105c0.763,0.232,1.536,0.42,2.307,0.635c0.776,0.184,1.564,0.299,2.349,0.453
	c0.788,0.113,1.583,0.184,2.38,0.279c0.797,0.014,1.6,0.074,2.401,0.051C97.457,67.805,103.937,65.324,108.955,60.885"/>
<path fill="#FFFFFF" d="M104.024,57.033c-3.037,0.756-6.191,0.994-9.328,0.943c-3.141-0.063-6.28-0.48-9.346-1.236
	c-6.138-1.502-11.925-4.455-16.888-8.428c-4.974-3.973-9.153-8.897-12.571-14.254c-3.439-5.357-6.157-11.141-8.383-17.08
	l2.305,0.959c-6.919,3.512-13.794,7.15-20.653,10.812c-6.858,3.665-13.704,7.368-20.524,11.094l-2.487-4.788
	c7.001-3.437,14.006-6.837,21.034-10.208c7.03-3.366,14.07-6.707,21.184-9.933l1.738-0.788l0.567,1.747
	c1.901,5.854,4.28,11.562,7.365,16.875c3.066,5.315,6.872,10.23,11.499,14.277c4.615,4.047,10.088,7.166,16.033,8.907
	c2.969,0.875,6.041,1.426,9.144,1.627C97.814,57.746,100.959,57.652,104.024,57.033"/>
<path fill="#FFFFFF" d="M98.948,47.964c-2.791-0.33-5.522-1.083-8.181-2.01c-2.659-0.936-5.237-2.108-7.717-3.468
	c-4.959-2.725-9.495-6.243-13.456-10.328c-3.969-4.085-7.341-8.742-10.16-13.704c-2.803-4.974-5.057-10.252-6.832-15.678l2.3,1.044
	L16.919,22.208l-2.232-4.913L53.513,0.77L55.319,0l0.494,1.813c1.451,5.321,3.372,10.519,5.839,15.457
	c2.483,4.924,5.517,9.591,9.173,13.751c3.65,4.158,7.903,7.818,12.646,10.741c2.373,1.458,4.859,2.743,7.446,3.801
	C93.504,46.611,96.179,47.496,98.948,47.964"/>
<path fill="#FFFFFF" d="M196.845,72.898h-5.863v16.125H169.36V24.893h30.875c17.865,0,29.226,9.344,29.226,24.187
	c0,9.255-4.398,16.218-12.093,20.155l13.468,19.789h-23.088L196.845,72.898z M198.861,41.566h-7.879v15.025h7.879
	c5.955,0,8.795-2.839,8.795-7.513C207.656,44.406,204.816,41.566,198.861,41.566"/>
<polygon fill="#FFFFFF" points="300.824,24.893 300.824,89.023 279.201,89.023 279.201,65.387 259.229,65.387 259.229,89.023 
	237.607,89.023 237.607,24.893 259.229,24.893 259.229,47.613 279.201,47.613 279.201,24.893 "/>
<path fill="#FFFFFF" d="M307.307,83.895l3.664-6.963c4.123,2.932,10.719,5.039,17.041,5.039c8.154,0,11.543-2.475,11.543-6.598
	c0-10.902-30.689-1.467-30.689-20.796c0-8.704,7.787-14.568,20.248-14.568c6.32,0,13.465,1.65,17.68,4.398l-3.756,6.963
	c-4.396-2.84-9.252-3.848-14.018-3.848c-7.695,0-11.451,2.84-11.451,6.688c0,11.451,30.783,2.107,30.783,20.98
	c0,8.795-8.063,14.385-20.98,14.385C319.309,89.574,311.338,87.102,307.307,83.895"/>
<path fill="#FFFFFF" d="M401.395,40.467l-23.547,53.414c-4.307,10.26-9.895,13.467-17.314,13.467c-4.674,0-9.438-1.557-12.459-4.49
	l3.754-6.598c2.383,2.291,5.406,3.574,8.705,3.574c4.215,0,6.869-1.924,9.252-7.512l1.559-3.389l-21.438-48.467h9.16l16.949,38.846
	l16.766-38.846H401.395z"/>
<path fill="#FFFFFF" d="M402.854,83.895l3.666-6.963c4.123,2.932,10.719,5.039,17.039,5.039c8.154,0,11.545-2.475,11.545-6.598
	c0-10.902-30.691-1.467-30.691-20.796c0-8.704,7.787-14.568,20.248-14.568c6.32,0,13.467,1.65,17.682,4.398l-3.758,6.963
	c-4.396-2.84-9.252-3.848-14.018-3.848c-7.695,0-11.451,2.84-11.451,6.688c0,11.451,30.783,2.107,30.783,20.98
	c0,8.795-8.063,14.385-20.98,14.385C414.855,89.574,406.885,87.102,402.854,83.895"/>
</svg>
