<?xml version="1.0" encoding="utf-8"?>
<!-- Generator: Adobe Illustrator 16.0.3, SVG Export Plug-In . SVG Version: 6.00 Build 0)  -->
<!DOCTYPE svg PUBLIC "-//W3C//DTD SVG 1.1//EN" "http://www.w3.org/Graphics/SVG/1.1/DTD/svg11.dtd">
<svg version="1.1" id="Capa_1" xmlns="http://www.w3.org/2000/svg" xmlns:xlink="http://www.w3.org/1999/xlink" x="0px" y="0px"
	 width="900px" height="900px" viewBox="0 0 900 900" enable-background="new 0 0 900 900" xml:space="preserve">
<g>
	<defs>
		<rect id="SVGID_1_" width="900" height="900"/>
	</defs>
	<clipPath id="SVGID_2_">
		<use xlink:href="#SVGID_1_"  overflow="visible"/>
	</clipPath>
	<g clip-path="url(#SVGID_2_)">
		<defs>
			<rect id="SVGID_3_" width="900" height="900"/>
		</defs>
		<clipPath id="SVGID_4_">
			<use xlink:href="#SVGID_3_"  overflow="visible"/>
		</clipPath>
		<path clip-path="url(#SVGID_4_)" fill="#1C9FE0" d="M256.514,443.571c-6.534-1.605-11.849-2.909-19.386-4.762
			c19.456-21.342,37.928-41.604,56.401-61.866l2.91,0.751c-0.744,27.997-1.488,55.995-2.292,86.223
			c-6.833-4.291-11.901-7.473-17.472-10.972c-31.611,63.809-82.12,97.562-154.123,95.414
			c-43.301-1.293-92.608-27.998-113.313-60.936c48.829,46.309,103.353,61.018,165.318,37.409
			C213.059,510.165,239.896,482.504,256.514,443.571"/>
		<g opacity="0.5" clip-path="url(#SVGID_4_)">
			<g>
				<defs>
					<rect id="SVGID_5_" x="7.584" y="406.8" width="218.188" height="117.08"/>
				</defs>
				<clipPath id="SVGID_6_">
					<use xlink:href="#SVGID_5_"  overflow="visible"/>
				</clipPath>
				<path clip-path="url(#SVGID_6_)" fill="#1C9FE0" d="M225.771,463.866c-2.114,2.62-4.619,4.925-7.272,7.04
					c-2.648,2.134-5.547,3.96-8.576,5.56c-6.029,3.298-12.808,5.263-19.733,6.09c-6.947,0.857-14.056,0.212-20.868-1.421
					c-6.834-1.619-13.343-4.329-19.471-7.621c-12.265-6.654-22.992-15.592-32.544-25.414l-3.574-3.705
					c-1.207-1.223-2.281-2.548-3.424-3.824c-2.235-2.586-4.538-5.129-6.614-7.833l-3.191-4.002c-1.07-1.331-2.136-2.665-3.118-4.053
					l-6.005-8.264l6.649,1.742c-6.802,3.364-13.62,6.697-20.453,10c-6.821,3.328-13.656,6.627-20.506,9.895
					c-6.839,3.291-13.689,6.557-20.556,9.787c-6.856,3.256-13.731,6.474-20.612,9.672l2.623-6.049
					c0.148,0.476,0.386,1.161,0.606,1.761c0.232,0.622,0.465,1.245,0.719,1.871c0.496,1.251,1.029,2.5,1.587,3.741
					c1.11,2.488,2.306,4.952,3.62,7.356c2.608,4.821,5.548,9.479,8.796,13.912c3.256,4.43,6.837,8.628,10.759,12.49
					c1.974,1.912,3.975,3.811,6.105,5.557l1.563,1.354l1.631,1.271c1.097,0.832,2.149,1.736,3.299,2.496
					c4.452,3.283,9.278,6.037,14.261,8.49c4.962,2.525,10.219,4.453,15.567,6.147c10.761,3.193,22.064,4.874,33.515,5.268
					c-11.382,1.237-23.051,0.869-34.489-1.397c-5.68-1.25-11.38-2.716-16.819-4.951c-5.439-2.202-10.783-4.764-15.784-7.917
					c-10.095-6.172-18.994-14.277-26.503-23.448c-3.779-4.577-7.149-9.482-10.158-14.612c-1.521-2.555-2.922-5.185-4.24-7.871
					c-0.66-1.341-1.278-2.707-1.874-4.096c-0.303-0.69-0.588-1.397-0.872-2.107c-0.289-0.736-0.543-1.39-0.846-2.271l-1.385-4.044
					l4.009-2.006c6.778-3.391,13.565-6.766,20.37-10.101c6.794-3.36,13.605-6.687,20.426-9.987
					c6.812-3.324,13.638-6.615,20.478-9.878c6.829-3.287,13.671-6.547,20.529-9.773l4.077-1.919l2.575,3.66l5.688,8.092
					c0.926,1.367,1.911,2.683,2.911,3.988l2.974,3.937c1.937,2.668,4.076,5.149,6.154,7.69c1.059,1.25,2.042,2.577,3.15,3.777
					l3.276,3.655c2.136,2.494,4.475,4.759,6.764,7.088l1.71,1.753c0.586,0.565,1.193,1.103,1.79,1.657l3.593,3.304
					c1.183,1.125,2.489,2.076,3.73,3.125l1.884,1.541c0.623,0.525,1.258,1.025,1.925,1.479l3.941,2.829
					c0.648,0.491,1.332,0.914,2.018,1.331l2.053,1.273c5.485,3.35,11.237,6.332,17.358,8.229c1.529,0.465,3.081,0.842,4.625,1.272
					c1.557,0.365,3.136,0.597,4.71,0.91c1.581,0.229,3.175,0.366,4.771,0.561c1.597,0.024,3.207,0.146,4.814,0.103
					C202.722,477.74,215.712,472.77,225.771,463.866"/>
			</g>
		</g>
		<g opacity="0.7" clip-path="url(#SVGID_4_)">
			<g>
				<defs>
					<rect id="SVGID_7_" x="19.664" y="370.122" width="196.224" height="87.931"/>
				</defs>
				<clipPath id="SVGID_8_">
					<use xlink:href="#SVGID_7_"  overflow="visible"/>
				</clipPath>
				<path clip-path="url(#SVGID_8_)" fill="#1C9FE0" d="M215.888,456.148c-6.089,1.514-12.412,1.991-18.702,1.891
					c-6.296-0.127-12.591-0.964-18.738-2.478c-12.305-3.014-23.906-8.932-33.854-16.898c-9.976-7.967-18.353-17.838-25.204-28.578
					c-6.896-10.74-12.345-22.337-16.809-34.243l4.623,1.924c-13.874,7.039-27.655,14.333-41.408,21.674
					c-13.748,7.349-27.474,14.772-41.145,22.242l-4.987-9.6c14.035-6.889,28.079-13.707,42.17-20.463
					c14.093-6.75,28.207-13.447,42.47-19.917l3.483-1.581l1.137,3.505c3.81,11.734,8.579,23.179,14.765,33.831
					c6.146,10.655,13.777,20.508,23.055,28.623c9.251,8.112,20.221,14.366,32.143,17.857c5.951,1.753,12.111,2.856,18.333,3.261
					C203.438,457.576,209.743,457.387,215.888,456.148"/>
			</g>
		</g>
		<path clip-path="url(#SVGID_4_)" fill="#1C9FE0" d="M205.71,437.964c-5.596-0.662-11.07-2.172-16.4-4.028
			c-5.332-1.878-10.501-4.228-15.473-6.955c-9.944-5.463-19.035-12.516-26.979-20.705c-7.955-8.19-14.717-17.527-20.368-27.474
			c-5.619-9.973-10.14-20.553-13.697-31.432l4.612,2.093l-76.152,36.864l-4.473-9.849l77.839-33.134l3.62-1.54l0.99,3.633
			c2.913,10.67,6.762,21.09,11.707,30.99c4.979,9.874,11.061,19.23,18.39,27.57c7.319,8.336,15.845,15.674,25.354,21.532
			c4.756,2.924,9.74,5.5,14.928,7.622C194.795,435.253,200.16,437.026,205.71,437.964"/>
		<path clip-path="url(#SVGID_4_)" fill="#1C9FE0" d="M401.979,487.957h-11.756v32.326h-43.348V391.709h61.901
			c35.816,0,58.593,18.733,58.593,48.491c0,18.552-8.817,32.512-24.246,40.406l27,39.677h-46.287L401.979,487.957z M406.02,425.137
			h-15.796v30.125h15.796c11.938,0,17.632-5.694,17.632-15.062C423.652,430.832,417.958,425.137,406.02,425.137"/>
		<polygon clip-path="url(#SVGID_4_)" fill="#1C9FE0" points="610.439,391.708 610.439,520.283 567.091,520.283 567.091,472.894 
			527.05,472.894 527.05,520.283 483.702,520.283 483.702,391.708 527.05,391.708 527.05,437.261 567.091,437.261 567.091,391.708 
					"/>
		<path clip-path="url(#SVGID_4_)" fill="#B4B4B4" d="M623.437,509.998l7.349-13.961c8.266,5.879,21.489,10.104,34.162,10.104
			c16.348,0,23.142-4.96,23.142-13.227c0-21.859-61.529-2.94-61.529-41.695c0-17.449,15.613-29.204,40.594-29.204
			c12.674,0,27,3.307,35.449,8.815l-7.532,13.96c-8.814-5.692-18.55-7.714-28.101-7.714c-15.431,0-22.96,5.695-22.96,13.408
			c0,22.958,61.715,4.225,61.715,42.063c0,17.631-16.163,28.836-42.063,28.836C647.498,521.385,631.519,516.426,623.437,509.998"/>
		<path clip-path="url(#SVGID_4_)" fill="#B4B4B4" d="M812.066,422.932l-47.205,107.086c-8.633,20.572-19.839,27-34.717,27
			c-9.366,0-18.918-3.122-24.979-9.001l7.528-13.225c4.778,4.592,10.841,7.163,17.45,7.163c8.451,0,13.777-3.856,18.552-15.063
			l3.124-6.791l-42.982-97.169h18.369l33.979,77.881l33.613-77.881H812.066z"/>
		<path clip-path="url(#SVGID_4_)" fill="#B4B4B4" d="M814.994,509.998l7.347-13.961c8.268,5.879,21.49,10.104,34.164,10.104
			c16.348,0,23.143-4.96,23.143-13.227c0-21.859-61.531-2.94-61.531-41.695c0-17.449,15.613-29.204,40.594-29.204
			c12.674,0,27,3.307,35.45,8.815l-7.531,13.96c-8.817-5.692-18.551-7.714-28.103-7.714c-15.429,0-22.96,5.695-22.96,13.408
			c0,22.958,61.716,4.225,61.716,42.063c0,17.631-16.163,28.836-42.063,28.836C839.056,521.385,823.077,516.426,814.994,509.998"/>
	</g>
</g>
</svg>
