<?xml version="1.0" encoding="utf-8"?>
<!-- Generator: Adobe Illustrator 16.0.3, SVG Export Plug-In . SVG Version: 6.00 Build 0)  -->
<!DOCTYPE svg PUBLIC "-//W3C//DTD SVG 1.1//EN" "http://www.w3.org/Graphics/SVG/1.1/DTD/svg11.dtd">
<svg version="1.1" id="Capa_1" xmlns="http://www.w3.org/2000/svg" xmlns:xlink="http://www.w3.org/1999/xlink" x="0px" y="0px"
	 width="171.35px" height="177.031px" viewBox="0 0 171.35 177.031" enable-background="new 0 0 171.35 177.031"
	 xml:space="preserve">
<path fill="#FCB712" d="M135.189,36.123c0.697-0.001,0.56-0.021,6.041-3.187c0.937-0.539,1.258-1.736,0.717-2.672
	c-0.541-0.935-1.735-1.257-2.674-0.716l-5.063,2.923C132.478,33.471,133.202,36.123,135.189,36.123z"/>
<path fill="#FCB712" d="M123.316,48.474c0.92,1.589,3.313,1.149,3.629-0.661c1.002-5.752-2.366-11.521-7.817-13.495
	c-1.711-0.622-3.267,1.243-2.354,2.82C118.941,40.894,121.115,44.664,123.316,48.474z"/>
<path fill="#FCB712" d="M143.665,51.432l-4.607-1.235c-1.043-0.279-2.115,0.34-2.396,1.384c-0.279,1.043,0.34,2.116,1.383,2.396
	c5.039,1.349,4.762,1.302,5.115,1.302c0.862,0,1.655-0.578,1.889-1.452C145.329,52.784,144.708,51.712,143.665,51.432z"/>
<path fill="#FCB712" d="M72.492,100.927c-0.541-0.937-1.738-1.257-2.677-0.717c-5.031,2.904-5.222,3.017-11.934,6.892
	c-0.937,0.539-1.259,1.737-0.716,2.674l9.301,16.108c1.191,2.062,3.336,3.185,5.519,3.185c2.118,0,2.929-0.719,7.464-3.334
	c3.037-1.754,4.081-5.652,2.327-8.688L72.492,100.927z"/>
<path fill="#FCB712" d="M122.363,22.772c0.89-0.001,1.705-0.595,1.947-1.498l1.275-4.753c0.289-1.077-0.351-2.185-1.428-2.473
	c-1.076-0.288-2.185,0.35-2.474,1.427l-1.272,4.754C120.068,21.51,121.032,22.772,122.363,22.772z"/>
<path fill="#FCB712" d="M103.087,21.26c-3.086-5.344-10.738-5.482-14.021-0.274c-8.667,13.739-19.955,25.52-33.295,34.77
	c-0.836,0.578-1.084,1.702-0.578,2.582l12.79,22.152c0.538,0.928,0.288,2.151-0.626,2.714c-0.942,0.582-2.172,0.265-2.722-0.688
	L51.936,60.523c-0.54-0.936-1.736-1.255-2.672-0.716l-16.162,9.331c-5.142,2.967-6.91,9.567-3.942,14.707l9.911,17.166
	c2.96,5.132,9.549,6.917,14.708,3.942l19.507-11.264c15.167-7.749,32.192-12.426,50.175-13.126c6.164-0.24,9.858-6.947,6.771-12.28
	L103.087,21.26z"/>
<polygon fill="#6DC34A" points="273.086,94.902 278.778,76.547 282.647,76.547 288.339,94.902 294.761,76.547 299.396,76.547 
	290.491,102.053 286.223,102.053 280.858,84.574 280.566,84.574 275.202,102.053 270.934,102.053 262.029,76.547 266.664,76.547 "/>
<path fill="#6DC34A" d="M314.757,99.152c-1.946,1.936-4.379,2.9-7.298,2.9s-5.354-0.967-7.297-2.9
	c-1.948-1.935-2.92-4.301-2.92-7.098s0.972-5.164,2.92-7.097c1.943-1.935,4.378-2.901,7.297-2.901s5.352,0.967,7.298,2.901
	c1.946,1.933,2.919,4.3,2.919,7.097S316.703,97.218,314.757,99.152 M303.061,96.634c1.155,1.181,2.621,1.771,4.397,1.771
	s3.242-0.59,4.396-1.771c1.155-1.179,1.733-2.706,1.733-4.579s-0.578-3.4-1.733-4.58c-1.152-1.179-2.618-1.769-4.396-1.769
	s-3.242,0.59-4.397,1.769c-1.152,1.18-1.73,2.707-1.73,4.58S301.907,95.457,303.061,96.634"/>
<path fill="#6DC34A" d="M332.49,86.472c-2.021,0-3.539,0.657-4.563,1.971c-1.021,1.313-1.532,3.079-1.532,5.292v8.318h-4.087V82.642
	h4.087v3.903c0.657-1.217,1.553-2.214,2.684-2.992c1.133-0.778,2.329-1.181,3.596-1.204l0.036,4.123H332.49z"/>
<polygon fill="#6DC34A" points="340.882,102.053 336.796,102.053 336.796,74.978 340.882,74.978 340.882,90.887 348.764,82.642 
	354.019,82.642 346.65,90.34 354.569,102.053 349.604,102.053 343.838,93.551 340.882,96.544 "/>
<path fill="#6DC34A" d="M362.194,96.251l-2.557,5.802h-4.598l11.238-25.507h4.598l11.239,25.507h-4.599l-2.556-5.802H362.194z
	 M373.212,92.273l-4.635-10.509l-4.634,10.509H373.212z"/>
<path fill="#6DC34A" d="M405.761,78.774c1.774,1.484,2.663,3.771,2.663,6.86c0,3.089-0.905,5.353-2.718,6.787
	c-1.813,1.437-4.592,2.151-8.339,2.151h-4.524v7.479h-4.306V76.547h8.758C401.162,76.548,403.985,77.292,405.761,78.774
	 M402.713,89.301c0.863-0.912,1.296-2.25,1.296-4.014c0-1.764-0.548-3.012-1.642-3.74c-1.095-0.73-2.811-1.096-5.146-1.096h-4.379
	v10.218h5C400.227,90.67,401.851,90.213,402.713,89.301"/>
<path fill="#6DC34A" d="M430.72,78.774c1.774,1.484,2.663,3.771,2.663,6.86c0,3.089-0.906,5.353-2.719,6.787
	c-1.813,1.437-4.592,2.151-8.338,2.151h-4.524v7.479h-4.306V76.547h8.758C426.121,76.548,428.944,77.292,430.72,78.774
	 M427.672,89.301c0.863-0.912,1.295-2.25,1.295-4.014c0-1.764-0.547-3.012-1.642-3.74c-1.095-0.73-2.811-1.096-5.146-1.096H417.8
	v10.218h4.999C425.186,90.67,426.81,90.213,427.672,89.301"/>
<path fill="none" enable-background="new    " d="z"/>
<path fill="none" enable-background="new    " d="z"/>
<g>
	<g>
		<g>
			<g>
				<path fill="#06365F" d="M38.814,162.619H33.34l-3.462-12.803l-3.495,12.803H20.94l-5.906-20.721h5.227l3.618,13.05l3.556-13.05
					h4.855l3.557,13.05l3.618-13.05h5.257L38.814,162.619z"/>
			</g>
		</g>
		<g>
			<g>
				<path fill="#06365F" d="M60.629,151.393c0.505,1.133,0.758,2.289,0.758,3.463c0,3.934-2.361,6.509-5.258,7.607
					c-1.031,0.393-2.113,0.588-3.247,0.588c-2.335,0-4.045-0.699-5.613-1.888c-1.678-1.271-2.983-3.576-2.983-6.308
					c0-2.588,1.098-4.58,2.52-5.893c1.417-1.305,3.51-2.271,6.077-2.271C56.554,146.693,59.428,148.697,60.629,151.393z
					 M52.883,158.876c2.117,0,3.742-1.802,3.742-4.021c0-2.16-1.654-4.021-3.742-4.021c-2.217,0-3.834,1.772-3.834,4.021
					C49.049,157.135,50.71,158.876,52.883,158.876z"/>
			</g>
		</g>
		<g>
			<g>
				<path fill="#06365F" d="M74.249,146.877c0.412,0,0.784,0.042,1.112,0.125l-0.216,4.947h-0.896c-3.567,0-5.351,1.938-5.351,5.813
					v4.856h-4.947v-15.525H68.9v2.97C69.957,148.352,71.631,146.877,74.249,146.877z"/>
			</g>
		</g>
		<g>
			<g>
				<path fill="#06365F" d="M88.906,162.619l-4.143-5.289l-2.35,2.66v2.629h-4.948v-22.268h4.948v12.959l5.597-6.218h5.783
					l-5.722,6.495l6.929,9.03L88.906,162.619L88.906,162.619z"/>
			</g>
		</g>
		<g>
			<g>
				<path fill="#06365F" d="M112.005,162.619l-1.453-3.773h-8.721l-1.453,3.773h-5.476l8.658-20.721h5.229l8.657,20.721H112.005z
					 M106.193,147.65l-2.631,6.804h5.289L106.193,147.65z"/>
			</g>
		</g>
		<g>
			<g>
				<path fill="#06365F" d="M129.228,156.279h-4.885v6.34h-5.104v-20.721h10.205c3.593,0,6.05,1.67,7.082,4.252
					c0.351,0.877,0.525,1.841,0.525,2.892C137.052,153.535,133.8,156.279,129.228,156.279z M128.859,146.259h-4.516v5.752h4.516
					c1.847,0,3.185-1.106,3.185-2.905C132.042,147.357,130.669,146.259,128.859,146.259z"/>
			</g>
		</g>
		<g>
			<g>
				<path fill="#06365F" d="M149.761,156.279h-4.887v6.34h-5.103v-20.721h10.203c3.592,0,6.049,1.67,7.084,4.252
					c0.351,0.877,0.525,1.841,0.525,2.892C157.585,153.535,154.333,156.279,149.761,156.279z M149.39,146.259h-4.516v5.752h4.516
					c1.846,0,3.185-1.106,3.185-2.905C152.573,147.357,151.2,146.259,149.39,146.259z"/>
			</g>
		</g>
	</g>
</g>
<image overflow="visible" width="800" height="600" xlink:href="EE4B4A76.png"  transform="matrix(1.0002 0 0 1.0002 508.5305 -136.4331)">
</image>
<path fill="none" enable-background="new    " d="z"/>
<path fill="none" enable-background="new    " d="z"/>
</svg>
